<svg xmlns="http://www.w3.org/2000/svg" xmlns:xlink="http://www.w3.org/1999/xlink" id="data-sharing-management" viewBox="155.67 158.1 2038.67 1433.82"><defs><linearGradient id="o" x1="1391.528" x2="1353.996" y1="1390.804" y2="1462.804" gradientUnits="userSpaceOnUse"><stop offset=".007" stop-color="#3fa5d8"/><stop offset="1" stop-color="#3fa5d8"/></linearGradient><linearGradient id="p" x1="1095.586" x2="1066.097" y1="1449.317" y2="1371.572" gradientTransform="rotate(4.557 754.964 1203.454)" gradientUnits="userSpaceOnUse"><stop offset=".007" stop-color="#0074c2"/><stop offset="1" stop-color="#048acc"/></linearGradient><linearGradient id="c" x1="1067.63" x2="874.013" y1="1544.023" y2="1544.023" gradientUnits="userSpaceOnUse"><stop offset=".007" stop-color="#0074c2"/><stop offset="1" stop-color="#048acc"/></linearGradient><linearGradient id="a" x1="1405.417" x2="1523.922" y1="1545.111" y2="1545.111" gradientUnits="userSpaceOnUse"><stop offset=".007" stop-color="#3fa5d8"/><stop offset="1" stop-color="#52aedc"/></linearGradient><linearGradient id="q" x1="1405.417" x2="1523.922" y1="1518.295" y2="1518.295" xlink:href="#a"/><linearGradient id="b" x1="1067.63" x2="874.013" y1="1545.092" y2="1545.092" gradientUnits="userSpaceOnUse"><stop offset=".007" stop-color="#0074c2"/><stop offset="1" stop-color="#048acc"/></linearGradient><linearGradient id="r" x1="1067.63" x2="874.013" y1="1463.419" y2="1463.419" xlink:href="#b"/><linearGradient id="s" x1="1067.63" x2="874.013" y1="1505.135" y2="1505.135" xlink:href="#c"/><linearGradient id="k" x1="2190.993" x2="2351.325" y1="750.274" y2="707.607" gradientTransform="translate(-1487.645)" gradientUnits="userSpaceOnUse"><stop offset="0" stop-color="#eb3100"/><stop offset="1" stop-color="#ef6035"/></linearGradient><linearGradient id="t" x1="1232.487" x2="1232.487" y1="1167.093" y2="937.834" gradientUnits="userSpaceOnUse"><stop offset="0" stop-color="#f4b519"/><stop offset="1" stop-color="#ee8e0c"/></linearGradient><linearGradient id="d" x1="1440.954" x2="1322.463" y1="1007.464" y2="1007.464" gradientUnits="userSpaceOnUse"><stop offset="0" stop-color="#bf0000" stop-opacity=".8"/><stop offset="1" stop-color="#bf0000" stop-opacity=".5"/></linearGradient><linearGradient id="e" x1="1073.355" x2="1073.355" y1="1025.045" y2="927.115" gradientUnits="userSpaceOnUse"><stop offset="0" stop-color="#000002" stop-opacity=".9"/><stop offset="1" stop-color="#08080a" stop-opacity="0"/></linearGradient><linearGradient id="f" x1="1160.187" x2="1160.187" y1="934.662" y2="865.291" gradientUnits="userSpaceOnUse"><stop offset="0" stop-color="#002760" stop-opacity=".4"/><stop offset="1" stop-color="#002760" stop-opacity=".1"/></linearGradient><linearGradient id="u" y1="886.998" y2="886.998" xlink:href="#d"/><linearGradient id="v" x1="1073.355" x2="1073.355" y1="904.58" y2="806.649" xlink:href="#e"/><linearGradient id="w" y1="814.197" y2="744.826" xlink:href="#f"/><linearGradient id="x" y1="766.533" y2="766.533" xlink:href="#d"/><linearGradient id="y" y1="784.114" y2="686.184" xlink:href="#e"/><linearGradient id="z" x1="1160.187" x2="1160.187" y1="693.731" y2="624.36" xlink:href="#f"/><linearGradient id="A" y1="646.067" y2="646.067" xlink:href="#d"/><linearGradient id="B" y1="663.649" y2="565.718" xlink:href="#e"/><linearGradient id="C" x1="1439.166" x2="1011.68" y1="550.32" y2="550.32" xlink:href="#f"/><linearGradient id="l" x1="1280.248" x2="1280.248" y1="1170.54" y2="886.097" gradientUnits="userSpaceOnUse"><stop offset="0" stop-color="#f4b519"/><stop offset="1" stop-color="#ee8e0c"/></linearGradient><linearGradient id="g" x1="1424.326" x2="1424.326" y1="753.214" y2="913.782" gradientUnits="userSpaceOnUse"><stop offset="0" stop-color="#fff"/><stop offset="1" stop-color="#fff" stop-opacity="0"/></linearGradient><linearGradient id="D" x1="1503.512" x2="1503.512" y1="778.774" y2="1042.129" xlink:href="#g"/><linearGradient id="E" x1="1387.898" x2="1338.883" y1="896.271" y2="1208.107" xlink:href="#g"/><linearGradient id="F" x1="1234.962" x2="1234.962" y1="1256.327" y2="1083.85" gradientUnits="userSpaceOnUse"><stop offset="0" stop-color="#000f1f" stop-opacity=".9"/><stop offset="1" stop-color="#000f1f" stop-opacity=".1"/></linearGradient><linearGradient id="h" x1="631.574" x2="631.574" y1="512.965" y2="677.485" gradientUnits="userSpaceOnUse"><stop offset="0" stop-color="#14b6c8"/><stop offset="1" stop-color="#008ca9"/></linearGradient><linearGradient id="G" x1="714.18" x2="806.207" y1="540.976" y2="621.444" xlink:href="#g"/><linearGradient id="H" x1="617.914" x2="745.059" y1="459.476" y2="558.169" xlink:href="#g"/><linearGradient id="i" x1="457.545" x2="828.094" y1="660.537" y2="660.537" gradientUnits="userSpaceOnUse"><stop offset="0" stop-color="#006e94" stop-opacity=".25"/><stop offset="1" stop-color="#006e94" stop-opacity=".9"/></linearGradient><linearGradient id="I" x1="1868.839" x2="1868.839" y1="644.327" y2="831.986" xlink:href="#h"/><linearGradient id="J" x1="1730.183" x2="1981.835" y1="731.174" y2="731.174" gradientUnits="userSpaceOnUse"><stop offset="0" stop-color="#bdeaef"/><stop offset="1" stop-color="#a6d8e2"/></linearGradient><linearGradient id="K" x1="1951.445" x2="2043.472" y1="674.564" y2="755.032" xlink:href="#g"/><linearGradient id="L" x1="1855.179" x2="1982.324" y1="593.064" y2="691.757" xlink:href="#g"/><linearGradient id="M" x1="1709.346" x2="2012.32" y1="803.899" y2="803.899" xlink:href="#i"/><linearGradient id="N" x1="1947.061" x2="1825.637" y1="851.407" y2="729.983" gradientUnits="userSpaceOnUse"><stop offset=".004" stop-color="#0ea8be" stop-opacity=".25"/><stop offset="1" stop-color="#0ea8be" stop-opacity=".1"/></linearGradient><linearGradient id="O" x1="1940.066" x2="2027.318" y1="692.874" y2="765.697" xlink:href="#g"/><linearGradient id="P" x1="1867.488" x2="1965.731" y1="622.661" y2="706.133" xlink:href="#g"/><linearGradient id="j" x1="1377.278" x2="743.64" y1="135.259" y2="393.194" gradientUnits="userSpaceOnUse"><stop offset="0" stop-color="#000427"/><stop offset="1" stop-color="#001f3e"/></linearGradient><linearGradient id="Q" x1="1836.542" x2="1761.478" y1="625.87" y2="451.997" xlink:href="#j"/><linearGradient id="R" x1="1833.906" x2="1758.843" y1="627.007" y2="453.135" xlink:href="#j"/><linearGradient id="S" x1="1809.566" x2="1306.332" y1="594.17" y2="182.851" xlink:href="#j"/><linearGradient id="T" x1="790.458" x2="890.799" y1="470.136" y2="324.987" xlink:href="#j"/><linearGradient id="U" x1="804.622" x2="904.962" y1="479.927" y2="334.778" xlink:href="#j"/><linearGradient id="V" x1="804.618" x2="825.299" y1="1031.613" y2="892.592" xlink:href="#j"/><linearGradient id="W" x1="809.794" x2="830.475" y1="1032.383" y2="893.362" xlink:href="#j"/><linearGradient id="X" x1="2258.403" x2="2418.736" y1="778.326" y2="722.992" xlink:href="#k"/><linearGradient id="m" x1="1972.416" x2="1966.671" y1="983.933" y2="941.709" gradientUnits="userSpaceOnUse"><stop offset="0" stop-color="#f0980c"/><stop offset="1" stop-color="#f0980c" stop-opacity="0"/></linearGradient><linearGradient id="Y" x1="1915.802" x2="1924.132" y1="946.633" y2="1017.58" xlink:href="#l"/><linearGradient id="Z" x1="2414.166" x2="2394.166" y1="1147.245" y2="1108.245" gradientTransform="translate(-366.992)" xlink:href="#k"/><linearGradient id="aa" x1="2009.092" x2="2009.092" y1="1404.412" y2="1335.879" xlink:href="#j"/><linearGradient id="ab" x1="16773.15" x2="16773.15" y1="2568.997" y2="2970.058" gradientTransform="scale(-1 1) rotate(-13.935 1006.194 78841.768)" gradientUnits="userSpaceOnUse"><stop offset="0" stop-color="#f8b37f"/><stop offset="1" stop-color="#eb8744"/></linearGradient><linearGradient id="ac" x1="2372.726" x2="2322.059" y1="1163.383" y2="1115.383" gradientTransform="translate(-366.992)" xlink:href="#k"/><linearGradient id="ad" x1="2083.098" x2="2043.46" y1="1235.797" y2="1100.797" xlink:href="#j"/><linearGradient id="ae" x1="9413.508" x2="9299.841" y1="1125.406" y2="1151.739" gradientTransform="matrix(-1 0 0 1 11069.734 0)" xlink:href="#k"/><linearGradient id="af" x1="1764.69" x2="1729.2" y1="1376.66" y2="1308.49" xlink:href="#j"/><linearGradient id="ag" x1="1756.409" x2="1720.92" y1="1380.971" y2="1312.801" xlink:href="#j"/><linearGradient id="ah" x1="9462.257" x2="9283.756" y1="1153.797" y2="1174.297" gradientTransform="matrix(-1 0 0 1 11069.734 0)" xlink:href="#k"/><linearGradient id="ai" x1="1795.643" x2="1799.728" y1="1043.106" y2="999.064" xlink:href="#m"/><linearGradient id="aj" x1="1748.381" x2="1744.742" y1="995.946" y2="1061.627" xlink:href="#l"/><linearGradient id="ak" x1="1835.155" x2="1827.751" y1="963.258" y2="931.599" xlink:href="#m"/><linearGradient id="al" x1="1789.111" x2="1796.771" y1="938.47" y2="986.343" xlink:href="#l"/><linearGradient id="am" x1="1918.591" x2="1923.666" y1="918.812" y2="894.397" xlink:href="#m"/><linearGradient id="an" x1="1894.47" x2="1889.491" y1="889.042" y2="925.138" xlink:href="#l"/><linearGradient id="ao" x1="1849.879" x2="1842.858" y1="898.844" y2="882.057" xlink:href="#m"/><linearGradient id="ap" x1="1822.201" x2="1831.201" y1="889.533" y2="914.618" xlink:href="#l"/><linearGradient id="aq" x1="1896.703" x2="1906.158" y1="866.106" y2="850.476" xlink:href="#m"/><linearGradient id="ar" x1="1887.823" x2="1876.078" y1="840.258" y2="862.534" xlink:href="#l"/><linearGradient id="n" x1="4222.232" x2="4222.232" y1="2617.686" y2="2463.63" gradientTransform="scale(-1 1) rotate(-23.46 -1594.657 13168.29)" gradientUnits="userSpaceOnUse"><stop offset="0" stop-color="#f4aa74"/><stop offset=".427" stop-color="#f4b385"/><stop offset="1" stop-color="#f4be9a"/></linearGradient><linearGradient id="as" x1="9238.081" x2="9140.722" y1="1806.71" y2="1799.578" gradientTransform="scale(-1 1) rotate(-9.695 552.36 58150.205)" xlink:href="#k"/><linearGradient id="at" x1="1320.19" x2="1139.232" y1="1420.831" y2="1405.894" xlink:href="#j"/><linearGradient id="au" x1="270.527" x2="333.145" y1="1149.864" y2="1057.758" xlink:href="#j"/><linearGradient id="av" x1="294.275" x2="356.891" y1="1166.008" y2="1073.902" xlink:href="#j"/><linearGradient id="aw" x1="434.64" x2="350.895" y1="1233.154" y2="1222.941" gradientUnits="userSpaceOnUse"><stop offset="0" stop-color="#0093ae" stop-opacity="0"/><stop offset="1" stop-color="#0093ae" stop-opacity=".9"/></linearGradient><linearGradient id="ax" x1="-3271.183" x2="-3271.183" y1="-676.058" y2="-830.117" gradientTransform="scale(1 -1) rotate(27.111 -425.072 6405.398)" xlink:href="#n"/><linearGradient id="ay" x1="1176.066" x2="1082.291" y1="376.166" y2="369.297" gradientTransform="scale(1 -1) rotate(40.876 2821.013 -1496.974)" xlink:href="#k"/><linearGradient id="az" x1="414.878" x2="608.155" y1="1072.302" y2="981.919" xlink:href="#l"/><linearGradient id="aA" x1="415.563" x2="608.841" y1="1073.77" y2="983.386" xlink:href="#l"/><linearGradient id="aB" x1="415.418" x2="608.696" y1="1073.458" y2="983.074" xlink:href="#l"/><linearGradient id="aC" x1="415.273" x2="608.551" y1="1073.147" y2="982.764" xlink:href="#l"/><linearGradient id="aD" x1="415.126" x2="608.403" y1="1072.834" y2="982.451" xlink:href="#l"/></defs><path fill="#eaeaea" d="m2174.3320312,1591.8889141H175.6679688c-11.0454102,0-20-8.9545898-20-20s8.9545898-20,20-20h1998.6640625c11.0454102,0,20,8.9545898,20,20s-8.9545898,20-20,20Z"/><g><path fill="url(#o)" d="m1381.5603828,1426.9249132c42.9757-.0549,73.8287-28.1813,64.5456-43.4614-13.9733-22.9963-55.6361,11.826-64.5456,43.4614Zm-24.8792,60.9515c4.0946-5.722,7.9527-11.5922,11.602-17.5892.0004-.0001.0002-.0006.0005-.0007,2.2684-3.27,5.8839-9.8528,7.9369-13.9067.0004-.0012.001-.002.0015-.0027,9.9754-18.7127,17.8798-38.595,23.5997-59.4357.159-.5787.1969-1.1612.1328-1.7242,5.8219-31.4956-13.2766-61.879-31.8426-57.684-18.772,4.2423-26.4707,46.8993,11.6794,89.6154-11.267,27.3256-25.813,50.1418-41.0183,68.8801l5.5059,7.913c4.329-5.2234,8.4743-10.5774,12.4022-16.0653Z"/><path fill="url(#p)" d="m987.8063774,1351.973899c-12.2639845,13.0097596,12.0494356,46.9488295,54.0699733,55.9595174-2.1204515-32.797645-35.6107817-75.5385378-54.0699733-55.9595174Zm87.5717754,153.161077l7.0341402-6.5916791c-10.9659302-21.4958865-20.4371745-46.8427947-25.7616169-75.916523,46.2152127-33.8268615,47.5761361-77.1515907,30.1004837-85.2132033-17.2839422-7.9722991-42.2954829,17.7633031-43.1657926,49.7806675-.1799571.537301-.2643156,1.1149247-.2295084,1.7140841,1.2507284,21.5750704,4.8377294,42.6682328,10.6940002,63.0490353.0003352.0008293.00077.0016664.0009658.0029862,1.1629804,4.3926837,3.3270321,11.5845504,4.8641384,15.2554766.0002832.0002232-.0000477.0005981.0003352.0008293,2.3192154,6.6258049,4.8692494,13.1711941,7.6813058,19.6209986,2.6978547,6.1859973,5.6362754,12.2863367,8.7815486,18.2973279Z"/><g><path fill="url(#c)" d="m975.6875299,1571.8889721c-29.7107-52.4681-89.1129-71.2143-117.5735-41.853-.1288.1327-.256.2658-.3821.399-14.809,15.6551-3.5773,41.454,17.9725,41.454h99.9831Z"/><g><path fill="url(#a)" d="m1434.763553,1571.8889722c28.5507993-50.4198,85.6338978-68.4341,112.9834971-40.2191.1237.1276.2461.2554.3671798.3834,14.2309199,15.044,3.4377201,39.8357-17.2707793,39.8357h-96.0798976Z"/><path fill="url(#q)" d="m1478.8297519,1502.5283722c9.2228998,22.4096.2316,47.73-13.0611997,69.3606h-170.9460223c2.7261-16.9859,10.1658-37.2116,26.6864-59.1363,46.6581248-61.9193,135.7864225-62.5538,157.320822-10.2243Z"/><path fill="url(#b)" d="m1304.6110299,1571.8889722c28.5708-50.455,85.6938242-68.4819,113.0624235-40.2472.1237765.1277.2463.2556.3675.3837,14.2408996,15.0544,3.4400999,39.8635-17.2828996,39.8635h-96.147024Z"/><path fill="url(#r)" d="m1338.78423,1431.5092722c14.9326251,45.355.375,96.6014-21.1472,140.3797h-276.7759c4.4138-34.3779,16.4593-75.313,43.2074-119.6867,75.5434-125.319,219.8497-126.6032,254.7157-20.693Z"/><path fill="url(#s)" d="m922.35653,1485.4973721c-8.9144,27.9121-.2239,59.4498,12.6242,86.3916h165.2265c-2.6349-21.1567-9.8257-46.3486-25.7935-73.6568-45.097-77.1231-131.2433-77.9134-152.0572-12.7348Z"/></g></g><g><g><g><path fill="#e5a173" d="m737.5166187,737.7404859c.0508-26.3701-26.9785-92.4770967-25.2949-104.7821964,1.0879-7.9892998-12.9922-7.7929998-11.8516,1.2412.8887,7.0458998,8.0215,70.6737965,10.7246,88.6073965,1.6387,13.6826,5.1641,22.2783,11.0039,23.0547,8.3047,1.1059,15.4024,1.6684,15.418-8.1211Z"/><g><path fill="#e5a173" d="m720.4443188,632.7619895c2.6992-1.961,8.1231-9.3056998,6.6231-11.4921997-3.0371-4.4438999-6.2715,3.0624999-14.211,4.3661999-5.0566.832-1.3066,10.6527997-1.3066,10.6527997,0,0,4.5469-.3711,8.8945-3.5267999Z"/><path fill="#e5a173" d="m690.0869188,614.69849c-1.0313,8.1454998,2.7324,22.5233994,10.3301,22.0634994,3.5527-.2149035,10.75.1562,14.3593-1.252,5.8135-2.2723999,6.2129-12.8881997.459-27.1327993-2.7851-6.9052998-24.209-1.0732-25.1484,6.3212998Z"/></g></g><g><path fill="#e5a173" d="m747.0342188,715.8517859s-24.0254,10.9727-30.5371,15.5161c-4.6739,3.2515.3671,9.3687,3.4003,13.1695,3.0332,3.7949,21.168,3.125,35.5157-2.2901,10.9804-4.1455-6.1055-26.063-8.3789-26.3955Z"/><path fill="url(#k)" d="m829.7568188,687.7033859c-25.2871,4.2895-97.625,29.6211-97.625,29.6211,0,0-2.25,6.9101,1.6817,20.5996,5.9101,20.5547,13.6054,25.7109,13.6054,25.7109,0,0,21.2246-2.5215,46.6953-8.0859,12.4551-2.7207,23.8731-8.0479,38.4063-31.5259,8.9219-14.416,12.5391-38.917-2.7637-36.3198Z"/></g></g><g><path fill="url(#t)" d="m1487.7754187,1175.3107859l-56.3448-236.4722c-.8808-3.6963-5.1904-6.7207-9.5722-6.7207h-433.4256c-7.3565,0-12.7826,6.8708-11.0775,14.027l54.6017,229.1659c.8799,3.6973,5.1875,6.7178,9.5723,6.7178h439.8779c4.3838,0,7.25-3.0205,6.3682-6.7178Z"/><path fill="#dd4a00" d="m1064.3398187,935.0094859h-74.4199c-4.3887,0-7.251,3.022-6.375,6.7198l39.2822,164.8501,1.542,6.4755v.0069c.8516,3.5644,3.4004,14.2646,5.6699,23.7754l2.5459,10.6938c2.2696,9.5122,5.0791,9.353,6.2452-.3574l1.2002-9.978c.7382-6.1358,1.5273-12.7285,2.124-17.6524h0l.75-6.2744c.0107-.0649.0195-.1465.0263-.207h0l.7813-6.4824,20.6279-171.5699Z" opacity=".5"/><g><g><ellipse cx="1250.206" cy="914.477" fill="#0ba2b9" rx="206.038" ry="28.212"/><path fill="#001f3e" d="m1250.2060188,942.6892859c-113.792,0-206.0381-12.6309-206.0381-28.2124v95.5825c0,15.581,92.2461,28.2114,206.0381,28.2114,113.794,0,206.0381-12.6304,206.0381-28.2114v-95.5825c0,15.5815-92.2441,28.2124-206.0381,28.2124Z"/><path fill="#eb3100" d="m1349.9140187,1022.9475859c0,1.6191,1.3184,2.834,2.9336,2.7002l17.8057-1.5933c1.6133-.1553,2.9307-1.6074,2.9307-3.2256v-19.8901c0-1.6187-1.3174-2.8164-2.9307-2.6602l-17.8057,1.5938c-1.6152.1328-2.9336,1.5659-2.9336,3.1855v19.8897Zm-32.5,1.9941c0,1.6187,1.3223,2.8745,2.9395,2.7905l17.793-1.019c1.6152-.1016,2.9384-1.5078,2.9384-3.1265v-19.8901c0-1.6187-1.3232-2.8618-2.9384-2.7598l-17.793,1.0186c-1.6172.0845-2.9395,1.477-2.9395,3.0962v19.8901Zm100.3731-33.3027c-1.5801.3471-2.8731,1.9555-2.8731,3.5747v19.8896c0,1.6187,1.293,2.6597,2.8731,2.312l17.9775-4.3296c1.5498-.4623,2.8203-2.165,2.8203-3.7841v-19.8897c0-1.6191-1.2705-2.5654-2.8203-2.1025l-17.9775,4.3296Zm-32.6924,5.0786c-1.4746.1684-2.6807,1.6299-2.6807,3.249v19.8887c0,1.6196,1.2061,2.8066,2.6807,2.6387l1.3047-.1597c7.4082-.9067,16.7734-2.3218,16.7734-2.3218,1.6006-.2417,2.9112-1.7637,2.9112-3.3828v-19.8901c0-1.6192-1.3106-2.7456-2.9112-2.503,0,0-9.3652,1.4146-16.7734,2.3203l-1.3047.1607Z"/><path fill="url(#d)" d="m1370.6533187,998.2785859l-6.6143.5913c.586.4829.961,1.2129.961,2.0689v19.8901c0,1.6182-1.3174,3.0703-2.9317,3.2256l-11.1611.999c.5195.4204,1.1934.6568,1.9404.5943l17.8057-1.5933c1.6133-.1553,2.9307-1.6074,2.9307-3.2256v-19.8901c0-1.6187-1.3174-2.8164-2.9307-2.6602Zm-32.5068,2.6582l-6.9532.3975c.7881.4809,1.3067,1.3476,1.3067,2.3623v19.8901c0,1.6187-1.3223,3.0249-2.9385,3.1265l-10.8115.6186c.4638.2798,1.0117.4307,1.6035.4004l17.793-1.019c1.6152-.1016,2.9384-1.5078,2.9384-3.1265v-19.8901c0-1.6187-1.3232-2.8618-2.9384-2.7598Zm65.0263-6.7002s-2.6347.3975-6.2002.9048c.3301.4278.5274.9746.5274,1.5982v19.8901c0,1.6191-1.3106,3.1411-2.9112,3.3828,0,0-5.5869.8438-11.54,1.645.4902.5913,1.2217.9302,2.0459.8365l1.3047-.1597c7.4082-.9067,16.7734-2.3218,16.7734-2.3218,1.6006-.2417,2.9112-1.7637,2.9112-3.3828v-19.8901c0-1.6192-1.3106-2.7456-2.9112-2.503Zm32.5918-6.9272l-5.8593,1.4111c.0556.2154.0957.4419.0957.6914v19.8897c0,1.6191-1.2706,3.3218-2.8223,3.7841l-12.1025,2.9151c.3857,1.0776,1.4521,1.6919,2.7109,1.4145l17.9775-4.3296c1.5498-.4623,2.8203-2.165,2.8203-3.7841v-19.8897c0-1.6191-1.2705-2.5654-2.8203-2.1025Z"/><path fill="url(#e)" d="m1044.1679187,914.4768859v95.5825c0,7.6513,22.2569,14.5903,58.375,19.6728v-95.582c-36.1181-5.0825-58.375-12.021-58.375-19.6733Z"/><path fill="#00527f" d="m1250.2060188,863.5759859c-99.4326,0-180.0381,8.7876-180.0381,19.6274v31.2735c0,10.8393,80.6055,19.6269,180.0381,19.6269,99.4327,0,180.0381-8.7876,180.0381-19.6269v-31.2735c0-10.8398-80.6054-19.6274-180.0381-19.6274Z"/><path fill="url(#f)" d="m1124.3750187,914.4768859v-31.2735c0-10.8398,56.3359-19.6274,125.831-19.6274-99.4326,0-180.0381,8.7876-180.0381,19.6274v31.2735c0,10.8393,80.6055,19.6269,180.0381,19.6269-69.4951,0-125.831-8.7876-125.831-19.6269Z"/></g><g><ellipse cx="1250.206" cy="794.011" fill="#0ba2b9" rx="206.038" ry="28.212"/><path fill="#001f3e" d="m1250.2060188,822.2237859c-113.792,0-206.0381-12.6309-206.0381-28.2124v95.5825c0,15.581,92.2461,28.2114,206.0381,28.2114,113.794,0,206.0381-12.6304,206.0381-28.2114v-95.5825c0,15.5815-92.2441,28.2124-206.0381,28.2124Z"/><path fill="#eb3100" d="m1349.9140187,902.4820859c0,1.6191,1.3184,2.834,2.9336,2.7002l17.8057-1.5933c1.6133-.1553,2.9307-1.6074,2.9307-3.2256v-19.8901c0-1.6187-1.3174-2.8164-2.9307-2.6602l-17.8057,1.5938c-1.6152.1328-2.9336,1.5659-2.9336,3.1855v19.8897Zm-32.5,1.9941c0,1.6187,1.3223,2.8745,2.9395,2.7905l17.793-1.019c1.6152-.1016,2.9384-1.5078,2.9384-3.1265v-19.8901c0-1.6187-1.3232-2.8618-2.9384-2.7598l-17.793,1.0186c-1.6172.0845-2.9395,1.477-2.9395,3.0962v19.8901Zm100.3731-33.3027c-1.5801.3471-2.8731,1.9555-2.8731,3.5747v19.8896c0,1.6187,1.293,2.6597,2.8731,2.312l17.9775-4.3296c1.5498-.4623,2.8203-2.165,2.8203-3.7841v-19.8897c0-1.6191-1.2705-2.5654-2.8203-2.1025l-17.9775,4.3296Zm-32.6924,5.0786c-1.4746.1684-2.6807,1.6299-2.6807,3.249v19.8887c0,1.6196,1.2061,2.8066,2.6807,2.6387l1.3047-.1597c7.4082-.9068,16.7734-2.3218,16.7734-2.3218,1.6006-.2417,2.9112-1.7637,2.9112-3.3828v-19.8901c0-1.6192-1.3106-2.7456-2.9112-2.503,0,0-9.3652,1.4146-16.7734,2.3203l-1.3047.1607Z"/><path fill="url(#u)" d="m1370.6533187,877.8130859l-6.6143.5913c.586.4829.961,1.2129.961,2.0689v19.8901c0,1.6182-1.3174,3.0703-2.9317,3.2256l-11.1611.999c.5195.4204,1.1934.6568,1.9404.5943l17.8057-1.5933c1.6133-.1553,2.9307-1.6074,2.9307-3.2256v-19.8901c0-1.6187-1.3174-2.8164-2.9307-2.6602Zm-32.5068,2.6582l-6.9532.3975c.7881.4809,1.3067,1.3476,1.3067,2.3623v19.8901c0,1.6187-1.3223,3.0249-2.9385,3.1265l-10.8115.6186c.4638.2798,1.0117.4307,1.6035.4004l17.793-1.019c1.6152-.1016,2.9384-1.5078,2.9384-3.1265v-19.8901c0-1.6187-1.3232-2.8618-2.9384-2.7598Zm65.0263-6.7002s-2.6347.3975-6.2002.9048c.3301.4278.5274.9746.5274,1.5982v19.8901c0,1.6191-1.3106,3.1411-2.9112,3.3828,0,0-5.5869.8438-11.54,1.645.4902.5913,1.2217.9302,2.0459.8365l1.3047-.1597c7.4082-.9068,16.7734-2.3218,16.7734-2.3218,1.6006-.2417,2.9112-1.7637,2.9112-3.3828v-19.8901c0-1.6192-1.3106-2.7456-2.9112-2.503Zm32.5918-6.9272l-5.8593,1.4111c.0556.2154.0957.4419.0957.6914v19.8897c0,1.6191-1.2706,3.3218-2.8223,3.7841l-12.1025,2.9151c.3857,1.0776,1.4521,1.6919,2.7109,1.4145l17.9775-4.3296c1.5498-.4623,2.8203-2.165,2.8203-3.7841v-19.8897c0-1.6191-1.2705-2.5654-2.8203-2.1025Z"/><path fill="url(#v)" d="m1044.1679187,794.0113859v95.5825c0,7.6513,22.2569,14.5903,58.375,19.6728v-95.582c-36.1181-5.0825-58.375-12.021-58.375-19.6733Z"/><path fill="#00527f" d="m1250.2060188,743.1104859c-99.4326,0-180.0381,8.7876-180.0381,19.6274v31.2735c0,10.8393,80.6055,19.6269,180.0381,19.6269,99.4327,0,180.0381-8.7876,180.0381-19.6269v-31.2735c0-10.8398-80.6054-19.6274-180.0381-19.6274Z"/><path fill="url(#w)" d="m1124.3750187,794.0113859v-31.2735c0-10.8398,56.3359-19.6274,125.831-19.6274-99.4326,0-180.0381,8.7876-180.0381,19.6274v31.2735c0,10.8393,80.6055,19.6269,180.0381,19.6269-69.4951,0-125.831-8.7876-125.831-19.6269Z"/></g><g><ellipse cx="1250.206" cy="673.546" fill="#0ba2b9" rx="206.038" ry="28.212"/><path fill="#001f3e" d="m1250.2060188,701.7582859c-113.792,0-206.0381-12.6309-206.0381-28.2123975v95.5824875c0,15.58101,92.2461,28.21141,206.0381,28.21141,113.794,0,206.0381-12.6304,206.0381-28.21141v-95.5824875c0,15.5814975-92.2441,28.2123975-206.0381,28.2123975Z"/><path fill="#eb3100" d="m1349.9140187,782.0165559c0,1.61914,1.3184,2.83403,2.9336,2.70023l17.8057-1.5933c1.6133-.15527,2.9307-1.60742,2.9307-3.22558v-19.89012c0-1.6187-1.3174-2.8164-2.9307-2.6602l-17.8057,1.5938c-1.6152.1328-2.9336,1.5659-2.9336,3.1855v19.88967Zm-32.5,1.99413c0,1.6187,1.3223,2.8745,2.9395,2.7905l17.793-1.019c1.6152-.1016,2.9384-1.5078,2.9384-3.12647v-19.89013c0-1.6187-1.3232-2.8618-2.9384-2.7598l-17.793,1.0186c-1.6172.0845-2.9395,1.477-2.9395,3.09617v19.89013Zm100.3731-33.3027c-1.5801.3471-2.8731,1.9555-2.8731,3.5747v19.889631c0,1.618649,1.293,2.659669,2.8731,2.312009l17.9775-4.32959c1.5498-.4624,2.8203-2.16504,2.8203-3.78418v-19.88967c0-1.6191-1.2705-2.5654-2.8203-2.1025l-17.9775,4.3296Zm-32.6924,5.0786c-1.4746.1684-2.6807,1.6299-2.6807,3.249v19.88868c0,1.61963,1.2061,2.80665,2.6807,2.63868l1.3047-.15967c7.4082-.90674,16.7734-2.32178,16.7734-2.32178,1.6006-.2417,2.9112-1.76367,2.9112-3.38281v-19.8901c0-1.6192-1.3106-2.7456-2.9112-2.503,0,0-9.3652,1.4146-16.7734,2.3203l-1.3047.1607Z"/><path fill="url(#x)" d="m1370.6533187,757.3475859l-6.6143.5913c.586.4829.961,1.2129.961,2.0689v19.89012c0,1.61816-1.3174,3.07031-2.9317,3.22558l-11.1611.999c.5195.4204,1.1934.6568,1.9404.5943l17.8057-1.5933c1.6133-.15527,2.9307-1.60742,2.9307-3.22558v-19.89012c0-1.6187-1.3174-2.8164-2.9307-2.6602Zm-32.5068,2.6582l-6.9532.3975c.7881.4809,1.3067,1.3476,1.3067,2.3623v19.89013c0,1.61867-1.3223,3.02487-2.9385,3.12647l-10.8115.6186c.4638.2798,1.0117.4307,1.6035.4004l17.793-1.019c1.6152-.1016,2.9384-1.5078,2.9384-3.12647v-19.89013c0-1.6187-1.3232-2.8618-2.9384-2.7598Zm65.0263-6.7002s-2.6347.3975-6.2002.9048c.3301.4278.5274.9746.5274,1.5982v19.8901c0,1.61914-1.3106,3.14111-2.9112,3.38281,0,0-5.5869.84375-11.54,1.64502.4902.59131,1.2217.93018,2.0459.83643l1.3047-.15967c7.4082-.90674,16.7734-2.32178,16.7734-2.32178,1.6006-.2417,2.9112-1.76367,2.9112-3.38281v-19.8901c0-1.6192-1.3106-2.7456-2.9112-2.503Zm32.5918-6.9272l-5.8593,1.4111c.0556.2154.0957.4419.0957.6914v19.88967c0,1.61914-1.2706,3.32178-2.8223,3.78418l-12.1025,2.91504c.3857,1.07764,1.4521,1.6919,2.7109,1.41455l17.9775-4.32959c1.5498-.4624,2.8203-2.16504,2.8203-3.78418v-19.88967c0-1.6191-1.2705-2.5654-2.8203-2.1025Z"/><path fill="url(#y)" d="m1044.1679187,673.5458885v95.5824875c0,7.65136,22.2569,14.59033,58.375,19.67281v-95.582c-36.1181-5.0825-58.375-12.021-58.375-19.6732975Z"/><path fill="#00527f" d="m1250.2060188,622.6449898c-99.4326,0-180.0381,8.7875998-180.0381,19.6273995v31.2734992c0,10.8392975,80.6055,19.6268975,180.0381,19.6268975,99.4327,0,180.0381-8.7876,180.0381-19.6268975v-31.2734992c0-10.8397997-80.6054-19.6273995-180.0381-19.6273995Z"/><path fill="url(#z)" d="m1124.3750187,673.5458885v-31.2734992c0-10.8397997,56.3359-19.6273995,125.831-19.6273995-99.4326,0-180.0381,8.7875998-180.0381,19.6273995v31.2734992c0,10.8392975,80.6055,19.6268975,180.0381,19.6268975-69.4951,0-125.831-8.7876-125.831-19.6268975Z"/></g><g><ellipse cx="1250.206" cy="553.08" fill="#0ba2b9" rx="206.038" ry="28.212"/><path fill="#001f3e" d="m1250.2060188,581.2927908c-113.792,0-206.0381-12.6308997-206.0381-28.2123993v95.5824976c0,15.5809996,92.2461,28.2113968,206.0381,28.2113968,113.794,0,206.0381-12.6303972,206.0381-28.2113968v-95.5824976c0,15.5814996-92.2441,28.2123993-206.0381,28.2123993Z"/><path fill="#eb3100" d="m1349.9140187,661.5510859c0,1.6191028,1.3184,2.834,2.9336,2.7002028l17.8057-1.5933c1.6133-.1553,2.9307-1.6074,2.9307-3.2255999v-19.8900995c0-1.6187-1.3174-2.8163999-2.9307-2.6602034l-17.8057,1.5938034c-1.6152.1328-2.9336,1.5659-2.9336,3.1854999v19.8896967Zm-32.5,1.9941028c0,1.6187,1.3223,2.8744999,2.9395,2.7904999l17.793-1.019c1.6152-.1016027,2.9384-1.5078,2.9384-3.1264999v-19.8901028c0-1.6186966-1.3232-2.8617966-2.9384-2.7597966l-17.793,1.0186c-1.6172.0845-2.9395,1.477-2.9395,3.0961966v19.8901028Zm100.3731-33.3026992c-1.5801.3471-2.8731,1.9555-2.8731,3.5746999v19.8895995c0,1.6187,1.293,2.6596999,2.8731,2.3119999l17.9775-4.3295999c1.5498-.4623,2.8203-2.1649999,2.8203-3.7841031v-19.8896963c0-1.6191-1.2705-2.5653999-2.8203-2.1024999l-17.9775,4.3295999Zm-32.6924,5.0785964c-1.4746.1684035-2.6807,1.6299035-2.6807,3.249v19.8887029c0,1.6196,1.2061,2.8065999,2.6807,2.6386999l1.3047-.1597c7.4082-.9067029,16.7734-2.3217999,16.7734-2.3217999,1.6006-.2417,2.9112-1.7637,2.9112-3.3827999v-19.890103c0-1.6191965-1.3106-2.7455964-2.9112-2.503,0,0-9.3652,1.4146035-16.7734,2.3203035l-1.3047.1606965Z"/><path fill="url(#A)" d="m1370.6533187,636.8820859l-6.6143.5913034c.586.4829.961,1.2129.961,2.0688999v19.8900995c0,1.6182-1.3174,3.0702999-2.9317,3.2255999l-11.1611.999c.5195.4204,1.1934.6568,1.9404.5943l17.8057-1.5933c1.6133-.1553,2.9307-1.6074,2.9307-3.2255999v-19.8900995c0-1.6187-1.3174-2.8163999-2.9307-2.6602034Zm-32.5068,2.6582034l-6.9532.3975c.7881.4809,1.3067,1.3476,1.3067,2.3622966v19.8901028c0,1.6187-1.3223,3.0248972-2.9385,3.1264999l-10.8115.6186c.4638.2797973,1.0117.4307,1.6035.4004l17.793-1.019c1.6152-.1016027,2.9384-1.5078,2.9384-3.1264999v-19.8901028c0-1.6186966-1.3232-2.8617966-2.9384-2.7597966Zm65.0263-6.7002034s-2.6347.3975036-6.2002.9048035c.3301.4278.5274.9746.5274,1.5981965v19.890103c0,1.6191-1.3106,3.1410999-2.9112,3.3827999,0,0-5.5869.8438-11.54,1.645.4902.5913,1.2217.9302,2.0459.8365l1.3047-.1597c7.4082-.9067029,16.7734-2.3217999,16.7734-2.3217999,1.6006-.2417,2.9112-1.7637,2.9112-3.3827999v-19.890103c0-1.6191965-1.3106-2.7455964-2.9112-2.503Zm32.5918-6.9271963l-5.8593,1.4111c.0556.2154.0957.4419.0957.6914v19.8896963c0,1.6191031-1.2706,3.3218031-2.8223,3.7841031l-12.1025,2.9150999c.3857,1.0776,1.4521,1.6919,2.7109,1.4145l17.9775-4.3295999c1.5498-.4623,2.8203-2.1649999,2.8203-3.7841031v-19.8896963c0-1.6191-1.2705-2.5653999-2.8203-2.1024999Z"/><path fill="url(#B)" d="m1044.1679187,553.0803915v95.5824976c0,7.6512998,22.2569,14.5902996,58.375,19.6727995v-95.5819976c-36.1181-5.0824999-58.375-12.0209997-58.375-19.6732995Z"/></g><path fill="#00527f" d="m1430.2441187,553.0807915c0,10.8393997-80.6054,19.6264995-180.0381,19.6264995-99.4326,0-180.0381-8.7870998-180.0381-19.6264995,0-10.8407997,80.6055-19.6273995,180.0381-19.6273995,99.4327,0,180.0381,8.7865998,180.0381,19.6273995Z"/><path fill="url(#C)" d="m1125.0410188,567.1872912c32.3994-3.4184999,76.5254-5.5209999,125.165-5.5209999,48.6407,0,92.7676,2.1024999,125.1651,5.5209999,33.834-3.5688999,54.873-8.5698998,54.873-14.1064996,0-10.8407997-80.6054-19.6273995-180.0381-19.6273995-99.4326,0-180.0381,8.7865998-180.0381,19.6273995,0,5.5365999,21.0411,10.5375997,54.8731,14.1064996Z"/></g><path fill="url(#l)" d="m1517.8808187,887.6286859h-63.8164l5.9922-37.1846c.5254-4.3535-2.6367-7.915-7.0215-7.915h-137.3828c-4.3857,0-8.4062,3.5615-8.9258,7.915l-5.9961,37.1846h-222.7236c-4.3857,0-8.3994,3.5615-8.9228,7.915l-33.4932,278.5703c-.5234,4.3555,2.6357,7.9146,7.0205,7.9146h439.874c4.3887,0,8.4014-3.5591,8.9248-7.9146l33.4961-278.5703c.5196-4.3535-2.6338-7.915-7.0254-7.915Z"/><path fill="url(#g)" d="m1445.5508187,876.2253859c-.293,0-.5918-.023-.8916-.0718-3.0293-.4873-5.0889-3.3399-4.6026-6.3682l1.7051-10.5874h-16.9521c-3.0704,0-5.5557-2.4878-5.5557-5.5576,0-3.0679,2.4853-5.5552,5.5557-5.5552h23.4765c1.6279,0,3.1738.7139,4.2315,1.9531,1.0537,1.2393,1.5146,2.8799,1.2548,4.4859l-2.7441,17.0288c-.4404,2.729-2.8008,4.6724-5.4775,4.6724Zm-38.5196-17.0274h-6.6689c-3.0694,0-5.5547-2.4878-5.5547-5.5576,0-3.0679,2.4853-5.5552,5.5547-5.5552h6.6689c3.0664,0,5.5547,2.4873,5.5547,5.5552,0,3.0698-2.4883,5.5576-5.5547,5.5576Z"/><path fill="url(#D)" d="m1504.8691187,974.7223859c-.2226,0-.4482-.0141-.6719-.042-3.0449-.3652-5.2197-3.1308-4.8535-6.1782l.7305-6.0683c.3652-3.0459,3.1445-5.2261,6.1758-4.8536,3.0469.3662,5.2226,3.1328,4.8564,6.1797l-.7304,6.0689c-.3418,2.8208-2.7344,4.8935-5.5069,4.8935Zm2.8487-23.7212c-.2198,0-.4424-.0136-.668-.041-3.043-.3662-5.2217-3.1328-4.8555-6.1782l4.8721-40.4849h-13.3701c-3.0684,0-5.5567-2.4878-5.5567-5.5556,0-3.0694,2.4883-5.5557,5.5567-5.5557h19.6338c1.5898,0,3.1005.6792,4.1543,1.8687,1.0556,1.1884,1.5507,2.7719,1.3593,4.3505l-5.6152,46.7027c-.3398,2.8218-2.7383,4.893-5.5107,4.8935Z"/><g><path fill="#001f3e" d="m1367.8994188,1092.4103859c-14.5527-4.2832-48.9883-14.6157-69.249-20.7041-9.3252-2.8017-15.6485-2.3701-15.6485-2.3701,0,0-6.3242-.4316-15.6494,2.3701-20.2597,6.0884-54.6943,16.4209-69.25,20.7041-10.251,3.0176-11.6396,8.8096-11.0732,14.437,2.497,24.9019,10.123,93.2158,21.9541,121.4878,14.5263,34.6695,59.5205,48.6831,74.0185,48.6831,14.4961,0,59.4922-14.0136,74.0186-48.6831,11.831-28.272,19.4541-96.5859,21.9541-121.4878.5664-5.6274-.8233-11.4194-11.0752-14.437Z"/><path fill="url(#E)" d="m1357.9863187,1176.8625859c-.3418,0-.6904-.0284-1.0391-.0865-3.4531-.5698-5.7919-3.832-5.2226-7.2861.415-2.4966.8203-5.0561,1.2275-7.6733.5362-3.458,3.7657-5.8404,7.2334-5.294,3.458.5357,5.8301,3.7739,5.294,7.2324-.4131,2.6602-.8272,5.2608-1.2461,7.8008-.5127,3.1035-3.2002,5.3067-6.2471,5.3067Zm3.9375-26.5596c-.2803,0-.5625-.0181-.8457-.0571-3.4707-.461-5.9082-3.648-5.4453-7.1177,1.4023-10.5459,2.7217-21.7446,3.9277-33.353-4.8886-1.4449-11.2715-3.3462-18.4287-5.4859-3.3535-1.001-5.2607-4.5327-4.2588-7.8857,1.002-3.3545,4.5254-5.2656,7.8867-4.2588,8.6963,2.5986,16.2413,4.8437,21.3516,6.3467,1.1524.3383,2.1816.7275,3.0547,1.1543,2.3477,1.1464,3.75,3.6162,3.5332,6.2207l-.0322.3466c-1.3506,13.4717-2.8545,26.4527-4.4707,38.587-.4219,3.187-3.1455,5.5029-6.2725,5.5029Z"/><polygon fill="#f4b519" points="1313.23 1132.612 1270.625 1175.216 1252.809 1157.399 1234.707 1175.494 1270.625 1211.407 1331.327 1150.708 1313.23 1132.612"/><path fill="url(#F)" d="m1233.0693188,1228.3351859c-7.9785-28.272-13.1221-96.5859-14.8096-121.4878-.3808-5.6274.5567-11.4194,7.4737-14.437,9.8164-4.2832,33.0459-14.6157,46.7119-20.7041,4.6543-2.0732,8.1973-2.375,9.7246-2.3926-1.9893-.0146-7.4648.1817-14.8174,2.3926-20.2597,6.0884-54.6943,16.4209-69.25,20.7041-10.251,3.0176-11.6396,8.8096-11.0732,14.437,2.497,24.9019,10.123,93.2158,21.9541,121.4878,14.5263,34.6695,59.5205,48.6831,74.0185,48.6831-9.7793,0-40.1328-14.0136-49.9326-48.6831Z"/></g><path fill="url(#h)" d="m738.5355187,694.6901859c26.7449,0,51.0985-16.4662,60.0103-41.6825969,2.4339-6.8865998,3.7428-14.3035996,3.7071-22.0297994-.165-34.6903991-27.4512-62.6425984-61.6533-64.4999984-5.8125-37.5302991-38.2461-66.1807052-77.3457-65.9970983-35.874.166-65.8926,24.5453931-74.8486,57.5727985-2.8311-.3408-5.6084-.8477-8.5332-.8438-36.5665.1778-66.0889,28.4350993-69.0997,64.1801984-3.5263-1.0415-7.1962-1.7637-11.1045-1.7339-21.5312.0938-38.8837,17.6230961-38.7734,39.139699.0023.5073.0143,1.0123.0358,1.5148.827,19.3407971,17.2145,34.3796971,36.573,34.3796971h241.0322Z"/><path fill="url(#G)" d="m791.5742188,618.0734899c-1.6953,0-3.2666-1.083-3.8125-2.7821999-.5605-1.7549-1.2217-3.4999999-1.9658-5.1850999-.8906-2.0209999.0254-4.3827999,2.0478-5.2748999,2.0205-.8911,4.3828.0239,5.2744,2.0458999.8565,1.9424,1.6192,3.9530999,2.2657,5.9745998.6738,2.1044999-.4864,4.3564999-2.5879,5.0302959-.4082.1309039-.8194.1914039-1.2217.1914039Zm-8.0791-15.9701996c-1.2393,0-2.46-.5728-3.2432-1.6548-5.8711-8.1122998-13.8642-14.3866996-23.1162-18.1498995-2.0478-.832-3.0342-3.1665048-2.2002-5.2123999.8321-2.0478999,3.168-3.0307999,5.2149-2.2001999,10.6416,4.328095,19.8349,11.5438997,26.582,20.872095,1.2969,1.79.8955,4.291-.8936,5.5864044-.7099.5132-1.5302.7588-2.3437.7588Z"/><path fill="url(#H)" d="m727.1660188,553.3175915c-1.5147,0-2.9658-.8662-3.6387-2.3348999-1.3467-2.9340999-2.9209-5.7963999-4.6836-8.5058998-1.206-1.8511-.6806-4.3304999,1.17-5.5350999,1.8535-1.206606,4.333-.6802,5.538,1.1718,1.9737,3.0370999,3.7412,6.2431998,5.2491,9.5336998.9218,2.0082999.039,4.3832999-1.9678,5.3051999-.542.2481-1.1084.3652-1.667.3652Zm-12.3408-18.4765056c-1.0733,0-2.1446-.4301939-2.9346-1.2812939-1.6367-1.7651-3.3906-3.4603999-5.208-5.0345999-7.667-6.6401998-16.9199-11.4794997-26.7598-13.9916996-2.1396-.5484066-3.4326-2.7265999-2.8857-4.8681999s2.7236-3.4350999,4.8672-2.8862067c11.0361,2.8188067,21.415,8.247,30.0156,15.6958064,2.04,1.7656,4.0049,3.6664999,5.8398,5.6449999,1.502,1.6206,1.4073,4.1508999-.2128,5.6547999-.7715.7133-1.7461,1.0663939-2.7217,1.0663939Z"/><path fill="url(#i)" d="m738.0879187,684.8898859h-240.9894c-17.4935,0-32.8326-12.4228-35.6796-29.683097-.0825-.4999-.1554-1.0031-.2187-1.5093-.211,1.6699-.3155,3.3710999-.3057,5.0981999.0023.5073.0143,1.0123.0358,1.5148.827,19.3407971,17.2145,34.3796971,36.573,34.3796971h241.0322c26.7449,0,51.0985-16.4662,60.0103-41.6825969,2.4339-6.8865998,3.7428-14.3035996,3.7071-22.0297994-.0068-1.5459-.0703-3.0775999-.1826-4.5937999-.0532.7145-.1179,1.4258-.1939,2.1336999-3.464,32.2567992-31.3462,56.3721963-63.7885,56.3721963Z"/><path fill="url(#I)" d="m1977.8662187,700.0661859c-5.8145-37.5302972-38.2471-66.1811965-77.3486-65.9971-35.8731.1655035-65.8907,24.5454029-74.8457,57.5728-2.8331-.3409-5.6104-.8477-8.5352-.8438-36.5664.1777-66.0879,28.4351-69.0977,64.1797-3.5283-1.0415-7.1972-1.7632-11.1064-1.7334-21.5303.0937-38.8838,17.62304-38.7734,39.1396.0023.5073.0144,1.0123.0358,1.5148v9.7741h0c.827,19.3408,17.2144,34.3797,36.5729,34.3797h241.0337c26.745,0,51.0985-16.4663,60.0103-41.6828,2.4337-6.8866,3.7425-14.30375,3.7066-22.030066v-9.774044c-.167-34.68999-27.4511-62.64209-61.6523-64.49949Z"/><path fill="url(#J)" d="m1722.2988187,803.0539859c-2.2324-3.0542-3.5107-6.793-3.5293-10.7622-.0254-4.9136,1.8594-9.52885,5.3047-13.00736,3.4463-3.48047,8.0449-5.408207,12.9482-5.429692l.1426-.000976c1.3789,0,2.9795.283203,5.0381.891113l24.251,7.159175,2.123-25.19676c2.1641-25.7002,23.083-45.1748,48.6592-45.2988.7383,0,2.1211.1875,3.585.3857.7949.1069,1.5908.2144,2.3906.3105l17.6894,2.127,4.6631-17.1968c6.7295-24.8198,29.3672-42.2368,55.0489-42.354997l.2793-.0009c13.75,0,27.039,4.9501999,37.4199,13.9398996,10.2969,8.9169973,17.1094,21.2055973,19.1855,34.6020973l2.5586,16.5185,16.6905.9068c23.5302,1.2778,42.0498,20.6137,42.1611,44.01851.081,17.58838-9.9287,33.09519-25.2246,40.39499-2.1856,1.043-8.7383,2.6084-11.7461,2.6084h-249.4356c-5.623,0-8.8808-2.8042-10.2031-4.6142Z"/><path fill="url(#K)" d="m2028.8379187,751.6613859c-1.6944,0-3.2647-1.0825-3.8106-2.7822-.5615-1.7549-1.2226-3.4995-1.9658-5.1846-.8916-2.0215.0234-4.3828,2.0469-5.2754,2.0205-.8906,4.3838.0244,5.2734,2.0459.8574,1.9424,1.6211,3.9531,2.2676,5.9751.6728,2.104-.4863,4.3564-2.5898,5.0303-.4083.1303-.8184.1909-1.2217.1909Zm-8.0772-15.9697c-1.2402,0-2.4609-.5733-3.2451-1.6553-5.8682-8.1123-13.8633-14.3867-23.1152-18.1494-2.0479-.8325-3.0332-3.1665-2.2002-5.2129.832-2.0469,3.1679-3.0303,5.2148-2.1997,10.6416,4.3281,19.835,11.5439,26.584,20.8716,1.2969,1.79.8936,4.291-.8955,5.5869-.709.5127-1.5293.7588-2.3428.7588Z"/><path fill="url(#L)" d="m1964.4316187,686.9054859c-1.5156,0-2.9668-.8657-3.6387-2.3349-1.3457-2.9336-2.9228-5.7959-4.6855-8.5059-1.2051-1.8506-.6797-4.3300974,1.1719-5.5346974,1.8525-1.2065,4.331-.6806,5.5371,1.1714,1.9746,3.0375974,3.7412,6.2436974,5.2519,9.5341974.919,2.0083.0371,4.3833-1.9716,5.3047-.5411.248-1.1075.3652-1.6651.3652Zm-12.3418-18.4759973c-1.0732,0-2.1455-.4302-2.9336-1.2818-1.6367-1.7646027-3.3906-3.4598999-5.209-5.0341999-7.6669-6.6400998-16.9199-11.4794997-26.7607-13.9921996-2.1387-.5478-3.4307-2.7264999-2.8857-4.8675999.5488-2.1416033,2.7246-3.4350999,4.8691-2.8862999,11.0361,2.8188999,21.4141,8.2470998,30.0156,15.6953996,2.0381,1.7656,4.0039,3.6668999,5.8399,5.6454999,1.5009,1.6201,1.4072,4.1507972-.2129,5.6542999-.7705.7138-1.7471,1.0669-2.7227,1.0669Z"/><path fill="url(#M)" d="m2035.8119187,796.3697859c2.4337-6.8866,3.7425-14.30375,3.7066-22.030066v-4.593814c-1.9353,26.01608-19.323,47.79438-42.9067,56.36588-3.9407,1.4322-8.1093,2.1405-12.302,2.1405h-249.9464c-17.4284,0-33.2352-12.3318-36.1684-29.4916v4.9122h0c.827,19.3408,17.2144,34.3797,36.5729,34.3797h241.0337c26.745,0,51.0985-16.4663,60.0103-41.6828Z"/><path fill="url(#N)" d="m2018.2754187,772.4201659c.4258-2.52539.6445-5.11621.6328-7.75537,0-.05371-.0049-.10645-.0049-.16016l-6.0303,6.03076-9.7226-9.72261,9.7226-9.7227,5.1866,5.187c-.9131-4.5854-2.5469-8.9184-4.7725-12.8867l-.4141.4141-9.7226-9.7232,1.5703-1.5698c-1.2647-1.1724-2.5957-2.2744-3.9903-3.2964l-1.2236,1.2236-5.081-5.081c-3.8584-1.9453-8.043-3.3477-12.458-4.1094l-9.1915,9.1914-9.7216-9.7226.7724-.773-3.7705-.2046-.4443-2.8662-.2012.2012-9.7207-9.7227,7.2275-7.229c-.413-1.9468-.9277-3.8628-1.539-5.7466l-9.332,9.3326-9.7237-9.7222,9.7237-9.7227,8.9511,8.9527c-2.0459-5.8804-5.0478-11.3916-8.8681-16.3218l-.083.083-9.7217-9.7221973.1533-.1538c-5.0801-4.0409999-10.7842-7.1512998-16.8486-9.2533998l9.4082,9.4071998-9.7217,9.7221973-9.7217-9.7217,9.5693-9.5697971c-1.8652-.6284-3.7597-1.1704-5.6836-1.6035l-7.5292,7.5306998-8.8008-8.8006998c-3.7325.2451-7.3858.8476-10.92,1.789l-7.0107,7.0116998-3.21-3.2108999c-1.6152.7817-3.1894,1.6396-4.7197,2.5673999l4.2862,4.2860972-9.7217,9.7217-5.4649-5.4647974c-1.2158,1.2133-2.3759,2.4837974-3.4804,3.8050974l5.3027,5.3032-9.7236,9.7217-3.211-3.2124c-.8027,1.6577-1.5342,3.3594-2.1787,5.1084l1.7481,1.7476-3.3692,3.3686-4.2637,15.7281,7.6329,7.6338-9.7227,9.7226-9.7236-9.7226,7.0254-7.0235-6.5049-.7817-4.1621,4.1626-5.335-5.3345c-1.3125-.1763-2.5166-.3315-3.1875-.3315-1.4238.0068-2.8301.083-4.2217.208l9.1006,9.1006-9.7226,9.7226-9.7227-9.7226,8.9551-8.9532c-3.2129.3789-6.3281,1.0659-9.3203,2.0323l-3.2764,3.2778-1.4687-1.4683c-1.6573.7344-3.2667,1.5572-4.8204,2.4663l2.6455,2.6451-9.7226,9.7216-3.7529-3.7529c-1.1817,1.251-2.2998,2.5645-3.3477,3.938l3.458,3.4575-9.7217,9.7232-.6679-.6685c-1.3623,3.6167-2.3203,7.4497-2.8243,11.4453l3.4922-3.4912,9.7217,9.7227-9.7217,9.72261-4.5049-4.50586-.5673,6.72071,1.4287,1.428219-1.6914,1.691411-.5088,6.03417-4.2666-1.25927-3.2559,3.25537-5.9824-5.9834-10.7461-3.171875c-.2344-.069824-.4424-.119629-.666-.180176l-9.335,9.334961-6.249-6.24805c-.6523.50293-1.2891,1.03662-1.8789,1.63282-.6367.6416-1.1992,1.33349-1.7266,2.04785l6.212,6.21041-9.2178,9.2163c.581,2.2862,1.5869,4.42,2.957,6.295.999,1.3662,3.1006,3.2968,6.4883,4.1621l-6.3086-6.3076,9.7236-9.7227,9.7217,9.7227-6.7588,6.7597h7.2842l3.1172-3.1167,3.1172,3.1167h7.2871l-6.7608-6.7597,9.7217-9.7222,9.7227,9.7226-6.7578,6.7593h7.2851l3.1162-3.1162,3.1153,3.1162h7.2861l-6.7578-6.7593,9.7207-9.7221,9.7226,9.7221-6.7597,6.7593h7.2861l3.1172-3.1162,3.1162,3.1162h7.2861l-6.7607-6.7593,9.7227-9.7226,9.7226,9.7222-6.7588,6.7597h7.2852l3.1172-3.1167,3.1162,3.1167h7.2871l-6.7617-6.7597,9.7236-9.7227,9.7227,9.7227-6.7598,6.7597h7.2861l3.1153-3.1167,3.1171,3.1167h7.2881l-6.7617-6.7597,9.7227-9.7222,9.7217,9.7226-6.7579,6.7593h7.2862l3.1152-3.1162,3.1162,3.1162h7.2862l-6.7588-6.7593,9.7216-9.7221,9.7217,9.7221-6.7588,6.7593h7.2852l3.1172-3.1162,3.1172,3.1162h7.2861l-6.7598-6.7593,9.7227-9.7226,9.7207,9.7222-6.7578,6.7597h7.2842l3.1171-3.1167,3.1163,3.1167h7.2871l-6.7608-6.7597,9.7237-9.7227,9.7216,9.7227-6.7588,6.7597h7.2852l3.1162-3.1167,3.1172,3.1167h7.2871l-6.7607-6.7597,9.7216-9.7222,9.7237,9.7226-6.7598,6.7593h6.1973c.3398,0,.7285-.0224,1.1494-.0595l3.0557-3.0567,2.1591,2.1597c2.2207-.5147,4.3194-1.1441,5.3819-1.6519.0576-.0273.1113-.0566.167-.0844l-4.0655-4.0665,9.7217-9.7221,5.8135,5.812c1.2393-1.1948,2.4053-2.4619,3.4951-3.79l-5.665-5.6651,9.7226-9.72215,3.0879,3.0874c.6904-1.80518,1.2647-3.66406,1.7197-5.56787l-1.164-1.162601,1.7588-1.758299Zm-272.709,24.84522l-9.7207-9.7227,9.7207-9.72213,9.7226,9.72313-9.7226,9.7217Zm263.664-49.8184l-9.7236,9.7227-9.7217-9.7227,9.7217-9.7226,9.7236,9.7226Zm-13.3652,13.3658l-9.7226,9.72261-9.7237-9.72261,9.7237-9.7227,9.7226,9.7227Zm-9.7226-36.4527l9.7226,9.7212-9.7226,9.7232-9.7227-9.7222,9.7227-9.7222Zm-3.6426,23.0869l-9.7237,9.7227-9.7216-9.7217,9.7216-9.7222,9.7237,9.7212Zm-126.3682.001l9.7227-9.7222,9.7217,9.7212-9.7227,9.7227-9.7217-9.7217Zm6.0781,13.3648l-9.7216,9.72164-9.7207-9.72164,9.7207-9.7217,9.7216,9.7217Zm57.1065-30.3731l-9.7227-9.7226,9.7227-9.7222,9.7207,9.7222-9.7207,9.7226Zm13.3642-6.0796l9.7237,9.7222-9.7227,9.7231-9.7226-9.7231,9.7216-9.7222Zm-49.8173-3.643l9.7216-9.7222,9.7217,9.7222-9.7217,9.7216-9.7216-9.7216Zm6.0781,13.3642l-9.7217,9.7232-9.7217-9.7222,9.7217-9.7222,9.7217,9.7212Zm17.0088-9.7212l9.7226,9.7222-9.7216,9.7222-9.7227-9.7232,9.7217-9.7212Zm0-7.2861l-9.7217-9.7222,9.7217-9.7221,9.7226,9.7221-9.7226,9.7222Zm-13.3653-13.3652l-9.7216-9.7217,9.7216-9.7222,9.7217,9.7222-9.7217,9.7217Zm-3.6435,3.643l-9.7217,9.7222-9.7217-9.7222,9.7217-9.7221,9.7217,9.7221Zm-13.3652,13.3653l-9.7217,9.7226-9.7227-9.7226,9.7236-9.7222,9.7208,9.7222Zm3.6435,30.373l9.7217,9.7227-9.7217,9.72261-9.7226-9.72261,9.7226-9.7227Zm3.6436-3.6431l9.7216-9.7226,9.7237,9.7226-9.7237,9.7227-9.7216-9.7227Zm23.0879,3.6431l9.7216,9.7227-9.7216,9.72261-9.7227-9.72261,9.7227-9.7227Zm3.6435-3.6431l9.7217-9.7212,9.7217,9.7222-9.7217,9.7217-9.7217-9.7227Zm23.0869,3.6441l9.7227,9.7217-9.7227,9.72164-9.7226-9.72164,9.7226-9.7217Zm3.6436-3.6431l9.7217-9.7222,9.7216,9.7222-9.7216,9.7217-9.7217-9.7217Zm23.0859,3.6431l9.7217,9.7217-9.7217,9.72164-9.7207-9.72164,9.7207-9.7217Zm9.7236-17.0088l-9.7236,9.7231-9.7207-9.7231,9.7207-9.7222,9.7236,9.7222Zm-13.3662-13.3652l-9.7216,9.7226-9.7237-9.7226,9.7237-9.7222,9.7216,9.7222Zm-13.3642-13.3653l-9.7237,9.7227-9.7216-9.7227,9.7216-9.7226,9.7237,9.7226Zm-9.7227-36.4530974l9.7227,9.7221974-9.7237,9.7221-9.7216-9.7217,9.7226-9.7225974Zm-3.6445,23.0878974l-9.7207,9.7222-9.7227-9.7217,9.7227-9.7222,9.7207,9.7217Zm-13.3643-13.3653l-9.7226,9.7227-9.7217-9.7222,9.7227-9.7220974,9.7216,9.7215974Zm-23.0879-23.0873971l9.7237,9.7221971-9.7237,9.7227-9.7216-9.7227,9.7216-9.7221971Zm-13.3652,13.3657997l9.7217,9.7220974-9.7217,9.7222-9.7217-9.7227,9.7217-9.7215974Zm-13.3652,13.3651974l9.7217,9.7222-9.7208,9.7217-9.7236-9.7222,9.7227-9.7217Zm-23.0869,23.0869l9.7207-9.7226,9.7236,9.7226-9.7236,9.7227-9.7207-9.7227Zm9.7207,17.0083l9.7236,9.7222-9.7236,9.7231-9.7207-9.7231,9.7207-9.7222Zm-3.6416,23.0879l-9.7227,9.7217-9.7227-9.7217,9.7227-9.7222,9.7227,9.7222Zm-13.3653,13.3648l-9.7226,9.72164-9.7227-9.72164,9.7227-9.7217,9.7226,9.7217Zm-9.7226-36.4527l9.7226,9.7222-9.7226,9.7231-9.7227-9.7231,9.7227-9.7222Zm-3.6426,23.0879l-9.7236,9.7217-9.7207-9.7227,9.7207-9.7212,9.7236,9.7222Zm-13.3662,13.3648l-9.7207,9.72261-9.7246-9.72261,9.7246-9.7227,9.7207,9.7227Zm-9.7217-36.4527l9.7217,9.7222-9.7207,9.7222-9.7246-9.7232,9.7236-9.7212Zm-23.0869,23.0869l9.7207-9.7226,9.7236,9.7226-9.7236,9.7227-9.7207-9.7227Zm-3.6436,49.8189l-9.7226-9.7222,9.7226-9.72215,9.7217,9.72215-9.7217,9.7222Zm3.6436-23.087421l9.7207-9.723149,9.7236,9.723149-9.7236,9.722171-9.7207-9.722171Zm23.0869,23.087421l-9.7236-9.7222,9.7246-9.72215,9.7207,9.72215-9.7217,9.7222Zm3.6436-23.087421l9.7207-9.723149,9.7236,9.722661-9.7236,9.722169-9.7207-9.721681Zm23.0869,23.086921l-9.7227-9.7217,9.7227-9.72313,9.7226,9.72213-9.7226,9.7227Zm3.6425-23.087409l9.7227-9.722661,9.7227,9.722661-9.7227,9.721679-9.7227-9.721679Zm23.087,23.087409l-9.7207-9.7227,9.7207-9.72213,9.7236,9.72313-9.7236,9.7217Zm3.6435-23.087409l9.7217-9.722661,9.7227,9.723149-9.7217,9.721681-9.7227-9.722169Zm23.0879,23.087909l-9.7217-9.7222,9.7217-9.72215,9.7217,9.72215-9.7217,9.7222Zm3.6436-23.087421l9.7216-9.723149,9.7237,9.723149-9.7237,9.722171-9.7216-9.722171Zm23.0869,23.087421l-9.7217-9.7222,9.7227-9.72215,9.7216,9.72215-9.7226,9.7222Zm3.6445-23.087421l9.7217-9.723149,9.7217,9.722661-9.7217,9.722169-9.7217-9.721681Zm23.0859,23.086921l-9.7216-9.7217,9.7226-9.72313,9.7227,9.72213-9.7237,9.7227Zm3.6446-23.087409l9.7217-9.722661,9.7216,9.722661-9.7216,9.721679-9.7217-9.721679Zm23.0859,23.087409l-9.7207-9.7227,9.7207-9.72213,9.7236,9.72313-9.7236,9.7217Zm3.6436-23.087409l9.7216-9.722661,9.7237,9.723149-9.7237,9.721681-9.7216-9.722169Zm23.0879,23.087909l-9.7227-9.7222,9.7227-9.72215,9.7226,9.72215-9.7226,9.7222Zm13.3642-13.36525l-9.7217-9.722171,9.7217-9.723149,9.7236,9.723149-9.7236,9.722171Z"/><g fill="none" opacity=".5"><path fill="url(#O)" d="m2008.9990187,758.2101859c-1.749,0-3.3711-1.1221-3.9277-2.8779-.1309-.4097-.2686-.8164-.4151-1.2193-.7754-2.1401.3321-4.5039,2.4717-5.2797,2.1377-.7759,4.5029.3286,5.2803,2.4707.1836.5078.3574,1.02.5215,1.5366.6875,2.1704-.5137,4.4873-2.6836,5.1753-.4141.1318-.834.1943-1.2471.1943Zm-6.5801-12.0561c-1.1855,0-2.3633-.5093-3.1777-1.4942-3.3076-3.9966-7.5762-7.1714-12.3477-9.1816-2.0986-.8833-3.083-3.3008-2.1992-5.3989.8848-2.0972,3.3028-3.0831,5.3994-2.1983,5.9893,2.5235,11.3487,6.5083,15.4991,11.523,1.4511,1.7539,1.206,4.352-.5489,5.8037-.7685.6362-1.7002.9463-2.625.9463Z"/></g><g fill="none" opacity=".5"><path fill="url(#P)" d="m1945.0596187,694.8273859c-1.5323,0-3.004-.8584-3.7149-2.3311-.6816-1.4125-1.4463-2.8046-2.2715-4.1372-1.1982-1.935-.6006-4.476,1.335-5.6743,1.9346-1.1982,4.4746-.6006,5.6748,1.335.9746,1.5752,1.8799,3.2217,2.6846,4.8921.9912,2.0498.1318,4.5141-1.919,5.5044-.5771.2783-1.1885.4111-1.789.4111Zm-10.2334-14.1094c-1.0293,0-2.0606-.3828-2.8594-1.1538-.5655-.5434-1.1533-1.081-1.749-1.5962-5.3457-4.6299-11.8057-7.9642974-18.6817-9.6439973-2.2109-.5405-3.5664-2.7709999-3.0254-4.9829027.5401-2.211,2.7676-3.565,4.9815-3.0253971,8.1425,1.9887999,15.792,5.9369999,22.122,11.4193971.7041.6099026,1.4024,1.2466026,2.0713,1.8926025,1.6407,1.5795975,1.6885,4.1889975.1094,5.8280975-.8096.8399-1.8887,1.2622-2.9687,1.2622Z"/></g><path fill="url(#j)" d="m741.3769188,447.4977942c-1.8945-1.1416-4.3506-.5312-5.4912,1.3609-3.2011,5.3099999-6.3711,10.7601997-9.4228,16.1996996-1.0811,1.9262-.3955,4.3641999,1.5312,5.4452999.6192.3476,1.291.5122,1.9531.5122,1.3995,0,2.7588-.7359,3.4922-2.0434999,3.0118-5.3666999,6.1397-10.7440997,9.2979-15.9838996,1.1406-1.8921.5312-4.3500999-1.3604-5.4906999Zm137.5645-160.7860959c-52.9736,41.7694989-98.2481,91.7240977-134.5645,148.4764962-1.1904,1.8604-.6474,4.3339999,1.2129,5.5248914.668.4273084,1.4141.6314084,2.1524.6314084,1.3183,0,2.6093-.6514084,3.373-1.8442,35.835-55.9990986,80.5078-105.2910973,132.7793-146.5063963,1.7344-1.3677,2.0322-3.8832999.6641-5.6176999-1.3672-1.7339-3.8819-2.0321999-5.6172-.6645Zm549.7637-98.7196975l-8.1006-13.4951997c-.583-.9731-1.3311-.8803-1.6612.2037l-2.0915,6.8572998c-53.9253-15.5550996-109.9885-23.446715-166.6458-23.446715-65.7607,0-130.4004,10.5693153-192.124,31.415-59.6836,20.1563143-115.6543,49.5552135-166.3555,87.3794126-1.7705,1.3203-2.1357,3.8271999-.8144,5.5981999.7851,1.0522,1.9892,1.6083876,3.209,1.6079.832,0,1.6709-.2583,2.3886-.794,102.7823-76.6771981,225.0889-117.2065124,353.6963-117.2065124,55.866,0,111.1433,7.7755152,164.3116,23.1005148l-2.1368,7.0054852c-.33,1.0839146.2393,1.5781146,1.2657,1.0971146l14.2539-6.6805998c1.0263-.481,1.3886-1.6695147.8047-2.6415999Z"/><g><path fill="url(#Q)" d="m1770.2246188,458.5114939c-3.6748-6.3632998-7.5156-12.7387997-11.415-18.9491995-1.1739-1.8701-3.6417-2.4360999-5.5147-1.2608-1.8711,1.1743-2.4355,3.6435915-1.2607,5.5146999,3.8476,6.1273998,7.6367,12.4178917,11.2627,18.6962995.7412,1.2832,2.0849,1.9999999,3.4677,1.9999999.6787,0,1.3662-.1729,1.9971-.5367,1.9121-1.1049,2.5674-3.5511999,1.4629-5.4642999Z"/><path fill="url(#R)" d="m1841.0869188,615.9386899l-7.3696,1.666c-12.1272-50.5077987-30.8152-99.2802975-55.6245-145.0370963-1.0528-1.9409-3.4795-2.6629999-5.4229-1.6093-1.9424,1.0527-2.6631,3.4803999-1.6103,5.4227923,24.4598,45.112,42.8892,93.1945052,54.8542,142.9876039l-6.7683,1.53c-1.1045.25-1.251.9897-.3252,1.6426l12.8652,9.0716998c.9258.6543,2.1367.3794,2.6934-.6093l7.708-13.7231997c.5557-.9887.1045-1.5927-1-1.3418Z"/></g><path fill="url(#S)" d="m1543.4111188,293.4508981c-70.4277-44.5248989-148.0957-71.8408121-230.8457-81.1893979-20.3041-2.2937999-41.022-3.4656999-61.5941-3.4940999l-.5631-6.8608998c-.0957-1.1304145-.8057-1.3789-1.5811-.5527l-10.7842,11.4691997c-.7744.8247-.6738,2.0634999.2276,2.7519999l12.5078,9.5521998c.9033.6885,1.5635.3272,1.4697-.8027l-.6198-7.5524998c20.0575.0524,40.2485,1.2029,60.0388,3.4386999,162.4179,18.3490995,306.3418,108.1772973,394.8691,246.4506938.7637,1.1929,2.0547,1.8436922,3.3731,1.8436922.7382,0,1.4853-.2040923,2.1533-.6317923,1.8603-1.1909,2.4023-3.6649999,1.2119-5.5253999-43.2822-67.6029983-102.0195-126.0068079-169.8633-168.8969957Zm246.5547,361.5053909c-1.5605-8.2084998-3.335-16.491203-5.2725-24.6185994-.5107-2.1479999-2.664-3.4756036-4.8183-2.9633999-2.1485.5127-3.4756,2.6698999-2.9629,4.8187963,1.9092,8.0078034,3.6562,16.1695032,5.1943,24.257403.3653,1.9179,2.042,3.2533999,3.9248,3.2533999.2481,0,.5-.023.752-.0708029,2.1699-.4125971,3.5947-2.506397,3.1826-4.676797Zm-12.0723-35.3822991c2.1328-.5757,3.3955-2.7714999,2.8194-4.9042999-13.1299-48.6440988-32.961-95.2792976-58.9405-138.6098965-1.1367-1.8955-3.5947-2.5101999-5.4873-1.374-1.8945,1.1362-2.5097,3.5927999-1.374,5.4877999,25.6006,42.6972989,45.1406,88.6498978,58.0791,136.5810965.4815,1.7836,2.0957,2.958396,3.8594,2.958396.3447,0,.6953-.0448961,1.0439-.1390961Z"/><g><path fill="url(#T)" d="m878.5781187,353.5016966c-41.4246,38.057899-76.6133,81.9888979-104.6394,130.5816967l-6.4055-3.6875999c-.9844-.5635-1.5918-.1211-1.3535.9858l3.3125,15.3910996c.2373,1.1065,1.3144,1.7276,2.3935,1.3765l14.9668-4.8656999c1.0811-.3511,1.1582-1.1001.1748-1.6651l-6.1562-3.5441999c27.6196-47.8841988,62.2964-91.1761072,103.1191-128.6813967,1.627-1.4946,1.7344-4.0253999.2393-5.6517999-1.4932-1.627-4.0254-1.7349106-5.6514-.2393Z"/><path fill="url(#U)" d="m915.6240187,327.3830859c-1.3682-1.7328887-3.8848-2.0302887-5.6182-.6606887-6.5517,5.1723999-13.0791,10.5722997-19.4023,16.0492996-1.6699,1.4463-1.8506,3.9726999-.4043,5.6425999.791.9131,1.9053,1.3809,3.0254,1.3809.9277,0,1.8603-.3213,2.6172-.9766,6.2314-5.3978999,12.665-10.7196997,19.1211-15.8173996,1.7343-1.3691111,2.0302-3.8841999.6611-5.6181111Z"/></g></g><g><g><g><path fill="#030126" d="m759.8681188,1166.2775859s32.209-8.2832,34.5547-9.0234c2.5957-.8164,6.6953-2.2891,7.1914,6.2304.4864,8.5176.7989,11.1856.7989,11.1856,0,0-37.2989.084-41.3145-.3692-4.0088-.4589-7.1797-3.4765-1.2305-8.0234Z"/><path fill="url(#V)" d="m786.3525187,852.6051859s1.8828,108.3545,3.1485,130.0298c1.2675,21.6758,42.9648,26.1812,54.4453-1.8672,11.4902-28.039,26.705-67.0703,26.8203-95.6054.1035-28.5352-6.7559-50.3052-27.3516-67.1695-20.5937-16.8657-57.6015,5.4234-57.0625,34.6123Z"/><path fill="url(#W)" d="m823.3623187,960.0861859c-21.4668-3.5918-33.2617,5.0527-33.6738,16.7031-.9375,26.5821.8925,26.6367.7128,58.8106-.082,15.0722-1.3613,43.1513-1.6308,69.1513h25.0527c9.8145-32,25.584-92.7607,29.291-107.3857,4.7051-18.5293,1.711-33.6797-19.7519-37.2793Z"/><path fill="#f7bb92" d="m789.1728187,1160.4377859s2.0196,2.6254,4.7246,2.5634c4.0645-.0898,4.7911-2.271,4.7911-2.271,0,0,2.289-22.9155,7.8476-37.5581,1.1787-3.0918,3.2813-9.4209,5.9102-18.4209h-22.67c-.3046,29-.6035,55.6866-.6035,55.6866Z"/></g><g><path fill="#030126" d="m908.0967188,1163.6427859c.0527-.832.1523-1.539.2675-2.1831,1.0625-5.8462,4.5313-4.6059,6.8145-3.8676.4219.1381,1.8242.5312,3.832,1.0722,2.0137-.5293,3.418-.9121,3.8418-1.0464,2.2832-.7231,5.7637-1.9438,6.7871,3.9117.1153.6464.209,1.3515.2578,2.1835.4786,8.3438.7872,10.9571.7872,10.9571,0,0-5.1133.0117-11.7247.0039-6.6074-.0352-11.7285-.082-11.7285-.082,0,0,.3282-2.6099.8653-10.9493Z"/><g><path fill="#001f3e" d="m835.8525187,866.1603859s28.9844,104.1387,39.8789,131.1875c7.9414,19.7183,50.086,17.0547,53.7149-12.4023,3.6211-29.461.334-77.17-5.3496-147.7696-2.7539-34.1718-96.2793,1.543-88.2442,28.9844Z"/><path fill="#001f3e" d="m930.3740187,1019.7150859c.6748-18.7148-2.9121-57.2871-24.2031-56.3008-21.291.9829-33.7481,16.4707-33.086,20.1992,3.3555,18.9688,16.0997,77.7837,27.0215,122.75l26.3594-2.7153c2.0391-26.8101,3.3945-69.8081,3.9082-83.9331Z"/><path fill="#f7bb92" d="m925.6260188,1103.7345859l-24.2657,2.4976c7.5957,31.2876,12.9903,53.0337,12.9903,53.0337,0,0,.1679,3.3672,5.3418,3.1914,3.8652-.1289,4.1064-3.3711,4.1064-3.3711,0,0-2.3467-20.7515-.0459-35.9141.5645-3.7207,1.209-10.7187,1.8731-19.4375Z"/></g></g><path fill="#14b6c8" d="m844.4131188,687.7731859c-25.0938-1.2026-27.4746.8462-34.586,25.293-23.4804,80.7173-21.5508,106.063-25.5508,150.686,0,0,9.6622,16.2617,63.668,19.3696,70.1348,4.0367,82.4824-3.9536,82.4824-3.9536,0,0-3.9619-75.9873-14.082-142.9531-5.375-35.5791-21.6211-43.8242-49.2988-47.5469-7.8965-1.0566-14.2246-.4902-22.6328-.895Z"/><g><path fill="#001f3e" d="m828.5498187,649.6584891c-8.7891-11.0888997-6.8027-47.6577988,11.6133-45.3432989,48.9101,6.1537998,17.5039,15.0409996,36.705,23.8026994,9.4239,4.3002999,18.6426,14.8090996,10.6856,31.7045992-5.6875,12.0790997-13.8809,17.5663971-26.8535,22.2265971-4.7168,1.6938-1.7774-15.7782973-12.5371-24.2636971-10.7598-8.4926998-19.6133-8.1268998-19.6133-8.1268998Z"/><path fill="#001f3e" d="m831.2822188,687.8634859c-2.334,9.9571-10.3574,31.8106,13.6152,31.6665,28.1622-.1582,35.4883-28.9477,34.0684-32.3032-3.2285-7.6406-14.5879-4.0566-21.6992-3.9199-7.1074.1426-24.0059-3.8848-25.9844,4.5566Z"/><path fill="#f7bb92" d="m871.6142187,686.3205859c-1.3554-.1704-2.7285-.3184-4.1601-.4297-7.9473-.5957-14.2578-.2637-22.6387.4316-2.6445.2149-5.0879.6035-7.3457,1.1524-1.1641,6.4863-8.4336,24.2617,9.5918,24.6621,18.5137.4043,24.6816-19.541,24.5527-25.8164Z"/><path fill="#f7bb92" d="m864.0967188,687.3634859c-.4239-20.2748973-3.1348-23.7108972-5.627-39.5702968.1152-.5449-22.8555-1.6601032-26.1074-14.1429996,0,0-4.7754,14.2547996-5.4121,26.8187993-.6035,11.8554997,1.4219,18.8031971,13.8261,15.8202971-1.248,5.5825-.8242,12.3491-1.9804,17.2315-2.3125,9.8437,4.0683,13.539,8.8476,13.9541,4.7832.4101,16.8418-1.3506,16.4532-20.1114Z"/><path fill="#f7bb92" d="m869.4111188,654.7731889c1.0586,3.1000999-1.7969,6.8759998-6.3867,8.4457998-4.5801,1.5562-6.9238-.498-7.9805-3.5917999-1.0566-3.0995999-.4433-6.0619998,4.1524-7.6264998,4.582-1.5703,9.1562-.3203,10.2148,2.7724999Z"/></g></g><g><g><path fill="#f7bb92" d="m797.8271187,751.1017859c-17.2031-19.9839-80.8789-52.331-87.6523-62.7402-4.4004-6.7578-14.9238,2.5967-8.1543,8.6875,5.2783,4.75,52.2793,48.2285,66.0488,60.0303,10.1875,9.28121,18.4746,13.47994,23.4024,10.24898,7.0058-4.59378,12.7441-8.81058,6.3554-16.22658Z"/><g><path fill="#f7bb92" d="m716.2685188,682.8361859c.7598-3.2476.0625-12.3529974-2.5039-13.0263974-5.2031-1.375-2.7422,6.4179974-7.8965,12.5951974-3.2812,3.9361,5.9766,8.9156,5.9766,8.9156,0,0,3.1973-3.2554,4.4238-8.4844Z"/><path fill="#f7bb92" d="m681.4892187,689.0177859c4.545,6.8374,16.795,15.2554,22.2422,9.9405,2.5469-2.4873,8.2364-6.9112,10.0449-10.3365,2.9141-5.5205-3.7265-13.8159-17.3925-20.8304973-6.6231-3.4023999-19.0196,15.0179973-14.8946,21.2264973Z"/></g></g><g><path fill="#f7bb92" d="m808.1982187,737.3244859s-24.0254,10.9721-30.5371,15.5141c-4.6738,3.2525.3672,9.3697,3.4004,13.16947,3.0332,3.7959,21.168,3.12695,35.5156-2.28907,10.9805-4.1465-6.1054-26.0625-8.3789-26.3945Z"/><path fill="url(#X)" d="m890.9209188,709.1750859c-25.2871,4.29-97.625,29.6215-97.625,29.6215,0,0-2.25,6.9097,1.6816,20.6006,5.9102,20.55374,13.6055,25.71,13.6055,25.71,0,0,51.3223-9.20558,76.793-14.77003,12.455-2.7207,24.0195-14.76857,23.2832-36.96187-.5625-16.9434-2.4356-26.7969-17.7383-24.2002Z"/></g></g></g><g><g><rect width="180.247" height="10" x="706.981" y="1505.373" fill="#001f3e"/><rect width="180.247" height="10" x="720.225" y="1395.141" fill="#001f3e"/><rect width="180.248" height="10" x="733.467" y="1284.909" fill="#001f3e"/><polygon fill="#001f3e" points="874.758 1571.889 921.319 1184.677 751.145 1184.677 704.582 1571.889 694.511 1571.889 742.275 1174.677 932.595 1174.677 884.829 1571.889 874.758 1571.889"/></g><g><rect width="180.247" height="10" x="802.839" y="1505.373" fill="#14b6c8"/><rect width="180.247" height="10" x="789.596" y="1395.141" fill="#14b6c8"/><rect width="180.248" height="10" x="776.353" y="1284.909" fill="#14b6c8"/><polygon fill="#14b6c8" points="815.31 1571.889 768.748 1184.677 938.923 1184.677 985.485 1571.889 995.557 1571.889 947.792 1174.677 757.473 1174.677 805.238 1571.889 815.31 1571.889"/></g><polygon fill="#00507b" points="760.447 1199.415 739.301 1199.415 742.275 1174.677 757.473 1174.677 760.447 1199.415"/><polygon fill="#0081a0" points="950.767 1199.415 760.447 1199.415 757.473 1174.677 947.792 1174.677 950.767 1199.415"/></g><g><g><path fill="#e28e54" d="m2031.4414187,995.8190859c1.6992-2.4297,7.4814-9.2324,9.0273-7.916,4.4043,3.7539-1.084,14.9961-4.8271,19.9336-2.7569,3.6387-5.5391.6191-5.5391.6191,0,0-2.2217-7.5664,1.3389-12.6367Z"/><path fill="#e28e54" d="m2016.2480188,1096.1842859c-6.7959-22.4668,5.0313-72.539,5.2744-85.7539-2.9795-6.1875-7.5947-13.5195-7.7138-22.4453-.0352-2.7207,10.6504-11.0342,15.7861-8.6211,3.8486,1.8086,16.8906,21.5449,2.4922,31.9766-2.9307,5.5976.8682,55.6465,3.1582,71.625,1.04,7.2148,1.8379,18.1074-3.0107,20.0996-7.7295,3.1768-13.4649,1.457-15.9864-6.8809Z"/></g><g><path fill="#f4b519" d="m1915.7646187,948.7047859c-.2675-1.8969,1.0684-3.6699,2.9668-3.937l94.877-13.3393c1.8994-.2652,3.6709,1.0698,3.9394,2.9668l8.6719,61.686c.2656,1.8975-1.0703,3.6704-2.9687,3.9395l-94.877,13.3364c-1.8984.2685-3.6699-1.0664-3.9375-2.9658l-8.6719-61.6866Z"/><g><path fill="#001f3e" d="M1924.0556187 1007.6681859l.3809 2.7232c.1328.9428.6377 1.7441 1.3438 2.2827l32.5957-35.7783-4.0254-2.4795-30.295 33.2519zM1984.8984188 970.1213859l-3.1826 3.496 42.4014 26.146c1.415-.5996 2.3261-2.0893 2.1025-3.6821l-.0762-.5278-41.2451-25.4321z"/></g><path fill="#001f3e" d="m2013.8730188,931.4171859l-41.4736,45.5279c-.9785,1.0708-2.916,1.3418-4.1494.583l-51.4932-31.7544c-.7412.75-1.1494,1.8149-.9922,2.9311l.2969,2.1011,49.7481,30.6763c1.5703.9692,3.455,1.2954,5.2568,1.0425,1.8037-.2525,3.5254-1.0899,4.7646-2.4492l41.6934-45.7652c-.293-1.7612-1.8848-3.0034-3.6514-2.8931Z"/><path fill="url(#m)" d="m2013.8584188,931.3166859l-1.4629,1.7226,1.4775-1.6221c1.7354-.1083,3.2949,1.0918,3.626,2.8038l.0107-.0113c-.2929-1.7612-1.8837-3.0034-3.6513-2.893Zm-42.792,51.208c-1.8018.2529-3.6865-.0733-5.2568-1.0425l-47.9766-29.5835,48.3555,32.3071c1.5712.9693,3.455,1.2954,5.2578,1.043,1.8027-.2529,3.5254-1.0903,4.7646-2.4497l39.8281-46.8594-40.208,44.1358c-1.2392,1.3593-2.9609,2.1967-4.7646,2.4492Zm-54.3233-36.8516c-.7421.75-1.1494,1.8149-.9931,2.9312l.0137.0986c-.1553-1.1157.2519-2.1792.9931-2.9292l1.834,1.1309-1.8477-1.2315Z"/><path fill="url(#Y)" d="m1924.4365187,1010.3913859l-8.6719-61.6866c-.2675-1.8969,1.0684-3.6699,2.9668-3.937l-4.333.604c-1.8984.2671-3.2344,2.0396-2.9678,3.9371l8.6729,61.6865c.2666,1.8994,2.0391,3.2343,3.9375,2.9658l4.2822-.6016c-1.8789.2364-3.622-1.0864-3.8867-2.9682Z"/><path fill="#000c16" d="m1984.8989188,970.1217859l-1.2378,1.3588-1.9453,2.1368,1.5085.9302,3.044-3.5815-1.3694-.8443Zm-31.6133,5.4634l3.9065,2.6099,1.1824-1.2976-4.0239-2.4812-1.065,1.1689Z"/></g><g><path fill="#e28e54" d="m2028.3476188,1126.5260859s-9.1562-21.6484-10.6972-28.5507c-1.1094-4.9415,5.8769-5.9258,10.1552-6.5938,4.2686-.6621,15.7657,10.6895,21.917,22.8672,4.7129,9.3262-19.6836,13.4277-21.375,12.2773Z"/><path fill="url(#Z)" d="m2040.1660188,1190.4303859c-10.4785-15.5175-28.7676-58.5039-32.1523-66.289,0,0,2.6796-5.8867,13.4941-12.502,16.2441-9.9297,24.3906-8.6797,24.3906-8.6797,0,0,20.6582,26.502,35.4356,52.4102,13.2148,23.168-33.3164,46.6855-41.168,35.0605Z"/></g><g><path fill="#f5ab74" d="m1923.3125187,1002.0495859c1.1074-2.752,5.2031-10.6856,7.0058-9.752,5.1387,2.6621,2.3321,14.8535-.1972,20.5098-1.8633,4.166-5.2569,1.8535-5.2569,1.8535,0,0-3.874-6.8691-1.5517-12.6113Z"/><path fill="#f5ab74" d="m1931.1914187,1103.2506859c-11.6973-20.3496-11.4902-71.7998-14.2383-84.7265-4.3008-5.3535-10.4531-11.4531-12.5859-20.1231-.6504-2.6406,7.8808-13.1543,13.4287-11.9629,4.1572.8907,21.3232,17.17,9.6533,30.586-1.5898,6.1133,13.4199,54.0097,19.2598,69.0586,2.6445,6.7929,5.8828,17.2226,1.6093,20.2597-6.8105,4.8418-12.7871,4.461-17.1269-3.0918Z"/></g><path fill="#030126" d="m2045.3613187,1562.0338859c-.0449-.7402-.1299-1.371-.2344-1.9453-.9287-5.207-4.0156-4.1132-6.0527-3.4609-.374.1211-1.626.4648-3.415.9434-1.7881-.4786-3.0381-.8223-3.4141-.9434-2.0342-.6523-5.127-1.7461-6.0547,3.4609-.1025.5743-.1885,1.2051-.2334,1.9453-.4521,7.4239-.7353,9.7481-.7353,9.7481,0,0,4.5546.0273,10.4375.0391,5.8828-.0118,10.4414-.0391,10.4414-.0391,0,0-.2871-2.3242-.7393-9.7481Z"/><path fill="#f4aa74" d="m1959.9228188,1281.6003859s-19.7031,94.4218-22.873,113.4863c-3.169,19.0644,32.1377,31.1875,47.6269,9.0996,15.4961-22.0762,36.3887-52.957,42.1084-77.7031,5.709-24.752,4.0401-44.9981-10.5166-63.6914-14.5527-18.6954-51.0654-6.6348-56.3457,18.8086Z"/><path fill="#f4aa74" d="M2001.1289187 1287.8171859s10.543 95.8808 13.4414 114.9902c2.8984 19.1055 40.2246 19.6836 48.1006-6.1172 7.8877-25.793 18.1767-61.6309 15.9414-86.9316-2.2461-25.2989-10.1084-44.0313-29.7442-57.2911-19.6318-13.2617-50.6064 9.5235-47.7392 35.3497zM1936.9385188 1399.7702859c3.8134 23.3691 29.6425 160.3847 29.6425 160.3847 0 0 2.2071 1.8789 4.5596 1.3516 3.5322-.7871 3.7764-2.8437 3.7764-2.8437 0 0-1.9727-20.2989.3291-34.0489 2.3066-13.7461 11.0625-99.0683 11.9365-116.0703.877-16.998-4.4014-29.8183-23.7637-29.2187-19.3613.6054-28.1523 10.207-26.4804 20.4453z"/><path fill="#f4aa74" d="m2013.7929187,1398.0202859c1.7159,23.6113,3.3555,23.6094,6.2774,52.0957,2.9258,28.4902,10.873,110.5879,10.873,110.5879,0,0,2.0303,2.0683,4.42,1.7539,3.5869-.4688,4.0175-2.4961,4.0175-2.4961,0,0-.1582-20.3945,3.3594-33.8848,3.5254-13.4844,17.9297-97.9844,20.3135-114.8437,2.3887-16.8477-1.7246-30.0899-21.0635-31.2188-19.3398-1.123-28.9492,7.6582-28.1973,18.0059Z"/><path fill="#030126" d="m1940.7471187,1564.4128859s28.6679-7.3711,30.7558-8.0313c2.3125-.7266,5.959-2.0371,6.4014,5.5469.4326,7.5801.7109,9.9551.7109,9.9551,0,0-33.1992.0742-36.7715-.3282-3.5713-.4082-6.3925-3.0937-1.0966-7.1425Z"/><path fill="url(#aa)" d="m1955.7578188,1294.5402859c-6.3809,22.5664-21.0664,97.3301-21.0664,97.3301,0,0,5.3682,19.8608,64.3359,20.5268,58.9678.668,74.2656-14.5195,74.2656-14.5195,0,0,5.6299-54.5,9.4444-84.7305,3.1767-25.1777-1.2305-55.9179-62.0518-51.1718-60.8222,4.746-57.5342,6.4184-64.9277,32.5649Z"/><path fill="url(#ab)" d="m2045.8476188,1130.3581859c-1.1884-.2539-2.3955-.4864-3.6591-.6934-7.002-1.1191-12.626-1.2949-20.1094-1.3037-2.3623-.0068-4.5567.1572-6.6016.4756-1.5166,5.664-9.29,20.8887,6.669,22.5879,16.3896,1.7383,23.3486-15.4922,23.7011-21.0664Z"/><path fill="#f4a872" d="m2046.1484188,1132.1862859c5.334-15.5391,5.0195-26.1875,4.1485-40.4512-3.1934-5.8691-12.7129-.6992-16.8438-12.084-1.3691-3.7734-4.7012-3.0332-6.2129.0411,0,0-4.3183,9.5332-5.9404,20.6132-1.5361,10.4512-.3291,16.7813,10.9131,15.1817-2.2207,4.3613-5.0489,9.623-7.5742,13.3066-5.0821,7.4277-.9708,12.5449,2.8632,14.4258,3.8379,1.875,13.2217,4.7656,18.6465-11.0332Z"/><path fill="#001f3e" d="m2013.4365187,1131.7702859c-2.21,8.8301-13.125,26.5781,8.2109,26.7705,25.0655.2334,27.5772-21.3486,27.712-25.7119.2285-7.3789-6.4258-7.7676-15.379-8.4571-6.5556-.5058-18.6699-.0888-20.5439,7.3985Z"/><path fill="#14b6c8" d="m2025.9004187,1129.7135859c-30.3194-1.832-36.3184,24.5352-41.6289,46.5664-17.3907,72.1407-29.1953,118.2207-29.1953,118.2207,0,0,10.8164,10.252,58.4873,17.0411,61.9072,8.8086,71.1298.6289,71.1298.6289,0,0,11.4698-93.4141-2.9453-144.1309-4.1601-14.6367-11.5683-30.4805-35.8379-35.8457-6.9267-1.5273-12.5302-2.0332-20.0097-2.4805Z"/><g><path fill="#f5ab74" d="m1953.9160188,1127.8171859s-16.9531-16.2793-21.0908-22.0157c-2.9698-4.1015,3.0615-7.7636,6.7295-10.0644,3.6611-2.293,18.7041,3.6035,29.1601,12.3672,8.0098,6.7109-12.79,20.1035-14.7988,19.7129Z"/><path fill="url(#ac)" d="m1989.9853188,1181.8776859c-15.7509-10.125-49.5127-42.4121-55.6933-48.2285,0,0,.1396-6.4668,7.4677-16.8125,11.0079-15.5313,18.9883-17.5977,18.9883-17.5977,0,0,29.4375,16.2032,53.2364,34.1817,21.2822,16.0761-12.1993,56.0429-23.9991,48.457Z"/></g><path fill="url(#ad)" d="m2127.3144188,1206.0143859c-3.0488-15.0117,11.1055-23.5762,5.8262-44.8066-3.2646-13.1328-14.9238-23.8106-24.5898-33.1778-26.9844-26.1445-4.3946-50.9062-38.9805-69.7324-10.4736-5.7012-30.2637-5.7187-40.9238,15.0449-4.5332,8.834,2.7773,11.5625,8.4082,17.3086.2343-.1582.4746-.3105.7265-.4531,3.4219-1.9394,7.2617-1.625,8.5664.6875,1.3106,2.3154-.4004,5.7617-3.8281,7.7031-.1836.1036-.3691.1953-.5547.2871,1.4629,5.5157.5498,13.2969-5.5742,25.2579-3.0215,5.9023-9.4902,10.3457-12.209,16.3046-11.5566,25.3301,14.7949,42.0977,3.7168,57.3067-36.1221,49.5996-3.0049,69.3457,31.7832,71.9746,83.5664,6.3066,71.7207-43.582,67.6328-63.7051Z"/></g><g><path fill="#efac7f" d="m1760.2890187,1133.8654859c13.459-23.2031,46.4678-49.2617,52.9678-60.7031,3.9834-7.0108,15.5596-5.4278,12.2725,3.0644-2.5586,6.625-41.6367,64.2012-46.711,67.1914-7.8369,4.6192-23.4394-1.0879-18.5293-9.5527Z"/><g><path fill="#efac7f" d="m1746.9453188,1120.0773859s25.8301,5.5176,33.1719,8.544c5.2666,2.164,1.6679,9.2265-.4746,13.5937-2.1387,4.3633-19.9913,7.6309-35.17,5.4443-11.6132-1.6728.3262-26.7675,2.4727-27.582Z"/><path fill="url(#ae)" d="m1681.9140187,1103.7384859c25.5694,2.0166,79.1338,17.7559,79.1338,17.7559,0,0,2.8555,6.6807.1631,20.667-4.0508,20.999-11.2578,26.8232-11.2578,26.8232,0,0-40.7549-4.8593-66.6211-8.1289-12.6474-1.5976-30.8125-7.2754-29.3301-29.9463,1.168-17.8437,12.4395-28.3886,27.9121-27.1709Z"/></g><path fill="#001f3e" d="m1665.4209188,1062.0290859c6.7265-11.6192.6513-39.7788-14.9473-40.1416-19.2734-.4512-14.5586,17.5341-24.4883,21.3711-21.5966,8.3569-22.3486,24.1279-13.4336,39.5527,5.5215,9.5547,17.5723,16.0454,28.4639,16.9018,4.7315.3726-1.8467-17.4677,7.0928-27.017,8.9365-9.5616,17.3125-10.667,17.3125-10.667Z"/><path fill="url(#af)" d="m1752.5449187,1255.9045859s29.5215,104.2695,34.5762,125.3847c5.0527,21.1153-33.5625,37.4844-52.6602,13.9512-19.1074-23.5195-44.9551-56.4863-53.3144-83.7695-8.3477-27.2871-8.0733-50.1075,6.7695-72.209,14.834-22.0996,56.7051-11.459,64.6289,16.6426Z"/><path fill="#030126" d="m1642.5410188,1563.3322859s-32.2402-8.1582-34.5898-8.8887c-2.6016-.8086-6.7051-2.2637-7.17,6.2559-.4511,8.5215-.7558,11.1894-.7558,11.1894,0,0,37.3008-.0586,41.3144-.5273,4.0078-.4746,7.166-3.5039,1.2012-8.0293Z"/><path fill="#f7bb92" d="m1605.8027188,1556.0568859s8.3809-21.3203,10.1289-36.8867c.6875-6.1778,4.086-24.7852,8.2031-46.1426l28.1094,11.4961c-17.2539,34.3965-37.8887,75.7129-37.8887,75.7129,0,0-2.9648,1.3535-5.3437.0605-3.5742-1.9394-3.209-4.2402-3.209-4.2402Z"/><path fill="#001f3e" d="m1640.8887188,1390.5392859c4.2812-18.6328,13.9316-30.8633,34.6679-24.2578,20.7344,6.6133,27.2754,19.6934,22.3203,30.2441-11.3125,24.0743-13.0293,23.4102-27.5703,52.1114-4.2773,8.4394-10.8769,21.5625-18.0625,35.8867l-28.1094-11.4961c6.254-32.4473,14.1661-71.2441,16.754-82.4883Z"/><g><path fill="#030126" d="m1866.7168188,1539.4279859s-30.6387,12.9316-32.9531,13.7637c-2.5625.9257-6.7149,2.2382-1.9473,9.3144,4.7754,7.0703,6.1426,9.3828,6.1426,9.3828,0,0,29.7207-22.5371,32.6406-25.332,2.9121-2.7949,3.6055-7.1172-3.8828-7.1289Z"/><g><path fill="#f7bb92" d="m1834.8418188,1556.0998859s-9.1992-20.9805-19-33.1993c-3.8946-4.8457-14.6856-20.3808-26.9199-38.3652l27.9765-11.8144c12.209,36.4941,26.9395,80.2656,26.9395,80.2656,0,0-1.1328,3.0547-3.7266,3.8281-3.8965,1.166-5.2695-.7148-5.2695-.7148Z"/><path fill="url(#ag)" d="m1742.2695188,1414.4748859c-10.1855-16.1797-12.0469-31.6465,7.2617-41.6856,19.3145-10.0312,33.1992-5.4414,37.1836,5.5137,9.084,25,7.4004,25.748,17.4883,56.3008,2.9648,8.9843,7.6113,22.9199,12.6953,38.1172l-27.9765,11.8144c-18.5879-27.3203-40.5059-60.2969-46.6524-70.0605Z"/><path fill="#14b6c8" d="m1823.9687188,1487.9318859c.1465.5293-.1425,1.1484-.6445,1.373l-24.9434,11.2168c-.5039.2266-1.1894.0547-1.5254-.3808l-10.6894-13.8125c-.3359-.4356-.2012-.9746.3008-1.1992l31.7344-14.2696c.5019-.2246,1.0312.0215,1.1796.5528l4.5879,16.5195Z"/></g></g><path fill="#001f3e" d="m1707.5449187,1259.6955859c5.4922,48.8847-7.584,109.6035-8.6309,131.291-1.0449,21.6855-42.6953,26.6152-54.4589-1.3145-11.7754-27.9218-27.3887-66.7929-27.793-95.3261-.3945-28.5332,6.2432-50.3711,26.668-67.4454,20.4179-17.0722,59.955-5.1113,64.2148,32.795Z"/><path fill="#14b6c8" d="m1661.6142187,1102.7423859c33.7217-5.25,43.3409,22.8145,53.2159,46.2813,22.8242,54.2148,43.2773,120.3164,43.2773,120.3164,0,0-10.8926,22.8516-63.4961,35.4785-68.3125,16.3887-79.9473-1.3242-79.9473-1.3242,0,0-8.8711-76.0898-11.4687-151.9863-.5859-17.0821,9.7187-35.3164,36.3008-43.8789,7.5859-2.4395,13.7988-3.5977,22.1181-4.8868Z"/><path fill="#001f3e" d="m1679.8183187,1101.4748859c4.0606,9.3867,15.8243,29.4746-7.7949,33.5761-27.7441,4.8282-40.0527-22.207-39.248-25.7617,1.8261-8.0918,13.6386-6.5742,20.6621-7.6992,7.0195-1.1172,22.9394-8.0742,26.3808-.1152Z"/><path fill="#f7bb92" d="m1639.8515187,1107.0959859c1.3028-.4082,2.627-.795,4.0176-1.1602,7.7168-1.9922,13.9863-2.7812,22.3574-3.582,2.6387-.2559,5.1133-.3047,7.4336-.166,2.293,6.1777,12.5957,22.3867-5.0761,25.9707-18.1465,3.6757-27.7481-14.8623-28.7325-21.0625Z"/><g><path fill="#f7bb92" d="m1645.4873187,1112.4616859c-7.1387-17.02-7.5781-28.9834-7.6631-45.0376,3.1455-6.814,14.2021-1.7295,17.9844-14.7993,1.2549-4.3296,5.0439-3.7481,6.9677-.4131,0,0,5.5508,10.3652,8.1924,22.664,2.5,11.6031,1.6153,18.7872-11.1045,17.8301,2.8116,4.7251,6.3731,10.4141,9.4776,14.3535,6.2529,7.9517,2.0244,13.9912-2.1338,16.3853-4.1651,2.3892-14.4688,6.3257-21.7207-10.9829Z"/><path fill="#f7bb92" d="m1628.1347187,1076.0846859c-.5488,3.231,2.8721,6.5059,7.6524,7.3213,4.7705.8047,9.0918-1.1557,9.6396-4.3794.5469-3.2344-2.873-6.5053-7.6582-7.3144-4.7724-.8179-9.0879,1.1508-9.6338,4.3725Z"/></g><path fill="#14b6c8" d="m1646.4512188,1500.2658859c-.2735.4765-.9161.707-1.4297.5117l-25.545-9.7695c-.5156-.1953-.8769-.8047-.8066-1.3496l2.25-17.3204c.0723-.5449.5488-.83,1.0625-.6328l32.502,12.4278c.5117.1972.7109.748.4394,1.2265l-8.4726,14.9063Z"/><g><path fill="#f7bb92" d="m1701.0390187,1148.8595859s24.8555,8.9317,31.7247,12.916c4.9296,2.8497.415,9.3672-2.293,13.4063-2.7051,4.0371-20.834,4.8809-35.583.6787-11.2842-3.2158,3.9131-26.4834,6.1513-27.001Z"/><path fill="url(#ah)" d="m1638.7851188,1123.9455859c25.0684,5.4277,76.0381,28.209,76.0381,28.209,0,0,1.9336,7.0039-2.6103,20.5019-6.8321,20.2656-14.7539,25.0713-14.7539,25.0713,0,0-39.7364-10.2822-64.9297-16.9912-12.3184-3.2793-29.5576-11.3428-25.0479-33.6094,3.5498-17.5264,16.1348-26.4648,31.3037-23.1816Z"/></g><g><path fill="#efac7f" d="m1806.7763188,1063.9977859c-1.5078-2.979-2.9765-11.9883-.6435-13.2505,4.7295-2.5644,4.1797,5.5899,10.6435,10.378,4.1182,3.0488-2.9648,11.1054-2.9648,11.1054,0,0-4.6133-3.4394-7.0352-8.2329Z"/><path fill="#efac7f" d="m1838.5820188,1059.7848859c-2.6455,5.855-2.4131,9.9536-7.6894,14.9605-4.875,4.6269-11.5411.1772-15.1524-1.2285-7.3174-2.8467-3.9853-23.1387.6631-25.1133,4.3096-1.8301,24.5977,6.0303,22.1787,11.3813Z"/></g><g><path fill="#f4b519" d="m1748.3730188,997.1339859c.0811-1.914,1.7168-3.415,3.6328-3.333l95.7217,4.0996c1.916.084,3.416,1.7178,3.335,3.6319l-2.666,62.2363c-.083,1.9141-1.7188,3.4151-3.6338,3.335l-95.7217-4.1026c-1.916-.0805-3.416-1.7148-3.334-3.6308l2.666-62.2364Z"/><g><path fill="#001f3e" d="M1745.8262188 1056.6232859l-.1192 2.7471c-.041.9511.3106 1.8305.9072 2.4883l38.5469-29.2696-3.5088-3.1684-35.8261 27.2026zM1812.4726188 1030.7409859l-3.7636 2.8608 36.9521 33.4063c1.501-.333 2.666-1.6328 2.7354-3.2393l.0214-.5332-35.9453-32.4946z"/></g><path fill="#001f3e" d="m1847.9892187,997.9377859l-49.0459,37.2456c-1.1572.875-3.1113.79-4.1875-.1802l-44.875-40.5713c-.8652.603-1.4589,1.5757-1.5078,2.7021l-.0888,2.1202,43.3545,39.1948c1.3691,1.2383,3.1621,1.9009,4.9804,1.9795,1.8194.0786,3.6651-.4321,5.1309-1.544l49.3047-37.4394c.0322-1.7852-1.3067-3.2954-3.0655-3.5073Z"/><path fill="url(#ai)" d="m1847.9941187,997.8361859l-1.751,1.4282,1.7461-1.3266c1.7276.208,3.043,1.6713,3.0577,3.415l.0127-.0093c.0312-1.7851-1.3077-3.2954-3.0655-3.5073Zm-51.375,42.5923c-1.8183-.0786-3.6113-.7412-4.9804-1.9795l-41.8106-37.7988,41.6895,40.5463c1.3691,1.2378,3.163,1.9004,4.9804,1.979,1.8194.0787,3.6651-.4321,5.1309-1.5434l47.6699-38.854-47.5488,36.1064c-1.4658,1.1119-3.3115,1.6226-5.1309,1.544Zm-46.7344-46.0982c-.8652.6031-1.4589,1.5762-1.5078,2.7022l-.0039.0996c.0489-1.125.6426-2.0977,1.5078-2.7002l1.5977,1.4443-1.5938-1.5459Z"/><path fill="#fdb918" d="m1745.7070188,1059.3703859l2.666-62.2364c.0811-1.914,1.7168-3.415,3.6328-3.333l-4.3711-.1923c-1.916-.0821-3.5517,1.4189-3.6328,3.333l-2.666,62.2358c-.082,1.9165,1.419,3.5508,3.334,3.6314l4.3203.1855c-1.8906-.1084-3.3652-1.7256-3.2832-3.624Z"/><path fill="url(#aj)" d="m1745.7070188,1059.3703859l2.666-62.2364c.0811-1.914,1.7168-3.415,3.6328-3.333l-4.3711-.1923c-1.916-.0821-3.5517,1.4189-3.6328,3.333l-2.666,62.2358c-.082,1.9165,1.419,3.5508,3.334,3.6314l4.3203.1855c-1.8906-.1084-3.3652-1.7256-3.2832-3.624Z"/><path fill="#000c16" d="m1812.4734187,1030.7416859l-1.6573,1.2583-2.1071,1.6018,1.3144,1.1883,3.6433-2.9697-1.1933-1.0787Zm-32.0804-.3648l3.3677,3.2755,1.3981-1.0616-3.5065-3.1701-1.2593.9562Z"/></g><path fill="#f7bb92" d="m1712.0293188,1165.2277859c7.1738-25.3779,51.2695-81.5571,53.0224-93.8525,1.1377-7.982,14.626-3.94,11.0557,4.437-2.7793,6.5346-27.0664,65.7768-34.5752,82.2841-5.3213,12.7115-11.0664,20.0127-16.8955,19.1622-8.291-1.211-15.2695-2.6143-12.6074-12.0308Z"/><g><path fill="#f7bb92" d="m1755.1689187,1066.6476859c-2.2109-2.5019-5.9052-10.8496-3.9668-12.6592,3.9297-3.6748,5.4551,4.3545,12.918,7.3565,4.7539,1.9111-.0664,11.4941-.0664,11.4941,0,0-5.332-2.164-8.8848-6.1914Z"/><path fill="#f7bb92" d="m1784.8828188,1054.5461859c-1.083,6.333.1758,10.2402-3.666,16.4165-3.5498,5.7075-11.1231,3.0835-14.9727,2.6342-7.7988-.9082-9.6943-21.3842-5.6943-24.4677,3.708-2.8584,25.3232-.3711,24.333,5.417Z"/></g></g><g fill="none" opacity=".75"><g><path fill="#f4b519" d="m1788.8174187,938.6757859c-.2725-1.4488.6914-2.8604,2.1435-3.1319l72.4863-13.6152c1.4512-.2715,2.8614.6919,3.1348,2.1411l8.8496,47.1294c.2725,1.4507-.6924,2.8608-2.1416,3.1343l-72.4883,13.6128c-1.4502.2734-2.8593-.6905-3.1318-2.1411l-8.8525-47.1294Z"/><g><path fill="#001f3e" d="M1797.2803188 983.7245859l.3896 2.0806c.1357.7202.5518 1.3183 1.1143 1.7075l23.7998-28.667-3.1836-1.7637-22.1201 26.6426zM1842.7383187 952.6986859l-2.3223 2.8013 33.5303 18.605c1.0674-.5108 1.7148-1.689 1.4853-2.9058l-.0752-.4028-32.6181-18.0977z"/></g><path fill="#001f3e" d="m1863.6504187,921.9110859l-30.2813,36.4776c-.7148.8569-2.1943,1.1342-3.1719.5947l-40.7197-22.5967c-.5439.6035-.8193,1.436-.6601,2.2891l.3037,1.6054,39.3398,21.8291c1.2442.69,2.7031.8745,4.0801.6162,1.3769-.2583,2.6728-.9628,3.5781-2.0522l30.4414-36.6689c-.2871-1.3438-1.5547-2.2427-2.9101-2.0943Z"/><path fill="url(#ak)" d="m1863.6357187,921.8329859l-1.0635,1.3769,1.0782-1.2988c1.331-.1455,2.5722.7222,2.8886,2.0274l.0059-.0093c-.2861-1.3443-1.5547-2.2437-2.9092-2.0962Zm-31.0947,40.8935c-1.377.2583-2.8359.0738-4.0801-.6162l-37.9394-21.0522,38.3281,23.1338c1.2422.6889,2.7031.8735,4.0791.6152,1.3789-.2578,2.6719-.9629,3.5781-2.0517l28.9688-37.4439-29.3565,35.3628c-.9053,1.0894-2.2012,1.7939-3.5781,2.0522Zm-43.0781-26.4165c-.544.6031-.8184,1.4361-.6602,2.2891l.0147.0752c-.1592-.8516.1162-1.6846.6601-2.2876l1.4502.8047-1.4648-.8814Z"/><path fill="#fdb918" d="m1797.6699187,985.8051859l-8.8525-47.1294c-.2725-1.4488.6914-2.8604,2.1435-3.1319l-3.3115.6172c-1.4502.2725-2.415,1.6831-2.1416,3.1323l8.8506,47.1289c.2724,1.4517,1.6836,2.4151,3.1318,2.1412l3.2735-.6133c-1.4375.248-2.8243-.7075-3.0938-2.145Z"/><path fill="url(#al)" d="m1797.6699187,985.8051859l-8.8525-47.1294c-.2725-1.4488.6914-2.8604,2.1435-3.1319l-3.3115.6172c-1.4502.2725-2.415,1.6831-2.1416,3.1323l8.8506,47.1289c.2724,1.4517,1.6836,2.4151,3.1318,2.1412l3.2735-.6133c-1.4375.248-2.8243-.7075-3.0938-2.145Z"/><path fill="#000c16" d="m1842.7395187,952.6993859l-1.3093,1.5773-1.0142,1.2233,1.1923.6616,2.2137-2.8615-1.0825-.6007Zm-24.1171,5.3197l3.0963,1.8688.8633-1.0397-3.182-1.7657-.7776.9366Z"/></g></g><g fill="none" opacity=".5"><g><path fill="#f4b519" d="m1894.6377188,890.4439859c.1562-1.0816,1.1689-1.8399,2.251-1.6826l54.0459,7.7978c1.083.1568,1.8398,1.1694,1.6855,2.2505l-5.0713,35.1392c-.1572,1.0815-1.1699,1.8398-2.251,1.6845l-54.0468-7.8003c-1.0821-.1547-1.8399-1.1679-1.6836-2.2495l5.0703-35.1396Z"/><g><path fill="#001f3e" d="M1889.7920188 924.0318859l-.2246 1.5517c-.0782.5376.0713 1.0562.3711 1.4629l23.5341-14.3945-1.8095-1.9966-21.8711 13.3765zM1929.0654188 913.1660859l-2.2988 1.4078 19.0449 21.0556c.8711-.102 1.6055-.7724 1.7373-1.6806l.043-.2998-18.5264-20.483z"/></g><path fill="#001f3e" d="m1951.0830187,896.5957859l-29.9434,18.316c-.707.4296-1.8086.2695-2.3652-.3414l-23.126-25.5737c-.5244.293-.9189.8106-1.0107,1.4473l-.1719,1.1972,22.3447,24.7046c.7061.7808,1.6846,1.2593,2.711,1.4073,1.0263.1489,2.1025-.0347,2.998-.5821l30.1006-18.4116c.1201-1.0112-.5527-1.9434-1.5371-2.1636Z"/><path fill="url(#am)" d="m1951.0908187,896.5376859l-1.0742.7105,1.0664-.6524c.9668.2163,1.6289,1.1206,1.5381,2.1114l.0068-.0054c.1201-1.0103-.5517-1.9439-1.5371-2.1641Zm-31.5693,21.2154c-1.0264-.148-2.0049-.6265-2.711-1.4073l-21.5488-23.8252,21.3232,25.377c.7051.7803,1.6836,1.2583,2.71,1.4067,1.0283.149,2.1045-.0356,2.998-.582l29.254-19.3076-29.0274,17.7563c-.8955.5474-1.9717.731-2.998.5821Zm-23.8662-28.814c-.5254.293-.9161.811-1.0088,1.4468l-.0088.0561c.0918-.6347.4844-1.1523,1.0107-1.4453l.8233.9111-.8164-.9687Z"/><path fill="#fdb918" d="m1889.5674187,925.5835859l5.0703-35.1396c.1562-1.0816,1.1689-1.8399,2.251-1.6826l-2.4678-.3599c-1.0821-.1558-2.0947.602-2.251,1.6826l-5.0703,35.1402c-.1563,1.0825.6025,2.0952,1.6826,2.249l2.4395.353c-1.0664-.1694-1.8086-1.1709-1.6543-2.2427Z"/><path fill="url(#an)" d="m1889.5674187,925.5835859l5.0703-35.1396c.1562-1.0816,1.1689-1.8399,2.251-1.6826l-2.4678-.3599c-1.0821-.1558-2.0947.602-2.251,1.6826l-5.0703,35.1402c-.1563,1.0825.6025,2.0952,1.6826,2.249l2.4395.353c-1.0664-.1694-1.8086-1.1709-1.6543-2.2427Z"/><path fill="#000c16" d="m1929.0659188,913.1664859l-1.0691.654-1.2302.7534.6772.7487,2.2368-1.4763-.6147-.6798Zm-17.4028-2.5112l-.7686.4701,1.7225,2.0498.8537-.5221-1.4334-1.5847-.3742-.4131Z"/></g></g><g fill="none" opacity=".25"><g><path fill="#f4b519" d="m1822.4346187,889.0024859c-.2608-.7607.1513-1.5972.915-1.8559l38.083-12.9312c.7627-.2583,1.5977.1533,1.8574.915l8.4082,24.7608c.2559.7627-.1553,1.5986-.916,1.8574l-38.0859,12.9302c-.7617.2597-1.5977-.1519-1.8565-.9146l-8.4052-24.7617Z"/><g><path fill="#001f3e" d="M1830.4697188 912.6709859l.3701 1.0932c.1289.3794.4014.6695.7334.8365l10.6416-17.3096-1.8545-.7061-9.8906 16.086zM1852.6230188 892.4214859l-1.039 1.6914 19.5351 7.4619c.5371-.3579.794-1.043.5791-1.6836l-.0732-.211-19.002-7.2587z"/></g><path fill="#001f3e" d="m1861.5420188,874.1899859l-13.5401,22.0244c-.3203.5191-1.0957.7813-1.667.5655l-23.7207-9.0645c-.248.3677-.333.8389-.1796,1.2871l.2851.8438,22.9199,8.7558c.7237.2754,1.5264.2637,2.2491.0176.7255-.2451,1.3691-.7246,1.7744-1.3828l13.6113-22.1397c-.2607-.7031-1.0127-1.0908-1.7324-.9072Z"/><path fill="url(#ao)" d="m1861.5283187,874.1499859l-.4697.8242.4834-.7842c.707-.1807,1.4433.1924,1.7148.8731l.002-.0059c-.2578-.7036-1.0108-1.0923-1.7305-.9072Zm-13.6396,24.4697c-.7227.2461-1.5254.2578-2.2491-.0176l-22.1035-8.4438,22.4736,9.5376c.7237.2763,1.5254.2636,2.2491.0175.7246-.2451,1.3691-.726,1.7734-1.3833l12.7559-22.4448-13.125,21.3516c-.4053.6582-1.0489,1.1377-1.7744,1.3828Zm-25.2891-10.9443c-.2481.3676-.3311.8393-.1807,1.2861l.0137.04c-.1514-.4472-.0664-.9184.1816-1.2861l.8438.3232-.8584-.3632Z"/><path fill="#fdb918" d="m1830.8398187,913.7641859l-8.4052-24.7617c-.2608-.7607.1513-1.5972.915-1.8559l-1.7402.5878c-.7627.2593-1.1748,1.0948-.917,1.8565l8.4082,24.7612c.2578.7627,1.0957,1.1748,1.8554.9151l1.7188-.583c-.7559.2441-1.5781-.1646-1.835-.92Z"/><path fill="url(#ap)" d="m1830.8398187,913.7641859l-8.4052-24.7617c-.2608-.7607.1513-1.5972.915-1.8559l-1.7402.5878c-.7627.2593-1.1748,1.0948-.917,1.8565l8.4082,24.7612c.2578.7627,1.0957,1.1748,1.8554.9151l1.7188-.583c-.7559.2441-1.5781-.1646-1.835-.92Z"/><path fill="#000c16" d="m1852.6232187,892.4215859l-.238.3869-.8012,1.3044.6943.2652.9751-1.7158-.6302-.2407Zm-12.6108,4.7292l1.8152.7702.3859-.6277-1.8534-.708-.3477.5655Z"/></g></g><g fill="none" opacity=".15"><g><path fill="#f4b519" d="m1888.1836188,841.1267859c.3818-.6504,1.2275-.8687,1.8789-.4839l32.4785,19.1445c.6504.3848.8682,1.2305.4863,1.8804l-12.4502,21.1152c-.3828.6499-1.2285.8687-1.8779.4868l-32.4795-19.1494c-.6504-.3818-.8682-1.2266-.4853-1.8769l12.4492-21.1167Z"/><g><path fill="#001f3e" d="M1876.2842188 861.3112859l-.5498.9322c-.1905.3227-.2315.6933-.1465 1.0317l18.8047-3.0264-.6309-1.7495-17.4775 2.812zM1904.2197188 864.6643859l-1.8389.2968 6.6475 18.4424c.582.1607 1.2275-.0752 1.5488-.6206l.1065-.1802-6.4639-17.9384z"/></g><path fill="#001f3e" d="m1922.6250187,859.8498859l-23.9268,3.8525c-.5654.0889-1.2246-.3017-1.4209-.8393l-8.0683-22.396c-.4131.0498-.7989.2778-1.0254.6597l-.4239.7192,7.7969,21.6377c.2481.6836.7461,1.2456,1.3643,1.6094.6172.3642,1.3515.5273,2.0674.414l24.0527-3.872c.3398-.6148.1562-1.3863-.416-1.7852Z"/><path fill="url(#aq)" d="m1922.6465187,859.8151859l-.8731.1709.8516-.1362c.5625.3921.7471,1.1431.4297,1.7524l.0049-.0014c.3427-.6143.1591-1.3867-.4131-1.7857Zm-25.7256,5.2779c-.6182-.3638-1.1162-.9258-1.3643-1.6094l-7.5195-20.8667,6.9687,21.7974c.2461.6835.7471,1.2465,1.3643,1.6098.6162.3648,1.3535.5283,2.0664.4141l23.7471-4.6655-23.1953,3.7343c-.7159.1133-1.4502-.0498-2.0674-.414Zm-7.6944-24.6607c-.4121.0493-.7968.2779-1.0224.6587l-.0205.0337c.2265-.3799.6123-.6089,1.0254-.6577l.2871.7974-.2696-.8321Z"/><path fill="#fdb918" d="m1875.7344188,862.2434859l12.4492-21.1167c.3818-.6504,1.2275-.8687,1.8789-.4839l-1.4805-.877c-.6514-.3838-1.498-.1655-1.8808.4834l-12.4483,21.1182c-.3838.6494-.165,1.4956.4854,1.8774l1.4648.8648c-.6367-.3882-.8477-1.2222-.4687-1.8662Z"/><path fill="url(#ar)" d="m1875.7344188,862.2434859l12.4492-21.1167c.3818-.6504,1.2275-.8687,1.8789-.4839l-1.4805-.877c-.6514-.3838-1.498-.1655-1.8808.4834l-12.4483,21.1182c-.3838.6494-.165,1.4956.4854,1.8774l1.4648.8648c-.6367-.3882-.8477-1.2222-.4687-1.8662Z"/><path fill="#000c16" d="m1904.2200188,864.6648859l-1.1734.1888-.6658.1075.2364.6558,1.8171-.357-.2143-.5951Zm-11.0735-6.0666l.5627,1.7605.6818-.1098-.6305-1.7495-.614.0988Z"/></g></g><g><path fill="#f4ad7d" d="m461.0283187,1100.5402859c-5.167,8.3335-14.6816,10.9458-20.3281,5.8447-2.6406-2.3886-6.584-4.9663-8.5225-8.3218-3.1221-5.4052,2.4395-9.7944,12.4756-15.6479,6.4277-3.751,20.3027,11.7895,16.375,18.125Z"/><g><path fill="url(#n)" d="m457.1123187,1160.6657859s18.2812-.3203,25.4121-2.0777c5.1133-1.2578,8.8838-9.3784,7.5205-13.6547-1.3594-4.274-17.2314-9.73-31.3896-9.8111-10.8565-.0644-3.3926,24.5049-1.543,25.5435Z"/><path fill="url(#as)" d="m385.0517187,1171.6852859c41.3555,11.4365,79.4043,5.5606,79.4043,5.5606,0,0,12.9561-6.9707,8.1319-28.0767-2.6748-11.6968-7.9336-15.7109-7.9336-15.7109,0,0-42.7656-4.5376-62.8545-6.9673-17.8076-2.1543-37.4014,39.4814-16.7481,45.1943Z"/></g><g><path fill="#f4be9a" d="m450.3730188,1269.2013859s24.1377,80.7754,29.4776,101.7442c5.332,20.9707-32.9141,37.8281-52.2793,14.6484-19.3711-23.166-45.5938-55.6523-54.3106-82.7187-8.709-27.0723-11.5068-42.0845,7.6426-60.4429,17.75-17.0171,61.1748-1.1196,69.4697,26.769Z"/><path fill="#030126" d="m516.9346187,1562.9338859s-32.0977-8.254-34.4356-8.9922c-2.5859-.8145-6.6719-2.2813-7.166,6.2089-.4883,8.4883-.7949,11.1485-.7949,11.1485,0,0,37.1679.084,41.1718-.3692,3.9961-.457,7.1543-3.4648,1.2247-7.996Z"/><path fill="#f4be9a" d="m446.4170188,1358.2521859c21.2676-4.2715,33.2968,3.957,34.084,15.5488,1.791,26.4454-.0235,26.6973,1.1953,58.7403.1797,4.7422.4218,10.8066.7031,17.6894,1.6211,39.6407,4.5566,106.6153,4.5566,106.6153,0,0-1.9277,2.6093-4.625,2.6347-4.0507.041-4.8457-2.1386-4.8457-2.1386,0,0-3.0175-22.6329-9.0273-37.0391-3.2461-7.7578-13.2188-37.8828-22.5547-66.8828-7.9902-24.8164-15.5117-48.8106-17.9492-57.2578-5.2832-18.3047-2.7949-33.6328,18.4629-37.9102Z"/></g><g><path fill="#f4be9a" d="m413.9424187,1258.6213859s-.9766,119.5-1.5977,140.6835c-.6289,21.1758-41.1738,26.754-53.1797-.2793-9.5312-21.4824-28.9336-50.5585-33.0586-97.125-1.0664-12.041,2.961-34.2753,4.1563-47.1992,3.1543-34.0195,83.375-24.5722,83.6797,3.92Z"/><g><path fill="#030126" d="m301.0908187,1549.6105859c-1.6426-2.1601-4.1309-5.8642-9.4375.7822-5.2969,6.6485-7.0859,8.8594-7.0859,8.8594,0,0,8.8828,6.6367,17.5918,12.6367h17.4062c-6.3613-8-17.4277-20.8955-18.4746-22.2783Z"/><path fill="#030126" d="m323.8349187,1563.1759859s-10.5566-2.875-14.4648-3.9336l-6.502,12.0118c8.9981.0722,17.8028.0879,19.6407-.0977,4.0019-.4082,7.1992-3.375,1.3261-7.9805Z"/></g><path fill="#f4be9a" d="m296.3076188,1552.4806859s11.2539-19.8691,15.1562-34.9804c2.377-9.2364,15.209-46.6407,26.3946-78.3946,7.1152-20.2011,13.5644-38.1191,16.2246-45.0371,6.832-17.7851,18.0644-28.5039,37.5996-19.0859,19.5332,9.4277,24.1602,23.2461,17.793,32.9648-14.5293,22.1719-16.1309,21.2754-34.4942,47.5586-.4472.6406-.9199,1.3164-1.4062,2.0137-19.4864,27.9336-69.4141,100.2812-69.4141,100.2812,0,0-3.1113.918-5.2793-.6914-3.2539-2.4101-2.5742-4.6289-2.5742-4.6289Z"/></g><path fill="url(#at)" d="m452.1533187,1271.4152859s14.9961,51.9053,22.9961,76.9053,7,31.666,7.25,39.332c.25,7.668.1113,35.168.1113,35.168,0,0-11.0273,8.5-58.6875,15-44.7226,6.0996-51.8398-.416-62.3398-4.666s-22-14.334-22-14.334l11-28.5s-8.25-16.75-18-47.25-6.834-58.25-5.168-67.75,48.6211-31.834,76.7266-26.166c28.1074,5.666,43.3105,7.2192,48.1113,22.2607Z"/><path fill="url(#au)" d="m304.1103187,1074.4889859c-14.3379-21.0835-45.1816-12.8403-40.08,15.5503,6.9707,38.7881-16.0606,36.9292-30.8204,46.2578-15.7246,9.9385-19.3144,27.6368-16.8212,45.0435,1.4042,9.814,6.4033,18.687,14.2695,24.7685,16.6162,12.8492,39.1055,9.8482,55.4512-1.7104,7.7236-5.4609,26.4404-25.0098,29.0791-50.9429,2.1171-20.8047-.2696-41.4956-5.0293-61.7221-1.3262-5.6368-2.7207-12.3472-6.0489-17.2447Z"/><path fill="#14b6c8" d="m317.9375187,1077.6125859l-12.5996-1.1026s-6.2237,3.5142-4.6963,16.1685c1.1621,9.6391,6.665,14.3003,6.665,14.3003l14.3467.0703s6.4766-7.4483,5.1387-16.9727c-1.3369-9.5205-8.8545-12.4638-8.8545-12.4638Z"/><path fill="url(#av)" d="m382.7119188,1093.2531859c2.8144-7.2295-2.8477-21.292-8.7041-27.3657-7.7334-8.0215-18.3096-21.0786-45.0518-4.959-18.3154,11.0395-28.2744,49.2202,3.7989,62.6499,21.4511,8.9824,44.8906-17.3018,49.957-30.3252Z"/><path fill="#14b6c8" d="m412.6826188,1145.7980859c-1.1943-8.7363-10.875-20.1645-14.1543-19.2959-6.6514,1.7603-5.7734.7188-19.1553,2.2085-7.7353.8589-13.4033,2.1528-20.6172,3.6284-27.5449,5.6343-35.8173,19.6983-38.1718,47.4453-5.0225,59.1748,5.3447,142.6309,5.3447,142.6309,0,0,12.2246-32.75,72.4746-25,40.9736,5.2705,54.8652-28.7925,54.8652-28.7925,0,0-12.5888-25.5278-21.5214-46.6118,10.6855-5.1973,14.5498-10.1548,14.1708-19.2227-.5917-14.208-28.3115-20.9062-33.2353-56.9902Z"/><path fill="#001f3e" d="m370.6885188,1127.7536859c-11.0059,2.0586-25.4834-1.5083-24.3301,8.6177,1.0498,9.2319,12.1709,33.1562,30.7832,38.9345,18.6123,5.77,31.3594-3.3916,28.9971-12.6347-2.3604-9.2354-7.5333-18.6407-10.4268-25.6895-2.8965-7.0488-.9648-14.7666-8.7402-13.4902-7.7832,1.2724-10.1621,3.1225-16.2832,4.2622Z"/><path fill="#f4be9a" d="m379.3730188,1128.7106859c-7.7353.8589-13.3525,2.4194-20.6172,3.6284-2.1757.3662-4.1855.7276-6.0654,1.1099,3.4248,10.6777,15.3692,44.0732,39.5352,37.1606,18.3466-5.2456,4.6289-9.4316-4.0616-42.7285-2.6181.1841-5.5341.4668-8.791.8296Z"/><path fill="#f4be9a" d="m359.7334188,1138.0192859c-7.2383-14.0361-6.6397-30.4756-8.3848-45.2153-.2363-.4571,20.1563-9.9825,19.9307-21.9043,0,0,7.8183,11.4961,11.5185,22.5151,3.4922,10.3999,3.4258,17.0845-8.3525,17.5239,1.9502,4.2139,2.3584,6.3174,5.8457,12.4287,4.6299,8.1167,4.6758,13.5362,1.7061,16.8243-2.9747,3.2851-14.3204,13.2358-22.2637-2.1724Z"/><path fill="url(#aw)" d="m433.8164188,1226.8581859c-.6807-1.585-1.3516-3.1582-2.0078-4.7066-22.8819,7.6099-66.8526,18.1377-78.544-3.707,1.8897,10.4385,11.6924,19.1616,30.709,18.5474,20.7725-.6729,40.3867-6.7447,49.8428-10.1338Z"/><path fill="#f4be9a" d="m343.7744188,1103.0714859c-.165,3.0249,3.3223,5.6797,7.7959,5.9268,4.4746.2471,5.1016-1.771,5.2744-4.7891.169-3.0278-.1797-5.9106-4.6562-6.1591-4.4707-.252-8.2373,2.0004-8.4141,5.0214Z"/><path fill="#f4ad7d" d="M296.8281187 1234.4923859c9.4717 9.2691 40.6084 49.9532 50.166 58.1856l-7.8144 8.4355c-7.8555-8.8857-29.8174-28.101-29.8174-28.101l-39.5733-35.7564s-9.3134-9.8628-2.2148-16.1636c5.7969-5.1469 22.1553 6.4429 29.2539 13.3999zM462.2373187 1141.4987859c-9.1231-12.0991-22.001-31.1787-28.7822-41.8169l8.2138-7.561c7.417 9.2558 44.2744 44.8476 44.2744 44.8476 0 0 8.6954 10.1445 1.4288 16.2515-6.8799 5.7822-17.4688-1.5547-25.1348-11.7212z"/><g><path fill="#f4ad7d" d="m341.4238187,1283.3063859c1.3379-3.0527,7.0234-8.2129,9.2305-6.7422,4.4824,2.9805-2.4531,5.7227-3.6543,13.6778-.7656,5.0683-8.5449,6.4648-8.5449,6.4648,0,0,.1816-7.0527,2.9687-13.4004Z"/><path fill="#f4ad7d" d="m352.1455187,1313.8644859c-8.1309,1.1387-14.0264-2.7944-13.6651-10.396.17-3.5566-.2929-10.748,1.0704-14.375,2.1972-5.8418,4.2744-6.0239,18.5947-.4536,6.9375,2.6953,1.3808,24.1934-6,25.2246Z"/></g><g><path fill="url(#ax)" d="m280.1162187,1202.0177859s-11.3633,14.3252-14.5352,20.9502c-2.2763,4.7491,1.6036,12.8179,5.7725,14.4795,4.1631,1.666,18.457-7.1289,27.5137-18.0156,6.9433-8.3447-16.7744-18.1831-18.751-17.4141Z"/><path fill="url(#ay)" d="m329.7471187,1148.4352859c-35.0987,24.6807-54.7237,57.8027-54.7237,57.8027,0,0-2.8447,14.4356,16.5235,24.1124,10.7334,5.3627,17.1728,3.8505,17.1728,3.8505,0,0,15.9619-17.6464,30.5967-31.6206,12.9726-12.3872,7.9599-66.4707-9.5693-54.145Z"/></g><g><path fill="url(#az)" d="m487.4990187,1038.3395859c-8.3545-17.8423-16.8789-31.4858-19.0391-30.4751-.0002.0001-.0004.0004-.0007.0005l-.0002-.0005c-.0003.0004-.0005.0008-.0005.0012-.2207.1043-.3623.3651-.437.7554-9.0494,15.6403-31.9488,33.9611-61.959,49.8767l13.8096,29.4907c31.4389-12.8613,60.1721-18.7227,77.9812-15.6596.3491.194.6416.2528.8635.1489,2.1601-1.0117-2.8614-16.2959-11.2178-34.1382Z"/><path fill="#fff" d="m487.4990187,1038.3395859c8.3564,17.8423,13.3779,33.1265,11.2178,34.1382-2.1612,1.0117-10.6846-12.6318-19.041-30.4741-8.3545-17.8428-13.377-33.1275-11.2159-34.1392,2.1602-1.0107,10.6846,12.6328,19.0391,30.4751Z" opacity=".5"/><path fill="#001f3e" d="M407.0615187 1060.6320859l-7.1787 5.0127c-.8066.5635-1.125 1.7524-.709 2.6421l8.7676 18.7236c.417.8901 1.5351 1.4072 2.4844 1.148l8.4463-2.3052-11.8106-25.2212zM443.4375187 1079.4938859c-5.1143 1.5835-10.3809 3.4077-15.7422 5.4316l21.6807 17.6968c1.1425.9326 3.1699 1.1836 4.5058.5586l4.0479-1.8955c1.3359-.626 1.6631-2.0708.7275-3.2119l-15.2197-18.5796zM482.6221187 1028.4269859l-8.2696 1.4805c1.5557 3.7871 3.3418 7.8652 5.3233 12.0962 1.9804 4.2295 3.9687 8.2129 5.8828 11.8325l6.4306-5.4053 1.6162-1.3559-8.9082-19.0191-2.0751.3711z"/><path fill="#001f3e" d="m490.3027188,1037.0260859c2.46,5.2525,3.9385,9.751,3.3027,10.0489-.6376.2983-3.1455-3.7188-5.6044-8.9703-2.461-5.2524-3.9395-9.7504-3.3038-10.0488.6368-.2978,3.1446,3.7188,5.6055,8.9702Z"/><g><path fill="url(#aA)" d="m634.7861188,1053.7296859c-1.4609-.0322-2.7178-1.1298-2.9072-2.6235-2.9336-23.2251-9.6406-46.4682-19.9336-69.0845-10.2988-22.6274-23.4209-42.9516-39.002-60.4072-1.1025-1.2358-.9951-3.1318.2413-4.2353,1.2363-1.105,3.1328-.9961,4.2363.2402,15.9824,17.9072,29.4345,38.7388,39.9863,61.917,10.542,23.1665,17.4141,46.9927,20.4248,70.8174.208,1.6435-.956,3.145-2.6006,3.3525-.1494.0191-.2988.0264-.4453.0234Z"/><path fill="url(#aB)" d="m599.2558187,1056.0275859c-1.4472-.0312-2.6982-1.1104-2.9013-2.5908-2.6133-18.9727-8.2412-38.0518-16.7305-56.7061-8.4873-18.6509-19.1758-35.4272-31.7686-49.8623-1.0898-1.2485-.9599-3.1435.2881-4.2329,1.2471-1.0884,3.1436-.9604,4.2325.2886,12.9755,14.8735,23.9814,32.1411,32.7099,51.3218,8.7295,19.184,14.5205,38.8237,17.211,58.373.2265,1.6411-.9209,3.1553-2.5625,3.3814-.1602.0214-.3213.0307-.4786.0273Z"/><path fill="url(#aC)" d="m563.7724187,1058.3229859c-1.4248-.0312-2.666-1.0776-2.8955-2.5347-2.3125-14.7231-6.8779-29.644-13.5713-44.3481-6.6943-14.7105-14.9472-27.9546-24.5273-39.3638-1.0654-1.2685-.8994-3.1611.3691-4.2265,1.2676-1.0635,3.1612-.9019,4.2256.3686,9.9297,11.8252,18.4737,25.5308,25.3946,40.7359,6.917,15.1982,11.6406,30.643,14.038,45.9033.2559,1.6367-.8613,3.1719-2.499,3.4287-.1797.0283-.3574.04-.5342.0366Z"/><path fill="url(#aD)" d="m528.0791187,1060.6315859c-1.3916-.0303-2.6192-1.0322-2.8819-2.4556-1.9736-10.6992-5.4101-21.4751-10.2119-32.0283-4.8066-10.5591-10.6748-20.2275-17.4414-28.7368-1.0322-1.2964-.8164-3.1841.4805-4.2153,1.2978-1.0323,3.1855-.8159,4.2148.4809,7.0713,8.8926,13.1983,18.981,18.208,29.9854,5.004,10.9995,8.5879,22.2451,10.6504,33.4258.3008,1.6294-.7763,3.1938-2.4052,3.4941-.2061.0381-.4121.0542-.6133.0498Z"/></g></g><path fill="#f4ad7d" d="m428.8926188,1092.9435859c-1.5108-2.9712-1.8916-10.6387.6455-11.4121,5.1474-1.5732,2.8672,5.5269,8.2529,11.502,3.4326,3.8086-.4248,10.7075-.4248,10.7075,0,0-5.3359-4.6153-8.4736-10.7974Z"/></g></g></g></svg>