<svg xmlns="http://www.w3.org/2000/svg" enable-background="new 0 0 600 600" viewBox="0 0 600 600" width="550" height="550"><linearGradient id="a" x1="326.873" x2="302.251" y1="93.595" y2="332.008" gradientUnits="userSpaceOnUse"><stop offset="0" stop-color="#cedcf9" stop-opacity="0" class="stopColorcedcf9 svgShape"></stop><stop offset="1" stop-color="#c3d2ff" class="stopColorc3d2ff svgShape"></stop></linearGradient><path fill="url(#a)" d="M500.12 421.997H99.5c-49.932 0-72.832-59.155-34.603-89.594.319-.26.647-.498.966-.767 8.715-6.834 14.403-16.834 14.403-31.456 3.396-19.174-15.34-24.283-20.35-57.522-8.824-58.408 21.187-96.786 54.734-116.319 111.846-65.131 324.104-65.131 415.482-2.11 17.59 12.15 26.903 46.465 19.782 62.66-43.797 99.745-20.06 126.688-1.713 161.858 17.6 33.737-8.377 73.25-48.08 73.25z"></path><linearGradient id="b" x1="298.904" x2="298.904" y1="507.928" y2="399.26" gradientUnits="userSpaceOnUse"><stop offset="0" stop-color="#cedcf9" stop-opacity="0" class="stopColorcedcf9 svgShape"></stop><stop offset="1" stop-color="#c3d2ff" class="stopColorc3d2ff svgShape"></stop></linearGradient><path fill="url(#b)" d="M553.809 465.614v1.19c-.16 24.945-40.042 37.368-180.206 36.763-18.387-.072-37.59-.387-57.093-.902-10.4 12.883-67.144 22.518-135.533 22.23-75.71-.335-136.997-12.721-136.887-27.67.01-1.768.876-3.5 2.53-5.17 7.122-7.162 6.554-17.086-.389-24.357-1.464-1.534-2.24-3.05-2.23-4.538 0-.433.01-.875.029-1.336.896-23.636 22.77-42.193 48.886-42.175l409.307.19c28.089.008 51.247 20.352 51.586 45.775z"></path><path fill="#373a50" d="M101.764 228.157h-2V187.68a5.026 5.026 0 0 1 5.02-5.02h88.533a3.024 3.024 0 0 0 3.02-3.02v-42.21h2v42.21a5.026 5.026 0 0 1-5.02 5.02h-88.533a3.024 3.024 0 0 0-3.02 3.02v40.477zM299.904 228.157h-2V187.68a3.024 3.024 0 0 0-3.02-3.02H233.45a5.026 5.026 0 0 1-5.02-5.02v-42.21h2v42.21a3.024 3.024 0 0 0 3.02 3.02h61.434a5.026 5.026 0 0 1 5.02 5.02v40.477z" class="color373a50 svgShape"></path><linearGradient id="c" x1="46.06" x2="173.972" y1="320.165" y2="320.165" gradientUnits="userSpaceOnUse"><stop offset="0" stop-color="#909eff" class="stopColor909eff svgShape"></stop><stop offset="1" stop-color="#6977e3" class="stopColor6977e3 svgShape"></stop></linearGradient><path fill="url(#c)" d="M173.972 212.852v211.8a6.952 6.952 0 0 1-6.952 6.952H53.012a6.952 6.952 0 0 1-6.952-6.953V212.842a4.115 4.115 0 0 1 4.115-4.115h119.673a4.125 4.125 0 0 1 4.124 4.125z"></path><path fill="#373a50" d="M11.252 268.885H208.78v102.557H11.252z" transform="rotate(90 110.016 320.163)" class="color373a50 svgShape"></path><path fill="#ffffff" d="M58.738 221.401h102.557v21.989H58.738z" class="colorfff svgShape"></path><linearGradient id="d" x1="65.465" x2="73.449" y1="232.149" y2="232.149" gradientUnits="userSpaceOnUse"><stop offset="0" stop-color="#f34b6d" class="stopColorf34b6d svgShape"></stop><stop offset="1" stop-color="#e24067" class="stopColore24067 svgShape"></stop></linearGradient><circle cx="69.457" cy="232.149" r="3.992" fill="url(#d)"></circle><linearGradient id="e" x1="76.962" x2="80.404" y1="232.15" y2="232.15" gradientUnits="userSpaceOnUse"><stop offset="0" stop-color="#d1deff" class="stopColord1deff svgShape"></stop><stop offset="1" stop-color="#b2c7ff" class="stopColorb2c7ff svgShape"></stop></linearGradient><path fill="url(#e)" d="M80.404 232.15a1.72 1.72 0 1 1-3.442.002 1.72 1.72 0 0 1 3.442-.002z"></path><linearGradient id="f" x1="82.052" x2="85.494" y1="232.15" y2="232.15" gradientUnits="userSpaceOnUse"><stop offset="0" stop-color="#ebf2ff" class="stopColorebf2ff svgShape"></stop><stop offset="1" stop-color="#e1e8ff" class="stopColore1e8ff svgShape"></stop></linearGradient><path fill="url(#f)" d="M85.494 232.15a1.72 1.72 0 1 1-3.442.002 1.72 1.72 0 0 1 3.442-.002z"></path><linearGradient id="g" x1="87.142" x2="90.584" y1="232.15" y2="232.15" gradientUnits="userSpaceOnUse"><stop offset="0" stop-color="#d1deff" class="stopColord1deff svgShape"></stop><stop offset="1" stop-color="#b2c7ff" class="stopColorb2c7ff svgShape"></stop></linearGradient><path fill="url(#g)" d="M90.584 232.15a1.72 1.72 0 1 1-3.442.002 1.72 1.72 0 0 1 3.442-.002z"></path><linearGradient id="h" x1="92.232" x2="95.674" y1="232.15" y2="232.15" gradientUnits="userSpaceOnUse"><stop offset="0" stop-color="#ebf2ff" class="stopColorebf2ff svgShape"></stop><stop offset="1" stop-color="#e1e8ff" class="stopColore1e8ff svgShape"></stop></linearGradient><path fill="url(#h)" d="M95.674 232.15a1.72 1.72 0 1 1-3.442.002 1.72 1.72 0 0 1 3.442-.002z"></path><linearGradient id="i" x1="97.322" x2="100.764" y1="232.15" y2="232.15" gradientUnits="userSpaceOnUse"><stop offset="0" stop-color="#d1deff" class="stopColord1deff svgShape"></stop><stop offset="1" stop-color="#b2c7ff" class="stopColorb2c7ff svgShape"></stop></linearGradient><path fill="url(#i)" d="M100.764 232.15a1.72 1.72 0 1 1-3.442.002 1.72 1.72 0 0 1 3.442-.002z"></path><linearGradient id="j" x1="102.412" x2="105.854" y1="232.15" y2="232.15" gradientUnits="userSpaceOnUse"><stop offset="0" stop-color="#d1deff" class="stopColord1deff svgShape"></stop><stop offset="1" stop-color="#b2c7ff" class="stopColorb2c7ff svgShape"></stop></linearGradient><path fill="url(#j)" d="M105.854 232.15a1.72 1.72 0 1 1-3.442.002 1.72 1.72 0 0 1 3.442-.002z"></path><linearGradient id="k" x1="107.502" x2="110.944" y1="232.15" y2="232.15" gradientUnits="userSpaceOnUse"><stop offset="0" stop-color="#ebf2ff" class="stopColorebf2ff svgShape"></stop><stop offset="1" stop-color="#e1e8ff" class="stopColore1e8ff svgShape"></stop></linearGradient><path fill="url(#k)" d="M110.944 232.15a1.72 1.72 0 1 1-3.442.002 1.72 1.72 0 0 1 3.442-.002z"></path><linearGradient id="l" x1="112.592" x2="116.034" y1="232.15" y2="232.15" gradientUnits="userSpaceOnUse"><stop offset="0" stop-color="#d1deff" class="stopColord1deff svgShape"></stop><stop offset="1" stop-color="#b2c7ff" class="stopColorb2c7ff svgShape"></stop></linearGradient><path fill="url(#l)" d="M116.034 232.15a1.72 1.72 0 1 1-3.441.002 1.72 1.72 0 0 1 3.441-.002z"></path><linearGradient id="m" x1="122.386" x2="123.975" y1="232.394" y2="232.394" gradientUnits="userSpaceOnUse"><stop offset="0" stop-color="#d1deff" class="stopColord1deff svgShape"></stop><stop offset="1" stop-color="#b2c7ff" class="stopColorb2c7ff svgShape"></stop></linearGradient><path fill="url(#m)" d="M122.386 221.399h1.589v21.989h-1.589z"></path><linearGradient id="n" x1="129.592" x2="156.397" y1="229.491" y2="229.491" gradientUnits="userSpaceOnUse"><stop offset="0" stop-color="#909eff" class="stopColor909eff svgShape"></stop><stop offset="1" stop-color="#6977e3" class="stopColor6977e3 svgShape"></stop></linearGradient><path fill="url(#n)" d="M156.397 225.738v7.507a.955.955 0 0 1-.955.956h-24.894a.955.955 0 0 1-.956-.956v-7.507c0-.533.432-.956.956-.956h24.894c.523 0 .955.423.955.956z"></path><path fill="#ffffff" d="M134.46 232.79a.396.396 0 0 1-.31-.642c.982-1.237 4.302-5.262 5.723-5.084.772.094 1.228.886 1.669 1.65.58 1.008.984 1.608 1.662 1.467.73-.152 1.625-1.093 2.49-2.003 1.113-1.17 2.152-2.28 3.23-2.189 1.793.145 3.586 2 3.661 2.08a.396.396 0 0 1-.572.547c-.016-.017-1.662-1.717-3.152-1.837-.713-.052-1.7 1.007-2.593 1.945-.949.998-1.93 2.03-2.901 2.232-1.3.272-1.967-.903-2.511-1.846-.344-.597-.7-1.213-1.079-1.26-.649-.087-3.125 2.423-5.007 4.79a.396.396 0 0 1-.31.15z" class="colorfff svgShape"></path><linearGradient id="o" x1="130.787" x2="130.954" y1="238.541" y2="239.115" gradientUnits="userSpaceOnUse"><stop offset="0" stop-color="#fadf68" class="stopColorfadf68 svgShape"></stop><stop offset="1" stop-color="#eac250" class="stopColoreac250 svgShape"></stop></linearGradient><path fill="url(#o)" d="M132.03 238.023a1.395 1.395 0 1 1-2.788 0 1.395 1.395 0 0 1 2.788 0z"></path><linearGradient id="p" x1="135.82" x2="135.796" y1="238.511" y2="238.846" gradientUnits="userSpaceOnUse"><stop offset="0" stop-color="#f34b6d" class="stopColorf34b6d svgShape"></stop><stop offset="1" stop-color="#e24067" class="stopColore24067 svgShape"></stop></linearGradient><path fill="url(#p)" d="M137.249 238.023a1.395 1.395 0 1 1-2.788 0 1.395 1.395 0 0 1 2.788 0z"></path><linearGradient id="q" x1="150.406" x2="150.406" y1="237.938" y2="239.018" gradientUnits="userSpaceOnUse"><stop offset="0" stop-color="#3dcfa4" class="stopColor3dcfa4 svgShape"></stop><stop offset="1" stop-color="#30bb93" class="stopColor30bb93 svgShape"></stop></linearGradient><path fill="url(#q)" d="M156.397 236.645v2.426a.665.665 0 0 1-.661.662h-10.65a.667.667 0 0 1-.671-.662v-2.426c0-.358.303-.662.67-.662h10.65c.36 0 .662.304.662.662z"></path><path fill="#ffffff" d="M161.295 245.506v23.636H58.738v-23.636h102.557z" class="colorfff svgShape"></path><linearGradient id="r" x1="66.256" x2="76.966" y1="257.324" y2="257.324" gradientUnits="userSpaceOnUse"><stop offset="0" stop-color="#909eff" class="stopColor909eff svgShape"></stop><stop offset="1" stop-color="#6977e3" class="stopColor6977e3 svgShape"></stop></linearGradient><path fill="url(#r)" d="M66.256 250.709h10.709v13.229H66.256z"></path><linearGradient id="s" x1="85.106" x2="87.663" y1="257.536" y2="257.536" gradientUnits="userSpaceOnUse"><stop offset="0" stop-color="#d1deff" class="stopColord1deff svgShape"></stop><stop offset="1" stop-color="#b2c7ff" class="stopColorb2c7ff svgShape"></stop></linearGradient><path fill="url(#s)" d="M85.106 251.133h2.557v12.805h-2.557z"></path><linearGradient id="t" x1="94.055" x2="96.612" y1="257.536" y2="257.536" gradientUnits="userSpaceOnUse"><stop offset="0" stop-color="#d1deff" class="stopColord1deff svgShape"></stop><stop offset="1" stop-color="#b2c7ff" class="stopColorb2c7ff svgShape"></stop></linearGradient><path fill="url(#t)" d="M94.055 251.133h2.557v12.805h-2.557z"></path><linearGradient id="u" x1="103.004" x2="105.561" y1="257.536" y2="257.536" gradientUnits="userSpaceOnUse"><stop offset="0" stop-color="#d1deff" class="stopColord1deff svgShape"></stop><stop offset="1" stop-color="#b2c7ff" class="stopColorb2c7ff svgShape"></stop></linearGradient><path fill="url(#u)" d="M103.004 251.133h2.557v12.805h-2.557z"></path><linearGradient id="v" x1="111.953" x2="114.51" y1="257.536" y2="257.536" gradientUnits="userSpaceOnUse"><stop offset="0" stop-color="#d1deff" class="stopColord1deff svgShape"></stop><stop offset="1" stop-color="#b2c7ff" class="stopColorb2c7ff svgShape"></stop></linearGradient><path fill="url(#v)" d="M111.953 251.133h2.557v12.805h-2.557z"></path><linearGradient id="w" x1="120.902" x2="123.459" y1="257.536" y2="257.536" gradientUnits="userSpaceOnUse"><stop offset="0" stop-color="#d1deff" class="stopColord1deff svgShape"></stop><stop offset="1" stop-color="#b2c7ff" class="stopColorb2c7ff svgShape"></stop></linearGradient><path fill="url(#w)" d="M120.902 251.133h2.557v12.805h-2.557z"></path><linearGradient id="x" x1="129.839" x2="135.341" y1="257.535" y2="257.535" gradientUnits="userSpaceOnUse"><stop offset="0" stop-color="#3dcfa4" class="stopColor3dcfa4 svgShape"></stop><stop offset="1" stop-color="#30bb93" class="stopColor30bb93 svgShape"></stop></linearGradient><path fill="url(#x)" d="M135.341 257.54c0 1.517-1.233 2.742-2.75 2.742a2.747 2.747 0 1 1 0-5.494 2.753 2.753 0 0 1 2.75 2.751z"></path><linearGradient id="y" x1="139.057" x2="144.559" y1="257.535" y2="257.535" gradientUnits="userSpaceOnUse"><stop offset="0" stop-color="#fadf68" class="stopColorfadf68 svgShape"></stop><stop offset="1" stop-color="#eac250" class="stopColoreac250 svgShape"></stop></linearGradient><path fill="url(#y)" d="M144.559 257.54a2.746 2.746 0 0 1-2.751 2.742 2.746 2.746 0 1 1 0-5.494 2.753 2.753 0 0 1 2.75 2.751z"></path><linearGradient id="z" x1="148.274" x2="153.776" y1="257.535" y2="257.535" gradientUnits="userSpaceOnUse"><stop offset="0" stop-color="#f34b6d" class="stopColorf34b6d svgShape"></stop><stop offset="1" stop-color="#e24067" class="stopColore24067 svgShape"></stop></linearGradient><path fill="url(#z)" d="M153.776 257.54c0 1.517-1.233 2.742-2.75 2.742a2.747 2.747 0 1 1 0-5.494 2.753 2.753 0 0 1 2.75 2.751z"></path><path fill="#ffffff" d="M58.738 271.33h102.557v21.989H58.738z" class="colorfff svgShape"></path><linearGradient id="A" x1="65.465" x2="73.449" y1="282.078" y2="282.078" gradientUnits="userSpaceOnUse"><stop offset="0" stop-color="#f34b6d" class="stopColorf34b6d svgShape"></stop><stop offset="1" stop-color="#e24067" class="stopColore24067 svgShape"></stop></linearGradient><circle cx="69.457" cy="282.078" r="3.992" fill="url(#A)"></circle><linearGradient id="B" x1="76.962" x2="80.404" y1="282.079" y2="282.079" gradientUnits="userSpaceOnUse"><stop offset="0" stop-color="#d1deff" class="stopColord1deff svgShape"></stop><stop offset="1" stop-color="#b2c7ff" class="stopColorb2c7ff svgShape"></stop></linearGradient><path fill="url(#B)" d="M80.404 282.078a1.72 1.72 0 1 1-3.442.002 1.72 1.72 0 0 1 3.442-.002z"></path><linearGradient id="C" x1="82.052" x2="85.494" y1="282.079" y2="282.079" gradientUnits="userSpaceOnUse"><stop offset="0" stop-color="#ebf2ff" class="stopColorebf2ff svgShape"></stop><stop offset="1" stop-color="#e1e8ff" class="stopColore1e8ff svgShape"></stop></linearGradient><path fill="url(#C)" d="M85.494 282.078a1.72 1.72 0 1 1-3.442.002 1.72 1.72 0 0 1 3.442-.002z"></path><linearGradient id="D" x1="87.142" x2="90.584" y1="282.079" y2="282.079" gradientUnits="userSpaceOnUse"><stop offset="0" stop-color="#d1deff" class="stopColord1deff svgShape"></stop><stop offset="1" stop-color="#b2c7ff" class="stopColorb2c7ff svgShape"></stop></linearGradient><path fill="url(#D)" d="M90.584 282.078a1.72 1.72 0 1 1-3.442.002 1.72 1.72 0 0 1 3.442-.002z"></path><linearGradient id="E" x1="92.232" x2="95.674" y1="282.079" y2="282.079" gradientUnits="userSpaceOnUse"><stop offset="0" stop-color="#ebf2ff" class="stopColorebf2ff svgShape"></stop><stop offset="1" stop-color="#e1e8ff" class="stopColore1e8ff svgShape"></stop></linearGradient><path fill="url(#E)" d="M95.674 282.078a1.72 1.72 0 1 1-3.442.002 1.72 1.72 0 0 1 3.442-.002z"></path><linearGradient id="F" x1="97.322" x2="100.764" y1="282.079" y2="282.079" gradientUnits="userSpaceOnUse"><stop offset="0" stop-color="#d1deff" class="stopColord1deff svgShape"></stop><stop offset="1" stop-color="#b2c7ff" class="stopColorb2c7ff svgShape"></stop></linearGradient><path fill="url(#F)" d="M100.764 282.078a1.72 1.72 0 1 1-3.442.002 1.72 1.72 0 0 1 3.442-.002z"></path><linearGradient id="G" x1="102.412" x2="105.854" y1="282.079" y2="282.079" gradientUnits="userSpaceOnUse"><stop offset="0" stop-color="#d1deff" class="stopColord1deff svgShape"></stop><stop offset="1" stop-color="#b2c7ff" class="stopColorb2c7ff svgShape"></stop></linearGradient><path fill="url(#G)" d="M105.854 282.078a1.72 1.72 0 1 1-3.442.002 1.72 1.72 0 0 1 3.442-.002z"></path><linearGradient id="H" x1="107.502" x2="110.944" y1="282.079" y2="282.079" gradientUnits="userSpaceOnUse"><stop offset="0" stop-color="#ebf2ff" class="stopColorebf2ff svgShape"></stop><stop offset="1" stop-color="#e1e8ff" class="stopColore1e8ff svgShape"></stop></linearGradient><path fill="url(#H)" d="M110.944 282.078a1.72 1.72 0 1 1-3.442.002 1.72 1.72 0 0 1 3.442-.002z"></path><linearGradient id="I" x1="112.592" x2="116.034" y1="282.079" y2="282.079" gradientUnits="userSpaceOnUse"><stop offset="0" stop-color="#d1deff" class="stopColord1deff svgShape"></stop><stop offset="1" stop-color="#b2c7ff" class="stopColorb2c7ff svgShape"></stop></linearGradient><path fill="url(#I)" d="M116.034 282.078a1.72 1.72 0 1 1-3.441.002 1.72 1.72 0 0 1 3.441-.002z"></path><linearGradient id="J" x1="122.386" x2="123.975" y1="282.323" y2="282.323" gradientUnits="userSpaceOnUse"><stop offset="0" stop-color="#d1deff" class="stopColord1deff svgShape"></stop><stop offset="1" stop-color="#b2c7ff" class="stopColorb2c7ff svgShape"></stop></linearGradient><path fill="url(#J)" d="M122.386 271.328h1.589v21.989h-1.589z"></path><linearGradient id="K" x1="129.592" x2="156.397" y1="279.42" y2="279.42" gradientUnits="userSpaceOnUse"><stop offset="0" stop-color="#909eff" class="stopColor909eff svgShape"></stop><stop offset="1" stop-color="#6977e3" class="stopColor6977e3 svgShape"></stop></linearGradient><path fill="url(#K)" d="M156.397 275.666v7.508a.955.955 0 0 1-.955.955h-24.894a.955.955 0 0 1-.956-.955v-7.508c0-.533.432-.956.956-.956h24.894c.523 0 .955.423.955.956z"></path><path fill="#ffffff" d="M134.46 282.719a.396.396 0 0 1-.31-.643c.982-1.237 4.302-5.262 5.723-5.084.772.095 1.228.886 1.669 1.651.58 1.008.984 1.607 1.662 1.466.73-.152 1.625-1.092 2.49-2.002 1.113-1.17 2.152-2.28 3.23-2.19 1.793.145 3.586 2.001 3.661 2.08a.396.396 0 0 1-.572.548c-.016-.018-1.662-1.717-3.152-1.838-.713-.051-1.7 1.008-2.593 1.946-.949.998-1.93 2.03-2.901 2.232-1.3.271-1.967-.904-2.511-1.846-.344-.597-.7-1.214-1.079-1.26-.649-.087-3.125 2.422-5.007 4.79a.396.396 0 0 1-.31.15z" class="colorfff svgShape"></path><linearGradient id="L" x1="130.787" x2="130.954" y1="288.47" y2="289.044" gradientUnits="userSpaceOnUse"><stop offset="0" stop-color="#fadf68" class="stopColorfadf68 svgShape"></stop><stop offset="1" stop-color="#eac250" class="stopColoreac250 svgShape"></stop></linearGradient><path fill="url(#L)" d="M132.03 287.952a1.395 1.395 0 1 1-2.788 0 1.395 1.395 0 0 1 2.788 0z"></path><linearGradient id="M" x1="135.82" x2="135.796" y1="288.44" y2="288.775" gradientUnits="userSpaceOnUse"><stop offset="0" stop-color="#f34b6d" class="stopColorf34b6d svgShape"></stop><stop offset="1" stop-color="#e24067" class="stopColore24067 svgShape"></stop></linearGradient><path fill="url(#M)" d="M137.249 287.952a1.395 1.395 0 1 1-2.788 0 1.395 1.395 0 0 1 2.788 0z"></path><linearGradient id="N" x1="150.406" x2="150.406" y1="287.867" y2="288.946" gradientUnits="userSpaceOnUse"><stop offset="0" stop-color="#3dcfa4" class="stopColor3dcfa4 svgShape"></stop><stop offset="1" stop-color="#30bb93" class="stopColor30bb93 svgShape"></stop></linearGradient><path fill="url(#N)" d="M156.397 286.574V289a.665.665 0 0 1-.661.661h-10.65a.667.667 0 0 1-.671-.661v-2.426c0-.359.303-.662.67-.662h10.65a.67.67 0 0 1 .662.662z"></path><path fill="#ffffff" d="M161.295 295.435v23.635H58.738v-23.635h102.557z" class="colorfff svgShape"></path><linearGradient id="O" x1="66.256" x2="76.966" y1="307.252" y2="307.252" gradientUnits="userSpaceOnUse"><stop offset="0" stop-color="#909eff" class="stopColor909eff svgShape"></stop><stop offset="1" stop-color="#6977e3" class="stopColor6977e3 svgShape"></stop></linearGradient><path fill="url(#O)" d="M66.256 300.638h10.709v13.229H66.256z"></path><linearGradient id="P" x1="85.106" x2="87.663" y1="307.465" y2="307.465" gradientUnits="userSpaceOnUse"><stop offset="0" stop-color="#d1deff" class="stopColord1deff svgShape"></stop><stop offset="1" stop-color="#b2c7ff" class="stopColorb2c7ff svgShape"></stop></linearGradient><path fill="url(#P)" d="M85.106 301.062h2.557v12.805h-2.557z"></path><linearGradient id="Q" x1="94.055" x2="96.612" y1="307.465" y2="307.465" gradientUnits="userSpaceOnUse"><stop offset="0" stop-color="#d1deff" class="stopColord1deff svgShape"></stop><stop offset="1" stop-color="#b2c7ff" class="stopColorb2c7ff svgShape"></stop></linearGradient><path fill="url(#Q)" d="M94.055 301.062h2.557v12.805h-2.557z"></path><linearGradient id="R" x1="103.004" x2="105.561" y1="307.465" y2="307.465" gradientUnits="userSpaceOnUse"><stop offset="0" stop-color="#d1deff" class="stopColord1deff svgShape"></stop><stop offset="1" stop-color="#b2c7ff" class="stopColorb2c7ff svgShape"></stop></linearGradient><path fill="url(#R)" d="M103.004 301.062h2.557v12.805h-2.557z"></path><linearGradient id="S" x1="111.953" x2="114.51" y1="307.465" y2="307.465" gradientUnits="userSpaceOnUse"><stop offset="0" stop-color="#d1deff" class="stopColord1deff svgShape"></stop><stop offset="1" stop-color="#b2c7ff" class="stopColorb2c7ff svgShape"></stop></linearGradient><path fill="url(#S)" d="M111.953 301.062h2.557v12.805h-2.557z"></path><linearGradient id="T" x1="120.902" x2="123.459" y1="307.465" y2="307.465" gradientUnits="userSpaceOnUse"><stop offset="0" stop-color="#d1deff" class="stopColord1deff svgShape"></stop><stop offset="1" stop-color="#b2c7ff" class="stopColorb2c7ff svgShape"></stop></linearGradient><path fill="url(#T)" d="M120.902 301.062h2.557v12.805h-2.557z"></path><linearGradient id="U" x1="129.839" x2="135.341" y1="307.464" y2="307.464" gradientUnits="userSpaceOnUse"><stop offset="0" stop-color="#3dcfa4" class="stopColor3dcfa4 svgShape"></stop><stop offset="1" stop-color="#30bb93" class="stopColor30bb93 svgShape"></stop></linearGradient><path fill="url(#U)" d="M135.341 307.468c0 1.518-1.233 2.743-2.75 2.743a2.747 2.747 0 1 1 0-5.494 2.753 2.753 0 0 1 2.75 2.751z"></path><linearGradient id="V" x1="139.057" x2="144.559" y1="307.464" y2="307.464" gradientUnits="userSpaceOnUse"><stop offset="0" stop-color="#fadf68" class="stopColorfadf68 svgShape"></stop><stop offset="1" stop-color="#eac250" class="stopColoreac250 svgShape"></stop></linearGradient><path fill="url(#V)" d="M144.559 307.468a2.746 2.746 0 0 1-2.751 2.743 2.746 2.746 0 1 1 0-5.494 2.753 2.753 0 0 1 2.75 2.751z"></path><linearGradient id="W" x1="148.274" x2="153.776" y1="307.464" y2="307.464" gradientUnits="userSpaceOnUse"><stop offset="0" stop-color="#f34b6d" class="stopColorf34b6d svgShape"></stop><stop offset="1" stop-color="#e24067" class="stopColore24067 svgShape"></stop></linearGradient><path fill="url(#W)" d="M153.776 307.468c0 1.518-1.233 2.743-2.75 2.743a2.747 2.747 0 1 1 0-5.494 2.753 2.753 0 0 1 2.75 2.751z"></path><path fill="#ffffff" d="M58.738 321.258h102.557v21.989H58.738z" class="colorfff svgShape"></path><linearGradient id="X" x1="65.465" x2="73.449" y1="332.007" y2="332.007" gradientUnits="userSpaceOnUse"><stop offset="0" stop-color="#f34b6d" class="stopColorf34b6d svgShape"></stop><stop offset="1" stop-color="#e24067" class="stopColore24067 svgShape"></stop></linearGradient><circle cx="69.457" cy="332.007" r="3.992" fill="url(#X)"></circle><linearGradient id="Y" x1="76.962" x2="80.404" y1="332.008" y2="332.008" gradientUnits="userSpaceOnUse"><stop offset="0" stop-color="#d1deff" class="stopColord1deff svgShape"></stop><stop offset="1" stop-color="#b2c7ff" class="stopColorb2c7ff svgShape"></stop></linearGradient><path fill="url(#Y)" d="M80.404 332.007a1.72 1.72 0 1 1-3.442.002 1.72 1.72 0 0 1 3.442-.002z"></path><linearGradient id="Z" x1="82.052" x2="85.494" y1="332.008" y2="332.008" gradientUnits="userSpaceOnUse"><stop offset="0" stop-color="#ebf2ff" class="stopColorebf2ff svgShape"></stop><stop offset="1" stop-color="#e1e8ff" class="stopColore1e8ff svgShape"></stop></linearGradient><path fill="url(#Z)" d="M85.494 332.007a1.72 1.72 0 1 1-3.442.002 1.72 1.72 0 0 1 3.442-.002z"></path><linearGradient id="aa" x1="87.142" x2="90.584" y1="332.008" y2="332.008" gradientUnits="userSpaceOnUse"><stop offset="0" stop-color="#d1deff" class="stopColord1deff svgShape"></stop><stop offset="1" stop-color="#b2c7ff" class="stopColorb2c7ff svgShape"></stop></linearGradient><path fill="url(#aa)" d="M90.584 332.007a1.72 1.72 0 1 1-3.442.002 1.72 1.72 0 0 1 3.442-.002z"></path><linearGradient id="ab" x1="92.232" x2="95.674" y1="332.008" y2="332.008" gradientUnits="userSpaceOnUse"><stop offset="0" stop-color="#ebf2ff" class="stopColorebf2ff svgShape"></stop><stop offset="1" stop-color="#e1e8ff" class="stopColore1e8ff svgShape"></stop></linearGradient><path fill="url(#ab)" d="M95.674 332.007a1.72 1.72 0 1 1-3.442.002 1.72 1.72 0 0 1 3.442-.002z"></path><linearGradient id="ac" x1="97.322" x2="100.764" y1="332.008" y2="332.008" gradientUnits="userSpaceOnUse"><stop offset="0" stop-color="#d1deff" class="stopColord1deff svgShape"></stop><stop offset="1" stop-color="#b2c7ff" class="stopColorb2c7ff svgShape"></stop></linearGradient><path fill="url(#ac)" d="M100.764 332.007a1.72 1.72 0 1 1-3.442.002 1.72 1.72 0 0 1 3.442-.002z"></path><linearGradient id="ad" x1="102.412" x2="105.854" y1="332.008" y2="332.008" gradientUnits="userSpaceOnUse"><stop offset="0" stop-color="#d1deff" class="stopColord1deff svgShape"></stop><stop offset="1" stop-color="#b2c7ff" class="stopColorb2c7ff svgShape"></stop></linearGradient><path fill="url(#ad)" d="M105.854 332.007a1.72 1.72 0 1 1-3.442.002 1.72 1.72 0 0 1 3.442-.002z"></path><linearGradient id="ae" x1="107.502" x2="110.944" y1="332.008" y2="332.008" gradientUnits="userSpaceOnUse"><stop offset="0" stop-color="#ebf2ff" class="stopColorebf2ff svgShape"></stop><stop offset="1" stop-color="#e1e8ff" class="stopColore1e8ff svgShape"></stop></linearGradient><path fill="url(#ae)" d="M110.944 332.007a1.72 1.72 0 1 1-3.441.002 1.72 1.72 0 0 1 3.441-.002z"></path><linearGradient id="af" x1="112.592" x2="116.034" y1="332.008" y2="332.008" gradientUnits="userSpaceOnUse"><stop offset="0" stop-color="#d1deff" class="stopColord1deff svgShape"></stop><stop offset="1" stop-color="#b2c7ff" class="stopColorb2c7ff svgShape"></stop></linearGradient><path fill="url(#af)" d="M116.034 332.007a1.72 1.72 0 1 1-3.441.002 1.72 1.72 0 0 1 3.441-.002z"></path><linearGradient id="ag" x1="122.386" x2="123.975" y1="332.251" y2="332.251" gradientUnits="userSpaceOnUse"><stop offset="0" stop-color="#d1deff" class="stopColord1deff svgShape"></stop><stop offset="1" stop-color="#b2c7ff" class="stopColorb2c7ff svgShape"></stop></linearGradient><path fill="url(#ag)" d="M122.386 321.256h1.589v21.989h-1.589z"></path><linearGradient id="ah" x1="129.592" x2="156.397" y1="329.349" y2="329.349" gradientUnits="userSpaceOnUse"><stop offset="0" stop-color="#909eff" class="stopColor909eff svgShape"></stop><stop offset="1" stop-color="#6977e3" class="stopColor6977e3 svgShape"></stop></linearGradient><path fill="url(#ah)" d="M156.397 325.595v7.507a.955.955 0 0 1-.955.956h-24.894a.955.955 0 0 1-.956-.956v-7.507c0-.533.432-.956.956-.956h24.894c.523 0 .955.423.955.956z"></path><path fill="#ffffff" d="M134.46 332.647a.396.396 0 0 1-.31-.642c.982-1.237 4.302-5.262 5.723-5.084.772.095 1.228.886 1.669 1.65.58 1.008.984 1.608 1.662 1.467.73-.152 1.625-1.093 2.49-2.003 1.113-1.17 2.152-2.28 3.23-2.189 1.793.145 3.586 2 3.661 2.08a.396.396 0 0 1-.572.547c-.016-.017-1.662-1.717-3.152-1.837-.713-.052-1.7 1.007-2.593 1.945-.949.998-1.93 2.03-2.901 2.233-1.3.27-1.967-.904-2.511-1.847-.344-.596-.7-1.213-1.079-1.26-.649-.087-3.125 2.423-5.007 4.79a.396.396 0 0 1-.31.15z" class="colorfff svgShape"></path><linearGradient id="ai" x1="130.787" x2="130.954" y1="338.399" y2="338.972" gradientUnits="userSpaceOnUse"><stop offset="0" stop-color="#fadf68" class="stopColorfadf68 svgShape"></stop><stop offset="1" stop-color="#eac250" class="stopColoreac250 svgShape"></stop></linearGradient><path fill="url(#ai)" d="M132.03 337.88a1.395 1.395 0 1 1-2.788 0 1.395 1.395 0 0 1 2.788 0z"></path><linearGradient id="aj" x1="135.82" x2="135.796" y1="338.369" y2="338.703" gradientUnits="userSpaceOnUse"><stop offset="0" stop-color="#f34b6d" class="stopColorf34b6d svgShape"></stop><stop offset="1" stop-color="#e24067" class="stopColore24067 svgShape"></stop></linearGradient><path fill="url(#aj)" d="M137.249 337.88a1.395 1.395 0 1 1-2.788 0 1.395 1.395 0 0 1 2.788 0z"></path><linearGradient id="ak" x1="150.406" x2="150.406" y1="337.795" y2="338.875" gradientUnits="userSpaceOnUse"><stop offset="0" stop-color="#3dcfa4" class="stopColor3dcfa4 svgShape"></stop><stop offset="1" stop-color="#30bb93" class="stopColor30bb93 svgShape"></stop></linearGradient><path fill="url(#ak)" d="M156.397 336.503v2.425a.665.665 0 0 1-.661.662h-10.65a.667.667 0 0 1-.671-.662v-2.425c0-.359.303-.662.67-.662h10.65a.67.67 0 0 1 .662.662z"></path><path fill="#ffffff" d="M161.295 345.363V369H58.738v-23.636h102.557z" class="colorfff svgShape"></path><linearGradient id="al" x1="66.256" x2="76.966" y1="357.181" y2="357.181" gradientUnits="userSpaceOnUse"><stop offset="0" stop-color="#909eff" class="stopColor909eff svgShape"></stop><stop offset="1" stop-color="#6977e3" class="stopColor6977e3 svgShape"></stop></linearGradient><path fill="url(#al)" d="M66.256 350.566h10.709v13.229H66.256z"></path><linearGradient id="am" x1="85.106" x2="87.663" y1="357.393" y2="357.393" gradientUnits="userSpaceOnUse"><stop offset="0" stop-color="#d1deff" class="stopColord1deff svgShape"></stop><stop offset="1" stop-color="#b2c7ff" class="stopColorb2c7ff svgShape"></stop></linearGradient><path fill="url(#am)" d="M85.106 350.991h2.557v12.805h-2.557z"></path><linearGradient id="an" x1="94.055" x2="96.612" y1="357.393" y2="357.393" gradientUnits="userSpaceOnUse"><stop offset="0" stop-color="#d1deff" class="stopColord1deff svgShape"></stop><stop offset="1" stop-color="#b2c7ff" class="stopColorb2c7ff svgShape"></stop></linearGradient><path fill="url(#an)" d="M94.055 350.991h2.557v12.805h-2.557z"></path><linearGradient id="ao" x1="103.004" x2="105.561" y1="357.393" y2="357.393" gradientUnits="userSpaceOnUse"><stop offset="0" stop-color="#d1deff" class="stopColord1deff svgShape"></stop><stop offset="1" stop-color="#b2c7ff" class="stopColorb2c7ff svgShape"></stop></linearGradient><path fill="url(#ao)" d="M103.004 350.991h2.557v12.805h-2.557z"></path><linearGradient id="ap" x1="111.953" x2="114.51" y1="357.393" y2="357.393" gradientUnits="userSpaceOnUse"><stop offset="0" stop-color="#d1deff" class="stopColord1deff svgShape"></stop><stop offset="1" stop-color="#b2c7ff" class="stopColorb2c7ff svgShape"></stop></linearGradient><path fill="url(#ap)" d="M111.953 350.991h2.557v12.805h-2.557z"></path><linearGradient id="aq" x1="120.902" x2="123.459" y1="357.393" y2="357.393" gradientUnits="userSpaceOnUse"><stop offset="0" stop-color="#d1deff" class="stopColord1deff svgShape"></stop><stop offset="1" stop-color="#b2c7ff" class="stopColorb2c7ff svgShape"></stop></linearGradient><path fill="url(#aq)" d="M120.902 350.991h2.557v12.805h-2.557z"></path><linearGradient id="ar" x1="129.839" x2="135.341" y1="357.392" y2="357.392" gradientUnits="userSpaceOnUse"><stop offset="0" stop-color="#3dcfa4" class="stopColor3dcfa4 svgShape"></stop><stop offset="1" stop-color="#30bb93" class="stopColor30bb93 svgShape"></stop></linearGradient><path fill="url(#ar)" d="M135.341 357.397c0 1.517-1.233 2.742-2.75 2.742a2.747 2.747 0 1 1 0-5.493 2.753 2.753 0 0 1 2.75 2.75z"></path><linearGradient id="as" x1="139.057" x2="144.559" y1="357.392" y2="357.392" gradientUnits="userSpaceOnUse"><stop offset="0" stop-color="#fadf68" class="stopColorfadf68 svgShape"></stop><stop offset="1" stop-color="#eac250" class="stopColoreac250 svgShape"></stop></linearGradient><path fill="url(#as)" d="M144.559 357.397a2.746 2.746 0 0 1-2.751 2.742 2.746 2.746 0 1 1 0-5.493 2.753 2.753 0 0 1 2.75 2.75z"></path><linearGradient id="at" x1="148.274" x2="153.776" y1="357.392" y2="357.392" gradientUnits="userSpaceOnUse"><stop offset="0" stop-color="#f34b6d" class="stopColorf34b6d svgShape"></stop><stop offset="1" stop-color="#e24067" class="stopColore24067 svgShape"></stop></linearGradient><path fill="url(#at)" d="M153.776 357.397c0 1.517-1.233 2.742-2.75 2.742a2.747 2.747 0 1 1 0-5.493 2.753 2.753 0 0 1 2.75 2.75z"></path><path fill="#ffffff" d="M58.738 371.187h102.557v21.989H58.738z" class="colorfff svgShape"></path><linearGradient id="au" x1="65.465" x2="73.449" y1="381.935" y2="381.935" gradientUnits="userSpaceOnUse"><stop offset="0" stop-color="#f34b6d" class="stopColorf34b6d svgShape"></stop><stop offset="1" stop-color="#e24067" class="stopColore24067 svgShape"></stop></linearGradient><circle cx="69.457" cy="381.935" r="3.992" fill="url(#au)"></circle><linearGradient id="av" x1="76.962" x2="80.404" y1="381.936" y2="381.936" gradientUnits="userSpaceOnUse"><stop offset="0" stop-color="#d1deff" class="stopColord1deff svgShape"></stop><stop offset="1" stop-color="#b2c7ff" class="stopColorb2c7ff svgShape"></stop></linearGradient><path fill="url(#av)" d="M80.404 381.935a1.72 1.72 0 1 1-3.442.003 1.72 1.72 0 0 1 3.442-.003z"></path><linearGradient id="aw" x1="82.052" x2="85.494" y1="381.936" y2="381.936" gradientUnits="userSpaceOnUse"><stop offset="0" stop-color="#ebf2ff" class="stopColorebf2ff svgShape"></stop><stop offset="1" stop-color="#e1e8ff" class="stopColore1e8ff svgShape"></stop></linearGradient><path fill="url(#aw)" d="M85.494 381.935a1.72 1.72 0 1 1-3.442.003 1.72 1.72 0 0 1 3.442-.003z"></path><linearGradient id="ax" x1="87.142" x2="90.584" y1="381.936" y2="381.936" gradientUnits="userSpaceOnUse"><stop offset="0" stop-color="#d1deff" class="stopColord1deff svgShape"></stop><stop offset="1" stop-color="#b2c7ff" class="stopColorb2c7ff svgShape"></stop></linearGradient><path fill="url(#ax)" d="M90.584 381.935a1.72 1.72 0 1 1-3.442.003 1.72 1.72 0 0 1 3.442-.003z"></path><linearGradient id="ay" x1="92.232" x2="95.674" y1="381.936" y2="381.936" gradientUnits="userSpaceOnUse"><stop offset="0" stop-color="#ebf2ff" class="stopColorebf2ff svgShape"></stop><stop offset="1" stop-color="#e1e8ff" class="stopColore1e8ff svgShape"></stop></linearGradient><path fill="url(#ay)" d="M95.674 381.935a1.72 1.72 0 1 1-3.442.003 1.72 1.72 0 0 1 3.442-.003z"></path><linearGradient id="az" x1="97.322" x2="100.764" y1="381.936" y2="381.936" gradientUnits="userSpaceOnUse"><stop offset="0" stop-color="#d1deff" class="stopColord1deff svgShape"></stop><stop offset="1" stop-color="#b2c7ff" class="stopColorb2c7ff svgShape"></stop></linearGradient><path fill="url(#az)" d="M100.764 381.935a1.72 1.72 0 1 1-3.442.003 1.72 1.72 0 0 1 3.442-.003z"></path><linearGradient id="aA" x1="102.412" x2="105.854" y1="381.936" y2="381.936" gradientUnits="userSpaceOnUse"><stop offset="0" stop-color="#d1deff" class="stopColord1deff svgShape"></stop><stop offset="1" stop-color="#b2c7ff" class="stopColorb2c7ff svgShape"></stop></linearGradient><path fill="url(#aA)" d="M105.854 381.935a1.72 1.72 0 1 1-3.442.003 1.72 1.72 0 0 1 3.442-.003z"></path><linearGradient id="aB" x1="107.502" x2="110.944" y1="381.936" y2="381.936" gradientUnits="userSpaceOnUse"><stop offset="0" stop-color="#ebf2ff" class="stopColorebf2ff svgShape"></stop><stop offset="1" stop-color="#e1e8ff" class="stopColore1e8ff svgShape"></stop></linearGradient><path fill="url(#aB)" d="M110.944 381.935a1.72 1.72 0 1 1-3.442.003 1.72 1.72 0 0 1 3.442-.003z"></path><linearGradient id="aC" x1="112.592" x2="116.034" y1="381.936" y2="381.936" gradientUnits="userSpaceOnUse"><stop offset="0" stop-color="#d1deff" class="stopColord1deff svgShape"></stop><stop offset="1" stop-color="#b2c7ff" class="stopColorb2c7ff svgShape"></stop></linearGradient><path fill="url(#aC)" d="M116.034 381.935a1.72 1.72 0 1 1-3.441.003 1.72 1.72 0 0 1 3.441-.003z"></path><linearGradient id="aD" x1="122.386" x2="123.975" y1="382.18" y2="382.18" gradientUnits="userSpaceOnUse"><stop offset="0" stop-color="#d1deff" class="stopColord1deff svgShape"></stop><stop offset="1" stop-color="#b2c7ff" class="stopColorb2c7ff svgShape"></stop></linearGradient><path fill="url(#aD)" d="M122.386 371.185h1.589v21.989h-1.589z"></path><linearGradient id="aE" x1="129.592" x2="156.397" y1="379.277" y2="379.277" gradientUnits="userSpaceOnUse"><stop offset="0" stop-color="#909eff" class="stopColor909eff svgShape"></stop><stop offset="1" stop-color="#6977e3" class="stopColor6977e3 svgShape"></stop></linearGradient><path fill="url(#aE)" d="M156.397 375.523v7.508a.955.955 0 0 1-.955.956h-24.894a.955.955 0 0 1-.956-.956v-7.508c0-.533.432-.955.956-.955h24.894c.523 0 .955.422.955.955z"></path><path fill="#ffffff" d="M134.46 382.576a.396.396 0 0 1-.31-.643c.982-1.236 4.302-5.261 5.723-5.083.772.094 1.228.885 1.669 1.65.58 1.008.984 1.607 1.662 1.467.73-.153 1.625-1.093 2.49-2.003 1.113-1.17 2.152-2.28 3.23-2.19 1.793.146 3.586 2.001 3.661 2.08a.396.396 0 0 1-.572.548c-.016-.017-1.662-1.717-3.152-1.838-.713-.051-1.7 1.008-2.593 1.946-.949.998-1.93 2.03-2.901 2.232-1.3.271-1.967-.903-2.511-1.846-.344-.597-.7-1.214-1.079-1.26-.649-.087-3.125 2.423-5.007 4.79a.396.396 0 0 1-.31.15z" class="colorfff svgShape"></path><linearGradient id="aF" x1="130.787" x2="130.954" y1="388.327" y2="388.901" gradientUnits="userSpaceOnUse"><stop offset="0" stop-color="#fadf68" class="stopColorfadf68 svgShape"></stop><stop offset="1" stop-color="#eac250" class="stopColoreac250 svgShape"></stop></linearGradient><path fill="url(#aF)" d="M132.03 387.809a1.395 1.395 0 1 1-2.788 0 1.395 1.395 0 0 1 2.788 0z"></path><linearGradient id="aG" x1="135.82" x2="135.796" y1="388.297" y2="388.632" gradientUnits="userSpaceOnUse"><stop offset="0" stop-color="#f34b6d" class="stopColorf34b6d svgShape"></stop><stop offset="1" stop-color="#e24067" class="stopColore24067 svgShape"></stop></linearGradient><path fill="url(#aG)" d="M137.249 387.809a1.395 1.395 0 1 1-2.788 0 1.395 1.395 0 0 1 2.788 0z"></path><linearGradient id="aH" x1="150.406" x2="150.406" y1="387.724" y2="388.803" gradientUnits="userSpaceOnUse"><stop offset="0" stop-color="#3dcfa4" class="stopColor3dcfa4 svgShape"></stop><stop offset="1" stop-color="#30bb93" class="stopColor30bb93 svgShape"></stop></linearGradient><path fill="url(#aH)" d="M156.397 386.431v2.426a.665.665 0 0 1-.661.662h-10.65a.667.667 0 0 1-.671-.662v-2.426c0-.358.303-.662.67-.662h10.65a.67.67 0 0 1 .662.662z"></path><path fill="#ffffff" d="M161.295 395.292v23.635H58.738v-23.635h102.557z" class="colorfff svgShape"></path><linearGradient id="aI" x1="66.256" x2="76.966" y1="407.11" y2="407.11" gradientUnits="userSpaceOnUse"><stop offset="0" stop-color="#909eff" class="stopColor909eff svgShape"></stop><stop offset="1" stop-color="#6977e3" class="stopColor6977e3 svgShape"></stop></linearGradient><path fill="url(#aI)" d="M66.256 400.495h10.709v13.229H66.256z"></path><linearGradient id="aJ" x1="85.106" x2="87.663" y1="407.322" y2="407.322" gradientUnits="userSpaceOnUse"><stop offset="0" stop-color="#d1deff" class="stopColord1deff svgShape"></stop><stop offset="1" stop-color="#b2c7ff" class="stopColorb2c7ff svgShape"></stop></linearGradient><path fill="url(#aJ)" d="M85.106 400.919h2.557v12.805h-2.557z"></path><linearGradient id="aK" x1="94.055" x2="96.612" y1="407.322" y2="407.322" gradientUnits="userSpaceOnUse"><stop offset="0" stop-color="#d1deff" class="stopColord1deff svgShape"></stop><stop offset="1" stop-color="#b2c7ff" class="stopColorb2c7ff svgShape"></stop></linearGradient><path fill="url(#aK)" d="M94.055 400.919h2.557v12.805h-2.557z"></path><linearGradient id="aL" x1="103.004" x2="105.561" y1="407.322" y2="407.322" gradientUnits="userSpaceOnUse"><stop offset="0" stop-color="#d1deff" class="stopColord1deff svgShape"></stop><stop offset="1" stop-color="#b2c7ff" class="stopColorb2c7ff svgShape"></stop></linearGradient><path fill="url(#aL)" d="M103.004 400.919h2.557v12.805h-2.557z"></path><linearGradient id="aM" x1="111.953" x2="114.51" y1="407.322" y2="407.322" gradientUnits="userSpaceOnUse"><stop offset="0" stop-color="#d1deff" class="stopColord1deff svgShape"></stop><stop offset="1" stop-color="#b2c7ff" class="stopColorb2c7ff svgShape"></stop></linearGradient><path fill="url(#aM)" d="M111.953 400.919h2.557v12.805h-2.557z"></path><linearGradient id="aN" x1="120.902" x2="123.459" y1="407.322" y2="407.322" gradientUnits="userSpaceOnUse"><stop offset="0" stop-color="#d1deff" class="stopColord1deff svgShape"></stop><stop offset="1" stop-color="#b2c7ff" class="stopColorb2c7ff svgShape"></stop></linearGradient><path fill="url(#aN)" d="M120.902 400.919h2.557v12.805h-2.557z"></path><linearGradient id="aO" x1="129.839" x2="135.341" y1="407.321" y2="407.321" gradientUnits="userSpaceOnUse"><stop offset="0" stop-color="#3dcfa4" class="stopColor3dcfa4 svgShape"></stop><stop offset="1" stop-color="#30bb93" class="stopColor30bb93 svgShape"></stop></linearGradient><path fill="url(#aO)" d="M135.341 407.325c0 1.518-1.233 2.743-2.75 2.743a2.747 2.747 0 1 1 0-5.494 2.753 2.753 0 0 1 2.75 2.751z"></path><linearGradient id="aP" x1="139.057" x2="144.559" y1="407.321" y2="407.321" gradientUnits="userSpaceOnUse"><stop offset="0" stop-color="#fadf68" class="stopColorfadf68 svgShape"></stop><stop offset="1" stop-color="#eac250" class="stopColoreac250 svgShape"></stop></linearGradient><path fill="url(#aP)" d="M144.559 407.325a2.746 2.746 0 0 1-2.751 2.743 2.746 2.746 0 1 1 0-5.494 2.753 2.753 0 0 1 2.75 2.751z"></path><linearGradient id="aQ" x1="148.274" x2="153.776" y1="407.321" y2="407.321" gradientUnits="userSpaceOnUse"><stop offset="0" stop-color="#f34b6d" class="stopColorf34b6d svgShape"></stop><stop offset="1" stop-color="#e24067" class="stopColore24067 svgShape"></stop></linearGradient><path fill="url(#aQ)" d="M153.776 407.325c0 1.518-1.233 2.743-2.75 2.743a2.747 2.747 0 1 1 0-5.494 2.753 2.753 0 0 1 2.75 2.751z"></path><path fill="#f8fafb" d="M446.264 382.634v13.343a7.022 7.022 0 0 1-7.022 7.022h-223.83a7.022 7.022 0 0 1-7.022-7.022v-13.343h237.874z" class="colorf8fafb svgShape"></path><path fill="#373a50" d="M446.264 223.049v159.585H208.39V223.05a7.022 7.022 0 0 1 7.022-7.022h223.83a7.022 7.022 0 0 1 7.022 7.022z" class="color373a50 svgShape"></path><path fill="#ffffff" d="M215.214 375.81V223.049c0-.11.089-.198.198-.198h223.83c.109 0 .198.089.198.198V375.81H215.214z" class="colorfff svgShape"></path><path fill="#373a50" d="M332.394 392.086a5.072 5.072 0 0 1-5.071 5.062 5.065 5.065 0 0 1-5.063-5.062 5.066 5.066 0 1 1 10.134 0z" class="color373a50 svgShape"></path><path fill="#e7edff" d="M298.675 402.999h57.41v17.071h-57.41z" class="colore7edff svgShape"></path><path fill="#f8fafb" d="M368.892 433.251h-83.128c-2.391 0-3.53-2.933-1.77-4.553l14.695-8.627h57.278l14.694 8.627c1.76 1.62.613 4.553-1.769 4.553z" class="colorf8fafb svgShape"></path><linearGradient id="aR" x1="216.301" x2="209.116" y1="125.294" y2="185.849" gradientUnits="userSpaceOnUse"><stop offset="0" stop-color="#909eff" class="stopColor909eff svgShape"></stop><stop offset="1" stop-color="#6977e3" class="stopColor6977e3 svgShape"></stop></linearGradient><path fill="url(#aR)" d="M282.697 135.423c0 11.945-9.68 21.625-21.62 21.625h-89.898c-12.954 0-23.449-10.494-23.449-23.448a23.395 23.395 0 0 1 8.776-18.298c.133-.109.266-.216.403-.32.36-.279.735-.544 1.113-.802a23.379 23.379 0 0 1 10.478-3.887 25.069 25.069 0 0 1-.058-1.778c0-15.142 12.276-27.419 27.427-27.419 4.46 0 8.667 1.06 12.393 2.953a32.384 32.384 0 0 1 22.393-8.95c8.04 0 15.404 2.92 21.077 7.767.212.174.424.361.627.548.312.274.615.56.914.851.2.191.398.387.594.59.295.3.585.606.868.918a32.389 32.389 0 0 1 8.422 21.833c0 2.134-.207 4.22-.602 6.238 11.25.76 20.142 10.13 20.142 21.58z"></path><path fill="#ffffff" d="M236.593 111.1c-1.615 6.225-7.754 25.833-22.243 32.62-.499.234-1.094.234-1.593 0-14.488-6.787-20.617-26.395-22.232-32.62a1.886 1.886 0 0 1 1.37-2.316c10.612-2.687 17.325-10.154 20.14-13.936.754-1.008 2.284-1.008 3.048 0 2.805 3.782 9.518 11.25 20.129 13.936a1.9 1.9 0 0 1 1.38 2.316z" class="colorfff svgShape"></path><path fill="#373a50" d="M210.57 127.133a2.11 2.11 0 0 1-1.493-.62l-3.968-3.968a2.111 2.111 0 1 1 2.986-2.986l2.475 2.476 9.803-9.803a2.112 2.112 0 0 1 2.986 2.986l-11.296 11.296a2.112 2.112 0 0 1-1.493.619z" class="color373a50 svgShape"></path><linearGradient id="aS" x1="328.505" x2="328.505" y1="313.385" y2="287.462" gradientUnits="userSpaceOnUse"><stop offset="0" stop-color="#fadf68" class="stopColorfadf68 svgShape"></stop><stop offset="1" stop-color="#eac250" class="stopColoreac250 svgShape"></stop></linearGradient><path fill="url(#aS)" d="M384.46 250.863v77.292a5.711 5.711 0 0 1-5.714 5.713H278.264a5.711 5.711 0 0 1-5.714-5.713v-86.649a5.711 5.711 0 0 1 5.714-5.713h23.682a5.719 5.719 0 0 1 5.232 3.412l1.11 2.532a5.709 5.709 0 0 0 5.228 3.412h65.23a5.711 5.711 0 0 1 5.713 5.714z"></path><path fill="#ffffff" d="M278.107 250.27h98.246v80.278h-98.246z" class="colorfff svgShape"></path><linearGradient id="aT" x1="1368.403" x2="1368.403" y1="169.234" y2="192.073" gradientTransform="matrix(1 0 -.2278 1.03024 -1003.55 133.204)" gradientUnits="userSpaceOnUse"><stop offset="0" stop-color="#fadf68" class="stopColorfadf68 svgShape"></stop><stop offset="1" stop-color="#eac250" class="stopColoreac250 svgShape"></stop></linearGradient><path fill="url(#aT)" d="M381.175 272.067H273.733a4.858 4.858 0 0 0-4.858 4.832l-.254 51.965a4.858 4.858 0 0 0 4.858 4.885H380.92a4.858 4.858 0 0 0 4.858-4.832l.255-51.966a4.858 4.858 0 0 0-4.858-4.884z"></path><circle cx="327.327" cy="302.908" r="19.797" fill="#ffffff" class="colorfff svgShape"></circle><linearGradient id="aU" x1="313.51" x2="327.325" y1="299.572" y2="299.572" gradientUnits="userSpaceOnUse"><stop offset="0" stop-color="#f34b6d" class="stopColorf34b6d svgShape"></stop><stop offset="1" stop-color="#e24067" class="stopColore24067 svgShape"></stop></linearGradient><path fill="url(#aU)" d="M319.204 301.92h1.112c.836 0 1.32.949.82 1.621l-2.889 3.906a1.018 1.018 0 0 1-1.638 0l-2.896-3.906c-.5-.663-.017-1.62.819-1.62h1.207c.5-5.949 5.508-10.638 11.586-10.638v3.448c-4.173 0-7.638 3.147-8.12 7.19z"></path><linearGradient id="aV" x1="327.325" x2="341.144" y1="306.041" y2="306.041" gradientUnits="userSpaceOnUse"><stop offset="0" stop-color="#f34b6d" class="stopColorf34b6d svgShape"></stop><stop offset="1" stop-color="#e24067" class="stopColore24067 svgShape"></stop></linearGradient><path fill="url(#aV)" d="M340.127 303.49h-1.19c-.302 6.146-5.397 11.043-11.612 11.043v-3.449c4.31 0 7.862-3.353 8.155-7.594h-1.147c-.836 0-1.31-.957-.819-1.63l2.897-3.896a1.017 1.017 0 0 1 1.638 0l2.896 3.896c.492.673.018 1.63-.818 1.63z"></path><linearGradient id="aW" x1="326.205" x2="326.205" y1="347.026" y2="364.717" gradientUnits="userSpaceOnUse"><stop offset="0" stop-color="#d1deff" class="stopColord1deff svgShape"></stop><stop offset="1" stop-color="#b2c7ff" class="stopColorb2c7ff svgShape"></stop></linearGradient><path fill="url(#aW)" d="M276.153 362.856c-4.852 0-8.8-3.948-8.8-8.8s3.948-8.8 8.8-8.8h100.104c4.853 0 8.8 3.948 8.8 8.8s-3.947 8.8-8.8 8.8H276.153z"></path><linearGradient id="aX" x1="377.428" x2="327.707" y1="352.77" y2="353.983" gradientUnits="userSpaceOnUse"><stop offset="0" stop-color="#cedcf9" stop-opacity="0" class="stopColorcedcf9 svgShape"></stop><stop offset="1" stop-color="#ffffff" class="stopColorfff svgShape"></stop></linearGradient><path fill="url(#aX)" d="M276.153 358.088a4.037 4.037 0 0 1-4.032-4.032 4.037 4.037 0 0 1 4.032-4.032h97.101a4.037 4.037 0 0 1 4.033 4.032 4.037 4.037 0 0 1-4.033 4.032h-97.1z"></path><path fill="#373a50" d="m544.146 493.12 2.357 9.843a3.436 3.436 0 0 1-3.257 4.095c-8.685.291-25.758.003-28.91-.025a.469.469 0 0 1-.463-.452c-.141-3.012 1.86-4.926 4.806-6.407l11.362-7.652a.124.124 0 0 1 .07-.017l14.035.614z" class="color373a50 svgShape"></path><path fill="#ffdad9" d="M544.148 493.119c-.128 2.916-14.164 2.302-14.037-.614l-.277-11.529 13.143-.408 1.17 12.55z" class="colorffdad9 svgShape"></path><path fill="#373a50" d="M501.547 341.215c1.226 14.448 3.25 27.984 10.753 35.231l14.752 109.997c0 .665 1.966 1.12 4.654 1.368 5.766.522 14.856.066 14.856-1.368 0 0 2.071-103.329 3.04-133.62.143-4.645-35.08-7.4-35.08-7.4l-12.975-4.208zM509.949 493.12l2.356 9.843a3.436 3.436 0 0 1-3.256 4.095c-8.686.291-25.758.003-28.91-.025a.469.469 0 0 1-.464-.452c-.14-3.012 1.86-4.926 4.807-6.407l11.362-7.652a.124.124 0 0 1 .07-.017l14.035.614z" class="color373a50 svgShape"></path><path fill="#ffdad9" d="M509.95 493.119c-.127 2.916-14.164 2.302-14.036-.614l-.278-11.529 13.143-.408 1.171 12.55z" class="colorffdad9 svgShape"></path><path fill="#373a50" d="M492.949 342.648c1.225 14.448-.095 143.795-.095 143.795 0 .665 1.967 1.12 4.655 1.368 5.766.522 14.856.066 14.856-1.368 0 0 18.456-103.329 19.425-133.62.143-4.645-38.841-10.175-38.841-10.175z" class="color373a50 svgShape"></path><path fill="#ffdad9" d="m452.67 298.638-4.892 7.982s-10.686-1.951-13.019-5.351c-2.342-3.39 4.322-7.64 4.322-7.64s-11.176-6.212-9.105-8.924c1.998-2.613 11.817 6.61 12.495 7.242-.235-.316-1.654-2.35.353-4.159 2.18-1.971 9.846 10.85 9.846 10.85z" class="colorffdad9 svgShape"></path><path fill="#3dcfa4" d="M512.3 302.155s-.986 1.61-2.65 4.087c-5.614 8.409-18.978 26.835-27.947 26.51-2.468-.09-5.434-1.121-8.599-2.74-13.047-6.636-29.584-23.02-29.584-23.02l7.604-12.766 25.29 14.882s17.54-35.931 22.983-37.477c10.308-2.939 12.903 30.524 12.903 30.524z" class="color3dcfa4 svgShape"></path><path fill="#30bb93" d="M509.65 306.242c-5.614 8.409-18.978 26.835-27.947 26.51-2.468-.09-5.434-1.121-8.599-2.74 3.599.118 7.487-.334 9.919-2.938 1.899-2.035 2.477-4.928 2.975-7.668.813-4.44 1.618-8.87 2.432-13.309.732-4.023 1.474-8.038 2.206-12.061.452-2.487.29-7.252 3.246-8.22 5.606-1.834 11.103 7.732 12.884 11.656 1.284 2.811 2.18 5.76 2.885 8.77z" class="color30bb93 svgShape"></path><path fill="#3dcfa4" d="M552.403 353.502c-.518.798-1.678 1.448-3.324 1.966-1.76.567-4.064.987-6.754 1.291-16.478 1.827-47.23-1.012-51.458-4.45 0 0-.617-13.188-.493-28.868.008-2.04.04-4.113.082-6.211.024-.897.04-1.802.074-2.698.058-2.222.14-4.46.238-6.672.716-15.812 2.567-30.694 6.804-34.684 13.204-12.39 39.9-8.975 51.285-.815 1.934 1.39 3.192 5.981 3.982 12.332.354 2.822.617 5.998.798 9.395 1.3 24.154-1.234 59.414-1.234 59.414z" class="color3dcfa4 svgShape"></path><path fill="#30bb93" d="M552.403 353.502c-.518.798-1.678 1.448-3.324 1.966-.526-1.259-.707-2.748-.658-4.105.132-3.595 1.234-7.108 1.325-10.703.082-3.604-1.193-7.61-4.402-9.239-3.784-1.925-8.243.222-12.38 1.177-7.158 1.645-32.11-4.961-42.59-9.157.008-2.04.04-4.113.082-6.211.024-.897.04-1.802.074-2.698.058-2.222.14-4.46.238-6.672 1.341-1.711 2.444-2.888 2.6-2.97 5.57-2.863 19.86 2.896 25.437.033 2.526-1.3 9.996-12.916 11.575-15.409 2.863-4.516 4.928-9.995 8.671-13.895 1.958-2.04 4.18-1.785 5.775.502 1.802 2.583 3.505 4.862 5.948 6.919a56.87 56.87 0 0 0 2.065 1.653c.354 2.822.617 5.998.798 9.395 1.3 24.154-1.234 59.414-1.234 59.414z" class="color30bb93 svgShape"></path><path fill="#ffdad9" d="m529.93 246.576-.695 18.915s-11.827 8.129-16.492 6.872c-1.998-.542 2.197-7.332 2.197-7.332l.28-4.775.389-6.555 6.944-3.454 7.378-3.67z" class="colorffdad9 svgShape"></path><path fill="#fecdcb" d="M522.76 252.58c-1.78 3.074-7.54 7.676-7.54 7.676l.389-6.555 6.944-3.454c.533.642.732 1.429.208 2.333z" class="colorfecdcb svgShape"></path><path fill="#ffdad9" d="M509.278 255.737c5.967 3.191 19.32-6.892 20.618-7.874.068-.067.101-.09.101-.09s7.648-1.872 7.343-6.237c-.44-6.09-7.173-1.049-7.173-1.049l3.406-10.94-4.5-6.542-20.968 2.459s-.913 4.839-1.489 10.67c-.79 7.917-.947 17.673 2.662 19.603z" class="colorffdad9 svgShape"></path><path fill="#111228" d="M504.692 234.235c.8.226 19.417-1.419 20.736-1.238 1.534.214 2.088 8.167 3.07 8.675.98.507 1.669-1.185 1.669-1.185s6.733-5.041 7.173 1.05c.305 4.364-7.343 6.236-7.343 6.236s-.033.023-.101.09l-.26 6.87c11.234-8.065 13.682-20.946 8.572-28.615-5.109-7.658-13.726-7.805-20.256-7.185-6.53.621-9.018-4.11-13.98-1.695-4.963 2.402-5.01 15.396.72 16.997z" class="color111228 svgShape"></path><path fill="#ffdad9" d="M508.874 239.112c.18-.73.752-1.225 1.283-1.09.524.127.803.824.614 1.553M509.438 248.847c1.21.417 2.677.567 4.406.452M516.493 239.893c.18-.73.76-1.224 1.284-1.09.524.128.802.824.622 1.554" class="colorffdad9 svgShape"></path><path fill="#111228" d="M518.4 240.36c-.184.735-.751 1.219-1.28 1.088-.524-.124-.803-.823-.626-1.558.183-.728.757-1.218 1.28-1.088.53.131.81.824.625 1.558zM510.775 239.578c-.178.735-.75 1.22-1.274 1.089-.53-.125-.809-.824-.625-1.558.177-.729.75-1.219 1.28-1.088.523.13.803.823.619 1.557zM508.825 237.37c.152-.257.356-.492.59-.683a1.3 1.3 0 0 1 .98-.213c.378.082.667.329.825.605.134.278.195.582.213.882a3.23 3.23 0 0 1-.656-.5c-.194-.133-.368-.228-.529-.252a1.462 1.462 0 0 0-.608.016 2.88 2.88 0 0 1-.815.145zM517.038 237.99c.152-.258.357-.493.591-.684a1.3 1.3 0 0 1 .98-.213c.377.082.666.33.825.606.133.276.195.582.212.88a3.23 3.23 0 0 1-.656-.499c-.193-.133-.367-.228-.528-.252a1.454 1.454 0 0 0-.608.016 2.88 2.88 0 0 1-.816.146zM513.498 239.027c.014.742-.026 1.479-.074 2.214-.055.728-.078 1.48-.354 2.232-.139.366-.38.731-.66.992-.275.26-.52.49-.624.77-.21.61.252 1.292.705 1.852a3.651 3.651 0 0 1-.813-.782c-.213-.324-.353-.737-.263-1.171.095-.445.424-.736.655-.998.247-.254.414-.52.534-.843.25-.633.297-1.374.44-2.098.127-.726.264-1.45.454-2.168z" class="color111228 svgShape"></path><path fill="#ffffff" d="M513.844 249.366c-.144 1.402-1.252 2.438-2.471 2.313-1.213-.125-2.088-1.364-1.945-2.766.003-.025.011-.044.013-.062 1.208.417 2.674.567 4.403.451-.002.019.002.039 0 .064z" class="colorfff svgShape"></path><path fill="#373a50" d="m477.592 319.162-11.615-1.314a2.51 2.51 0 0 1-2.195-2.087l-3.211-19.556a2.51 2.51 0 0 1 2.758-2.9l11.616 1.314a2.51 2.51 0 0 1 2.194 2.087l3.212 19.556a2.51 2.51 0 0 1-2.759 2.9z" class="color373a50 svgShape"></path><path fill="#ffdad9" d="m486.245 306.268-8.707-7.13.602 3.66s-16.195-7.77-13.774 3.537c2.422 11.307 20.77 9.723 20.77 9.723l1.11-9.79z" class="colorffdad9 svgShape"></path><path fill="#3dcfa4" d="M547.102 271.17c5.268 3.273 9.438 13.013 8.841 20.693-.931 11.987-10.945 33.799-21.599 38.018-7.258 2.875-50.014-13.311-50.014-13.311-1.496-.262.688-12.736 2.183-12.474l38.886 4.51s12.606-43.085 21.703-37.435z" class="color3dcfa4 svgShape"></path><linearGradient id="aY" x1="350.718" x2="354.476" y1="163.535" y2="193.596" gradientUnits="userSpaceOnUse"><stop offset="0" stop-color="#f34b6d" class="stopColorf34b6d svgShape"></stop><stop offset="1" stop-color="#e24067" class="stopColore24067 svgShape"></stop></linearGradient><path fill="url(#aY)" d="M366.804 191.425a21.671 21.671 0 0 1-10.005 5.145l-3.556 4.398c-.391.498-1.162.45-1.518-.071l-2.631-4.066a21.731 21.731 0 0 1-13.123-6.97c-8.084-8.95-7.385-22.772 1.565-30.856 8.95-8.085 22.772-7.374 30.856 1.588 8.084 8.95 7.373 22.748-1.588 30.832z"></path><path fill="#ffffff" d="m360.763 177.212-11.232 7.15c-1.315.837-3.036-.108-3.036-1.667V168.4c0-1.559 1.72-2.503 3.035-1.667l11.233 7.146a1.975 1.975 0 0 1 0 3.333z" class="colorfff svgShape"></path><linearGradient id="aZ" x1="-879.196" x2="-844.727" y1="-50.848" y2="9.512" gradientTransform="rotate(-13.294 744.575 -4535.986)" gradientUnits="userSpaceOnUse"><stop offset="0" stop-color="#3dcfa4" class="stopColor3dcfa4 svgShape"></stop><stop offset="1" stop-color="#30bb93" class="stopColor30bb93 svgShape"></stop></linearGradient><path fill="url(#aZ)" d="M233.12 221.893a21.671 21.671 0 0 1-4.175 10.446l.202 5.652c.03.633-.582 1.102-1.192.942l-4.654-1.342a21.731 21.731 0 0 1-14.476 3.348c-11.973-1.45-20.513-12.34-19.062-24.314 1.45-11.973 12.349-20.504 24.33-19.044 11.972 1.45 20.488 12.331 19.028 24.312z"></path><path fill="#ffffff" d="M218.2 227.995c-1.8.417-3.51-.323-3.817-1.653-.307-1.326.905-2.741 2.709-3.154a4.2 4.2 0 0 1 1.702-.052v-8.718l-11.903 1.379v11.038a.056.056 0 0 1 0 .036c.025 1.21-1.124 2.402-2.753 2.778-1.803.412-3.51-.328-3.816-1.654-.308-1.326.905-2.74 2.708-3.157a4.232 4.232 0 0 1 1.71-.049v-12.885c0-.412.31-.759.72-.806l14.58-1.684a.812.812 0 0 1 .904.806v14.784h-.008c.178 1.277-1.006 2.591-2.737 2.991z" class="colorfff svgShape"></path><linearGradient id="ba" x1="473.426" x2="465.777" y1="167.639" y2="182.841" gradientUnits="userSpaceOnUse"><stop offset="0" stop-color="#909eff" class="stopColor909eff svgShape"></stop><stop offset="1" stop-color="#6977e3" class="stopColor6977e3 svgShape"></stop></linearGradient><path fill="url(#ba)" d="M468.845 206.19c-3.986.686-7.94.258-11.464-1.048l-5.485 1.846c-.611.216-1.25-.248-1.271-.894l-.042-4.955a22.237 22.237 0 0 1-7.507-13.222c-2.07-12.167 6.12-23.72 18.287-25.79 12.166-2.07 23.713 6.131 25.776 18.308 2.07 12.166-6.118 23.692-18.294 25.755z"></path><path fill="#ffffff" d="M459.551 173.15h11.618v1.678h-11.618zM451.154 173.15h6.121v1.678h-6.121zM473.504 173.15h5.557v1.678h-5.557zM449.162 177.324h5.418v1.678h-5.418zM456.556 177.324h12.516v1.678h-12.516zM471.169 177.324h9.884v1.678h-9.884zM449.162 181.499h7.274v1.678h-7.274zM458.353 181.499h6.049v1.678h-6.049zM476.918 181.499h4.135v1.678h-4.135zM466.737 181.499h8.564v1.678h-8.564zM449.162 185.673h8.831v1.678h-8.831zM459.91 185.673h6.707v1.678h-6.707zM470.031 185.673h11.022v1.678h-11.022zM449.162 189.848h4.16v1.678h-4.16zM455.418 189.848h5.689v1.678h-5.689zM463.204 189.848h8.983v1.678h-8.983zM473.445 189.848h7.609v1.678h-7.609zM466.198 194.022h7.486v1.678h-7.486zM475.301 194.022h3.761v1.678h-3.761zM451.154 194.022h12.709v1.678h-12.709z" class="colorfff svgShape"></path><path fill="#b2c7ff" d="M291.414 260.15c-.588-.374-1.307-.563-2.14-.563h-2.085a.722.722 0 0 0-.716.726v6.295a.704.704 0 0 0 .209.508.702.702 0 0 0 .507.207h2.085c.833 0 1.552-.189 2.14-.562a3.633 3.633 0 0 0 1.329-1.453 4.113 4.113 0 0 0 0-3.707 3.635 3.635 0 0 0-1.329-1.452zm.338 3.305c0 .493-.107.93-.32 1.302a2.246 2.246 0 0 1-.897.87c-.39.21-.853.317-1.375.317h-1.244v-4.978h1.244c.522 0 .985.107 1.375.317.385.209.687.501.897.87.213.371.32.81.32 1.302zM298.617 260.107a1.05 1.05 0 0 0-.306-.4.82.82 0 0 0-.523-.173h-.104a.82.82 0 0 0-.522.174 1.05 1.05 0 0 0-.308.404l-2.645 6.243a.713.713 0 0 0 .128.81c.227.235.628.28.916.092a.753.753 0 0 0 .276-.326l.61-1.464h3.194l.614 1.474a.743.743 0 0 0 .672.434.698.698 0 0 0 .716-.715.792.792 0 0 0-.072-.305l-2.646-6.248zm.146 4.001h-2.054l1.027-2.472 1.027 2.472zM307.215 259.587h-5.165a.666.666 0 0 0-.49.206.691.691 0 0 0-.194.489.674.674 0 0 0 .684.684h1.867v5.694c0 .196.072.372.207.507a.7.7 0 0 0 .509.208.721.721 0 0 0 .726-.715v-5.694h1.856a.691.691 0 0 0 .488-.194c.136-.13.207-.299.207-.49 0-.19-.07-.36-.203-.493a.683.683 0 0 0-.492-.202zM312.42 260.107a1.05 1.05 0 0 0-.306-.4.82.82 0 0 0-.523-.173h-.104a.82.82 0 0 0-.523.174 1.05 1.05 0 0 0-.308.404l-2.644 6.243a.713.713 0 0 0 .128.81c.227.235.629.28.916.092a.753.753 0 0 0 .276-.326l.61-1.464h3.194l.614 1.474a.743.743 0 0 0 .672.434.698.698 0 0 0 .716-.715.792.792 0 0 0-.072-.305l-2.646-6.248zm.146 4.001h-2.054l1.027-2.472 1.027 2.472zM325.71 263.216c.258-.383.39-.812.39-1.275 0-.704-.269-1.282-.797-1.717-.514-.423-1.279-.637-2.274-.637h-2.416a.722.722 0 0 0-.716.726v6.347c0 .196.072.371.208.507a.74.74 0 0 0 1.018.004.692.692 0 0 0 .216-.511v-2.158h1.898c.407 0 .707.093.893.276.202.199.325.416.377.663.059.275.088.58.088.907v.312c0 .203.07.38.203.513.134.134.31.202.523.202a.704.704 0 0 0 .716-.715v-.478c0-.497-.098-1.01-.291-1.524-.14-.37-.36-.653-.657-.848.25-.157.459-.356.62-.594zm-1.052-1.203a.89.89 0 0 1-.414.79c-.306.205-.736.31-1.277.31h-1.628v-2.136h1.576c.833 0 1.217.154 1.392.283.236.173.35.42.35.753zM332.674 260.966a.692.692 0 0 0 .489-.194c.135-.13.206-.3.206-.49a.685.685 0 0 0-.203-.493.684.684 0 0 0-.492-.202h-4.159a.722.722 0 0 0-.716.726v6.295a.704.704 0 0 0 .209.508.702.702 0 0 0 .507.207h4.159a.693.693 0 0 0 .489-.194c.135-.13.206-.3.206-.49s-.07-.36-.203-.493a.684.684 0 0 0-.492-.202h-3.433v-1.805h3.06a.691.691 0 0 0 .488-.193c.135-.13.207-.3.207-.491 0-.19-.07-.36-.203-.493a.683.683 0 0 0-.492-.202h-3.06v-1.794h3.433zM338.992 263.192a10.745 10.745 0 0 0-1.357-.405 9.485 9.485 0 0 1-.974-.267 1.432 1.432 0 0 1-.523-.308.557.557 0 0 1-.166-.427c0-.286.125-.495.394-.658.627-.381 1.821-.344 2.78-.013.365.147.579.037.749-.164a.7.7 0 0 0 .173-.461.648.648 0 0 0-.453-.648c-.64-.237-1.364-.358-2.15-.358-.601 0-1.127.104-1.563.308-.445.21-.79.499-1.021.858-.233.361-.35.768-.35 1.209 0 .511.147.931.438 1.247.274.297.605.522.985.67.354.138.82.283 1.385.428.414.11.733.202.956.28.196.069.362.162.493.278.102.09.15.196.15.333 0 .257 0 .943-1.567.943-.687 0-1.34-.136-1.942-.404a.695.695 0 0 0-.787.147.69.69 0 0 0-.057.872.72.72 0 0 0 .315.258 6.423 6.423 0 0 0 2.565.517c.557 0 1.058-.094 1.488-.28.442-.19.79-.46 1.037-.804.251-.349.379-.749.379-1.187 0-.53-.141-.961-.419-1.283a2.426 2.426 0 0 0-.958-.681zM346.435 259.587h-5.164a.666.666 0 0 0-.49.206.691.691 0 0 0-.195.489.674.674 0 0 0 .685.684h1.867v5.694c0 .196.071.372.207.507a.7.7 0 0 0 .508.208.721.721 0 0 0 .726-.715v-5.694h1.856a.691.691 0 0 0 .489-.194c.135-.13.206-.299.206-.49 0-.19-.07-.36-.202-.493a.683.683 0 0 0-.493-.202zM353.526 259.994c-.58-.339-1.262-.511-2.03-.511-.767 0-1.45.172-2.033.51a3.53 3.53 0 0 0-1.36 1.416c-.314.593-.481 1.28-.495 2.05.014.762.18 1.449.495 2.042a3.53 3.53 0 0 0 1.36 1.415c.582.339 1.266.511 2.033.511.768 0 1.45-.172 2.03-.512a3.564 3.564 0 0 0 1.358-1.419c.318-.595.487-1.28.502-2.046-.015-.756-.184-1.44-.502-2.036a3.57 3.57 0 0 0-1.358-1.42zm-2.03 6.054c-.51 0-.953-.114-1.316-.337a2.23 2.23 0 0 1-.836-.916 2.967 2.967 0 0 1-.295-1.34c0-.498.1-.949.295-1.34.193-.385.474-.693.837-.916.362-.223.804-.337 1.315-.337.505 0 .946.114 1.312.337.365.223.648.53.84.915.197.392.296.843.296 1.341s-.1.949-.295 1.34c-.195.39-.47.69-.84.915-.367.224-.809.338-1.313.338zM362.794 263.216c.259-.383.39-.812.39-1.275 0-.704-.268-1.282-.796-1.717-.514-.423-1.279-.637-2.274-.637h-2.416a.722.722 0 0 0-.716.726v6.347c0 .196.072.371.208.507a.74.74 0 0 0 1.018.004.693.693 0 0 0 .216-.511v-2.158h1.898c.406 0 .707.093.893.276.202.199.325.416.377.663a4.4 4.4 0 0 1 .088.907v.312c0 .203.07.38.203.513.134.134.31.202.523.202a.704.704 0 0 0 .716-.715v-.478c0-.497-.098-1.01-.291-1.524-.14-.37-.36-.653-.657-.848.25-.157.459-.356.62-.594zm-1.052-1.203a.89.89 0 0 1-.413.79c-.306.205-.736.31-1.277.31h-1.628v-2.136H360c.833 0 1.217.154 1.392.283.236.173.35.42.35.753zM369.759 265.944h-3.433v-1.805h3.06a.691.691 0 0 0 .488-.193c.135-.13.207-.3.207-.491 0-.19-.07-.36-.203-.493a.683.683 0 0 0-.493-.202h-3.059v-1.794h3.433a.692.692 0 0 0 .489-.194c.135-.13.206-.3.206-.49a.685.685 0 0 0-.203-.493.684.684 0 0 0-.492-.202H365.6a.722.722 0 0 0-.716.726v6.295a.704.704 0 0 0 .208.508.702.702 0 0 0 .508.207h4.159a.693.693 0 0 0 .489-.194c.135-.13.206-.3.206-.49s-.07-.36-.203-.493a.684.684 0 0 0-.492-.202z" class="colorb2c7ff svgShape"></path></svg>