<svg xmlns="http://www.w3.org/2000/svg" enable-background="new 0 0 800 600" viewBox="0 0 800 600" width="550" height="550"><path fill="#bf4240" d="M188.9 140.65h9.53c1.92 0 3.48-1.56 3.48-3.48v-13.09c0-1.92-1.56-3.48-3.48-3.48h-9.53a43.732 43.732 0 0 0-5.56-13.41l6.74-6.74a3.476 3.476 0 0 0 0-4.92l-9.26-9.26a3.476 3.476 0 0 0-4.92 0l-6.74 6.74a44.335 44.335 0 0 0-13.41-5.56v-9.53c0-1.92-1.56-3.48-3.48-3.48h-13.09c-1.92 0-3.48 1.56-3.48 3.48v9.53a43.732 43.732 0 0 0-13.41 5.56l-6.74-6.74a3.476 3.476 0 0 0-4.92 0l-9.26 9.26a3.476 3.476 0 0 0 0 4.92l6.74 6.74a44.335 44.335 0 0 0-5.56 13.41h-9.53c-1.92 0-3.48 1.56-3.48 3.48v13.09c0 1.92 1.56 3.48 3.48 3.48h9.53c1.11 4.82 3.01 9.34 5.56 13.41l-6.74 6.74a3.476 3.476 0 0 0 0 4.92l9.26 9.26a3.476 3.476 0 0 0 4.92 0l6.74-6.74c4.08 2.54 8.59 4.44 13.41 5.56v9.53c0 1.92 1.56 3.48 3.48 3.48h13.09c1.92 0 3.48-1.56 3.48-3.48v-9.53c4.82-1.11 9.34-3.01 13.41-5.56l6.74 6.74a3.476 3.476 0 0 0 4.92 0l9.26-9.26a3.476 3.476 0 0 0 0-4.92l-6.74-6.74c2.55-4.07 4.45-8.59 5.56-13.41zm-64.94-10.02c0-12.02 9.75-21.77 21.77-21.77s21.77 9.75 21.77 21.77-9.75 21.77-21.77 21.77-21.77-9.75-21.77-21.77z" class="colorbf4240 svgShape"></path><path fill="#262935" d="M323.33 422.43h138.76v99.56H323.33z" class="color262935 svgShape"></path><path fill="#1b1d26" d="M323.33 427.17h138.76v21.67H323.33zM570.86 521.03h-356.3c-6.36 0-11.52 5.16-11.52 11.52v3.85a4.59 4.59 0 0 0 4.59 4.59H577.8a4.59 4.59 0 0 0 4.59-4.59v-3.85c-.01-6.36-5.17-11.52-11.53-11.52z" class="color1b1d26 svgShape"></path><path fill="#262935" d="M600.32 116.02H185.1c-17.52 0-31.73 14.2-31.73 31.73v252.21c0 17.52 14.2 31.73 31.73 31.73h415.21c17.52 0 31.73-14.2 31.73-31.73V147.75c0-17.53-14.2-31.73-31.72-31.73z" class="color262935 svgShape"></path><path fill="#474951" d="M185.1 412.56c-6.95 0-12.61-5.66-12.61-12.61v-252.2c0-6.95 5.66-12.61 12.61-12.61h415.21c6.95 0 12.61 5.66 12.61 12.61v252.21c0 6.95-5.66 12.61-12.61 12.61H185.1z" class="color474951 svgShape"></path><path fill="#5db3ab" d="M562.56 390.24s-12.71 54.62 10.63 84.67c23.34 30.05 33.84 49.75 33.84 49.75s.93-25.98-14.06-48.03c-14.99-22.04-26.35-65.24-30.41-86.39z" class="color5db3ab svgShape"></path><path fill="#49908c" d="M559.2 428.5s-5.49 30.34 7.45 46.26 38.57 40.91 42.13 51.23 6.37 2.63 6.37 2.63.43-17.02-26.15-39.03c-29.81-24.68-29.8-61.09-29.8-61.09z" class="color49908c svgShape"></path><path fill="#397c77" d="M614.82 470.08c.03 1.34 0 2.82-.1 4.47-1.16 18.58-3.46 39.23-3.46 39.23s-11.8-18.89-15.2-37.54C592.68 457.59 578 452 580.8 438.07c2.66-13.3 3.59-30.3 3.67-31.81.01-.07.01-.11.01-.11s19.15 19.03 21.23 35.58c1.89 15.08 8.78 14.5 9.11 28.35z" class="color397c77 svgShape"></path><path fill="#49908c" d="M614.82 470.08c-2.87 4.87-6.03 9.43-9.61 13.92 4.44-7.89 1.51-17.9-4.74-24.45-4.69-4.91-11.31-8.8-13.1-15.17-.97-3.42-.35-7.05.01-10.59.92-9.21.97-19.32-2.91-27.53.01-.07.01-.11.01-.11s19.15 19.03 21.23 35.58c1.89 15.08 8.78 14.5 9.11 28.35z" class="color49908c svgShape"></path><path fill="#397c77" d="m641.51 479.47-.01.01c.07 1.92-.03 3.72-.34 5.38-3.11 16.95-30.35 39.31-30.35 39.31v-.03c-.65-30.29 21.44-43.4 14.94-64.61-6.41-20.92 6.79-39.77 7.16-40.29-6.27 15.09 8.02 42.56 8.6 60.23z" class="color397c77 svgShape"></path><path fill="#2d726d" d="M641.51 479.49c.07 1.92-.03 3.72-.34 5.38-3.11 16.95-30.35 39.31-30.35 39.31v-.03c.03-.72-10.08-12.71 4.29-25.01 12.52-10.73 25.9-17.68 26.4-19.65z" class="color2d726d svgShape"></path><path fill="#49908c" d="M632.57 466.49s-29.39 10.54-23.97 37.02 2.13 33.68 2.13 33.68l-.78-17.1s-11.21-22.52 1.79-44.2l20.83-9.4z" class="color49908c svgShape"></path><path fill="#5bb1a8" d="M658.08 397s-13.24 5.87-12.07 23.5c1.17 17.64 5.39 34.57-13.44 45.98s-33.98 24.31-22.62 53.6c0 0-12.65-20.08.6-50.84 13.26-30.76 8.92-22.14 19.2-32.8 10.29-10.66 13.99-39.58 28.33-39.44z" class="color5bb1a8 svgShape"></path><path fill="#ef8a7f" d="m591.75 526.7 9.3 23.19c1.62 4.04 5.46 6.48 9.42 5.99l12.89-1.62c3.96-.5 7.08-3.81 7.65-8.13l3.28-24.77c.37-2.82-1.84-5.31-4.42-4.99l-35.05 4.4c-2.61.32-4.13 3.28-3.07 5.93z" class="coloref8a7f svgShape"></path><path fill="#0e9b9b" d="M138.52 414.25h-15.97v-15.97c0-1.5-1.22-2.72-2.72-2.72h-10.91c-1.5 0-2.72 1.22-2.72 2.72v15.97H90.22c-1.5 0-2.72 1.22-2.72 2.72v10.91c0 1.5 1.22 2.72 2.72 2.72h15.97v15.97c0 1.5 1.22 2.72 2.72 2.72h10.91c1.5 0 2.72-1.22 2.72-2.72V430.6h15.97c1.5 0 2.72-1.22 2.72-2.72v-10.91c.01-1.5-1.21-2.72-2.71-2.72z" class="color0e9b9b svgShape"></path><path fill="#1f222b" d="M612.93 302.49h19.11v9.47h-19.11z" class="color1f222b svgShape"></path><path fill="#3b3d44" d="M592.37 302.49h-5.15v9.47h25.71v-9.47z" class="color3b3d44 svgShape"></path><path fill="#1f222b" d="M479.15 116.02h12.51v19.11h-12.51z" class="color1f222b svgShape"></path><path fill="#3b3d44" d="M479.15 135.13h12.51v24.63h-12.51z" class="color3b3d44 svgShape"></path><path fill="#1f222b" d="M153.38 366.57h19.11v11.09h-19.11z" class="color1f222b svgShape"></path><path fill="#3b3d44" d="M203.86 377.66v-48.41.01-.01l-11.08-9.14v46.46h-20.29v11.09h2.52z" class="color3b3d44 svgShape"></path><path fill="#bfbfbf" d="m181.29 309.03-26.77-22.2-40.15 33.23 40.15 25.7 40.15-25.7z" class="colorbfbfbf svgShape"></path><path fill="#e8e8ea" d="M114.37 320.06v48.4l40.15-22.7zM154.52 345.76l40.15 22.7v-48.4z" class="colore8e8ea svgShape"></path><path fill="#d8d8d8" d="M114.37 368.46h80.3l-40.15-31.57z" class="colord8d8d8 svgShape"></path><path fill="#bfbfbf" d="m634.89 251.74-22.86-18.95-34.28 28.37 34.28 21.94 34.28-21.94z" class="colorbfbfbf svgShape"></path><path fill="#e8e8ea" d="M577.75 261.16v41.33l34.28-19.39zM612.03 283.1l34.28 19.39v-41.33z" class="colore8e8ea svgShape"></path><path fill="#d8d8d8" d="M577.75 302.49h68.56l-34.28-26.96z" class="colord8d8d8 svgShape"></path><path fill="#ed8d03" d="M514.32 177.97v21.26h-32.55v-42.81h11c11.83 0 21.55 9.64 21.55 21.55z" class="colored8d03 svgShape"></path><path fill="#dd820a" d="M481.76 156.42h8.21v37.39h-8.21z" class="colordd820a svgShape"></path><path fill="#ed8d03" d="M239.62 365.4a22.861 22.861 0 0 1-6.09-15.58V176.6c0-12.83 10.36-23.19 23.11-23.19H275v143.51s-37.26 65.65-35.38 68.48z" class="colored8d03 svgShape"></path><path fill="#d6d5d4" d="M433.03 215.13c-.86-3.12-.09-7.32 2.51-9.5 12.69-10.6 32.85-15.63 46.22-5.73V55.2c0-6.15-4.98-11.13-11.13-11.13H299.55c-6.15 0-11.13 4.98-11.13 11.13v160.29h144.73l-.12-.36z" class="colord6d5d4 svgShape"></path><path fill="#c4c4c4" d="M467.99 195.29V92.15c0-6.15-4.98-11.13-11.13-11.13h-.67v114.27h11.8z" class="colorc4c4c4 svgShape"></path><path fill="#eeeeee" d="M269.95 246.03c.82-.65 1.55-1.34 2.27-2.1.08-.09.14-.14.19-.18.05-.09.1-.17.17-.28.76-1.28 1.52-2.54 2.18-3.88 1.41-2.85 2.52-5.86 4.05-8.65 4.22-7.68 11-11.34 19.52-12.26 6.66-.72 13.4.44 19.97 1.37.97.14 1.94.28 2.91.41 2 .28.63.08.21.03 1.44.17 2.89.35 4.34.44 3.46.22 6.96.08 10.43.05 17.62-.14 35.22-.72 52.82-1.43 16.57-.67 33.14-1.52 49.71-2.19.13-.01.24-.01.34-.01.05-.01.08-.02.13-.03.54-.13 1.08-.21 1.62-.35.04-.01.2-.05.38-.1l.01-.01c.1-.4.23-.8.33-1.2.23-.91.4-1.84.57-2.77.45-2.45.8-4.91 1.22-7.37.89-5.23 7.32-8.11 12.01-6.82 1.18.32 2.2.83 3.08 1.48V82.57c0-6.15-4.98-11.13-11.13-11.13H276.2c-6.15 0-11.13 4.98-11.13 11.13v165.85l2.8.37c.46-1.06 1.14-2.01 2.08-2.76z" class="coloreee svgShape"></path><path fill="#ff9c00" d="m559.08 210.48-40.06 144.87c-2.66 9.43-15.56 17.16-28.99 17.16H249.88c-.84 0-1.67-.07-2.5-.14-7.06-.5-12.6-3.26-15.33-7.3-1.97-2.77-2.66-6.1-1.67-9.71l27.85-100.77 6.83-24.68c2.35-8.37 13.89-15.25 25.8-15.25h124.9c8.35 0 16.39-4.75 18.06-10.64 1.59-5.89 9.71-10.71 17.98-10.71h87.79c13.35.01 22.07 7.74 19.49 17.17z" class="colorff9c00 svgShape"></path><path fill="#d6d7d8" d="M298.68 94.18h126.11c1.89 0 3.42 1.53 3.42 3.42s-1.53 3.42-3.42 3.42H298.68c-1.89 0-3.42-1.53-3.42-3.42 0-1.88 1.53-3.42 3.42-3.42zM298.68 118.7h126.11c1.89 0 3.42 1.53 3.42 3.42s-1.53 3.42-3.42 3.42H298.68c-1.89 0-3.42-1.53-3.42-3.42s1.53-3.42 3.42-3.42zM298.68 143.21h126.11c1.89 0 3.42 1.53 3.42 3.42s-1.53 3.42-3.42 3.42H298.68c-1.89 0-3.42-1.53-3.42-3.42s1.53-3.42 3.42-3.42zM357.65 167.72h67.14c1.89 0 3.42 1.53 3.42 3.42s-1.53 3.42-3.42 3.42h-67.14c-1.89 0-3.42-1.53-3.42-3.42-.01-1.89 1.53-3.42 3.42-3.42z" class="colord6d7d8 svgShape"></path><path fill="#eeeeee" d="M382.23 260.09a34.165 34.165 0 0 1 33.58 4.93l-13.19-.42-.27 8.61 24.24.77h.14a4.3 4.3 0 0 0 4.3-4.17l.77-24.24-8.61-.27-.45 14.23a42.795 42.795 0 0 0-43.64-7.47 42.816 42.816 0 0 0-26.89 45.66l8.54-1.14a34.205 34.205 0 0 1 21.48-36.49zM429.02 292.21c-.06 14.17-8.61 26.66-21.78 31.81a34.165 34.165 0 0 1-33.58-4.93l13.19.42.27-8.61-24.24-.77c-2.37-.13-4.37 1.79-4.44 4.17l-.77 24.24 8.61.27.45-14.22a42.748 42.748 0 0 0 43.63 7.45c16.49-6.45 27.19-22.07 27.26-39.8l-8.6-.03z" class="coloreee svgShape"></path><path fill="#3b3d44" d="M559.41 205.59c.23 1.55.14 3.19-.33 4.89l-40.06 144.87c-2.66 9.43-15.56 17.16-28.99 17.16H249.88c-.84 0-1.67-.07-2.5-.14-2.88-.2-5.51-.79-7.8-1.68.72 1.32 1.54 2.57 2.48 3.72.28.56.59 1.11.96 1.63 2.73 4.04 8.27 6.81 15.33 7.3.83.07 1.67.14 2.5.14h240.16c13.43 0 26.33-7.73 28.99-17.16l40.06-144.87c1.95-7.12-2.56-13.28-10.65-15.86z" class="color3b3d44 svgShape"></path><path fill="#ff8888" d="M673.71 78.91c-2.73 0-5.49.3-8.22.9a48.963 48.963 0 0 0-24.04-18.61c-5.21-1.89-10.76-2.84-16.5-2.84-14.05 0-27.44 6.03-36.74 16.55a48.717 48.717 0 0 0-11.28 22.43 28.8 28.8 0 0 0-3.95-.26c-16.4 0-29.74 13.33-29.74 29.71 0 16.4 13.34 29.74 29.74 29.74H673.7c21.38 0 38.79-17.4 38.79-38.78.01-21.43-17.39-38.84-38.78-38.84z" class="colorf88 svgShape"></path><path fill="#1f222b" d="M612.93 156.51h19.11v9.89h-19.11z" class="color1f222b svgShape"></path><path fill="#3b3d44" d="M572.99 156.51c-5.67 0-10.98-1.6-15.49-4.36 5.23 8.54 14.65 14.25 25.38 14.25h30.05v-9.89h-39.94z" class="color3b3d44 svgShape"></path><path fill="#f2f2f2" d="m597.5 116.62 23.61 23.46c1.05 1.04 2.78.89 3.63-.32l33.85-48.27c1.57-2.23-1.6-4.71-3.39-2.66l-32.12 36.79c-.79.91-2.14 1.08-3.14.4l-19.33-13.18c-2.47-1.68-5.23 1.67-3.11 3.78z" class="colorf2f2f2 svgShape"></path></svg>