<svg xmlns="http://www.w3.org/2000/svg" enable-background="new 0 0 2000 2000" viewBox="0 0 2000 2000" width="550" height="550"><path fill="#e0e8f5" fill-rule="evenodd" d="M926.31 506.83h-752.5c5.41-22.87 25.93-39.87 50.45-39.87 1.17 0 2.36.04 3.53.13 11.88-29.09 40.47-49.6 73.84-49.6 14.6 0 28.27 3.94 40.03 10.78 14.35-47.31 58.3-81.75 110.3-81.75 10.57 0 20.83 1.44 30.56 4.12 25.18-55.58 81.12-94.23 146.1-94.23 77.07 0 141.43 54.4 156.81 126.9 1.31-.05 2.59-.09 3.89-.09 49.37 0 90.11 36.92 96.13 84.64C905.59 471.63 921.64 487.03 926.31 506.83zM1716.92 605.59h-546.84c3.93-16.62 18.85-28.98 36.66-28.98.85 0 1.72.03 2.56.1 8.63-21.14 29.41-36.04 53.66-36.04 10.61 0 20.54 2.86 29.09 7.83 10.43-34.38 42.37-59.41 80.16-59.41 7.68 0 15.14 1.05 22.21 2.99 18.3-40.39 58.95-68.48 106.17-68.48 56 0 102.77 39.53 113.95 92.21.95-.03 1.88-.07 2.83-.07 35.88 0 65.48 26.83 69.86 61.51C1701.86 580.01 1713.52 591.2 1716.92 605.59z" clip-rule="evenodd" class="colore0e8f5 svgShape"></path><path fill="#c4d1eb" fill-rule="evenodd" d="M508.32 1786.84c182.1 0 330.62-21.11 330.62-47s-148.52-47-330.62-47c-182.1 0-330.61 21.11-330.61 47S326.22 1786.84 508.32 1786.84zM1509.06 1777.4c150.09 0 272.51-17.41 272.51-38.74s-122.42-38.74-272.51-38.74c-150.09 0-272.51 17.4-272.51 38.74S1358.97 1777.4 1509.06 1777.4zM198.11 1218.19c63.58 214.44 257.83 303.18 474.05 178.19C587.35 1169.9 403.37 1100.23 198.11 1218.19z" clip-rule="evenodd" class="colorc4d1eb svgShape"></path><path fill="#ffffff" fill-rule="evenodd" d="M219.66,1233.22c-1.7-0.63-2.57-2.51-1.95-4.22c0.63-1.7,2.52-2.58,4.22-1.95l160.72,59.2l-12.92-97.75
		c-0.24-1.8,1.03-3.45,2.83-3.69c1.8-0.24,3.45,1.03,3.69,2.83l13.38,101.18l44.64,16.44c1.01-0.12,2.06,0.23,2.81,1.03l34.22,12.61
		l2.21-110.48c0.04-1.81,1.54-3.26,3.35-3.22c1.81,0.04,3.26,1.54,3.22,3.35l-2.25,112.75l40.11,14.77c0.13,0.04,0.27,0.09,0.4,0.15
		l40.74,15.01l4.6-81.48c0.1-1.81,1.66-3.19,3.46-3.09c1.81,0.1,3.19,1.66,3.09,3.46l-4.71,83.48l107.8,39.71
		c1.7,0.63,2.58,2.52,1.95,4.22c-0.63,1.7-2.52,2.58-4.22,1.95l-72.49-26.7l-44.78,46.67c-1.25,1.31-3.33,1.36-4.64,0.1
		c-1.31-1.25-1.36-3.33-0.1-4.64l42.8-44.61l-73.84-27.2l-74.14,85.25c-1.19,1.37-3.27,1.52-4.65,0.32
		c-1.37-1.19-1.52-3.27-0.32-4.64l72.5-83.36l-37.95-13.98l-0.15-0.06l-38.2-14.07l-86.21,76.76c-1.36,1.21-3.44,1.09-4.64-0.27
		c-1.21-1.36-1.09-3.44,0.27-4.64l83.58-74.43l-42.47-15.64l-0.21-0.08l-45.4-16.72l-69.95,49.06c-1.48,1.04-3.53,0.68-4.57-0.8
		c-1.04-1.48-0.69-3.53,0.8-4.57l66.23-46.45L219.66,1233.22z" clip-rule="evenodd" class="colorfff svgShape"></path><path fill="#c4d1eb" fill-rule="evenodd" d="M1806.13,1092.89c-63.58,214.44-257.83,303.17-474.05,178.19C1416.89,1044.59,1600.87,974.93,1806.13,1092.89z
		" clip-rule="evenodd" class="colorc4d1eb svgShape"></path><path fill="#ffffff" fill-rule="evenodd" d="M1784.58,1107.91c1.7-0.63,2.57-2.52,1.95-4.22c-0.63-1.7-2.51-2.58-4.22-1.95l-160.72,59.2l12.92-97.75
		c0.24-1.8-1.03-3.45-2.83-3.69c-1.8-0.24-3.45,1.03-3.69,2.83l-13.38,101.18l-44.63,16.44c-1.01-0.12-2.06,0.23-2.81,1.03
		l-34.22,12.61l-2.21-110.48c-0.04-1.81-1.54-3.25-3.35-3.22c-1.81,0.04-3.26,1.54-3.22,3.35l2.25,112.75l-40.11,14.77
		c-0.13,0.04-0.27,0.09-0.4,0.15l-40.74,15.01l-4.6-81.48c-0.1-1.81-1.66-3.19-3.46-3.09c-1.81,0.1-3.19,1.66-3.09,3.46l4.71,83.48
		l-107.8,39.71c-1.7,0.63-2.58,2.52-1.95,4.22c0.63,1.7,2.52,2.57,4.22,1.95l72.49-26.7l44.78,46.67c1.25,1.31,3.33,1.36,4.64,0.1
		s1.36-3.33,0.1-4.64l-42.8-44.61l73.84-27.2l74.14,85.25c1.19,1.37,3.27,1.52,4.64,0.32c1.37-1.19,1.52-3.27,0.32-4.64l-72.5-83.36
		l37.95-13.98l0.15-0.06l38.2-14.07l86.21,76.76c1.36,1.21,3.44,1.09,4.64-0.27c1.21-1.36,1.09-3.44-0.27-4.64l-83.58-74.43
		l42.47-15.64l0.21-0.08l45.4-16.72l69.95,49.06c1.48,1.04,3.53,0.68,4.57-0.8c1.04-1.48,0.69-3.53-0.8-4.57l-66.23-46.45
		L1784.58,1107.91z" clip-rule="evenodd" class="colorfff svgShape"></path><path fill="#b0c2e4" fill-rule="evenodd" d="M320.61,829.02c-91.94,243.79,25.89,462.89,314.55,499.08C715.88,1058.19,594.16,864.03,320.61,829.02z" clip-rule="evenodd" class="colorb0c2e4 svgShape"></path><path fill="#ffffff" fill-rule="evenodd" d="M330.04,858.13c-1.14-1.78-0.62-4.15,1.16-5.29c1.78-1.14,4.15-0.62,5.29,1.16l107.5,168.08l56.82-99.83
		c1.05-1.84,3.39-2.48,5.22-1.43s2.48,3.39,1.43,5.22l-58.81,103.33l29.85,46.68c1.02,0.6,1.75,1.67,1.88,2.93l22.89,35.79
		l79.82-100.99c1.31-1.66,3.72-1.94,5.37-0.63c1.66,1.31,1.94,3.72,0.63,5.37l-81.46,103.06l26.83,41.95
		c0.1,0.13,0.18,0.27,0.27,0.42l27.25,42.6l61.62-72.39c1.37-1.61,3.78-1.8,5.39-0.43c1.61,1.37,1.8,3.78,0.43,5.39l-63.13,74.17
		l72.1,112.74c1.14,1.78,0.62,4.15-1.16,5.29c-1.78,1.14-4.15,0.62-5.29-1.16l-48.49-75.81l-74.41,11.79
		c-2.08,0.33-4.04-1.09-4.38-3.17c-0.33-2.08,1.09-4.05,3.17-4.38l71.13-11.27l-49.39-77.22l-128.83,26.93
		c-2.07,0.44-4.11-0.89-4.54-2.97c-0.44-2.07,0.89-4.1,2.97-4.54l125.98-26.33l-25.38-39.69l-0.1-0.16l-25.55-39.95l-134.05,10.56
		c-2.11,0.17-3.95-1.41-4.12-3.52c-0.17-2.11,1.41-3.95,3.52-4.12l129.97-10.24l-28.4-44.41l-0.14-0.22l-30.37-47.48l-99.46-3.71
		c-2.11-0.08-3.76-1.85-3.68-3.96c0.08-2.11,1.85-3.76,3.96-3.68l94.17,3.51L330.04,858.13z" clip-rule="evenodd" class="colorfff svgShape"></path><path fill="#b0c2e4" fill-rule="evenodd" d="M1683.63,703.71c91.94,243.79-25.89,462.89-314.55,499.08C1288.36,932.88,1410.08,738.72,1683.63,703.71z" clip-rule="evenodd" class="colorb0c2e4 svgShape"></path><path fill="#ffffff" fill-rule="evenodd" d="M1674.2,732.82c1.14-1.78,0.62-4.15-1.16-5.28c-1.78-1.14-4.15-0.62-5.29,1.16l-107.5,168.08l-56.82-99.83
		c-1.05-1.84-3.39-2.48-5.22-1.43c-1.84,1.05-2.48,3.39-1.43,5.22l58.81,103.33l-29.85,46.68c-1.02,0.6-1.75,1.67-1.88,2.93
		l-22.89,35.79l-79.82-100.99c-1.31-1.66-3.72-1.94-5.37-0.63c-1.66,1.31-1.94,3.72-0.63,5.37l81.46,103.06l-26.83,41.95
		c-0.1,0.13-0.18,0.27-0.27,0.42l-27.25,42.6l-61.62-72.39c-1.37-1.61-3.78-1.8-5.39-0.43c-1.61,1.37-1.8,3.78-0.43,5.39
		l63.13,74.17l-72.1,112.74c-1.14,1.78-0.62,4.15,1.16,5.29c1.78,1.14,4.15,0.62,5.29-1.16l48.49-75.81l74.41,11.79
		c2.08,0.33,4.05-1.09,4.38-3.17c0.33-2.09-1.09-4.05-3.17-4.38l-71.13-11.27l49.39-77.22l128.83,26.93c2.07,0.43,4.1-0.9,4.54-2.97
		c0.43-2.07-0.89-4.11-2.97-4.54l-125.98-26.34l25.38-39.68l0.1-0.16l25.55-39.95l134.05,10.57c2.11,0.17,3.95-1.41,4.12-3.52
		c0.17-2.11-1.41-3.95-3.52-4.12l-129.97-10.24l28.4-44.41l0.14-0.22l30.37-47.48l99.46-3.71c2.11-0.08,3.76-1.85,3.68-3.96
		c-0.08-2.11-1.85-3.76-3.96-3.68l-94.17,3.51L1674.2,732.82z" clip-rule="evenodd" class="colorfff svgShape"></path><path fill="#e0e8f5" fill-rule="evenodd" d="M1503.16,752.6c-24.54,361.56-111.58,762.23-510,865.9l-9.89,2.57l-9.89-2.57
		c-398.42-103.67-485.46-504.34-510-865.9l-2.36-34.83l34.32-6.44c166.15-31.15,318.51-93.41,471.55-163.67l16.39-7.52l16.39,7.52
		c153.04,70.26,305.4,132.53,471.55,163.67l34.32,6.44L1503.16,752.6z" clip-rule="evenodd" class="colore0e8f5 svgShape"></path><path fill="#8fa3cf" fill-rule="evenodd" d="M1463.97,748.62c-164.19-30.78-310.65-88.52-480.7-166.58c-170.05,78.06-316.51,135.8-480.7,166.58
		c33.52,493.83,179.96,752.3,480.7,830.55C1284,1500.93,1430.45,1242.45,1463.97,748.62z" clip-rule="evenodd" class="color8fa3cf svgShape"></path><path fill="#c4d1eb" fill-rule="evenodd" d="M1387.61,805.73c-140.6-32.92-272.31-85.31-404.34-144.95c-132.03,59.63-263.75,112.02-404.34,144.95
		c19.76,219.65,73.3,491.21,253.76,625.54c45.57,33.94,96.44,57.61,150.58,73.54c54.14-15.94,105.01-39.61,150.58-73.54
		C1314.32,1296.94,1367.85,1025.38,1387.61,805.73z" clip-rule="evenodd" class="colorc4d1eb svgShape"></path><path fill="#b0c2e4" fill-rule="evenodd" d="M1387.61,805.73c-140.59-32.92-272.31-85.31-404.34-144.94v844.03c54.14-15.94,105.01-39.61,150.58-73.55
		C1314.32,1296.95,1367.85,1025.38,1387.61,805.73z" clip-rule="evenodd" class="colorb0c2e4 svgShape"></path><path fill="#ffffff" fill-rule="evenodd" d="M983.27,869.95c54.6,0,98.87,44.27,98.87,98.87c0,41.23-25.24,76.56-61.11,91.4v197.67
		c0,20.77-16.99,37.76-37.76,37.76l0,0c-20.77,0-37.76-16.99-37.76-37.76v-197.67c-35.87-14.84-61.11-50.17-61.11-91.4
		C884.4,914.22,928.66,869.95,983.27,869.95z" clip-rule="evenodd" class="colorfff svgShape"></path><path fill="#c4d1eb" fill-rule="evenodd" d="M913.39,424.7l13.72-68.94L878.1,305.4c-5.56-5.77-2.1-15.37,5.84-16.38l69.79-8.18l32.8-62.16
		c3.71-7.1,14-6.85,17.29,0.41l29.45,63.9l69.26,11.95c7.89,1.32,10.76,11.16,4.88,16.64l-51.63,47.63l10.02,69.61
		c1.14,7.93-7.33,13.71-14.3,9.79l-61.3-34.35L927.1,435.3C919.95,438.81,911.79,432.57,913.39,424.7z" clip-rule="evenodd" class="colorc4d1eb svgShape"></path><path fill="#b0c2e4" fill-rule="evenodd" d="M991.68,395.85l63.75,35.73c1.16,0.65,2.56-0.28,2.37-1.61l-10.62-73.81l54.75-50.51
		c0.99-0.91,0.54-2.53-0.79-2.76l-73.44-12.68l-31.22-67.75c-0.28-0.6-0.83-0.9-1.39-0.9L991.68,395.85z" clip-rule="evenodd" class="colorb0c2e4 svgShape"></path><path fill="#c4d1eb" fill-rule="evenodd" d="M1177.33,485.92l13.72-68.94l-49.01-50.35c-5.56-5.77-2.1-15.37,5.84-16.38l69.79-8.18l32.8-62.16
		c3.71-7.1,13.99-6.85,17.29,0.41l29.45,63.89l69.26,11.95c7.89,1.32,10.76,11.16,4.88,16.64l-51.63,47.63l10.02,69.61
		c1.14,7.93-7.33,13.71-14.3,9.79l-61.29-34.35l-63.09,31.04C1183.9,500.03,1175.73,493.79,1177.33,485.92z" clip-rule="evenodd" class="colorc4d1eb svgShape"></path><path fill="#b0c2e4" fill-rule="evenodd" d="M1255.63,457.07l63.75,35.73c1.16,0.65,2.56-0.28,2.37-1.61l-10.62-73.81l54.75-50.51
		c0.99-0.91,0.54-2.53-0.79-2.76l-73.44-12.67l-31.22-67.75c-0.28-0.6-0.83-0.9-1.39-0.9L1255.63,457.07z" clip-rule="evenodd" class="colorb0c2e4 svgShape"></path><path fill="#c4d1eb" fill-rule="evenodd" d="M652.81,485.96l13.72-68.94l-49.01-50.35c-5.56-5.77-2.1-15.37,5.84-16.38l69.79-8.18l32.8-62.16
		c3.71-7.1,13.99-6.85,17.29,0.41l29.45,63.9l69.26,11.95c7.89,1.32,10.76,11.16,4.88,16.64l-51.63,47.63l10.02,69.61
		c1.14,7.93-7.33,13.71-14.3,9.79l-61.29-34.35l-63.09,31.04C659.37,500.08,651.2,493.83,652.81,485.96z" clip-rule="evenodd" class="colorc4d1eb svgShape"></path><path fill="#b0c2e4" fill-rule="evenodd" d="M731.1,457.11l63.75,35.73c1.16,0.65,2.56-0.28,2.37-1.61l-10.62-73.81l54.75-50.51
		c0.99-0.91,0.54-2.53-0.79-2.76l-73.44-12.67l-31.22-67.75c-0.28-0.6-0.83-0.9-1.39-0.9L731.1,457.11z" clip-rule="evenodd" class="colorb0c2e4 svgShape"></path><path fill="#c4d1eb" fill-rule="evenodd" d="M1450.1,577.67l13.72-68.94l-49.01-50.35c-5.56-5.77-2.1-15.37,5.84-16.38l69.79-8.18l32.8-62.16
		c3.71-7.1,14-6.85,17.29,0.41l29.45,63.9l69.26,11.95c7.89,1.32,10.76,11.16,4.88,16.64l-51.63,47.63l10.02,69.61
		c1.14,7.93-7.33,13.71-14.3,9.79l-61.29-34.35l-63.09,31.04C1456.67,591.78,1448.5,585.54,1450.1,577.67z" clip-rule="evenodd" class="colorc4d1eb svgShape"></path><path fill="#b0c2e4" fill-rule="evenodd" d="M1528.4,548.82l63.75,35.73c1.16,0.65,2.56-0.28,2.37-1.61l-10.62-73.8l54.75-50.51
		c0.99-0.91,0.54-2.53-0.79-2.76l-73.44-12.67l-31.22-67.75c-0.28-0.6-0.83-0.9-1.39-0.9L1528.4,548.82z" clip-rule="evenodd" class="colorb0c2e4 svgShape"></path><path fill="#c4d1eb" fill-rule="evenodd" d="M380.04,577.71l13.72-68.94l-49.01-50.35c-5.56-5.77-2.1-15.37,5.84-16.38l69.79-8.18l32.8-62.16
		c3.71-7.1,14-6.85,17.29,0.41l29.45,63.9l69.26,11.95c7.89,1.32,10.77,11.16,4.88,16.64l-51.63,47.63l10.02,69.61
		c1.14,7.93-7.33,13.71-14.3,9.79l-61.29-34.35l-63.09,31.04C386.6,591.83,378.43,585.58,380.04,577.71z" clip-rule="evenodd" class="colorc4d1eb svgShape"></path><path fill="#b0c2e4" fill-rule="evenodd" d="M458.33,548.86l63.75,35.73c1.16,0.65,2.56-0.28,2.37-1.61l-10.62-73.81l54.75-50.51
		c0.99-0.91,0.54-2.53-0.79-2.76l-73.44-12.67l-31.22-67.75c-0.28-0.6-0.83-0.9-1.39-0.9L458.33,548.86z" clip-rule="evenodd" class="colorb0c2e4 svgShape"></path><path fill="#c4d1eb" fill-rule="evenodd" d="M1623.44,813.28l13.72-68.94l-49.01-50.35c-5.56-5.77-2.1-15.37,5.84-16.38l69.79-8.18l32.8-62.16
		c3.71-7.1,14-6.85,17.29,0.41l29.45,63.9l69.26,11.95c7.89,1.32,10.76,11.16,4.88,16.64l-51.63,47.63l10.02,69.61
		c1.14,7.93-7.33,13.71-14.3,9.79l-61.3-34.35l-63.09,31.04C1630.01,827.39,1621.84,821.15,1623.44,813.28z" clip-rule="evenodd" class="colorc4d1eb svgShape"></path><path fill="#b0c2e4" fill-rule="evenodd" d="M1701.74,784.43l63.75,35.73c1.16,0.65,2.56-0.28,2.37-1.61l-10.62-73.81l54.75-50.51
		c0.99-0.91,0.54-2.53-0.79-2.76l-73.44-12.67l-31.22-67.75c-0.28-0.6-0.83-0.9-1.39-0.9L1701.74,784.43z" clip-rule="evenodd" class="colorb0c2e4 svgShape"></path><path fill="#c4d1eb" fill-rule="evenodd" d="M206.7,813.32l13.72-68.94l-49.01-50.35c-5.56-5.77-2.1-15.37,5.84-16.38l69.79-8.18l32.8-62.16
		c3.71-7.1,13.99-6.85,17.29,0.41l29.45,63.9l69.26,11.95c7.89,1.32,10.76,11.16,4.88,16.64l-51.63,47.63l10.02,69.61
		c1.14,7.93-7.33,13.71-14.3,9.79l-61.29-34.35l-63.09,31.04C213.26,827.44,205.09,821.19,206.7,813.32z" clip-rule="evenodd" class="colorc4d1eb svgShape"></path><path fill="#b0c2e4" fill-rule="evenodd" d="M284.99,784.47l63.75,35.73c1.16,0.65,2.57-0.28,2.37-1.61l-10.62-73.81l54.75-50.51
		c0.99-0.91,0.54-2.53-0.79-2.76l-73.44-12.67l-31.22-67.75c-0.28-0.6-0.83-0.9-1.39-0.9L284.99,784.47z" clip-rule="evenodd" class="colorb0c2e4 svgShape"></path><path fill="#f48661" fill-rule="evenodd" d="M516.85,1290.99c-4.98,5.01-10.72,7.4-17.67,6.47C505.97,1301.78,514.6,1297.38,516.85,1290.99z" clip-rule="evenodd" class="colorf48661 svgShape"></path><path fill="#20386f" fill-rule="evenodd" d="M247.14,984.8c-6.42-30.89,8.35-61.56,36.64-73.12c-0.19-17.57,5.58-39.91,17.76-51.93
		c24.02-23.81,69.85-32.13,87.52-1.77c23.33,13.02,41.68,41.22,34.73,66.96c22.62,23.12,14.01,64.95-18.95,84.68
		c0.53,25.97-13.37,51.7-36.34,62.8c-5.52,2.7-14.15,6.4-15.25,7.55c1.45-1.39-17.02,49.39-74.36,26.12
		C220.37,1082.42,208.99,1015.7,247.14,984.8z" clip-rule="evenodd" class="color20386f svgShape"></path><path fill="#f9af79" fill-rule="evenodd" d="M522.66,1283.13c0,0-3.82-4.01-4.98-5.47c-1.36-1.7-5.03-7.01-5.03-7.01s-11.9-19.18-10.36-19.88
		c1.53-0.77,5.45,1.46,6.62,2.39c1.16,0.92,2.61,1.93,3.77,2.85c1.16,0.93,2.85,0.85,4.15-0.39c1.28-1.31-2.51-6.09-4.15-7.4
		c-5.14-4.31-21.22-13.1-22.88-14.1c-1.97-1.16-16.3-38.06-22.24-50.31l0,0c-9.13-20.34-17.45-41.68-18.4-43.84l-11.48-94.23
		l-37.29-9.55c0,0,11.21,104.71,12.4,109.87c0.57,2.47,25.46,48.08,25.49,48.08c13.73,21.73,25.87,40.84,28.1,44.54
		c0,0,3.56,12.94,5.34,21.26c1.77,8.32,6.85,15.26,7.73,17.57c0.12,0.31,2.68,8.32,9.29,16.26c5.69,6.93,3.54-2.16,3.54-2.16
		s-8.18-14.72-6.88-15.1c1-0.31,4.99,7.94,11.2,15.64c1.61,1.92,3.2,3.93,4.67,5.7c3.87,4.62,7.92,3.7,4.68-1.85
		c-1.14-1.93-3.14-5.16-4.86-7.24c-1.9-2.24-2.87-4.85-4.18-7.01c-2.53-4.24-4.46-7.24-4.22-7.32c0.31,0,0.41-1.15,2.16,0.92
		c2.13,2.47,5.45,8.63,8.84,12.02c1.94,1.93,5.74,6.24,5.74,6.24s6.9,6.16,7.37,5.86c2.49-1.54-1.14-7.4-4.13-9.63
		c-1.11-2.39-5.24-6.78-5.24-6.78s-6.28-10.71-4.74-11.56c1.26-0.77,21.39,21.88,23.78,20.19
		C528.4,1290.22,522.66,1283.13,522.66,1283.13z" clip-rule="evenodd" class="colorf9af79 svgShape"></path><path fill="#f27458" fill-rule="evenodd" d="M485.34,1249.77c0,0,10.96,6.16,16.76,1.08c0,0-2.16,4.08-6.97,4.16
		C490.32,1255.01,485.34,1249.77,485.34,1249.77z" clip-rule="evenodd" class="colorf27458 svgShape"></path><path fill="#f9af79" fill-rule="evenodd" d="M365.29,1296.23l21.74,193.62c0,0-10.62,40.91-9.34,52.62c1.28,11.56,23.62,164.19,23.62,164.19l-1.02,8.4
		l-0.55,24.81l83.5,0.62c0,0-17.59-7.86-42.23-23.42c-1.8-1.08-5.99-4.78-7.01-12.1c-6.59-47,6.43-203.87,6.43-203.87l10.24-204.25
		L365.29,1296.23z" clip-rule="evenodd" class="colorf9af79 svgShape"></path><path fill="#f9af79" fill-rule="evenodd" d="M299.49,1331.9c-4.67,1.16-11.87,167.35-15.76,174.74c-24.58,46.69-30.42,188.61-30.42,188.61l-10.15,19.88
		l2.32,19.11c0,0,18.35,10.56,31.23,3.47l-1.99-19.19l-1.52-25.66l62.02-176.83l33.93-180.37L299.49,1331.9z" clip-rule="evenodd" class="colorf9af79 svgShape"></path><path fill="#20386f" fill-rule="evenodd" d="M458.4,1421.97l2.97-114.65c0.5-32.44-10.32-63.49-23.62-93l-28.14-47.23c-9.06,2.85-14.06-23.89-23.59-22.81
		c-7.18,0.77-12.12,2.47-18.78,2.85c-12.57,0.77-20.2,25.27-33.67,23.73c-0.07,0.77-2.68,7.01-2.87,7.55
		c-6.45,17.34-28.64,32.74-37.41,84.14c-9.98,58.4-9.93,158.8-8.68,165.65C379.85,1432.37,402.54,1435.69,458.4,1421.97z" clip-rule="evenodd" class="color20386f svgShape"></path><path fill="#0e2952" fill-rule="evenodd" d="M399.34 1746.27h86.22c3.17-.31 3.96-2.93 2.84-4.55-2.27-3.24-12.33-5.7-23.64-10.94-19.83 2.08-61.34-11.17-64.47-15.72C398.49 1724.23 397.59 1745.88 399.34 1746.27zM243.21 1715.06c0 0 7.66 21.73 15.94 21.03 8.27-.62 15.52-17.64 15.52-17.64s3.11 14.33 1.66 22.27c-1.45 7.94-13.25 16.1-21.32 12.48C246.93 1749.73 235.97 1731.32 243.21 1715.06z" clip-rule="evenodd" class="color0e2952 svgShape"></path><path fill="#466fb5" fill-rule="evenodd" d="M403.45,1092.9c0,0,12-1.46,23.5-5.47c6.9-2.39,18.4-7.63,18.4-7.63s-6.45-54.01-22.69-86.75
		c-6.24-12.56-13.31-19.42-21.75-21.57C400.25,971.32,403.45,1092.9,403.45,1092.9z" clip-rule="evenodd" class="color466fb5 svgShape"></path><path fill="#6d96ce" fill-rule="evenodd" d="M424.31,1031.8c-2.44-8.78-7.87-20.26-10.98-28.28c-5.26-13.48-6.83-26.04-11.48-31.44
		c-2.51-2.93-34.66-2.47-38.62-2.85c-1.62-0.23-8.07,0.23-14.28,0.62v-0.08c-3.65,0.46-39.88,3.24-45.15,5.47
		c-26.1,25.27-38.72,59.17-58.35,96.31c0,0,14.7,8.32,26.41,13.56c5.1,2.23,14.87,5.93,14.87,5.93s12.35-21.26,19.37-30.59
		l3.25-7.01c0.24-0.15,1.42-1.39,1.76-0.62c0.52,1.31,22.54,118.04,22.54,118.04s61.46,5.7,77.18-1.77c0,0,2.89-78.13,8.68-101.01
		C421.65,1059.61,428.22,1045.9,424.31,1031.8z" clip-rule="evenodd" class="color6d96ce svgShape"></path><path fill="#f9af79" fill-rule="evenodd" d="M344.55,933.87c0,0,5.02,27.27,4.01,37.98c-1,10.79,3.84,45.46,25.51,45.54c21.7,0.15,6.95-35.98,4.91-46.54
		c-2.03-10.48-5.35-51.16-5.35-51.16L344.55,933.87z" clip-rule="evenodd" class="colorf9af79 svgShape"></path><path fill="#f27458" fill-rule="evenodd" d="M374.97,935.1c-0.33-8.94-1.97-16.03-1.97-16.03l-28.45,14.8c0,0,1.02,5.62,2.06,12.71
		C359.34,949.28,369.44,943.35,374.97,935.1z" clip-rule="evenodd" class="colorf27458 svgShape"></path><path fill="#f9af79" fill-rule="evenodd" d="M343.93,854.74c0,0-12.24,4.31-18.88,17.41c-6.64,13.1-8.84,49.85,17.98,63.95
		c26.79,14.1,44.48-11.94,42.79-35.21C384.17,877.55,376.75,847.04,343.93,854.74z" clip-rule="evenodd" class="colorf9af79 svgShape"></path><path fill="#f9af79" fill-rule="evenodd" d="M393.79 894.35c.72 6.09-1.44 11.25-4.83 11.56-3.37.31-6.67-4.31-7.38-10.4-.72-6.01 1.44-11.17 4.83-11.48C389.78 883.71 393.11 888.34 393.79 894.35zM327.43 904.52c2.34 5.86 1.19 12.02-2.63 13.72-3.79 1.77-8.79-1.62-11.14-7.47-2.37-5.78-1.19-11.94 2.6-13.71C320.08 895.35 325.06 898.66 327.43 904.52z" clip-rule="evenodd" class="colorf9af79 svgShape"></path><path fill="#466fb5" fill-rule="evenodd" d="M338.33,1058.15l-1.23,1.69c0.55,5.32-2.34,9.4-7.59,10.71l-66.65,93.84l80.15,55.24
		c4.57,3.16,10.86,2.08,14.06-2.39l64.32-90.61c2.97-4.16,1.93-9.94-2.3-12.79L338.33,1058.15z" clip-rule="evenodd" class="color466fb5 svgShape"></path><path fill="#eff8f7" fill-rule="evenodd" d="M329.51,1070.55L329.51,1070.55l76.66,52.85c4.43,3.08,9.74,3.16,11.85,0.23c1.05-1.46,1.09-3.47,0.32-5.47
		c-0.76-1.93-2.35-3.93-4.58-5.47l-76.66-52.86l0,0C337.58,1065.08,334.66,1069.17,329.51,1070.55z" clip-rule="evenodd" class="coloreff8f7 svgShape"></path><path fill="#f9af79" fill-rule="evenodd" d="M251.01,1074.56c5.36,2.93,13.68,7.32,20.87,10.56c3.42,1.46,8.89,3.62,12.16,4.85
		c-7.87,14.64-15.34,29.74-14.37,32.82c0.86,2.77,71.21,54.55,71.21,54.55l14.06-1.85c0,0,24.77,2.78,25.34,5.7
		c0.59,2.77-10.46,2.08-11.93,2.47c-0.8,0.23-2.47,0.77-3.84,1.69c2.23,1,5.17,2.39,7.99,3.47c-8.27,4.7-14.04,11.79-17,20.03
		c-6.9-1.62-16.43-5.47-28.5-14.1c-16.38-8.09-98.73-54.4-99.96-63.18C226.32,1126.34,238.87,1099.22,251.01,1074.56z" clip-rule="evenodd" class="colorf9af79 svgShape"></path><path fill="#f9af79" fill-rule="evenodd" d="M381.4,1182.97c0,0,3.15,5.93,2.11,10.4c-1.05,4.47-2.16,5.7-3.3,9.71c-1.14,4.08-1.25,5.01-5.38,8.55
		c-4.12,3.54-23.95-4.08-23.95-4.08l13.64-22.19l7.84,2.93c0,0,4.96-0.54,6.29-1.93C379.99,1184.89,381.4,1182.97,381.4,1182.97z" clip-rule="evenodd" class="colorf9af79 svgShape"></path><path fill="#fab688" fill-rule="evenodd" d="M1358.89,1119.37c-2.28-0.78-9.94-2.57-18.87-5.56c-9.17,3.73-21.25,2.62-36.23-3.31
		c-5.71-9.05-6.23-18.26-1.56-27.61c11.82,5.63,22.19,7.8,31.12,6.51c-11.1-7.31-12.81-11.65-5.16-13.02
		c0.74,1.72,2.33,3.14,4.76,4.26c7.72,1.25,13.24,6.47,16.56,15.67c4.12,1.11,8.37,2.12,10.56,2.81
		C1357.84,1104.41,1357.41,1110.79,1358.89,1119.37z" clip-rule="evenodd" class="colorfab688 svgShape"></path><path fill="#20386f" fill-rule="evenodd" d="M1569.03 887.69c28.55-3.7 50.12-1.74 59.34 11.96-1.17 8.35-3.68 19.22-7.54 32.6 1.67 3.19 4.13 4.85 7.38 4.98 4.06-7.93 7.46-12.66 10.21-14.2 13.6 6.1 11.04 15.5-7.68 28.21-1.1 4.38-2.15 8.01-3.16 10.88 16.83-3.77 30.92-18.83 32.9-25.34 19.64-38.71-2.26-55.06-13.98-61.02-5.17-38.33-60.83-4.45-88.72-22.93C1546.68 868.15 1560.39 887.35 1569.03 887.69zM1657.18 1061.4c-17.94 21.54-33 37.11-45.17 46.7 11.1-39.39 22.97-81.8 35.63-127.23 4.47 3.76 8.05 7.5 10.75 11.2 1 18.42 1.24 32.48.73 42.17-6.57 5.2-11.86 8.45-15.86 9.77C1649.32 1049.49 1653.96 1055.29 1657.18 1061.4zM1544.79 1050.92c8.72 19.33 18.52 36.88 29.41 52.66-3.21-48.12-4.83-88.67-4.88-121.66-4.89 2.74-8.52 5.36-11.21 8.21-.52.61-1.01 1.21-1.49 1.82-5.15 18.41-8.49 32.83-10.01 43.24 4.82 2.2 8.88 4.11 12.21 5.72C1554.3 1043.95 1549.63 1047.28 1544.79 1050.92z" clip-rule="evenodd" class="color20386f svgShape"></path><path fill="#223f81" fill-rule="evenodd" d="M1658.39 992.06c27.67 16.04 50.3 30.26 67.88 42.65 11.86 45.21 18.29 94.06 19.29 146.54-1.62 60.31-7.62 103.94-14.74 127.46-10.38.45-21.43-.57-25.53-4.52-2.25-53.05-2.82-96.09-1.71-129.14-7.59-17.43-14.26-30.45-20.01-39.08-2.51 17.95-5.97 33.52-6.8 49.56 2.93 32.86 4.36 72.09 13.15 117.7-10.94 10.49-35.14 16.74-72.6 18.77-7.03-86.37-8.79-157.68-5.31-213.91 12.17-9.59 27.22-25.16 45.17-46.7-3.22-6.11-7.86-11.91-13.91-17.39 4-1.31 9.29-4.57 15.86-9.77C1659.64 1024.54 1659.39 1010.49 1658.39 992.06zM1574.19 1103.57c-10.73 114.53-15.22 189-21.54 214.81-17.96-1.97-31.79-10.39-40.15-18.7 2.25-65.16 9.86-106.78 13.07-144.86-5.8-62.54-17.67-120.05-4.87-146.77 13.75-9.26 25.72-14.62 35.92-16.1-5.15 18.41-8.49 32.83-10.01 43.24 4.82 2.2 8.88 4.11 12.21 5.72-4.52 3.04-9.2 6.38-14.03 10.01C1553.51 1070.25 1563.31 1087.8 1574.19 1103.57z" clip-rule="evenodd" class="color223f81 svgShape"></path><path fill="#223f81" fill-rule="evenodd" d="M1504.47,1026.65c5.13-6.29,10.54-12.49,16.23-18.6c-8.87,18.52-5.89,51.83-1.29,91.35
		c-8.95,11.09-28.2,30.9-44.68,43.22c-33.83,1.95-70.07-5.9-125.94-22.8c-2.26-5.81-1.53-15.46,0.72-23.51
		c54.41,3.14,87.66,2.61,109.48,8.23C1473.14,1069.31,1491.06,1048.44,1504.47,1026.65z" clip-rule="evenodd" class="color223f81 svgShape"></path><path fill="#c4d1eb" fill-rule="evenodd" d="M1612.24 1010.13c9.85-12.92 18.04-24.71 27.02-32.07-.97-3.94-1.61-6.88-2.69-9.86-.51-1.41-3.56-3.06-7.62-3.82.37.65 1.18 3.39.51 3.82-.17.11-.31.25-.47.38-9.53 7.71-19.59 14.35-31.94 20.2C1602.94 995.64 1607.03 1002.86 1612.24 1010.13zM1573.57 981.5c-.25 8.4-.05 15.29.61 20.68 2.03-6.19 5.76-11.23 11.21-15.13.83-7.08 1.4-13.73 1.69-19.93C1581.14 969.35 1576.64 974.14 1573.57 981.5z" clip-rule="evenodd" class="colorc4d1eb svgShape"></path><path fill="#ffffff" fill-rule="evenodd" d="M1561.78,1244.18c3.25-36.15,7.06-83.38,12.42-140.61c-3.15-47.29-4.78-87.26-4.88-119.93
		c1.3-0.49,2.71-0.93,4.22-1.33c-0.22,8.04-0.01,14.66,0.64,19.87c2.03-6.19,5.76-11.23,11.21-15.13c1.69,3.26,2.21,6.81,4.93,10.79
		c2.93-3.04,5.69-5.95,7.5-8.16c5.49,6.6,9.45,13.5,14.43,20.45c9.75-12.78,17.86-24.45,26.73-31.83c3.03,1.55,5.74,3.04,8.15,4.47
		c-12.47,44.72-24.17,86.5-35.11,125.34c-2.4,38.72-2.31,84.59,0.27,137.59c-4.39,0.67-8.88,1.11-13.48,1.32v-0.45
		c0-1.05-0.88-1.93-1.95-1.96l-18.92-0.53c-1.07-0.03-1.95,0.8-1.95,1.85v0.35C1571.34,1245.78,1566.61,1245.08,1561.78,1244.18z" clip-rule="evenodd" class="colorfff svgShape"></path><path fill="#6d96ce" fill-rule="evenodd" d="M1578.66,1007.43c3.35-5.4,7.24-8.6,11.66-9.59c3.29,1.44,6.82,4.78,10.6,10.04
		c-2.94,5.08-6.06,8.63-9.36,10.64c6.2,39.03,9.06,93.38,8.6,163.04c-4.7,10.37-9.3,17.87-13.81,22.48
		c-5.44-8.03-8.82-16.32-10.13-24.88c4.3-73.11,6.86-126.46,7.68-160.04C1580.77,1015.05,1579.03,1011.15,1578.66,1007.43z" clip-rule="evenodd" class="color6d96ce svgShape"></path><path fill="#466fb5" fill-rule="evenodd" d="M1600.9,993.62c2.17,2.92,4.14,5.88,6.13,8.87c-1.82,1.21-4.15,2.62-6.98,4.23
		c-2.52-3.35-4.93-5.83-7.23-7.45C1595.58,997.23,1598.27,995.35,1600.9,993.62L1600.9,993.62z M1583.01,988.92
		c1.03,3.6,2.44,6.94,4.25,10c-2.5,1.22-4.81,3.24-6.93,6.06c-1.19-1.88-2.19-5.06-2.98-9.54
		C1578.88,993.02,1580.77,990.85,1583.01,988.92z" clip-rule="evenodd" class="color466fb5 svgShape"></path><path fill="#223f81" fill-rule="evenodd" d="M1518.12,1521.13c-0.25-58.61,1.72-127.6,5.92-206.98c7.87,4.71,17.97,8.32,30.9,11.1
		c3.11-8.21,5.95-27.68,10.13-63.3c3.58,0.96,7.22,1.74,10.91,2.32v2.02c0,1.05,0.88,1.93,1.95,1.96l18.92,0.53
		c1.07,0.03,1.95-0.8,1.95-1.85v-1.44c3.42-0.16,6.89-0.45,10.4-0.9c1.96,29.95,2.72,49.99,4.26,64.64
		c31.07-3.88,49.75-7.25,64.76-13.53c7.68,59.04,11.93,122.71,12.76,191.02c12.72,27.28,16.2,93.92,10.44,199.9
		c-10.84,2.41-23.12,2.41-36.84,0c-10.82-47.68-20.24-110.42-28.25-188.22c-11.27-37.25-22.93-89.59-35-157.05
		c-2.43,45.75-8.98,97.5-19.65,155.25c3.6,42.65-2.65,105.29-18.73,187.92c-8.45,0.81-21.75-0.39-39.91-3.6
		C1524.88,1633.76,1523.24,1573.82,1518.12,1521.13z" clip-rule="evenodd" class="color223f81 svgShape"></path><path fill="#0e2952" fill-rule="evenodd" d="M1613.46,1329.23c-1.54-14.65-2.3-34.69-4.26-64.64c1.35-0.17,2.7-0.36,4.06-0.58
		c1.07,18.51,2.42,37.84,4.06,58c26.97-1.46,47.07-5.11,60.29-10.96c0.21,1.55,0.41,3.1,0.61,4.65
		C1663.22,1321.98,1644.54,1325.35,1613.46,1329.23L1613.46,1329.23z M1554.94,1325.24c-12.94-2.78-23.04-6.39-30.9-11.1
		c0.09-1.77,0.19-3.54,0.28-5.31c7.64,4.62,17.2,8.33,28.34,9.55c2.66-10.87,5-30.37,7.61-57.85c1.59,0.51,3.19,0.98,4.8,1.41
		C1560.89,1297.56,1558.05,1317.04,1554.94,1325.24z" clip-rule="evenodd" class="color0e2952 svgShape"></path><path fill="#20386f" fill-rule="evenodd" d="M1702.6,1724.39c-1.74,1.67-2.31,1.2-3.54,0.38c-2.01-10.95-22.66-12.23-27.78-1.05
		c-1.52-0.6-2.6-1.55-3.22-2.85c-3.6,7.08-11.76,14.03-9.59,26.37c5.49,7.9,33.75,11.81,47.13-4.35
		C1709.39,1736.75,1704.71,1728.96,1702.6,1724.39L1702.6,1724.39z M1560.12,1712.35c3.46,9.37,4.23,17.06,0.15,20.08
		c-10.39,2.09-31.68,1.84-64.47,6.14c-23.15-1.66-33.18-8.25-27.33-15.58c20.12,1.25,38.29-4,54.5-15.73
		C1525.99,1719.52,1538.37,1721.21,1560.12,1712.35z" clip-rule="evenodd" class="color20386f svgShape"></path><path fill="#fab688" fill-rule="evenodd" d="M1700.48,1706.84c0.56,6.55,1.11,12.54,1.65,17.97c-1.39,1.15-1.96,0.7-3.07-0.05
		c-2.01-10.95-22.66-12.23-27.78-1.05l-0.04-0.01l-0.03-0.01h0l-0.03-0.01l-0.04-0.01l0,0l-0.03-0.01l-0.03-0.01l-0.01,0l-0.03-0.01
		l-0.03-0.01l-0.01,0l-0.03-0.01l-0.03-0.01l-0.01-0.01l-0.02-0.01l-0.03-0.02l-0.01,0l-0.02-0.01l-0.03-0.02l-0.01-0.01l-0.02-0.01
		l-0.03-0.02l-0.02-0.01l-0.02-0.01l-0.03-0.01l-0.02-0.01l-0.01-0.01l-0.03-0.02l-0.02-0.01l-0.01-0.01l-0.03-0.02l-0.02-0.01
		l-0.01,0l-0.03-0.02l-0.02-0.01l-0.01-0.01l-0.03-0.02l-0.02-0.01l-0.01,0l-0.03-0.02l-0.03-0.01l-0.01,0l-0.03-0.02l-0.03-0.01
		l0,0l-0.03-0.02l-0.03-0.02h0l-0.09-0.05l-0.03-0.02l0,0l-0.03-0.02l-0.03-0.02l0,0l-0.02-0.01l-0.03-0.02l-0.01,0l-0.02-0.01
		l-0.03-0.02l-0.01-0.01l-0.02-0.01l-0.03-0.02l-0.01-0.01l-0.02-0.01l-0.03-0.02l-0.01-0.01l-0.04-0.03l-0.01-0.01l-0.01-0.01
		l-0.03-0.02l-0.01-0.01l-0.01-0.01l-0.03-0.02l-0.02-0.01l-0.01-0.01l-0.03-0.02l-0.02-0.01l-0.03-0.03l-0.02-0.01l-0.01-0.01
		l-0.03-0.02l-0.02-0.02l0,0l-0.03-0.02l-0.02-0.02l0,0l-0.02-0.02l-0.02-0.02l0,0c0.9-4.4,1.67-9.37,2.3-14.91
		C1682.2,1708.92,1691.8,1708.64,1700.48,1706.84L1700.48,1706.84z M1526.73,1701.58c-0.79,2.89-1.85,5.43-3.17,7.6
		c0.12,0.32,0.24,0.63,0.37,0.94c0.6,1.36,1.35,2.54,2.26,3.55l0.01,0.01c0.3,0.33,0.62,0.64,0.96,0.93l0.02,0.02
		c0.1,0.09,0.21,0.18,0.32,0.27l0.05,0.04c1.16,0.93,2.51,1.64,4.06,2.13l0.04,0.01c0.14,0.05,0.28,0.09,0.42,0.13l0.08,0.02
		c0.14,0.04,0.29,0.08,0.43,0.12l0.05,0.01c0.15,0.04,0.31,0.08,0.47,0.11l0.03,0.01c0.16,0.03,0.31,0.06,0.47,0.09l0.08,0.01
		l0.46,0.08l0.05,0.01c1.56,0.24,3.28,0.32,5.15,0.21l0.08,0l0.56-0.04l0.09-0.01l0.56-0.05l0.12-0.01l0.56-0.06l0.1-0.01l0.61-0.07
		l0.01,0l0.64-0.09l0.15-0.02c1.54-0.23,3.17-0.56,4.89-0.99l0.19-0.05l0.67-0.17l0.08-0.02l0.66-0.18l0.21-0.06l0.6-0.17l0.22-0.06
		l0.6-0.18l0.26-0.08l0.62-0.19l0.17-0.05l0.69-0.22l0.18-0.06l0.69-0.23l0.16-0.05l0.71-0.24l0.18-0.06l0.71-0.25l0.89-0.32
		c0.56-0.21,1.13-0.42,1.71-0.64l0.13-0.05l0.89-0.35c-0.03-2.63,0.1-5.32,0.41-8.09
		C1551.5,1704.97,1540.66,1703.92,1526.73,1701.58z" clip-rule="evenodd" class="colorfab688 svgShape"></path><path fill="#0e2952" fill-rule="evenodd" d="M1515.12 1036.2c-.69 17.5 1.51 39.2 4.3 63.19-8.95 11.09-28.2 30.9-44.68 43.22-33.83 1.95-70.07-5.9-125.94-22.8 40.6 9.19 82.12 14.63 124.54 16.33 8.59-6.18 21.79-19.22 39.6-39.11C1512.38 1081.83 1513.1 1061.56 1515.12 1036.2zM1672.38 1184.17c1.95-24.39 3.79-45.36 5.52-62.94 1.23 5 3.12 9.92 5.66 14.75-2.51 17.95-5.97 33.52-6.8 49.56 2.93 32.86 4.36 72.09 13.15 117.7-1 .96-2.11 1.88-3.33 2.77C1679.43 1277.91 1674.7 1237.29 1672.38 1184.17z" clip-rule="evenodd" class="color0e2952 svgShape"></path><path fill="#9c7357" fill-rule="evenodd" d="M1613.26,1264.02c-18.84,2.97-36.51,1.8-52.99-3.48c0.49-5.17,0.99-10.62,1.51-16.35
		c18.17,3.38,35,3.88,50.51,1.51C1612.58,1251.71,1612.9,1257.82,1613.26,1264.02z" clip-rule="evenodd" class="color9c7357 svgShape"></path><path fill="#ffffff" fill-rule="evenodd" d="M1596.85,1244.6l-18.92-0.53c-1.08-0.03-1.95,0.82-1.95,1.9v20.28c0,1.08,0.88,1.98,1.95,2.01l18.92,0.53
		c1.08,0.03,1.95-0.82,1.95-1.89v-20.28C1598.8,1245.53,1597.93,1244.63,1596.85,1244.6z" clip-rule="evenodd" class="colorfff svgShape"></path><polygon fill="#9c7357" fill-rule="evenodd" points="1595.04 1248.22 1595.04 1265.06 1579.74 1264.63 1579.74 1247.79" clip-rule="evenodd" class="color9c7357 svgShape"></polygon><path fill="#fab688" fill-rule="evenodd" d="M1651.51,982.15c-0.71,0.05-1.49,0.08-2.3,0.07l0.69,0.61L1651.51,982.15L1651.51,982.15z M1647.29,982.17
		c-0.45-0.02-0.89-0.05-1.33-0.09c0.4,0.23,0.79,0.46,1.17,0.68L1647.29,982.17L1647.29,982.17z M1629.93,967.8
		c-9.24,7.56-18.91,14.11-30.64,19.89c-0.74,0.36-1.49,0.73-2.24,1.08c0.26,0.3,0.51,0.6,0.77,0.91c-1.59,1.94-3.9,4.41-6.41,7.02
		c-0.82-0.23-1.59-0.51-2.29-0.83c-1.72-3.2-2.32-6.11-3.73-8.82c0.19-1.58,0.36-3.14,0.52-4.67c0.17-1.85,0.76-8.46,1.05-10.27
		c-0.94-0.06-1.85-0.14-2.74-0.23c-1.09-0.14-2.37-0.35-3.83-0.62l-0.06,0.05c-11.52-2.17-16.29-8.08-14.31-17.7
		c-4.65-19.87-5.3-37.12-0.25-41.76c0.85-8.5,1.93-16.55,3.26-24.15c28.56-3.7,50.12-1.74,59.34,11.96
		c-1.17,8.35-3.68,19.22-7.54,32.6c1.67,3.19,4.13,4.85,7.38,4.98c4.06-7.93,7.46-12.66,10.2-14.2c13.6,6.1,11.04,15.5-7.67,28.21
		c-1.1,4.38-2.16,8-3.16,10.88C1628.06,963.72,1628.86,965.66,1629.93,967.8z" clip-rule="evenodd" class="colorfab688 svgShape"></path><path fill="#ed7d57" fill-rule="evenodd" d="M1586.95,972.11c5.08,0.44,10.81,0.27,17.19-0.52c-6.03,4.01-12.03,6.87-18.02,8.59
		c0.11-1.18,0.22-2.35,0.32-3.5C1586.63,974.76,1586.82,972.93,1586.95,972.11z" clip-rule="evenodd" class="colored7d57 svgShape"></path><polygon fill="#e5bb9a" fill-rule="evenodd" points="1627.79 1355.8 1635.53 1535.72 1831.82 1515.06 1808.57 1355.8" clip-rule="evenodd" class="colore5bb9a svgShape"></polygon><path fill="#9c7357" fill-rule="evenodd" d="M1602.82,1513.56c15.81,5.81,24.96,13.77,32.72,22.17l-7.75-179.93l-8.83-0.22L1602.82,1513.56z" clip-rule="evenodd" class="color9c7357 svgShape"></path><path fill="#9c7357" fill-rule="evenodd" d="M1627.79,1355.8l22.83,72.18c3.28,8,6.65,15,19.95,13.9l125.97-7.99c11.23-0.71,11.5-6.39,11.59-14.08v-64.01
		H1627.79z" clip-rule="evenodd" class="color9c7357 svgShape"></path><path fill="#ffffff" fill-rule="evenodd" d="M1718.72,1429.06l32.04-2.07c1.76-0.12,3.52,1.12,3.79,2.88l4.36,28.45c0.27,1.75-0.84,3.37-2.57,3.55
		l-33.33,3.37c-1.74,0.18-3.61-1.1-3.79-2.88l-3.06-29.76C1715.96,1430.83,1716.95,1429.18,1718.72,1429.06z" clip-rule="evenodd" class="colorfff svgShape"></path><polygon fill="#9c7357" fill-rule="evenodd" points="1724.64 1436.73 1726.7 1456.8 1750.19 1454.43 1747.26 1435.27" clip-rule="evenodd" class="color9c7357 svgShape"></polygon><path fill="#9c7357" fill-rule="evenodd" d="M1665.44,1355.8c1.97-6.98,6.56-12.8,12.76-17.35c2.67-1.96,5.65-3.68,8.85-5.14
		c1.9-4.91,13.28-9.05,27.19-9.59c14.73-0.56,26.94,3.12,28.14,8.34c0.93,0.4,1.84,0.83,2.72,1.28c9.25,4.73,16.16,12.15,18.4,22.45
		h-6.78c-2.17-7.56-7.55-13.07-14.58-16.67c-0.95-0.49-1.93-0.94-2.93-1.36c-4.62,3.3-13.69,5.76-24.2,6.17
		c-11.01,0.42-20.62-1.53-25.27-4.72c-2.79,1.28-5.38,2.78-7.7,4.48c-4.43,3.25-7.84,7.3-9.65,12.1H1665.44z" clip-rule="evenodd" class="color9c7357 svgShape"></path><path fill="#fab688" fill-rule="evenodd" d="M1697.6,1331.8c-0.11,4.32-1.66,10.86,1.09,13.97c7.24,8.16,24.94,8.73,32.55,3.49
		c3.27-2.25,3.65-9.62,3.74-14.34c-3.91-10-6.03-19.25-6.35-27.75c-7.75-5.15-19.46-5.64-23.35-2.96L1697.6,1331.8z" clip-rule="evenodd" class="colorfab688 svgShape"></path><path fill="#f9af79" fill-rule="evenodd" d="M647.19,992.24c4.88,0.35,9.57-5.44,10.93-7.16c5.18-6.58,8.49-14.31,9.82-18.64
		c-1.01-2.88-2.07-6.52-3.18-10.92c-18.78-12.76-21.35-22.19-7.7-28.31c2.75,1.54,6.16,6.29,10.24,14.25
		c3.25-0.13,5.72-1.8,7.4-4.99c-3.88-13.43-6.4-24.34-7.57-32.72c9.25-13.76,30.9-15.72,59.56-12.01
		c1.33,7.63,2.42,15.71,3.27,24.24c5.07,4.67,4.41,21.98-0.26,41.92c2.33,11.34-4.67,17.53-21.01,18.57
		c-0.16,2.74,0.09,5.89,0.14,7.81c0.04,1.74,0.1,5.14,1.92,5.67l3.03,0.75C713.49,1031.23,692.73,1039.03,647.19,992.24z" clip-rule="evenodd" class="colorf9af79 svgShape"></path><path fill="#20386f" fill-rule="evenodd" d="M726.7,891.74c-28.66-3.72-50.31-1.75-59.56,12c1.17,8.38,3.69,19.29,7.57,32.72c-1.68,3.2-4.15,4.86-7.4,4.99
		c-4.08-7.96-7.49-12.71-10.24-14.25c-13.65,6.12-11.08,15.56,7.7,28.32c1.1,4.4,2.16,8.04,3.17,10.92
		c-16.9-3.79-31.03-18.9-33.02-25.44c-19.71-38.85,2.27-55.25,14.03-61.24c5.19-38.47,61.27-5.21,76.03-28.69
		C755.85,868.68,735.37,891.39,726.7,891.74z" clip-rule="evenodd" class="color20386f svgShape"></path><path fill="#ed7d57" fill-rule="evenodd" d="M689.87,972.51c4.58,2.26,10.86,3.58,18.83,3.95c-0.16,2.7-0.04,5.81,0.13,7.73
		C700.82,982.65,694.5,978.76,689.87,972.51z" clip-rule="evenodd" class="colored7d57 svgShape"></path><path fill="#0e2952" fill-rule="evenodd" d="M613.01 1751.7c-17.8-6.27-19.23-15.44-28.82-19.92-9.66-4.51-10.77-12.55-1.32-21.27 6.98 5.57 15.63 12.42 20.22 8.8 3.06-2.42 13.44-2.26 15.5 1.27 9.04 21.02 21.62 14.36 24.1 23.92C642.97 1757.23 621.18 1754.58 613.01 1751.7zM767.25 1730.8c-31.35-.5-54.78-.88-65.61-4.3-11.68-3.69-9.26-10.81-2.55-22.21 29.55 13.59 21.67-2.79 35.49-.71 9.71 7.82 24.09 13.06 43.14 15.72C785.78 1725.24 782.51 1730.53 767.25 1730.8z" clip-rule="evenodd" class="color0e2952 svgShape"></path><path fill="#6d96ce" fill-rule="evenodd" d="M751.6,996.83c-15.65-4.54-29.7-7.29-42.15-8.26c-2.25,34.38-20.19,34.14-53.8-0.72
		c-32.37,2.72-38.71,3.14-56.67,8.96c-38.86,37.12-42.44,79.97-62.75,128.93c22.49,1.01,32.59,3.71,47.88,9.17
		c3.28-11.73,6.03-21.18,8.25-28.33c-0.62,64.56-0.86,108.8-0.71,132.71c74.39,29.47,135.66,19.39,160.69-3.58
		c0.35-57.39,0.83-102.82,1.43-136.3c8.9,10.49,17.15,18.62,24.75,24.39c18.24-20.91,30.59-29.33,40.93-41.66
		C796.54,1044.55,763.73,1009.57,751.6,996.83z" clip-rule="evenodd" class="color6d96ce svgShape"></path><path fill="#f9af79" fill-rule="evenodd" d="M901.51,1059.72c-39.08,16.24-66.44,29.65-82.08,40.25l-6.95-10.29c-6.46,6.47-13.84,12.82-22.84,22.04
		c8.32,8.71,17.25,15.87,27.66,21.92c27.15-2.9,57.17-23.46,90.04-61.69c10.22-2.04,17.75-5.74,22.57-11.11
		c0.26-4.93-2.23-9.87-7.45-14.81c13.63-8.88,19.05-15.24,16.28-19.07C917.38,1040.17,904.97,1051.09,901.51,1059.72z" clip-rule="evenodd" class="colorf9af79 svgShape"></path><path fill="#466fb5" fill-rule="evenodd" d="M752.32,1235.71c-1.47,5.58,4.61,38.37,5.62,55.47c9.89,61.05,1.42,140.51-3.91,242.69
		c-9.53,36.01-23.59,83.99-22.68,151.52c-16.59,5.07-22.61,5.6-37.58,1.79c-10.47-70.48-3.33-126.92,6.13-152.99
		c-6.06-40.29-15.1-85.39-28.27-150.44c-14.84,70.89-34.69,123.49-43.28,157.82c-1.7,38.27-9.44,89.92-13.49,154.95
		c-12.32,3.71-19.99,4.78-32.77,3.22c-16.59-59.77-13.8-124.82-6.78-195.12c7.48-84.52-4.85-179.96,7.5-213.05
		c6.31-19.61,7.12-37.01,8.82-52.27C653.69,1259.95,707.25,1258.75,752.32,1235.71z" clip-rule="evenodd" class="color466fb5 svgShape"></path><path fill="#466fb5" fill-rule="evenodd" d="M603.07,1173.71c-3.98,0.59-7.75,1.12-11.3,1.59c-0.19,28.48-0.23,49.81-0.15,63.99
		c3.51,1.57,8.46,3.39,12.31,3.84c-0.02-1.83-0.59-6.05-0.61-7.85C603.08,1213.5,602.99,1192.98,603.07,1173.71L603.07,1173.71z
		 M784.94,1116.65c-10.95-9.12-21.38-23.94-31.28-44.44c1.11,7.14,1.56,16.7,1.33,28.67c8.42,9.78,16.25,17.42,23.5,22.92
		C780.73,1121.24,782.87,1118.87,784.94,1116.65L784.94,1116.65z M606.17,1061.12c-4.82,15.53-9.44,30.68-13.83,45.46
		c-0.12,12.48-0.23,24.19-0.32,35.15c3.19-0.3,6.92-0.5,11.35-0.61C603.83,1110.82,604.76,1084.15,606.17,1061.12z" clip-rule="evenodd" class="color466fb5 svgShape"></path><path fill="#223f81" fill-rule="evenodd" d="M704.35,1083.46h81.89c3.75,0,6.34,3.07,5.74,6.82l-18.38,116.01c-0.6,3.75-4.15,6.82-7.91,6.82h-81.89
		c-3.75,0-6.34-3.07-5.74-6.82l18.38-116.01C697.04,1086.52,700.6,1083.46,704.35,1083.46z" clip-rule="evenodd" class="color223f81 svgShape"></path><path fill="#f9af79" fill-rule="evenodd" d="M543.76 1126.18c-3.54 14.36-5.02 27.5-2.12 44.92 8.84 12.84 44.51 5.66 136.34-9.69 3.29 3.01 10.1 6 20.44 4.66 9.61-2.4 10.07-4.91 20.84-15.06 2.62-7.91 2.08-13.95-1.61-18.11-12.13 7.14-18.51 10.94-32.17 11.39 3.64-9.36 4.18-15.4 1.64-18.12-4.66 3.74-7.7 9.35-9.1 16.85-72.4-3.15-91.5-2.73-101.13 2.33 1.05-4.55 1.97-8.54 2.78-11.99C568.39 1129.53 559.22 1127.3 543.76 1126.18zM701.18 1688.82c.74 6.15.84 11.66.32 16.54 24.72 10.74 20.52-1.66 30.4-1.97-2.48-4.37-4.09-9.95-4.83-16.74C716.29 1689.75 710.16 1690.44 701.18 1688.82L701.18 1688.82zM585.99 1700.15c.01 4.47-.43 8.41-1.31 11.8 6.61 5.22 14.21 10.68 18.4 7.35 2.01-1.59 7.18-2.07 11.08-1.21-1.6-5.4-2.87-12.17-3.79-20.29C601.7 1700.14 595.04 1700.92 585.99 1700.15z" clip-rule="evenodd" class="colorf9af79 svgShape"></path><path fill="#223f81" fill-rule="evenodd" d="M757.94,1291.18c-43.65,40.7-102.02,40.83-175.13,0.39c-12.35,33.09-0.01,128.53-7.5,213.05
		c-7.02,70.31-9.81,135.35,6.78,195.12c1.35,0.17,2.65,0.3,3.9,0.41c9.06,0.77,15.72-0.01,24.38-2.34c1.44-0.39,2.93-0.81,4.49-1.29
		c4.04-65.03,11.79-116.68,13.49-154.95c8.59-34.32,28.44-86.93,43.28-157.82c13.17,65.05,22.21,110.15,28.27,150.44
		c-9.46,26.07-16.61,82.51-6.13,152.99c2.73,0.69,5.16,1.24,7.41,1.65c8.98,1.62,15.11,0.92,25.89-2.16
		c1.35-0.39,2.77-0.81,4.28-1.28c-0.92-67.53,13.15-115.52,22.68-151.52C759.35,1431.68,767.83,1352.22,757.94,1291.18z" clip-rule="evenodd" class="color223f81 svgShape"></path><path fill="#0e2952" fill-rule="evenodd" d="M689.04,1638.75c15.93,4.33,30.51,5.63,43.75,3.91c0.28-3.49,0.61-6.93,0.97-10.3
		c-14.52,1.89-29.53,0.92-45.04-2.92C688.79,1632.5,688.9,1635.6,689.04,1638.75L689.04,1638.75z M572.67,1650.87
		c17.32,2.07,32.66,0.93,46.02-3.44c0.33-3.64,0.67-7.23,1.01-10.76c-14.99,4.89-30.99,6.57-48,5.02
		C571.99,1644.77,572.31,1647.83,572.67,1650.87L572.67,1650.87z M616.45,1673.75c0.28-3.6,0.57-7.16,0.86-10.68
		c-13.37,3.66-27.52,4.83-42.45,3.52c0.5,3.1,1.05,6.19,1.64,9.26C591.28,1677.52,604.59,1676.82,616.45,1673.75L616.45,1673.75z
		 M732.02,1653.84c-13.5,2.23-27.53,1.99-42.09-0.73c0.24,3.08,0.51,6.21,0.81,9.36c14.89,3.15,28.49,3.71,40.82,1.68
		C731.67,1660.66,731.83,1657.22,732.02,1653.84z" clip-rule="evenodd" class="color0e2952 svgShape"></path></svg>