<svg xmlns="http://www.w3.org/2000/svg" enable-background="new 0 0 307.48 293.71" viewBox="0 0 307.48 293.71" width="550" height="550"><path fill="#e2b3c7" d="M196.037,101.549l-0.104,1.643c0,0-0.742,6.071,4.187,6.071c0,0,2.527-2.763,2.208-5.97
									C202.01,100.086,196.037,101.549,196.037,101.549z" class="colore2b3c7 svgShape"></path><path fill="#233163" d="M203.922,173.003h-6.273c0,0-1.279,1.927,0,3.167c1.28,1.239,2.312,0.207,3.345,2.272
									c1.033,2.066,5.122,3.378,8.014,1.623C211.901,178.309,205.472,176.757,203.922,173.003z" class="color233163 svgShape"></path><path fill="#2d3a74" d="M196.363,152.817c-1.91-7.309,0.848-15.487,0.848-15.487l9.769-1.649
									c0.051,9.801-0.961,18.794-1.954,20.704c-0.993,1.91-1.103,16.618-1.103,16.618c-2.525,2.204-6.273,0-6.273,0
									c-1.706-9.506-1.624-13.912-1.227-15.948C196.698,155.647,196.726,154.207,196.363,152.817z" class="color2d3a74 svgShape"></path><path fill="#233163" d="M193.371,178.481h-6.273c0,0-1.178,1.96,0.167,3.221c1.345,1.261,2.323,0.21,3.465,2.311
									c1.142,2.101,5.3,3.437,8.099,1.65C201.628,183.878,195.118,182.299,193.371,178.481z" class="color233163 svgShape"></path><path fill="#3f528c" d="M200.726,136.662h-11.549c0,0-3.612,6.292-1.963,16.741
									c1.512,9.583-1.583-1.532-0.116,25.078c0,0,2.88,1.493,6.273,0c0,0-0.253-10.65,1.386-16.103
									C196.396,156.925,201.627,148.186,200.726,136.662z" class="color3f528c svgShape"></path><path fill="#eaeffa" d="M202.076,103.494c0,0,0.27,3.325-2.595,4.232c0,0-2.637-0.457-3.548-4.534
									c0,0-1.913,4.353-1.344,6.656c0.569,2.303,2.016,28.127,2.016,28.127s3.393,1.465,8.403-1.102
									c0,0,0.811-19.918,0.745-20.247C205.688,116.297,204.491,105.752,202.076,103.494z" class="coloreaeffa svgShape"></path><path fill="#233163" d="M198.176,139.036c5.419,0,8.835-2.117,9.042-2.249l-0.477-0.751
										c-0.073,0.045-7.322,4.512-17.391,0.216l-0.348,0.819C192.44,138.537,195.545,139.036,198.176,139.036z" class="color233163 svgShape"></path><path fill="#4a5f93" d="M195.933 103.192c0 0-.311 3.847 3.583 10.646 3.556 6.21.594 25.222.594 25.222s-6.756 2.326-10.932-2.399c0 0 2.58-12.096 1.106-17.869-1.269-4.971-4.004-8.28-.715-11.673C190.583 106.072 194.21 104.421 195.933 103.192zM201.808 103.533c0 0 6.77-1.156 6.461 6.975-.309 8.132-2.182 19.691-1.05 26.279 0 0-2.175 1.086-3.479 1.306 0 0-1.956-10.718-.618-16.681 1.015-4.523.458-11.273-.486-15.169C202.335 105.002 202.15 104.03 201.808 103.533z" class="color4a5f93 svgShape"></path><path fill="#f7d7e1" d="M203.998,96.99c0,0,0.684,10.495-5.002,8.155c-3.593-1.479-4.144-3.157-4.759-4.894
									c-0.205-0.579-0.272-0.813-0.393-1.894C193.844,98.357,201.064,89.852,203.998,96.99z" class="colorf7d7e1 svgShape"></path><path fill="#233163" d="M203.897,93.246c-1.539-0.639-2.851-1.573-6.581-1.266c-5.303,0.439-4.184,8.153-2.285,10.143
								c0,0-0.521-1.838-0.613-3.153c-0.031-0.461,0.429-0.765,0.858-0.614c0.521,0.215,0.98,0.795,1.041,2.083l0.705,0.062
								c0,0,0.53-3.757,3.953-3.313c0.932,0.121,1.974-0.564,2.75-0.032c0.014,0.01,0.024,0.013,0.031,0.013
								c0.473,1.525,0.193,2.64,0.193,2.64c0.186-0.267,0.314-0.701,0.402-1.162c0.189-0.986,0.447-1.966,0.875-2.877
								c0.017-0.035,0.027-0.06,0.043-0.096C204.689,94.942,204.232,94.121,203.897,93.246z" class="color233163 svgShape"></path><g fill="#000000" class="color000 svgShape"><path fill="#f7d7e1" d="M195.198,117.988c0,0,2.149-1.179,5.675-0.199l0.102,2.355l-3.559,1.381l-3.839-0.445
						L195.198,117.988z" class="colorf7d7e1 svgShape"></path><path fill="#2d3a74" d="M190.15,106.638c0,0-3.658,2.374-1.741,6.457c1.917,4.083,2.973,12.716,7.439,12.105
						c4.466-0.611,10.245-3.867,10.245-3.867l-3.325-2.777c0,0-4.699,1.269-5.33,2.691
						C197.438,121.247,193.21,105.541,190.15,106.638z" class="color2d3a74 svgShape"></path><path fill="#2d3a74" d="M200.59,117.181c3.669,0,7.302-0.393,7.302-0.393s-0.142-0.318-0.32-5.59
						c-0.178-5.273-2.814-7.374-2.814-7.374c3.348-0.106,4.987,5.166,5.129,6.199c0.142,1.033,2.921,8.477,2.921,8.477
						c0.32,4.204-4.453,4.025-5.699,3.739c-1.282-0.285-5.735-0.569-6.233-1.033C200.376,120.743,200.59,117.181,200.59,117.181z" class="color2d3a74 svgShape"></path></g><g fill="#000000" class="color000 svgShape"><path fill="#4a5f93" d="M198.697,90.571c-2.42,0.115-4.936,2.003-5.616,5.182c-1.208,5.653,3.985,3.639,5.619,2.764
					c0.965-0.516,4.286-0.815,5.202-0.83c0.957-0.015,2.002-0.701,2.082-2.24C206.183,91.628,200.452,90.489,198.697,90.571z" class="color4a5f93 svgShape"></path><path fill="#ffffff" d="M205.378,94.6c-0.239-0.452-0.584-0.504-0.765-0.077c-0.175,0.412-0.113,1.128,0.127,1.58
					c0.239,0.452,0.574,0.487,0.749,0.076C205.67,95.752,205.617,95.052,205.378,94.6z" class="colorfff svgShape"></path></g><g fill="#000000" class="color000 svgShape"><path fill="#a5acb7" d="M66.333,153.187l0.024,3.537c0,0.525,0.335,1.052,1.028,1.433l40.201,23.377
														c1.362,0.789,3.609,0.789,4.972,0l66.375-38.314c0.693-0.407,1.052-0.932,1.052-1.459l-0.024-3.561
														c0,0.525-0.335,1.052-1.052,1.458l-66.351,38.314c-1.386,0.789-3.633,0.789-4.996,0l-40.201-23.351
														C66.667,154.214,66.333,153.689,66.333,153.187z" class="colora5acb7 svgShape"></path><path fill="#d9dfe8" d="M67.375,151.725c-1.374,0.793-1.396,2.088-0.017,2.889l40.203,23.364
														c1.365,0.793,3.616,0.793,4.989,0l66.368-38.318c1.389-0.802,1.381-2.097,0.016-2.89l-40.203-23.364
														c-1.38-0.802-3.6-0.801-4.988,0L67.375,151.725z" class="colord9dfe8 svgShape"></path><g fill="#000000" class="color000 svgShape"><path fill="#3f528c" d="M61.81,101.808l0.144,48.665c0,0.525,0.191,0.885,0.478,1.076l2.187,1.258
													c-0.311-0.191-0.69-49.788-0.69-49.788c0-1.053,0.741-2.367,1.673-2.917c0,0,68.885-39.557,69.196-39.367l-2.119-1.234
													c-0.311-0.167-0.717-0.144-1.195,0.119L63.483,98.869C62.551,99.418,61.81,100.733,61.81,101.808z" class="color3f528c svgShape"></path><path fill="#233163" d="M65.608,100.105c-0.931,0.537-1.691,1.855-1.688,2.924l0.138,48.661
													c0.003,1.069,0.769,1.506,1.7,0.969l67.986-39.252c0.946-0.546,1.691-1.855,1.688-2.924l-0.138-48.661
													c-0.003-1.069-0.753-1.515-1.699-0.969L65.608,100.105z" class="color233163 svgShape"></path><polygon fill="#9ed8bc" points="66.142 102.679 66.283 149.787 133.21 111.148 133.066 64.04" class="color9ed8bc svgShape"></polygon></g><g fill="#000000" class="color000 svgShape"><polygon fill="#a5acb7" points="118.589 143.982 115.139 145.987 112.063 144.211 115.513 142.206" class="colora5acb7 svgShape"></polygon><polygon fill="#a5acb7" points="105.438 147.141 101.981 149.15 98.912 147.378 102.369 145.369" class="colora5acb7 svgShape"></polygon><polygon fill="#a5acb7" points="122.459 146.216 119.009 148.221 115.933 146.445 119.383 144.44" class="colora5acb7 svgShape"></polygon><polygon fill="#a5acb7" points="118.019 148.796 100.434 159.016 97.358 157.24 114.943 147.02" class="colora5acb7 svgShape"></polygon><polygon fill="#a5acb7" points="113.949 146.678 110.492 148.687 107.416 146.911 110.873 144.903" class="colora5acb7 svgShape"></polygon><polygon fill="#a5acb7" points="100.02 154.773 96.564 156.781 93.495 155.01 96.951 153.001" class="colora5acb7 svgShape"></polygon><polygon fill="#a5acb7" points="95.38 157.469 91.923 159.478 88.854 157.706 92.311 155.697" class="colora5acb7 svgShape"></polygon><polygon fill="#a5acb7" points="104.668 152.072 101.211 154.081 98.142 152.309 101.599 150.3" class="colora5acb7 svgShape"></polygon><polygon fill="#a5acb7" points="109.308 149.375 105.851 151.384 102.782 149.612 106.232 147.599" class="colora5acb7 svgShape"></polygon><path fill="#a5acb7" d="M147.122,152.571c0.498,0.288,0.507,0.758,0.013,1.045l-23.764,13.81
						c-0.501,0.291-1.313,0.288-1.811,0l-11.724-6.769c-0.498-0.287-0.501-0.754,0.001-1.045l23.764-13.81
						c0.495-0.288,1.3-0.288,1.798,0L147.122,152.571z" class="colora5acb7 svgShape"></path><polygon fill="#a5acb7" points="84.725 154.695 79.543 157.706 76.474 155.934 81.656 152.923" class="colora5acb7 svgShape"></polygon><polygon fill="#a5acb7" points="79.137 153.467 75.68 155.476 74.051 154.536 77.508 152.527" class="colora5acb7 svgShape"></polygon><polygon fill="#a5acb7" points="93.058 145.369 89.601 147.378 87.979 146.441 91.436 144.432" class="colora5acb7 svgShape"></polygon><polygon fill="#a5acb7" points="98.653 146.601 95.196 148.61 92.127 146.838 95.584 144.829" class="colora5acb7 svgShape"></polygon><polygon fill="#a5acb7" points="88.411 148.07 84.954 150.079 83.332 149.142 86.789 147.133" class="colora5acb7 svgShape"></polygon><polygon fill="#a5acb7" points="94.013 149.298 90.556 151.306 87.487 149.534 90.944 147.526" class="colora5acb7 svgShape"></polygon><polygon fill="#a5acb7" points="91.51 155.235 83.413 159.941 80.344 158.169 88.441 153.463" class="colora5acb7 svgShape"></polygon><polygon fill="#a5acb7" points="89.365 151.998 85.915 154.003 82.846 152.231 86.296 150.226" class="colora5acb7 svgShape"></polygon><polygon fill="#a5acb7" points="83.771 150.766 80.32 152.779 78.691 151.839 82.149 149.83" class="colora5acb7 svgShape"></polygon><polygon fill="#a5acb7" points="112.581 138.507 109.124 140.515 106.055 138.744 109.512 136.735" class="colora5acb7 svgShape"></polygon><polygon fill="#a5acb7" points="106.979 137.279 103.529 139.284 101.907 138.347 105.357 136.342" class="colora5acb7 svgShape"></polygon><polygon fill="#a5acb7" points="110.079 144.444 106.622 146.453 103.553 144.681 107.01 142.672" class="colora5acb7 svgShape"></polygon><polygon fill="#a5acb7" points="107.941 141.203 104.484 143.212 101.415 141.44 104.872 139.431" class="colora5acb7 svgShape"></polygon><polygon fill="#a5acb7" points="102.339 139.975 98.882 141.984 97.26 141.048 100.717 139.039" class="colora5acb7 svgShape"></polygon><polygon fill="#a5acb7" points="103.294 143.904 99.837 145.913 96.768 144.141 100.225 142.132" class="colora5acb7 svgShape"></polygon><polygon fill="#a5acb7" points="97.698 142.672 94.242 144.681 92.62 143.745 96.076 141.736" class="colora5acb7 svgShape"></polygon><polygon fill="#a5acb7" points="111.626 134.578 108.17 136.587 106.548 135.651 110.004 133.642" class="colora5acb7 svgShape"></polygon><polygon fill="#a5acb7" points="119.366 139.047 115.909 141.056 112.84 139.284 116.297 137.275" class="colora5acb7 svgShape"></polygon><polygon fill="#a5acb7" points="131.747 140.818 128.29 142.827 125.214 141.052 128.671 139.043" class="colora5acb7 svgShape"></polygon><polygon fill="#a5acb7" points="127.877 138.584 124.42 140.593 121.344 138.817 124.801 136.809" class="colora5acb7 svgShape"></polygon><polygon fill="#a5acb7" points="128.647 133.653 120.55 138.359 117.481 136.587 125.572 131.877" class="colora5acb7 svgShape"></polygon><polygon fill="#a5acb7" points="124.777 131.419 113.764 137.819 110.695 136.047 121.708 129.647" class="colora5acb7 svgShape"></polygon><polygon fill="#a5acb7" points="120.907 129.185 117.457 131.19 115.835 130.253 119.285 128.248" class="colora5acb7 svgShape"></polygon><polygon fill="#a5acb7" points="116.267 131.881 112.81 133.89 111.188 132.954 114.645 130.945" class="colora5acb7 svgShape"></polygon><polygon fill="#a5acb7" points="141.402 117.275 137.945 119.284 136.323 118.347 139.78 116.338" class="colora5acb7 svgShape"></polygon><polygon fill="#a5acb7" points="139.083 132.072 135.626 134.081 132.551 132.305 136.008 130.296" class="colora5acb7 svgShape"></polygon><polygon fill="#a5acb7" points="149.141 121.743 145.685 123.752 142.609 121.976 146.066 119.967" class="colora5acb7 svgShape"></polygon><polygon fill="#a5acb7" points="136.761 119.971 133.304 121.98 131.682 121.044 135.139 119.035" class="colora5acb7 svgShape"></polygon><polygon fill="#a5acb7" points="140.631 122.206 137.174 124.215 134.105 122.443 137.562 120.434" class="colora5acb7 svgShape"></polygon><polygon fill="#a5acb7" points="132.114 122.672 128.664 124.677 127.042 123.741 130.492 121.736" class="colora5acb7 svgShape"></polygon><polygon fill="#a5acb7" points="144.501 124.44 141.044 126.449 137.968 124.673 141.425 122.664" class="colora5acb7 svgShape"></polygon><polygon fill="#a5acb7" points="135.984 124.906 132.534 126.911 129.465 125.14 132.915 123.134" class="colora5acb7 svgShape"></polygon><polygon fill="#a5acb7" points="127.474 125.369 124.017 127.378 122.395 126.441 125.852 124.432" class="colora5acb7 svgShape"></polygon><polygon fill="#a5acb7" points="148.371 126.674 144.914 128.683 141.838 126.907 145.295 124.899" class="colora5acb7 svgShape"></polygon><polygon fill="#a5acb7" points="139.854 127.141 136.404 129.146 133.328 127.37 136.778 125.365" class="colora5acb7 svgShape"></polygon><polygon fill="#a5acb7" points="131.343 127.603 127.887 129.612 124.818 127.84 128.274 125.831" class="colora5acb7 svgShape"></polygon><polygon fill="#a5acb7" points="152.241 128.909 148.784 130.917 145.708 129.142 149.165 127.133" class="colora5acb7 svgShape"></polygon><polygon fill="#a5acb7" points="143.724 129.375 140.273 131.38 137.198 129.604 140.648 127.599" class="colora5acb7 svgShape"></polygon><polygon fill="#a5acb7" points="135.213 129.837 131.757 131.846 128.681 130.07 132.138 128.062" class="colora5acb7 svgShape"></polygon><polygon fill="#a5acb7" points="147.594 131.609 139.496 136.315 136.421 134.539 144.518 129.833" class="colora5acb7 svgShape"></polygon><g fill="#000000" class="color000 svgShape"><polygon fill="#a5acb7" points="145.272 119.509 141.815 121.518 138.746 119.746 142.196 117.733" class="colora5acb7 svgShape"></polygon></g><g fill="#000000" class="color000 svgShape"><polygon fill="#a5acb7" points="96.151 152.538 92.694 154.547 89.625 152.775 93.082 150.766" class="colora5acb7 svgShape"></polygon></g><g fill="#000000" class="color000 svgShape"><polygon fill="#a5acb7" points="100.798 149.837 97.341 151.846 94.272 150.075 97.729 148.066" class="colora5acb7 svgShape"></polygon></g><g fill="#000000" class="color000 svgShape"><polygon fill="#a5acb7" points="114.719 141.747 111.269 143.752 108.2 141.98 111.65 139.975" class="colora5acb7 svgShape"></polygon></g><g fill="#000000" class="color000 svgShape"><polygon fill="#a5acb7" points="99.25 159.703 91.153 164.409 88.084 162.637 96.175 157.928" class="colora5acb7 svgShape"></polygon></g><g fill="#000000" class="color000 svgShape"><polygon fill="#a5acb7" points="90.74 160.166 87.283 162.175 84.214 160.403 87.671 158.394" class="colora5acb7 svgShape"></polygon></g><g fill="#000000" class="color000 svgShape"><polygon fill="#a5acb7" points="127.106 143.515 123.649 145.524 120.573 143.748 124.03 141.74" class="colora5acb7 svgShape"></polygon></g><g fill="#000000" class="color000 svgShape"><polygon fill="#a5acb7" points="136.387 138.122 132.937 140.127 129.861 138.351 133.311 136.346" class="colora5acb7 svgShape"></polygon></g><g fill="#000000" class="color000 svgShape"><polygon fill="#a5acb7" points="156.881 126.212 153.424 128.221 146.479 124.211 149.936 122.202" class="colora5acb7 svgShape"></polygon></g></g></g><path fill="#233163" d="M99.12,101.089c3.919-2.263,7.109-0.445,7.122,4.059c0.013,4.502-3.156,10.023-7.075,12.286
			c-3.947,2.279-7.136,0.429-7.149-4.073C92.005,108.856,95.174,103.367,99.12,101.089z" class="color233163 svgShape"></path><path fill="#4a5f93" d="M100.808,111.001c-2.476-1.377-4.548-3.127-6.304-5.251c-1.517,2.374-2.493,5.133-2.486,7.609
			c0.013,4.502,3.202,6.352,7.149,4.073c1.849-1.068,3.516-2.87,4.775-4.941C102.881,112.031,101.82,111.565,100.808,111.001z" class="color4a5f93 svgShape"></path><g fill="#000000" class="color000 svgShape"><path fill="#e576ad" d="M95.831,103.95c-1.335,1.575-2.411,3.457-3.073,5.396l99.094,57.587
				c-0.395-0.229-0.64-0.718-0.642-1.413c-0.004-1.398,0.979-3.1,2.195-3.801c0.612-0.354,1.167-0.387,1.567-0.154L95.831,103.95z" class="colore576ad svgShape"></path></g><g fill="#000000" class="color000 svgShape"><polygon fill="#ddacab" points="236.556 191.714 218.62 181.29 236.556 170.867 254.492 181.29" class="colorddacab svgShape"></polygon><polygon fill="#d19f9f" points="218.62 181.29 218.62 192.417 236.556 202.84 236.556 191.714" class="colord19f9f svgShape"></polygon><polygon fill="#c49494" points="254.492 181.29 254.492 192.417 236.556 202.84 236.556 191.714" class="colorc49494 svgShape"></polygon><polygon fill="#ddacab" points="217.657 202.697 199.721 192.274 217.657 181.85 235.594 192.274" class="colorddacab svgShape"></polygon><polygon fill="#d19f9f" points="199.721 192.274 199.721 203.4 217.657 213.824 217.657 202.697" class="colord19f9f svgShape"></polygon><polygon fill="#c49494" points="235.594 192.274 235.594 203.4 217.657 213.824 217.657 202.697" class="colorc49494 svgShape"></polygon><polygon fill="#ddacab" points="198.759 213.68 180.823 203.257 198.759 192.833 216.695 203.257" class="colorddacab svgShape"></polygon><polygon fill="#d19f9f" points="180.823 203.257 180.823 214.383 198.759 224.807 198.759 213.68" class="colord19f9f svgShape"></polygon><polygon fill="#c49494" points="216.695 203.257 216.695 214.383 198.759 224.807 198.759 213.68" class="colorc49494 svgShape"></polygon><polygon fill="#ddacab" points="179.86 224.663 161.924 214.24 179.86 203.817 197.797 214.24" class="colorddacab svgShape"></polygon><polygon fill="#d19f9f" points="161.924 214.24 161.924 225.366 179.86 235.79 179.86 224.663" class="colord19f9f svgShape"></polygon><polygon fill="#c49494" points="197.797 214.24 197.797 225.366 179.86 235.79 179.86 224.663" class="colorc49494 svgShape"></polygon><polygon fill="#ddacab" points="160.962 235.646 143.026 225.223 160.962 214.8 178.898 225.223" class="colorddacab svgShape"></polygon><polygon fill="#d19f9f" points="143.026 225.223 143.026 236.349 160.962 246.773 160.962 235.646" class="colord19f9f svgShape"></polygon><polygon fill="#c49494" points="178.898 225.223 178.898 236.349 160.962 246.773 160.962 235.646" class="colorc49494 svgShape"></polygon><polygon fill="#ddacab" points="236.556 179.279 218.62 168.856 236.556 158.433 254.492 168.856" class="colorddacab svgShape"></polygon><polygon fill="#d19f9f" points="218.62 168.856 218.62 179.982 236.556 190.406 236.556 179.279" class="colord19f9f svgShape"></polygon><polygon fill="#c49494" points="254.492 168.856 254.492 179.982 236.556 190.406 236.556 179.279" class="colorc49494 svgShape"></polygon><polygon fill="#ddacab" points="236.556 166.845 218.62 156.421 236.556 145.998 254.492 156.421" class="colorddacab svgShape"></polygon><polygon fill="#d19f9f" points="218.62 156.421 218.62 167.548 236.556 177.971 236.556 166.845" class="colord19f9f svgShape"></polygon><polygon fill="#c49494" points="254.492 156.421 254.492 167.548 236.556 177.971 236.556 166.845" class="colorc49494 svgShape"></polygon><polygon fill="#ddacab" points="236.556 154.41 218.62 143.987 236.556 133.564 254.492 143.987" class="colorddacab svgShape"></polygon><polygon fill="#d19f9f" points="218.62 143.987 218.62 155.113 236.556 165.537 236.556 154.41" class="colord19f9f svgShape"></polygon><polygon fill="#c49494" points="254.492 143.987 254.492 155.113 236.556 165.537 236.556 154.41" class="colorc49494 svgShape"></polygon><g fill="#000000" class="color000 svgShape"><polygon fill="#ddacab" points="217.657 190.262 199.721 179.839 217.657 169.416 235.594 179.839" class="colorddacab svgShape"></polygon><polygon fill="#d19f9f" points="199.721 179.839 199.721 190.965 217.657 201.389 217.657 190.262" class="colord19f9f svgShape"></polygon><polygon fill="#c49494" points="235.594 179.839 235.594 190.965 217.657 201.389 217.657 190.262" class="colorc49494 svgShape"></polygon></g><g fill="#000000" class="color000 svgShape"><polygon fill="#ddacab" points="217.657 177.828 199.721 167.405 217.657 156.981 235.594 167.405" class="colorddacab svgShape"></polygon><polygon fill="#d19f9f" points="199.721 167.405 199.721 178.531 217.657 188.955 217.657 177.828" class="colord19f9f svgShape"></polygon><polygon fill="#c49494" points="235.594 167.405 235.594 178.531 217.657 188.955 217.657 177.828" class="colorc49494 svgShape"></polygon></g><g fill="#000000" class="color000 svgShape"><polygon fill="#ddacab" points="217.657 165.393 199.721 154.97 217.657 144.547 235.594 154.97" class="colorddacab svgShape"></polygon><polygon fill="#d19f9f" points="199.721 154.97 199.721 166.096 217.657 176.52 217.657 165.393" class="colord19f9f svgShape"></polygon><polygon fill="#c49494" points="235.594 154.97 235.594 166.096 217.657 176.52 217.657 165.393" class="colorc49494 svgShape"></polygon><g fill="#000000" class="color000 svgShape"><path fill="#c49494" d="M220.838,148.108l-0.007,2.522c-0.001,0.473-0.312,0.944-0.932,1.305
								c-1.248,0.725-3.276,0.723-4.532-0.002c-0.632-0.365-0.948-0.843-0.947-1.32l0.007-2.522
								c-0.001,0.477,0.314,0.956,0.947,1.321c1.256,0.725,3.284,0.727,4.532,0.002
								C220.526,149.052,220.836,148.581,220.838,148.108z" class="colorc49494 svgShape"></path><path fill="#e7b8b5" d="M219.891,146.785c1.256,0.725,1.263,1.902,0.015,2.628c-1.248,0.725-3.276,0.723-4.532-0.002
								c-1.256-0.725-1.263-1.898-0.015-2.623C216.607,146.062,218.635,146.06,219.891,146.785z" class="colore7b8b5 svgShape"></path><path fill="#c49494" d="M212.062,153.209l-0.007,2.522c-0.001,0.472-0.311,0.943-0.928,1.302
								c-1.248,0.725-3.28,0.725-4.536,0c-0.631-0.364-0.946-0.842-0.945-1.32l0.007-2.522c-0.001,0.477,0.313,0.955,0.945,1.32
								c1.256,0.725,3.288,0.725,4.536,0C211.752,154.151,212.061,153.681,212.062,153.209z" class="colorc49494 svgShape"></path><path fill="#e7b8b5" d="M211.115,151.885c1.256,0.725,1.263,1.902,0.019,2.625c-1.248,0.725-3.28,0.725-4.536,0
								c-1.256-0.725-1.259-1.9-0.011-2.625C207.831,151.162,209.859,151.16,211.115,151.885z" class="colore7b8b5 svgShape"></path><g fill="#000000" class="color000 svgShape"><path fill="#c49494" d="M229.669,153.204l-0.007,2.522c-0.001,0.473-0.313,0.945-0.934,1.306
								c-1.248,0.725-3.272,0.725-4.528,0c-0.633-0.366-0.95-0.845-0.949-1.324l0.007-2.522c-0.001,0.479,0.315,0.959,0.949,1.324
								c1.256,0.725,3.28,0.725,4.528,0C229.356,154.149,229.667,153.677,229.669,153.204z" class="colorc49494 svgShape"></path><path fill="#e7b8b5" d="M228.724,151.885c1.256,0.725,1.259,1.9,0.011,2.625c-1.248,0.725-3.272,0.725-4.528,0
								c-1.256-0.725-1.267-1.9-0.019-2.625C225.436,151.16,227.468,151.16,228.724,151.885z" class="colore7b8b5 svgShape"></path></g><g fill="#000000" class="color000 svgShape"><path fill="#c49494" d="M220.893,158.305l-0.007,2.522c-0.001,0.472-0.312,0.943-0.93,1.303
								c-1.248,0.725-3.276,0.727-4.532,0.002c-0.632-0.365-0.948-0.844-0.947-1.323l0.007-2.522
								c-0.001,0.479,0.314,0.958,0.947,1.323c1.256,0.725,3.284,0.723,4.532-0.002
								C220.582,159.248,220.892,158.777,220.893,158.305z" class="colorc49494 svgShape"></path><path fill="#e7b8b5" d="M219.949,156.985c1.256,0.725,1.259,1.9,0.015,2.623c-1.248,0.725-3.276,0.728-4.532,0.002
								c-1.256-0.725-1.263-1.902-0.015-2.627C216.66,156.26,218.692,156.26,219.949,156.985z" class="colore7b8b5 svgShape"></path></g></g></g><g fill="#000000" class="color000 svgShape"><polygon fill="#ddacab" points="198.759 201.246 180.823 190.822 198.759 180.399 216.695 190.822" class="colorddacab svgShape"></polygon><polygon fill="#d19f9f" points="180.823 190.822 180.823 201.948 198.759 212.372 198.759 201.246" class="colord19f9f svgShape"></polygon><polygon fill="#c49494" points="216.695 190.822 216.695 201.948 198.759 212.372 198.759 201.246" class="colorc49494 svgShape"></polygon></g><g fill="#000000" class="color000 svgShape"><polygon fill="#ddacab" points="198.759 188.811 180.823 178.388 198.759 167.964 216.695 178.388" class="colorddacab svgShape"></polygon><polygon fill="#d19f9f" points="180.823 178.388 180.823 189.514 198.759 199.938 198.759 188.811" class="colord19f9f svgShape"></polygon><polygon fill="#c49494" points="216.695 178.388 216.695 189.514 198.759 199.938 198.759 188.811" class="colorc49494 svgShape"></polygon></g><g fill="#000000" class="color000 svgShape"><polygon fill="#ddacab" points="198.759 176.377 180.823 165.953 198.759 155.53 216.695 165.953" class="colorddacab svgShape"></polygon><polygon fill="#d19f9f" points="180.823 165.953 180.823 177.079 198.759 187.503 198.759 176.377" class="colord19f9f svgShape"></polygon><polygon fill="#c49494" points="216.695 165.953 216.695 177.079 198.759 187.503 198.759 176.377" class="colorc49494 svgShape"></polygon></g><g fill="#000000" class="color000 svgShape"><polygon fill="#ddacab" points="179.86 212.229 161.924 201.805 179.86 191.382 197.797 201.805" class="colorddacab svgShape"></polygon><polygon fill="#d19f9f" points="161.924 201.805 161.924 212.932 179.86 223.355 179.86 212.229" class="colord19f9f svgShape"></polygon><polygon fill="#c49494" points="197.797 201.805 197.797 212.932 179.86 223.355 179.86 212.229" class="colorc49494 svgShape"></polygon></g><g fill="#000000" class="color000 svgShape"><polygon fill="#ddacab" points="179.86 199.794 161.924 189.371 179.86 178.948 197.797 189.371" class="colorddacab svgShape"></polygon><polygon fill="#d19f9f" points="161.924 189.371 161.924 200.497 179.86 210.921 179.86 199.794" class="colord19f9f svgShape"></polygon><polygon fill="#c49494" points="197.797 189.371 197.797 200.497 179.86 210.921 179.86 199.794" class="colorc49494 svgShape"></polygon></g><g fill="#000000" class="color000 svgShape"><polygon fill="#ddacab" points="179.86 187.36 161.924 176.936 179.86 166.513 197.797 176.936" class="colorddacab svgShape"></polygon><polygon fill="#d19f9f" points="161.924 176.936 161.924 188.063 179.86 198.486 179.86 187.36" class="colord19f9f svgShape"></polygon><polygon fill="#c49494" points="197.797 176.936 197.797 188.063 179.86 198.486 179.86 187.36" class="colorc49494 svgShape"></polygon><g fill="#000000" class="color000 svgShape"><path fill="#c49494" d="M183.04,170.074l-0.007,2.522c-0.001,0.472-0.312,0.944-0.932,1.305
								c-1.248,0.725-3.276,0.723-4.532-0.002c-0.632-0.365-0.948-0.843-0.947-1.321l0.007-2.522
								c-0.001,0.477,0.314,0.956,0.946,1.32c1.256,0.725,3.284,0.728,4.532,0.002C182.729,171.019,183.039,170.547,183.04,170.074z
								" class="colorc49494 svgShape"></path><path fill="#e7b8b5" d="M182.094,168.751c1.256,0.725,1.263,1.902,0.015,2.628c-1.248,0.725-3.276,0.723-4.532-0.002
								c-1.256-0.725-1.263-1.898-0.015-2.623C178.81,168.029,180.838,168.026,182.094,168.751z" class="colore7b8b5 svgShape"></path><path fill="#c49494" d="M174.265,175.175l-0.007,2.522c-0.001,0.472-0.311,0.943-0.928,1.302
								c-1.248,0.725-3.28,0.725-4.536,0c-0.631-0.364-0.946-0.842-0.945-1.32l0.007-2.522c-0.001,0.477,0.313,0.955,0.945,1.32
								c1.256,0.725,3.288,0.725,4.536,0C173.954,176.118,174.264,175.647,174.265,175.175z" class="colorc49494 svgShape"></path><path fill="#e7b8b5" d="M173.318,173.851c1.256,0.725,1.263,1.902,0.019,2.625c-1.248,0.725-3.28,0.725-4.536,0
								c-1.256-0.725-1.259-1.9-0.011-2.625C170.034,173.128,172.062,173.126,173.318,173.851z" class="colore7b8b5 svgShape"></path><g fill="#000000" class="color000 svgShape"><path fill="#c49494" d="M191.872,175.171l-0.007,2.522c-0.001,0.473-0.313,0.945-0.934,1.306
								c-1.248,0.725-3.272,0.725-4.528,0c-0.633-0.365-0.95-0.845-0.949-1.324l0.007-2.522c-0.001,0.479,0.315,0.958,0.948,1.324
								c1.256,0.725,3.28,0.725,4.528,0C191.559,176.116,191.87,175.643,191.872,175.171z" class="colorc49494 svgShape"></path><path fill="#e7b8b5" d="M190.927,173.851c1.256,0.725,1.259,1.9,0.011,2.625c-1.248,0.725-3.272,0.725-4.528,0
								c-1.256-0.725-1.267-1.9-0.019-2.625C187.639,173.126,189.671,173.126,190.927,173.851z" class="colore7b8b5 svgShape"></path></g><g fill="#000000" class="color000 svgShape"><path fill="#c49494" d="M183.096,180.271l-0.007,2.522c-0.001,0.472-0.312,0.943-0.93,1.303
								c-1.248,0.725-3.276,0.728-4.532,0.002c-0.632-0.365-0.948-0.844-0.947-1.323l0.007-2.522
								c-0.001,0.479,0.314,0.958,0.947,1.323c1.256,0.725,3.284,0.723,4.532-0.002
								C182.785,181.215,183.095,180.743,183.096,180.271z" class="colorc49494 svgShape"></path><path fill="#e7b8b5" d="M182.151,178.951c1.256,0.725,1.259,1.9,0.015,2.623c-1.248,0.725-3.276,0.728-4.532,0.002
								c-1.256-0.725-1.263-1.902-0.015-2.627C178.863,178.226,180.895,178.226,182.151,178.951z" class="colore7b8b5 svgShape"></path></g></g></g><g fill="#000000" class="color000 svgShape"><polygon fill="#ddacab" points="160.962 223.212 143.026 212.788 160.962 202.365 178.898 212.788" class="colorddacab svgShape"></polygon><polygon fill="#d19f9f" points="143.026 212.788 143.026 223.915 160.962 234.339 160.962 223.212" class="colord19f9f svgShape"></polygon><polygon fill="#c49494" points="178.898 212.788 178.898 223.915 160.962 234.339 160.962 223.212" class="colorc49494 svgShape"></polygon></g><g fill="#000000" class="color000 svgShape"><polygon fill="#ddacab" points="160.962 210.777 143.026 200.354 160.962 189.931 178.898 200.354" class="colorddacab svgShape"></polygon><polygon fill="#d19f9f" points="143.026 200.354 143.026 211.48 160.962 221.904 160.962 210.777" class="colord19f9f svgShape"></polygon><polygon fill="#c49494" points="178.898 200.354 178.898 211.48 160.962 221.904 160.962 210.777" class="colorc49494 svgShape"></polygon></g><g fill="#000000" class="color000 svgShape"><polygon fill="#ddacab" points="160.962 198.343 143.026 187.919 160.962 177.496 178.898 187.919" class="colorddacab svgShape"></polygon><polygon fill="#d19f9f" points="143.026 187.919 143.026 199.046 160.962 209.469 160.962 198.343" class="colord19f9f svgShape"></polygon><polygon fill="#c49494" points="178.898 187.919 178.898 199.046 160.962 209.469 160.962 198.343" class="colorc49494 svgShape"></polygon></g><g fill="#000000" class="color000 svgShape"><polygon fill="#ddacab" points="160.962 185.908 143.026 175.485 160.962 165.062 178.898 175.485" class="colorddacab svgShape"></polygon><polygon fill="#d19f9f" points="143.026 175.485 143.026 186.611 160.962 197.035 160.962 185.908" class="colord19f9f svgShape"></polygon><polygon fill="#c49494" points="178.898 175.485 178.898 186.611 160.962 197.035 160.962 185.908" class="colorc49494 svgShape"></polygon><g fill="#000000" class="color000 svgShape"><path fill="#c49494" d="M164.142,168.623l-0.007,2.522c-0.001,0.472-0.312,0.944-0.932,1.305
								c-1.248,0.725-3.276,0.723-4.532-0.002c-0.632-0.365-0.948-0.843-0.947-1.321l0.007-2.522
								c-0.001,0.478,0.314,0.956,0.947,1.321c1.256,0.725,3.284,0.727,4.532,0.002C163.83,169.567,164.141,169.096,164.142,168.623
								z" class="colorc49494 svgShape"></path><path fill="#e7b8b5" d="M163.195,167.3c1.256,0.725,1.263,1.902,0.015,2.628c-1.248,0.725-3.276,0.723-4.532-0.002
								c-1.256-0.725-1.263-1.898-0.015-2.623C159.911,166.577,161.939,166.575,163.195,167.3z" class="colore7b8b5 svgShape"></path><path fill="#c49494" d="M155.367,173.724l-0.007,2.522c-0.001,0.472-0.311,0.943-0.928,1.302
								c-1.248,0.725-3.28,0.725-4.536,0c-0.631-0.364-0.946-0.842-0.945-1.32l0.007-2.522c-0.001,0.477,0.313,0.955,0.945,1.32
								c1.256,0.725,3.288,0.725,4.536,0C155.056,174.666,155.365,174.195,155.367,173.724z" class="colorc49494 svgShape"></path><path fill="#e7b8b5" d="M154.42,172.4c1.256,0.725,1.263,1.902,0.019,2.625c-1.248,0.725-3.28,0.725-4.536,0
								c-1.256-0.725-1.259-1.9-0.011-2.625C151.136,171.677,153.163,171.675,154.42,172.4z" class="colore7b8b5 svgShape"></path><g fill="#000000" class="color000 svgShape"><path fill="#c49494" d="M172.973,173.719l-0.007,2.522c-0.001,0.473-0.313,0.945-0.934,1.306
								c-1.248,0.725-3.272,0.725-4.528,0c-0.633-0.366-0.95-0.845-0.949-1.324l0.007-2.522c-0.001,0.479,0.315,0.958,0.949,1.324
								c1.256,0.725,3.28,0.725,4.528,0C172.66,174.664,172.972,174.192,172.973,173.719z" class="colorc49494 svgShape"></path><path fill="#e7b8b5" d="M172.029,172.4c1.256,0.725,1.259,1.9,0.011,2.625c-1.248,0.725-3.272,0.725-4.528,0
								c-1.256-0.725-1.267-1.9-0.019-2.625C168.74,171.675,170.772,171.675,172.029,172.4z" class="colore7b8b5 svgShape"></path></g><g fill="#000000" class="color000 svgShape"><path fill="#c49494" d="M164.198,178.82l-0.007,2.522c-0.001,0.472-0.312,0.943-0.93,1.303
								c-1.248,0.725-3.276,0.727-4.532,0.002c-0.632-0.365-0.948-0.844-0.947-1.323l0.007-2.522
								c-0.001,0.479,0.314,0.958,0.947,1.323c1.256,0.725,3.284,0.723,4.532-0.002C163.886,179.763,164.197,179.292,164.198,178.82
								z" class="colorc49494 svgShape"></path><path fill="#e7b8b5" d="M163.253,177.5c1.256,0.725,1.259,1.9,0.015,2.623c-1.248,0.725-3.276,0.727-4.532,0.002
								c-1.256-0.725-1.263-1.902-0.015-2.627C159.965,176.775,161.997,176.775,163.253,177.5z" class="colore7b8b5 svgShape"></path></g></g></g><g fill="#000000" class="color000 svgShape"><polygon fill="#ddacab" points="198.759 163.942 180.823 153.519 198.759 143.096 216.695 153.519" class="colorddacab svgShape"></polygon><polygon fill="#d19f9f" points="180.823 153.519 180.823 164.645 198.759 175.069 198.759 163.942" class="colord19f9f svgShape"></polygon><polygon fill="#c49494" points="216.695 153.519 216.695 164.645 198.759 175.069 198.759 163.942" class="colorc49494 svgShape"></polygon><g fill="#000000" class="color000 svgShape"><path fill="#c49494" d="M201.939,146.657l-0.007,2.522c-0.001,0.473-0.312,0.944-0.932,1.305
								c-1.248,0.725-3.276,0.723-4.532-0.002c-0.632-0.365-0.948-0.843-0.947-1.321l0.007-2.522
								c-0.001,0.477,0.314,0.956,0.946,1.321c1.256,0.725,3.284,0.728,4.532,0.002
								C201.627,147.601,201.938,147.129,201.939,146.657z" class="colorc49494 svgShape"></path><path fill="#e7b8b5" d="M200.993,145.334c1.256,0.725,1.263,1.902,0.015,2.628c-1.248,0.725-3.276,0.723-4.532-0.002
								c-1.256-0.725-1.263-1.898-0.015-2.623C197.708,144.611,199.736,144.609,200.993,145.334z" class="colore7b8b5 svgShape"></path><path fill="#c49494" d="M193.164,151.757l-0.007,2.522c-0.001,0.472-0.311,0.943-0.928,1.301
								c-1.248,0.725-3.28,0.725-4.536,0c-0.631-0.365-0.946-0.842-0.945-1.32l0.007-2.522c-0.001,0.477,0.313,0.955,0.945,1.32
								c1.256,0.725,3.288,0.725,4.536,0C192.853,152.7,193.162,152.229,193.164,151.757z" class="colorc49494 svgShape"></path><path fill="#e7b8b5" d="M192.217,150.434c1.256,0.725,1.263,1.902,0.019,2.625c-1.248,0.725-3.28,0.725-4.536,0
								c-1.256-0.725-1.259-1.9-0.011-2.625C188.933,149.711,190.961,149.708,192.217,150.434z" class="colore7b8b5 svgShape"></path><g fill="#000000" class="color000 svgShape"><path fill="#c49494" d="M210.77,151.753l-0.007,2.522c-0.001,0.473-0.313,0.945-0.934,1.306
								c-1.248,0.725-3.272,0.725-4.528,0c-0.633-0.365-0.95-0.845-0.949-1.324l0.007-2.522c-0.001,0.479,0.315,0.958,0.949,1.324
								c1.256,0.725,3.28,0.725,4.528,0C210.458,152.698,210.769,152.226,210.77,151.753z" class="colorc49494 svgShape"></path><path fill="#e7b8b5" d="M209.826,150.434c1.256,0.725,1.259,1.9,0.011,2.625c-1.248,0.725-3.272,0.725-4.528,0
								s-1.267-1.9-0.019-2.625C206.538,149.708,208.569,149.708,209.826,150.434z" class="colore7b8b5 svgShape"></path></g><g fill="#000000" class="color000 svgShape"><path fill="#c49494" d="M201.995,156.854l-0.007,2.522c-0.001,0.472-0.312,0.943-0.93,1.303
								c-1.248,0.725-3.276,0.727-4.532,0.002c-0.632-0.365-0.948-0.844-0.947-1.323l0.007-2.522
								c-0.001,0.479,0.314,0.958,0.947,1.323c1.256,0.725,3.284,0.723,4.532-0.002
								C201.683,157.797,201.994,157.326,201.995,156.854z" class="colorc49494 svgShape"></path><path fill="#e7b8b5" d="M201.05,155.533c1.256,0.725,1.259,1.9,0.015,2.623c-1.248,0.725-3.276,0.728-4.532,0.002
								c-1.256-0.725-1.263-1.902-0.015-2.627C197.762,154.808,199.794,154.808,201.05,155.533z" class="colore7b8b5 svgShape"></path></g></g></g><g fill="#000000" class="color000 svgShape"><polygon fill="#ddacab" points="236.556 141.976 218.62 131.553 236.556 121.129 254.492 131.553" class="colorddacab svgShape"></polygon><polygon fill="#d19f9f" points="218.62 131.553 218.62 142.679 236.556 153.102 236.556 141.976" class="colord19f9f svgShape"></polygon><polygon fill="#c49494" points="254.492 131.553 254.492 142.679 236.556 153.102 236.556 141.976" class="colorc49494 svgShape"></polygon><g fill="#000000" class="color000 svgShape"><path fill="#c49494" d="M239.736,124.69l-0.007,2.522c-0.001,0.472-0.312,0.944-0.932,1.305
								c-1.248,0.725-3.276,0.723-4.532-0.002c-0.632-0.365-0.948-0.843-0.947-1.321l0.007-2.522
								c-0.001,0.477,0.314,0.956,0.947,1.32c1.256,0.725,3.284,0.728,4.532,0.002C239.424,125.635,239.735,125.163,239.736,124.69z
								" class="colorc49494 svgShape"></path><path fill="#e7b8b5" d="M238.79,123.368c1.256,0.725,1.263,1.902,0.015,2.628c-1.248,0.725-3.276,0.723-4.532-0.002
								c-1.256-0.725-1.263-1.898-0.015-2.623C235.505,122.645,237.533,122.642,238.79,123.368z" class="colore7b8b5 svgShape"></path><path fill="#c49494" d="M230.961,129.791l-0.007,2.522c-0.001,0.472-0.311,0.943-0.928,1.302
								c-1.248,0.725-3.28,0.725-4.536,0c-0.631-0.364-0.946-0.842-0.945-1.32l0.007-2.522c-0.001,0.477,0.313,0.955,0.945,1.32
								c1.256,0.725,3.288,0.725,4.536,0C230.65,130.734,230.96,130.263,230.961,129.791z" class="colorc49494 svgShape"></path><path fill="#e7b8b5" d="M230.014,128.467c1.256,0.725,1.263,1.902,0.019,2.625c-1.248,0.725-3.28,0.725-4.536,0
								c-1.256-0.725-1.259-1.9-0.011-2.625C226.73,127.744,228.758,127.742,230.014,128.467z" class="colore7b8b5 svgShape"></path><g fill="#000000" class="color000 svgShape"><path fill="#c49494" d="M248.567,129.787l-0.007,2.522c-0.001,0.473-0.313,0.945-0.934,1.306
								c-1.248,0.725-3.272,0.725-4.528,0c-0.633-0.366-0.95-0.845-0.948-1.324l0.007-2.522c-0.001,0.479,0.315,0.958,0.949,1.324
								c1.256,0.725,3.28,0.725,4.528,0C248.255,130.732,248.566,130.26,248.567,129.787z" class="colorc49494 svgShape"></path><path fill="#e7b8b5" d="M247.623,128.467c1.256,0.725,1.259,1.9,0.011,2.625c-1.248,0.725-3.272,0.725-4.528,0
								c-1.256-0.725-1.267-1.9-0.019-2.625C244.335,127.742,246.367,127.742,247.623,128.467z" class="colore7b8b5 svgShape"></path></g><g fill="#000000" class="color000 svgShape"><path fill="#c49494" d="M239.792,134.888l-0.007,2.522c-0.001,0.472-0.312,0.943-0.93,1.303
								c-1.248,0.725-3.276,0.728-4.532,0.002c-0.632-0.365-0.948-0.844-0.947-1.323l0.007-2.522
								c-0.001,0.479,0.314,0.958,0.947,1.323c1.256,0.725,3.284,0.723,4.532-0.002C239.48,135.831,239.791,135.36,239.792,134.888z
								" class="colorc49494 svgShape"></path><path fill="#e7b8b5" d="M238.847,133.567c1.256,0.725,1.259,1.9,0.015,2.623c-1.248,0.725-3.276,0.727-4.532,0.002
								c-1.256-0.725-1.263-1.902-0.015-2.627C235.559,132.842,237.591,132.842,238.847,133.567z" class="colore7b8b5 svgShape"></path></g></g></g></g><g fill="#000000" class="color000 svgShape"><path fill="#bcc2cc" d="M212.395,174.114l-3.312-1.925c0.341,0.088,6.82,1.761,14.059-2.419l3.313,1.925
					C219.215,175.875,212.736,174.202,212.395,174.114z" class="colorbcc2cc svgShape"></path><path fill="#d0d5dd" d="M224.071,186.021c0.012,3.478-0.928,7.344-2.608,11.021c-1.669,3.666-4.065,7.144-6.944,9.811
						c-0.658,0.622-1.339,1.175-2.021,1.668c-0.693,0.306-1.375,0.528-2.021,0.669c-1.457,0.329-2.773,0.329-3.948,0.012
						c-0.576-0.153-1.116-0.376-1.61-0.658c-0.869-0.505-1.997-1.163-2.926-1.704c0.388,0.177,0.799,0.329,1.222,0.435
						c1.175,0.317,2.503,0.317,3.948-0.011c0.646-0.141,1.328-0.364,2.021-0.67c0.681-0.482,1.363-1.045,2.021-1.668
						c2.879-2.667,5.276-6.133,6.944-9.811c1.68-3.677,2.62-7.543,2.609-11.021l-0.024-10.669l3.313,1.927L224.071,186.021z" class="colord0d5dd svgShape"></path><path fill="#d363a1" d="M210.503,176.94c0.282,0.073,5.647,1.454,11.641-2.007l0.03,10.672
						c0.02,6.948-3.788,15.493-9.559,20.836c-0.66,0.614-1.334,1.176-2.024,1.669c-0.69,0.304-1.366,0.521-2.019,0.665
						c-5.79,1.331-9.626-2.8-9.646-9.748l-0.03-10.672C204.89,184.895,210.222,177.338,210.503,176.94z" class="colord363a1 svgShape"></path><path fill="#bcc2cc" d="M203.345,211.788l-3.313-1.926c-3.09-1.798-4.923-5.722-4.935-10.986l-0.047-12.89l3.313,1.927
						l0.035,12.89C198.422,206.066,200.255,209.99,203.345,211.788z" class="colorbcc2cc svgShape"></path><path fill="#d0d5dd" d="M198.368,187.911l-3.313-1.925c7.247-4.184,13.688-13.316,14.027-13.797l3.312,1.925
						C212.056,174.595,205.614,183.727,198.368,187.911z" class="colord0d5dd svgShape"></path><path fill="#ffffff" d="M212.395,174.114c0.341,0.088,6.82,1.761,14.06-2.419l0.036,12.887
						c0.024,8.396-4.568,18.706-11.545,25.177c-0.794,0.735-1.611,1.414-2.444,2.015c-0.833,0.36-1.651,0.625-2.44,0.804
						c-6.991,1.593-11.634-3.385-11.658-11.781l-0.036-12.887C205.614,183.727,212.056,174.595,212.395,174.114z M224.075,186.02
						l-0.03-10.672c-5.994,3.461-11.359,2.079-11.641,2.007c-0.281,0.398-5.613,7.955-11.607,11.416l0.03,10.672
						c0.02,6.948,3.856,11.079,9.646,9.748c0.653-0.144,1.329-0.361,2.019-0.665c0.69-0.493,1.365-1.055,2.024-1.669
						C220.287,201.513,224.095,192.968,224.075,186.02" class="colorfff svgShape"></path></g><g fill="#000000" class="color000 svgShape"><path fill="#e2b3c7" d="M121.093,145.142l-0.104,1.643c0,0-0.742,6.071,4.187,6.071c0,0,2.526-2.763,2.208-5.97
									S121.093,145.142,121.093,145.142z" class="colore2b3c7 svgShape"></path><path fill="#233163" d="M128.978,216.597h-6.273c0,0-1.28,1.927,0,3.167c1.28,1.24,2.312,0.207,3.345,2.272
									c1.033,2.066,5.122,3.379,8.014,1.623C136.957,221.902,130.528,220.35,128.978,216.597z" class="color233163 svgShape"></path><path fill="#2d3a74" d="M121.419,196.411c-1.91-7.309,0.848-15.487,0.848-15.487l9.769-1.649
									c0.051,9.801-0.961,18.794-1.954,20.704c-0.993,1.91-1.103,16.618-1.103,16.618c-2.525,2.204-6.273,0-6.273,0
									c-1.706-9.506-1.624-13.912-1.227-15.947C121.753,199.241,121.782,197.8,121.419,196.411z" class="color2d3a74 svgShape"></path><path fill="#233163" d="M120.8,220.816h-6.273c0,0-1.067,1.901,0.35,3.124c1.416,1.223,2.335,0.204,3.596,2.242
									c1.261,2.038,5.495,3.333,8.193,1.601C129.364,226.05,122.764,224.519,120.8,220.816z" class="color233163 svgShape"></path><path fill="#3f528c" d="M125.782,180.256h-11.549c0,0-3.254,6.103-1.013,16.237c2.056,9.295-1.67-1.485,1.307,24.323
									c0,0,2.965,1.448,6.273,0c0,0-0.857-10.33,0.473-15.618C122.603,199.908,127.337,191.432,125.782,180.256z" class="color3f528c svgShape"></path><path fill="#eaeffa" d="M127.132,147.087c0,0,0.27,3.325-2.595,4.232c0,0-2.637-0.457-3.548-4.534
									c0,0-1.913,4.353-1.344,6.656c0.569,2.303,2.016,28.127,2.016,28.127s3.393,1.465,8.403-1.102
									c0,0,0.811-19.918,0.745-20.247C130.744,159.891,129.547,149.346,127.132,147.087z" class="coloreaeffa svgShape"></path><path fill="#233163" d="M123.232,182.629c5.42,0,8.835-2.117,9.042-2.249l-0.477-0.751
										c-0.073,0.045-7.322,4.512-17.391,0.216l-0.348,0.819C117.496,182.13,120.601,182.629,123.232,182.629z" class="color233163 svgShape"></path><path fill="#3f528c" d="M133.325,154.101c0.309-8.132-6.461-6.974-6.461-6.974c0.341,0.496,0.527,1.468,0.828,2.709
									c0.945,3.896,2.422,10.958,0.486,15.169c-2.704,5.882-2.413,12.018-1.942,15.374c0.196,1.392,1.673,2.212,2.941,1.604
									c1.525-0.731,3.097-1.602,3.097-1.602C131.142,173.793,133.016,162.233,133.325,154.101z" class="color3f528c svgShape"></path><path fill="#4a5f93" d="M124.572,157.431c-4.459-6.441-3.583-10.646-3.583-10.646
										c-1.724,1.229-5.35,2.88-6.365,3.928c-3.289,3.392-0.554,6.701,0.715,11.672c1.474,5.773-1.106,17.868-1.106,17.868
										c3.049,3.45,8.506,3.054,11.231,2.59c1.001-0.171,1.789-0.919,1.984-1.915
										C128.266,176.748,129.889,165.111,124.572,157.431z" class="color4a5f93 svgShape"></path><path fill="#f7d7e1" d="M129.054,140.584c0,0,0.684,10.495-5.002,8.155c-3.593-1.479-4.144-3.157-4.759-4.893
									c-0.205-0.579-0.272-0.813-0.393-1.894C118.9,141.951,126.12,133.445,129.054,140.584z" class="colorf7d7e1 svgShape"></path><path fill="#233163" d="M128.953,136.839c-1.539-0.639-2.851-1.573-6.581-1.266
								c-5.303,0.439-4.184,8.153-2.285,10.143c0,0-0.521-1.838-0.613-3.153c-0.031-0.461,0.429-0.765,0.858-0.614
								c0.521,0.215,0.98,0.795,1.041,2.083l0.705,0.062c0,0,0.53-3.757,3.953-3.313c0.932,0.121,1.974-0.564,2.75-0.032
								c0.014,0.01,0.024,0.013,0.031,0.013c0.473,1.525,0.193,2.64,0.193,2.64c0.186-0.267,0.314-0.701,0.402-1.162
								c0.189-0.986,0.447-1.966,0.874-2.877c0.017-0.035,0.027-0.06,0.043-0.096C129.745,138.535,129.288,137.715,128.953,136.839z
								" class="color233163 svgShape"></path><g fill="#000000" class="color000 svgShape"><path fill="#f7d7e1" d="M120.254,161.581c0,0,2.149-1.179,5.675-0.199l0.102,2.355l-3.558,1.381l-3.839-0.445
						L120.254,161.581z" class="colorf7d7e1 svgShape"></path><path fill="#2d3a74" d="M115.206,150.232c0,0-3.658,2.374-1.741,6.457c1.917,4.083,2.973,12.716,7.439,12.105
						c4.466-0.611,10.245-3.866,10.245-3.866l-3.325-2.778c0,0-4.699,1.269-5.33,2.691
						C122.494,164.84,118.266,149.135,115.206,150.232z" class="color2d3a74 svgShape"></path><path fill="#2d3a74" d="M125.646,160.775c3.669,0,7.302-0.393,7.302-0.393s-0.142-0.318-0.32-5.59
						c-0.178-5.273-2.814-7.374-2.814-7.374c3.348-0.106,4.987,5.166,5.129,6.199c0.142,1.033,2.921,8.477,2.921,8.477
						c0.32,4.204-4.452,4.025-5.699,3.739c-1.282-0.285-5.735-0.569-6.234-1.033C125.432,164.337,125.646,160.775,125.646,160.775z" class="color2d3a74 svgShape"></path></g><g fill="#000000" class="color000 svgShape"><path fill="#4a5f93" d="M123.753,134.165c-2.42,0.115-4.936,2.004-5.615,5.182c-1.208,5.653,3.984,3.639,5.619,2.764
					c0.965-0.516,4.287-0.815,5.202-0.83c0.957-0.015,2.002-0.701,2.082-2.24C131.239,135.221,125.508,134.082,123.753,134.165z" class="color4a5f93 svgShape"></path><path fill="#ffffff" d="M130.434,138.193c-0.239-0.452-0.584-0.503-0.765-0.077c-0.175,0.412-0.113,1.128,0.127,1.58
					c0.239,0.452,0.574,0.487,0.749,0.077C130.726,139.345,130.673,138.646,130.434,138.193z" class="colorfff svgShape"></path></g></g><g fill="#000000" class="color000 svgShape"><path fill="#8ca8f7" d="M90.267,59.535l6.863,3.363c0.869,0.435,1.922,0.069,2.356-0.8l3.363-6.863
						c0.423-0.87,0.069-1.922-0.801-2.357l-6.863-3.363c-0.869-0.423-1.922-0.069-2.357,0.8l-3.363,6.863
						C89.032,58.048,89.398,59.101,90.267,59.535z" class="color8ca8f7 svgShape"></path><path fill="#f283b5" d="M82.38,59.972l3.166-6.449c0.403-0.82,1.397-1.16,2.217-0.757l6.449,3.166
						c0.82,0.403,1.16,1.397,0.757,2.217l-3.166,6.449c-0.403,0.82-1.397,1.16-2.217,0.757l-6.449-3.166
						C82.317,61.787,81.977,60.792,82.38,59.972z M87.138,54.041c-0.117-0.058-0.259-0.009-0.317,0.108l-3.166,6.449
						c-0.058,0.117-0.009,0.259,0.108,0.317l6.449,3.166c0.117,0.058,0.259,0.009,0.317-0.108l3.166-6.449
						c0.057-0.117,0.009-0.259-0.108-0.317L87.138,54.041z" class="colorf283b5 svgShape"></path><path fill="#8ccfb1" d="M221.67,242.858l-5.561-9.945c-0.707-1.265-0.254-2.869,1.011-3.576l9.944-5.561
						c1.264-0.707,2.869-0.254,3.576,1.011l5.561,9.945c0.707,1.265,0.254,2.869-1.011,3.576l-9.944,5.561
						C223.981,244.576,222.377,244.122,221.67,242.858z M218.219,231.303c-0.181,0.101-0.245,0.33-0.144,0.511l5.561,9.945
						c0.101,0.181,0.33,0.245,0.511,0.145l9.944-5.561c0.181-0.101,0.245-0.33,0.144-0.511l-5.561-9.945
						c-0.101-0.181-0.33-0.245-0.511-0.144L218.219,231.303z" class="color8ccfb1 svgShape"></path><path fill="#8294ed" d="M241.252,87.051l5.138,2.878c0.653,0.366,1.493,0.12,1.872-0.548l2.98-5.253
					c0.379-0.668,0.156-1.509-0.498-1.875l-5.138-2.878c-0.653-0.366-1.493-0.12-1.872,0.548l-2.98,5.253
					C240.376,85.844,240.599,86.685,241.252,87.051z M241.77,85.745l2.98-5.253c0.054-0.096,0.174-0.131,0.268-0.078l5.138,2.878
					c0.093,0.052,0.125,0.172,0.071,0.268l-2.98,5.253c-0.054,0.096-0.174,0.131-0.268,0.078l-5.138-2.878
					C241.748,85.96,241.716,85.84,241.77,85.745z" class="color8294ed svgShape"></path><path fill="#d3a5bb" d="M41.634,130.274l4.561-5.222c0.58-0.664,1.592-0.732,2.256-0.152l5.221,4.561
						c0.664,0.58,0.732,1.592,0.152,2.256l-4.561,5.221c-0.58,0.664-1.592,0.732-2.256,0.152l-5.221-4.561
						C41.122,131.95,41.054,130.938,41.634,130.274z M47.549,125.933c-0.095-0.083-0.239-0.073-0.322,0.022l-4.561,5.221
						c-0.083,0.095-0.073,0.239,0.022,0.322l5.221,4.561c0.095,0.083,0.24,0.073,0.322-0.022l4.561-5.221
						c0.083-0.095,0.073-0.239-0.022-0.322L47.549,125.933z" class="colord3a5bb svgShape"></path><ellipse cx="186.755" cy="52.184" fill="#e576ad" rx="4.621" ry="5.361" transform="rotate(-45.001 186.762 52.186)" class="colore576ad svgShape"></ellipse><path fill="#8ca8f7" d="M260.014 202.73c-1.576 3.1 1.503 6.179 4.603 4.603.511-.26.937-.686 1.197-1.197 1.576-3.1-1.503-6.179-4.603-4.603C260.7 201.793 260.274 202.219 260.014 202.73zM83.144 195.295c-1.61 3.166 1.536 6.312 4.702 4.702.522-.265.957-.701 1.223-1.223 1.61-3.166-1.536-6.312-4.702-4.702C83.844 194.338 83.409 194.773 83.144 195.295z" class="color8ca8f7 svgShape"></path><path fill="#9ed8bc" d="M104.454,233.907c-1.61,3.166,1.536,6.312,4.702,4.702c0.522-0.266,0.957-0.701,1.223-1.223
					c1.61-3.166-1.536-6.312-4.702-4.702C105.154,232.949,104.719,233.385,104.454,233.907z" class="color9ed8bc svgShape"></path><path fill="#e7b8b5" d="M167.077 52.271c-1.551 3.05 1.479 6.08 4.529 4.529.503-.256.922-.675 1.178-1.178 1.551-3.05-1.479-6.08-4.529-4.529C167.751 51.349 167.332 51.768 167.077 52.271zM252.543 206.437c-1.214 2.418 1.18 4.812 3.598 3.598.411-.207.754-.549.96-.96 1.214-2.418-1.18-4.812-3.598-3.598C253.092 205.683 252.75 206.026 252.543 206.437z" class="colore7b8b5 svgShape"></path></g><g fill="#000000" class="color000 svgShape"><polygon fill="#ffffff" points="212.048 185.977 210.224 191.318 206.106 194.39 209.094 196.002 208.412 201.107 212.079 196.771 215.771 196.858 215.05 192.563 218.018 187.513 213.897 189.198" class="colorfff svgShape"></polygon></g></svg>