<svg xmlns="http://www.w3.org/2000/svg" viewBox="0 0 2500 2500" width="550" height="550"><defs><clipPath id="a"><rect width="1992.38" height="1300.76" x="444.62" fill="none"></rect></clipPath></defs><g style="isolation:isolate" fill="#000000" class="color000 svgShape"><rect width="753.8" height="1432.85" x="444.62" y="418.96" fill="#adddf6" class="coloradddf6 svgShape"></rect><rect width="748.66" height="1432.85" x="1235.57" y="418.96" fill="#adddf6" class="coloradddf6 svgShape"></rect><path fill="#688ec9" d="M1660.42,1847.11h328.26a0,0,0,0,1,0,0V2080a155,155,0,0,1-155,155h-18.34a155,155,0,0,1-155-155V1847.11A0,0,0,0,1,1660.42,1847.11Z" class="color688ec9 svgShape"></path><rect width="18.19" height="347.29" x="1642.22" y="2016.21" fill="#0f0f10" class="color0f0f10 svgShape"></rect><rect width="18.19" height="347.29" x="1988.67" y="2016.21" fill="#0f0f10" class="color0f0f10 svgShape"></rect><rect width="18.19" height="347.29" x="1849.46" y="2016.21" fill="#0f0f10" class="color0f0f10 svgShape"></rect><rect width="347.29" height="18.19" x="1642.22" y="2234.99" fill="#0f0f10" class="color0f0f10 svgShape"></rect><path fill="#ffc959" d="M2017.82,1448.74c24.17,24.94-11.18,55.67-10.9,95.7s48.6,54.64,9.6,113.53c-24,36.27-55.55-1.48-71.35,50.65s4.23,57.19-19.59,78.93c-41.53,37.9-123.68-17.27-107.67-69.38s65.12-55.76,36.21-91.71-40-51.66-4.78-78.38c43.66-33.07,89.58-16.84,87.36-54.35S1985.84,1415.75,2017.82,1448.74Z" class="colorffc959 svgShape"></path><path fill="#0f0f10" d="M1873.1,1844.87l-8.31-.27c6.37-196.67,109.38-350.58,110.42-352.11l6.88,4.66C1981.06,1498.67,1879.39,1650.69,1873.1,1844.87Z" class="color0f0f10 svgShape"></path><path fill="#ec5a26" d="M1598.89,1317.06c-32.36,33.38,15,74.52,14.58,128.1s-62.59,52.37-10.38,131.2c32.16,48.55,48.23,29.93,39.13,112.25-8,72.47,64.57,24.59,90.23,77,33.1,67.59,147.54-20,126.11-89.8s-72.71-70.15-34-118.28,27.22-97.57-20-133.33c-58.43-44.27-100,3.32-97.08-46.89S1641.7,1272.91,1598.89,1317.06Z" class="colorec5a26 svgShape"></path><path fill="#0f0f10" d="M1792.6,1847.29c-8.43-260.06-144.51-463.4-145.88-465.42l9.21-6.25c1.39,2.05,139.26,208.07,147.79,471.31Z" class="color0f0f10 svgShape"></path><path fill="#2d5b98" d="M76,2389.43H2424a13,13,0,0,0,13-13h0a13,13,0,0,0-13-13H76a13,13,0,0,0-13,13h0A13,13,0,0,0,76,2389.43Z" class="color2d5b98 svgShape"></path><polygon fill="#0f0f10" points="1290.19 2363.5 1347.68 2363.5 1353.63 2238.5 1284.24 2238.5 1290.19 2363.5" class="color0f0f10 svgShape"></polygon><polygon fill="#0f0f10" points="291.04 2363.5 348.53 2363.5 354.48 2238.5 285.1 2238.5 291.04 2363.5" class="color0f0f10 svgShape"></polygon><path fill="#e87c24" d="M341.16,2021.55q9.51,29.49,20.8,60.52h954.39s123.16-501.32,0-593a82.24,82.24,0,0,0-11.34-6.91c-165.89-85.24-831-105.25-966,4.41-1,.81-2,1.66-2.91,2.5C286.35,1534.75,243.09,1717.05,341.16,2021.55Z" class="colore87c24 svgShape"></path><path fill="#982d21" d="M956.52 2082.07h359.61l-35.07-351.36C1218.35 1757.92 1051.41 1901.58 956.52 2082.07zM341.16 2021.55q9.51 29.49 20.8 60.52H708.6c-59.61-110.55-204.16-278-344.53-355.1z" class="color982d21 svgShape"></path><path fill="#e87c24" d="M221.57,1725.79H353.89a44.35,44.35,0,0,1,44,38.53L440,2083.4h773.32l42.2-319.08a44.33,44.33,0,0,1,44-38.53h132.32a44.34,44.34,0,0,1,43.65,52.13L1402,2309.3H251.38l-73.46-531.38A44.35,44.35,0,0,1,221.57,1725.79Z" class="colore87c24 svgShape"></path><path fill="#f0af66" d="M447.76,1909.12c-62.27,20.84-50.13,152.68,0,173h755.38c56.41-14.56,61.18-189-20.18-175.83C685,1999.85,660.92,1850.5,447.76,1909.12Z" class="colorf0af66 svgShape"></path><path fill="#027980" d="M1023.5,1775.48c.23,34-1.6,66.08-5.26,94.15H664l-21-345.84c21-126.33,78.63-156.94,169.8-156.94,81.59,0,135.93,66.56,169,155.65C1010.36,1599.47,1023,1693.25,1023.5,1775.48Z" class="color027980 svgShape"></path><path fill="#005459" d="M1023.5,1782.16l-128.18-7.71c71.16-23.3,76.82-132.51,4.48-200.47l82-51.48C1010.36,1599.47,1023,1699.93,1023.5,1782.16Z" class="color005459 svgShape"></path><polygon fill="#0f0f10" points="1047.89 1941.1 561.26 1941.1 561.26 1775.49 999.61 1775.49 1047.89 1941.1" class="color0f0f10 svgShape"></polygon><path fill="#0f0f10" d="M499.09,1888.55l130.71,475H731.72c-32.27-202.11-25-333.5-55.39-501.32C649.71,1724.41,467.4,1760.88,499.09,1888.55Z" class="color0f0f10 svgShape"></path><path fill="#b05726" d="M666.4,2363.5c0-.32,0-.63,0-.94a63.76,63.76,0,0,0-127.51,0c0,.31,0,.62,0,.94Z" class="colorb05726 svgShape"></path><path fill="#b05726" d="M590.39,2300l23.17-7.09c15.3-30.09,80.53-26.36,71.45,10.26,25.59,3.81,39.06-8.94,39.06-8.94l7.65,69.27H593.51Z" class="colorb05726 svgShape"></path><path fill="#0f0f10" d="M1073,1888.55l-130.71,475H840.4c32.27-202.11,25-333.5,55.39-501.32C922.41,1724.41,1104.72,1760.88,1073,1888.55Z" class="color0f0f10 svgShape"></path><path fill="#b05726" d="M905.72,2363.5c0-.32,0-.63,0-.94a63.76,63.76,0,0,1,127.51,0c0,.31,0,.62,0,.94Z" class="colorb05726 svgShape"></path><path fill="#b05726" d="M981.73,2300l-23.17-7.09c-15.29-30.09-80.53-26.36-71.44,10.26-25.6,3.81-39.07-8.94-39.07-8.94l-7.65,69.27H978.61Z" class="colorb05726 svgShape"></path><path fill="#027980" d="M867.45,1378c-47.81,29-54.62,115.17-30.11,149.49l136.4,101.62-138.87,71.51,22.56,73.87s145-11.8,215.91-84.58C1141.47,1620,975.38,1414.71,867.45,1378Z" class="color027980 svgShape"></path><path fill="#0f0f10" d="M864.67,1694.42a3.56,3.56,0,0,1-3.51-3.29c-.06-.69-1-16.83,29.21-22.94,22.19-4.49,64-30.75,77.28-39.34-15.86-12.14-73.35-56.94-88.88-80a3.52,3.52,0,1,1,5.84-3.93c17,25.33,90.51,80.82,91.25,81.38a3.51,3.51,0,0,1-.16,5.73c-2.27,1.53-56.1,37.46-83.94,43.1-23.59,4.78-23.58,15.47-23.58,15.57a3.5,3.5,0,0,1-3.24,3.75Z" class="color0f0f10 svgShape"></path><path fill="#027980" d="M770.47,1508.65C811.36,1457.3,783.12,1378,731,1380.3,561.26,1440.05,508.86,1606,562.64,1680.45c46.07,63.81,248.72,88.38,248.72,88.38V1699l-140.8-30.42S743.16,1556.06,770.47,1508.65Z" class="color027980 svgShape"></path><path fill="#f7a593" d="M919.21,1751.11c2.63-23.39-11.06-52.65-46.27-59-61.49-11.17-83.75,22.57-89.57,46.7-1.51,6.28,4.2,12.93,9.48,12.34s9-3.56,9.9-8.35c1.09-5.76,4.15-12.89,10.74-16.61-6.36,12.46-3.71,25,13.61,25Z" class="colorf7a593 svgShape"></path><path fill="#9ebde3" d="M780.36,1751.05,732,1508.38H721.7c3.28,16.71,50.89,259.53,52.38,267.12h145L935,1751.05Z" class="color9ebde3 svgShape"></path><polygon fill="#ffffff" points="721.7 1508.38 361.57 1508.38 414.84 1775.49 774.08 1775.49 721.7 1508.38" class="colorfff svgShape"></polygon><path fill="#f7a593" d="M826.7,1395.36c0,27.61-82.77,45.92-109.83,16.9a30.55,30.55,0,0,1-8-16.38L693.28,1326l98.86-37.28,3,9.14Z" class="colorf7a593 svgShape"></path><path fill="#d87661" d="M708.88,1395.88,693.28,1326l93.53-25.19C811,1372.82,724.63,1430.38,708.88,1395.88Z" class="colord87661 svgShape"></path><path fill="#f7a593" d="M799.45,1261.8c5.21,68.74-49.11,129.28-94.69,132.35s-108.34-47.84-113.55-116.58,37.2-128,94.7-132.35S794.25,1193.06,799.45,1261.8Z" class="colorf7a593 svgShape"></path><path fill="#0f0f10" d="M723.24,1150.42c-63-39.91-97.72-2.37-129.1,37.44-22,27.94-37.62,48-65,52.22,52.73,66.5,158.18,22.63,191.41-44,3.27,37.93,48,69.36,78.94,65.73C809.48,1219.58,780.25,1134.24,723.24,1150.42Z" class="color0f0f10 svgShape"></path><circle cx="787.43" cy="1262.71" r="27.43" fill="#f7a593" class="colorf7a593 svgShape"></circle><path fill="#bd4a31" d="M669.36,1348a7.48,7.48,0,0,1-3.59-.84c-6.44-3.45-4.95-39.23-4.34-50.12a1.41,1.41,0,0,1,2.81.16c-1.2,21.45-.45,45.7,2.86,47.48,4.34,2.32,13.16-3.85,16.19-6.43a1.41,1.41,0,0,1,1.83,2.15C684.06,1341.31,676,1348,669.36,1348Z" class="colorbd4a31 svgShape"></path><path fill="#0f0f10" d="M705.19 1283.55c1.88 5.31 5.54 8.87 8.17 7.93s3.24-6 1.37-11.3-5.54-8.87-8.17-7.93S703.32 1278.24 705.19 1283.55zM621.25 1315.57c1.76 5 5.17 8.27 7.63 7.4s3-5.59 1.27-10.55-5.16-8.27-7.62-7.4S619.5 1310.61 621.25 1315.57z" class="color0f0f10 svgShape"></path><path fill="#803220" d="M708.82 1357.27a1.43 1.43 0 01-1.14-.59 1.41 1.41 0 01.32-2c.45-.33 11.29-8 27.27-3.43a1.41 1.41 0 01-.77 2.71c-14.68-4.18-24.75 2.93-24.85 3A1.42 1.42 0 01708.82 1357.27zM724.86 1264.65a1.39 1.39 0 01-1.07-.5h0c-.37-.43-9.16-10.51-23.56-4.69a1.41 1.41 0 11-1.06-2.62 23.71 23.71 0 0126.77 5.5 1.4 1.4 0 01-.17 2A1.42 1.42 0 01724.86 1264.65zM611.32 1309.16a1.41 1.41 0 01-1.4-1.41 18.13 18.13 0 019.16-16.11 1.41 1.41 0 011.27 2.52 15.3 15.3 0 00-7.62 13.59A1.41 1.41 0 01611.32 1309.16z" class="color803220 svgShape"></path><g clip-path="url(#a)" fill="#000000" class="color000 svgShape"><path fill="#1d3666" d="M1076.32,858.06l18.09,167.57c12.34,56.86,75.54,56.64,91.74,12.07,36-99,17.93-143,12.09-198.52C1187,735.72,1065.05,754.61,1076.32,858.06Z" class="color1d3666 svgShape"></path><path fill="#ffffff" d="M2126.27,857.33,2183.39,833c20.73-12.93,44.14,24.58,23.41,37.51l-50.67,34.74C2142.93,913.49,2113.08,865.55,2126.27,857.33Z" class="colorfff svgShape"></path><path fill="#1d3666" d="M2258.45,880.11l-48.37-3.6c-9.56-42.15-48-19.76-45.17-39.53S2195,783.73,2195,783.73l125.41,82.43S2326.75,901.07,2258.45,880.11Z" class="color1d3666 svgShape"></path><path fill="#1d3666" d="M2258.45 880.11c-19.39-.41-39.72 1.15-50.44 6.88-11.54 6.16-23.19-17.78-5.78-23.88S2245.81 863.39 2258.45 880.11zM1554.38 781c79.36 50.05 205.11 106.77 294.51 199.11 35.13-42.48 137.74-75.64 267-126.64 27.92-2.58 55.79 46 34.24 68.49 0 0-241.43 194.06-327.62 183.88S1502.77 957.25 1466.3 924.69C1418.2 881.74 1406.85 720.26 1554.38 781z" class="color1d3666 svgShape"></path><path fill="#1d3666" d="M2119.77,858.62,2145,848.2c12.48.08,33.66,34.25,24.71,50.78l-23.94,16.3Z" class="color1d3666 svgShape"></path><path fill="#ffffff" d="M2000,562.3l36-58.22c10.43-24.83,55.37-6,44.94,18.88l-23.51,63.5C2050.74,602.26,1993.36,578.09,2000,562.3Z" class="colorfff svgShape"></path><path fill="#1d3666" d="M1562.32,671.61c91.27,21.73,199.08,59.09,296.74,98.35,3.42-55,62-94.94,136.5-212.22,21.06-18.51,72.16,4.36,68,35.25,0,0-56.55,264.47-132.23,307s-412.48-58-457.44-77.21C1437.57,807.25,1403.06,661.78,1562.32,671.61Z" class="color1d3666 svgShape"></path><path fill="#1d3666" d="M2001.7,559.61l14.3-23.28c10.13-7.28,47.36,7.9,49.85,26.54l-9.78,27.26Z" class="color1d3666 svgShape"></path><path fill="#0f0f10" d="M1570.86,911.14c-5.19,0-6.6-6.71-7.21-9.58-1.65-7.86-2.49-21.56-2.49-40.72a4.93,4.93,0,0,1,7.59-4.15c36.87,23.72,176.63,34.16,178,34.26a4.93,4.93,0,0,1-.71,9.83c-5.52-.4-128.29-9.58-175-31.62.37,24.92,2.38,31.76,3,33.35a4.93,4.93,0,0,1-3.25,8.63Zm0-9.85,0,0h0Z" class="color0f0f10 svgShape"></path><path fill="#1d3666" d="M2137.55,496.56l-45.83,27.54c-35.42-31.86-55.75,12.73-65.81-6.85s-6.82-67.05-6.82-67.05l165.32-5.58S2212.37,472,2137.55,496.56Z" class="color1d3666 svgShape"></path><path fill="#1d3666" d="M2137.55 496.56c-17.71 12-35 26.31-41 38.29-6.47 12.89-32.18-1.25-20.39-17.82S2115.54 489.56 2137.55 496.56zM1141.87 706.45c-43.14 13.18-107.12 145.3-17.39 198.92 68.9 41.17 241.47 24.26 356.31 28.78l85.3-261.39C1434.26 631.25 1239.52 666.3 1141.87 706.45z" class="color1d3666 svgShape"></path><path fill="#0f0f10" d="M1510.48,659.05l-29.94,277.33H1402.8l-47.63-282.29C1409.36,646.29,1461.39,646.93,1510.48,659.05Z" class="color0f0f10 svgShape"></path><path fill="#f7a593" d="M979.79,836.08c5.64,18.16,16.48,32.1,31.26,30.41l45.76-7.88,90.4-15.77c29-4.23-2-119-31.12-114.76L999.51,760.75C975,763.42,970.22,805.81,979.79,836.08Z" class="colorf7a593 svgShape"></path><path fill="#1d3666" d="M1063.08,743s16.08,8.43,17.64,61.06c1.31,44.19-8.82,51.88-8.82,51.88s4.66,10.83,24.43,5.44c36.85,5.17,72.1,3.67,93.47-26.06,22.47-31.26,4.31-139.76-53.92-126.28-25.13,12.22-42.24,19-42.24,19S1070.27,725.87,1063.08,743Z" class="color1d3666 svgShape"></path><path fill="#f2775e" d="M979.79,836.08c5.64,18.16,16.48,32.1,31.26,30.41l45.76-7.88c.7-40.84-31-71.4-31-71.4Z" class="colorf2775e svgShape"></path><path fill="#f7a593" d="M822.09,835.56c32,57.69,121.62,89.27,171.88,61.38s42.15-104.7,10.14-162.39-98.72-81.84-149-53.95S790.08,777.88,822.09,835.56Z" class="colorf7a593 svgShape"></path><path fill="#0f0f10" d="M1000.92,730.3c-72.17,46.18-132.19,94.17-177.77,108.9,0,0,10.55,31.25,32.77,36.64,98.41-31,148.19-139.51,148.19-139.51Z" class="color0f0f10 svgShape"></path><path fill="#f7a593" d="M994.89,772c3.68,13.31,12.67,17,24.54,10.17,9.43-5.45,14.88-19.27,11.2-32.59s-14.05-18.54-24.55-15.63S991.2,758.69,994.89,772Z" class="colorf7a593 svgShape"></path><path fill="#803220" d="M925.32,872.25a11.21,11.21,0,0,1-8.88-4.46,10.38,10.38,0,0,1-2.38-8.18c1-6.23,7.41-10.74,7.69-10.93a1.41,1.41,0,1,1,1.6,2.32c-.06,0-5.75,4-6.5,9a7.5,7.5,0,0,0,1.8,6,8.29,8.29,0,0,0,9.11,3.05c4-1.12,9-5.58,10-14.47a1.4,1.4,0,1,1,2.79.33c-1.2,10.25-7,15.43-12,16.85A11.62,11.62,0,0,1,925.32,872.25Z" class="color803220 svgShape"></path><path fill="#f7a593" d="M906.59 816.49c3.69 7 13.31 9.25 21.47 5S939.84 808 936.14 801s-13.31-9.25-21.47-5C911.64 802.81 910.12 808.18 906.59 816.49zM842 852.11c3.7 7 11.91 10.58 19.67 7.29s9.64-11.8 6.54-19.12c-6.4-1.42-8.66-1.45-17.3-3.57S837.47 843.48 842 852.11z" class="colorf7a593 svgShape"></path><path fill="#0f0f10" d="M919.19 815.11c3 2.64 6.68 3.4 8.18 1.69s.25-5.24-2.77-7.88-6.68-3.39-8.18-1.68S916.17 812.47 919.19 815.11zM855.3 853.07c3.16 2.48 6.85 3 8.25 1.25s0-5.24-3.19-7.72-6.85-3-8.25-1.24S852.14 850.6 855.3 853.07z" class="color0f0f10 svgShape"></path><path fill="#ffffff" d="M988.44,823.21s-6.28,36.65-43.42,54.1c27.56,15.67,40.44,7,40.44,7S1003.09,856.43,988.44,823.21Z" class="colorfff svgShape"></path><path fill="#bd4a31" d="M998.49,823a1.42,1.42,0,0,1-1.38-1.16c-.35-1.88-2.62-4.55-6.14-5.79a10.15,10.15,0,0,0-10.32,2,1.41,1.41,0,0,1-1.84-2.14,13,13,0,0,1,13.09-2.51c4.1,1.44,7.38,4.7,8,7.93a1.4,1.4,0,0,1-1.13,1.64A1.15,1.15,0,0,1,998.49,823Z" class="colorbd4a31 svgShape"></path><path fill="#1d3666" d="M1007.56,723.76C919.85,730.13,870.87,745,800,789.05c0,0-17.42-137,94.54-157.64C989.77,613.82,1007.56,723.76,1007.56,723.76Z" class="color1d3666 svgShape"></path><path fill="#1d3666" d="M808.26,801.81c36.64-37.92,192.58-63.37,220.88-56.9,8.14.4-.31-40.42-28.05-46.1C984.31,695.37,870.51,709,799.2,759.69,778,774.77,798.25,810.17,808.26,801.81Z" class="color1d3666 svgShape"></path><ellipse cx="924.4" cy="638.45" fill="#1d3666" rx="44.15" ry="28.63" transform="rotate(-18.92 924.46 638.483)" class="color1d3666 svgShape"></ellipse><path fill="#2458a7" d="M799.2,762.51a2.82,2.82,0,0,1-1.65-5.1c46.13-33.43,99-48.35,135.27-55,39.25-7.17,68.06-6.44,68.35-6.44a2.82,2.82,0,0,1-.16,5.63c-.28,0-28.62-.71-67.32,6.38-35.63,6.53-87.6,21.19-132.84,54A2.78,2.78,0,0,1,799.2,762.51Z" class="color2458a7 svgShape"></path><path fill="#bd4a31" d="M931.86,753.18s2,14.38-16.5,16.63-18.55-2.25-18.55-2.25.45,27.62-29.21,32.26c-15.09,2.35-21.33-11.7-21.33-11.7-11,40.76-63,67-83.37,35.09-12.13-38.55,27.17-41.83,42.28-37.37C811,780.14,885.58,750,931.86,753.18Z" class="colorbd4a31 svgShape"></path><path fill="#1d3666" d="M1108.3,979.22c-39.76,17.55-98.5,29.73-129.34,48.59L960.31,1084c29.59,26.06,140.47,10,192.6-9.66C1216,1043.11,1171.35,948,1108.3,979.22Z" class="color1d3666 svgShape"></path><path fill="#f7a58e" d="M976.28,1034.49c18.72,8.57,22.17,36.06,7.08,50.12-9.57,8.92-26.61,3.38-31.39,1.56-.77-.3-1.24-.51-1.24-.51a34.46,34.46,0,0,1-3.71,3.09,39.94,39.94,0,0,1-15.15,7.52c-10.91,2.47-43.18-24.23-45.43-47.71s42.45-26.66,46-27.53S976.28,1034.49,976.28,1034.49Z" class="colorf7a58e svgShape"></path><path d="M925.43,1051.25c27.93,18.29,38.33,18.34,47.05,17-9.56,9.33-22,5.61-22,5.61a110.77,110.77,0,0,1,1.51,12.36c-.77-.3-1.24-.51-1.24-.51a34.46,34.46,0,0,1-3.71,3.09C946.89,1087.38,946.85,1074,925.43,1051.25Z" style="mix-blend-mode:soft-light" fill="#0e0e0e" opacity=".8" class="color0e0e0e svgShape"></path><rect width="12.96" height="29.88" x="874.35" y="1006.04" fill="#0f0f10" transform="rotate(-69.09 880.782 1020.969)" class="color0f0f10 svgShape"></rect><path fill="#0f0f10" d="M964.12,1064.68c7.61,2.9,15.52-17.81,7.92-20.72l-79.53-30.39c-6.71-2.56-14.63,18.16-7.92,20.72Z" class="color0f0f10 svgShape"></path><path fill="#595a5a" d="M778.6,1018.25c43.78,16.73,83.36,19.78,88.26,6.93.95-2.46.51-5.27-1.08-8.52a35.29,35.29,0,0,0-7.12-9.51c-.79-.87-1.82-1.64-2.78-2.57-12.35-11.13-33.68-23.44-59.36-33.25S746.58,956.4,730,956.46c-1.34.06-2.62-.05-3.8.06a35.2,35.2,0,0,0-11.64,2.34c-3.35,1.37-5.55,3.17-6.49,5.63C703.12,977.34,734.65,1001.45,778.6,1018.25Zm1.44-3.79c-36.7-14-63.1-34.3-59-45a3.8,3.8,0,0,1,.67-1.25q2-2.93,6.71-4.23c4.62-1.25,11-1.64,18.67-1,13.17,1.08,30.22,5.33,48,12.12s33.15,14.93,43.68,22.92c6.16,4.61,10.64,9.16,13.26,13.17,1.78,2.76,2.5,5.3,2.18,7.63a3.94,3.94,0,0,1-.34,1.38C849.77,1030.92,816.58,1028.42,780,1014.46Z" class="color595a5a svgShape"></path><path fill="#0f0f10" d="M865.78,1016.66c1.59,3.25,2,6.06,1.08,8.52l5.48-14.31c5-13-26.63-37-70.41-53.69-43.95-16.79-83.46-20-88.43-7L708,964.49c.94-2.46,3.14-4.26,6.49-5.63a35.2,35.2,0,0,1,11.64-2.34c1.18-.11,2.46,0,3.8-.06,16.62-.06,40.89,5.06,66.56,14.87s47,22.12,59.36,33.25c1,.93,2,1.7,2.78,2.57A35.29,35.29,0,0,1,865.78,1016.66Z" class="color0f0f10 svgShape"></path><path fill="#0f0f10" d="M780,1014.46c36.54,14,69.73,16.46,73.82,5.76a3.94,3.94,0,0,0,.34-1.38c.32-2.33-.4-4.87-2.18-7.63-4.69,1.42-11.39,1.69-19.39.89-13.11-1.23-29.67-5.3-47.11-12s-32.66-14.74-43.25-22.57c-6.49-4.74-11.31-9.41-13.86-13.59q-4.74,1.31-6.71,4.23a3.8,3.8,0,0,0-.67,1.25C716.94,980.16,743.34,1000.43,780,1014.46Z" class="color0f0f10 svgShape"></path><path fill="#ffffff" d="M784.17,1005c37.53,14.34,63.34,8.5,68.23,6.57-11.67-17.12-39.11-29.45-56.89-36.25-43.21-16.51-63-12.52-67.8-10.78C730.06,969.21,746.23,990.46,784.17,1005Z" class="colorfff svgShape"></path><path fill="#f7a58e" d="M892.68,1037.38s23.36-1.12,37.6,18.38,10,33.29.87,32.94S895.83,1043.92,892.68,1037.38Z" class="colorf7a58e svgShape"></path><path fill="#f7a58e" d="M965.9,1073.19c-28.83,2.14-48-34.91-48-34.91s-17.79-3.85-22.4-10.61c-6.2-9.09,5.44-14.52,5.44-14.52,3.06-1.31,66.77,17,65.42,18.37,0,0,15.32,6.57,13.69,23.57S965.9,1073.19,965.9,1073.19Z" class="colorf7a58e svgShape"></path><path fill="#dc3e26" d="M965.06,1073.55v-.09a.81.81,0,0,0-.83-.8c-27.55.43-45.4-34.39-45.58-34.75a.82.82,0,1,0-1.46.74c.18.36,18.49,36.09,47.07,35.64A.82.82,0,0,0,965.06,1073.55Z" class="colordc3e26 svgShape"></path><path fill="#1d3666" d="M966.38 1031.52s8.92-7.74 18.4-4.79 20.42 25.23 17 39.72c-3.7 15.43-7.82 26.65-21.35 28.32s-16.17-5.53-16.17-5.53 16.46-2.27 16.52-29.62C980.77 1037.53 971.08 1032 966.38 1031.52zM1261.83 870.8l80.76 86.69c-14.85 19.53-38.74 126.89-21 154.8l49.24 7.19c39.92-2 86.83-145.77 65-188.08-30.75-101.73-102.3-212.3-102.3-212.3C1280.29 693.59 1144.23 792.89 1261.83 870.8z" class="color1d3666 svgShape"></path><path fill="#1d3666" d="M1383.5,1106.93s6.73,12.06-2.16,18.64-71.35,2.12-66.66-21.6C1317.74,1088.52,1375.41,1095,1383.5,1106.93Z" class="color1d3666 svgShape"></path><path fill="#f7a593" d="M1372.75,1120l-9.2,36.41c-7.16,17.85-48-9.41-45.88-25.16l7.58-22.68C1332.88,1102.43,1367.08,1111.36,1372.75,1120Z" class="colorf7a593 svgShape"></path><path fill="#a34c39" d="M1320.14,1159.25s22.9,42.94-39,25.33C1251.78,1155.69,1310.77,1140.84,1320.14,1159.25Z" class="colora34c39 svgShape"></path><path fill="#f7a593" d="M1363.29,1154.55s4.63,25.2-9.92,38.39-26.82,22.18-26.82,22.18-5.75-1.35-4.57-9.13,14.43-17.58,15.13-20.4c3.7-15-2.92-18.85-15.82-18.22-10.75.53-24.86,54.45-35.73,52.08-6.49-1.41-4.89-22.62-1.42-33.2-19.84-8.4-22.11-37.59,33-56.26C1357.76,1113.39,1363.29,1154.55,1363.29,1154.55Z" class="colorf7a593 svgShape"></path><path fill="#dc3e26" d="M1284.14,1187.13a.79.79,0,0,1-.3-.05.89.89,0,0,1-.54-1.13l8.32-23.26a.89.89,0,1,1,1.67.59l-8.31,23.27A.88.88,0,0,1,1284.14,1187.13Z" class="colordc3e26 svgShape"></path><path fill="#0f0f10" d="M1322.63 938.84a4.9 4.9 0 01-3.55-1.5l-60-62.24c-5.79-2-29.48-11.31-40.42-31.92a4.93 4.93 0 018.71-4.62C1237.72 858 1263 866 1263.28 866.09a5 5 0 012.1 1.29l60.79 63.12a4.93 4.93 0 01-.13 7A4.88 4.88 0 011322.63 938.84zM1469.61 667.64h-.22a4.93 4.93 0 01-4.71-5.14h0c0-.25.92-25.42-12.29-39.21-5.71-5.95-13.42-9-22.93-9-10 0-17.9 3.06-23.45 9.1-11.79 12.79-10.13 34.76-10.11 35a4.93 4.93 0 11-9.82.81c-.09-1.08-2-26.53 12.68-42.47 7.5-8.14 17.83-12.27 30.7-12.27 12.32 0 22.44 4 30.08 12 16.13 16.87 15 45.23 15 46.43A4.93 4.93 0 011469.61 667.64zM1423.47 524.51a4.93 4.93 0 01-4.93-4.92V-367.24a4.93 4.93 0 014.93-4.93 4.93 4.93 0 014.93 4.93V519.59A4.93 4.93 0 011423.47 524.51z" class="color0f0f10 svgShape"></path><path fill="#0f0f10" d="M1426.37,619.84a30.82,30.82,0,0,1-15.68-4.27c-9.12-5.4-13.82-14.79-12.88-25.78,1.44-17,7.71-34.74,13.31-47.72a18.53,18.53,0,0,1-6.56-14.14,18.83,18.83,0,0,1,37.65,0,18,18,0,0,1-5,12.54,140.87,140.87,0,0,1,15.48,47.28c2.24,16.31-5.72,24.26-10.67,27.55A28.23,28.23,0,0,1,1426.37,619.84Zm-3-100.87a9,9,0,0,0-9,9,8.88,8.88,0,0,0,5.07,7.94,4.92,4.92,0,0,1,2.3,6.45c-5.65,12.46-12.69,31-14.16,48.31-.83,9.67,4.71,14.47,8.08,16.46,6.48,3.84,15,3.84,20.8,0,5.3-3.52,7.5-9.74,6.37-18a131,131,0,0,0-16.27-47.29,4.93,4.93,0,0,1,1.56-6.58,8.75,8.75,0,0,0,4.18-7.29A9,9,0,0,0,1423.39,519Z" class="color0f0f10 svgShape"></path></g></g></svg>