<svg xmlns="http://www.w3.org/2000/svg" enable-background="new 0 0 1364 960" viewBox="0 0 1364 960" width="550" height="550"><path fill="#b4d2fa" d="M1101.173 424.92c-.558-4.441 3.664-8.377 8.1-8.896 4.436-.52 8.796 1.528 12.499 4.054 5.989 4.086 10.567 9.081 15.12 14.509-1.811-6.476-3.387-13.016-4.753-19.584-.903-4.343-1.71-8.71-2.424-13.094-9.996 1.188-20.343-.676-29.283-5.309-3.388-1.756-6.89-4.375-7.356-8.162-.545-4.425 3.678-8.361 8.104-8.892 4.427-.53 8.77 1.499 12.456 4.007 6.189 4.211 10.859 9.403 15.558 15.041-2.046-13.535-3.139-27.221-3.037-40.9-9.907-.496-19.655-3.955-27.629-9.859-3.067-2.271-6.11-5.411-5.97-9.225.164-4.455 4.958-7.672 9.413-7.493 4.455.178 8.421 2.869 11.663 5.931 5.253 4.96 8.964 10.596 12.584 16.657.335-14.416 2.003-29.339 7.629-42.663.117-.277.247-.55.366-.826-9.855-1.86-19.136-6.709-26.264-13.769-2.712-2.686-5.275-6.229-4.592-9.983.799-4.387 6.003-6.886 10.386-6.073 4.384.813 7.925 4.042 10.697 7.535 4.884 6.153 7.849 12.838 10.787 20 6.919-15.213 16.672-29.216 23.057-44.643-10.045-1.787-19.522-6.676-26.772-13.858-2.712-2.685-5.275-6.228-4.591-9.983.798-4.386 6.002-6.885 10.386-6.073 4.384.812 7.925 4.042 10.697 7.535 5.015 6.319 8.007 13.198 11.024 20.579 1.527-3.884 2.831-7.861 3.806-11.978 1.974-8.336 2.144-17.015.88-25.56-10.387 1.029-21.082-1.239-30.141-6.427-3.311-1.897-6.701-4.66-7.007-8.464-.358-4.444 4.026-8.199 8.471-8.543 4.445-.344 8.699 1.866 12.277 4.526 6.561 4.879 11.262 10.849 16.147 17.302-2.325-13.746-8.33-27.061-16.528-37.942-9.468-.221-18.87-3.134-26.775-8.355-3.185-2.104-6.391-5.077-6.455-8.892-.075-4.458 4.54-7.927 8.998-7.987 4.458-.06 8.563 2.415 11.964 5.298 5.425 4.599 9.394 9.932 13.274 15.686.234.109.457.276.653.524 7.185 9.104 12.461 19.651 15.783 30.749.732 2.447 1.379 4.933 1.933 7.442 1.56-9.08 5.618-17.73 11.661-24.689 2.502-2.882 5.871-5.671 9.662-5.235 4.43.51 7.263 5.539 6.739 9.966-.524 4.428-3.516 8.173-6.819 11.168-6.162 5.585-13.058 9.064-20.48 12.67.928 5.312 1.362 10.706 1.02 16.081-.517 8.14-2.575 15.84-5.471 23.27 5.574-7.697 13.34-13.802 22.162-17.343 3.542-1.422 7.812-2.367 10.986-.248 3.708 2.475 3.934 8.243 1.447 11.944-2.487 3.7-6.858 5.667-11.164 6.823-8.252 2.215-16.179 2.1-24.683 1.911-5.131 12.115-12.281 23.557-18.348 35.074-1.909 3.625-3.703 7.277-5.29 11.007 5.622-8.654 13.944-15.532 23.517-19.389 3.54-1.426 7.809-2.377 10.985-.263 3.711 2.471 3.945 8.239 1.463 11.942-2.482 3.704-6.851 5.676-11.155 6.838-8.437 2.277-16.537 2.115-25.263 1.932-1.648 3.994-3.041 8.087-4.044 12.353-1.834 7.802-2.778 15.802-3.226 23.796-.12 2.126-.198 4.254-.25 6.384 4.328-8.297 10.983-15.378 19.031-20.162 3.28-1.95 7.354-3.541 10.816-1.937 4.046 1.875 5.158 7.539 3.27 11.578-1.888 4.039-5.904 6.656-9.981 8.461-7.532 3.336-15.1 4.485-23.19 5.57-.098 13.363 1.063 26.761 3.082 39.971 2.252-9.504 7.293-18.339 14.374-25.069 2.766-2.629 6.386-5.084 10.118-4.287 4.36.931 6.701 6.208 5.755 10.565-.944 4.357-4.28 7.799-7.855 10.464-6.784 5.056-14.117 7.871-22.002 10.805.282 1.749.573 3.496.882 5.238 1.7 9.558 3.84 19.075 6.5 28.441 2.335-9.222 7.3-17.774 14.198-24.33 2.766-2.629 6.385-5.084 10.118-4.287 4.36.931 6.701 6.208 5.756 10.566-.945 4.357-4.281 7.799-7.856 10.464-6.598 4.918-13.713 7.715-21.351 10.564 3.161 10.641 7.013 21.071 11.693 31.12.974 2.094-2.339 3.461-3.312 1.372-4.726-10.148-8.594-20.689-11.778-31.435-10.044 1.183-20.453-.712-29.454-5.398C1105.17 431.358 1101.651 428.721 1101.173 424.92zM386.824 208.001c-1.712-3.124-5.456-4.818-9.008-4.621-3.552.197-6.863 2.062-9.373 4.583-2.51 2.523-4.299 5.669-5.831 8.882-2.534 5.318-4.454 11.13-4.442 16.973-6.006-6.217-11.532-12.903-16.521-19.977-.454-.643-.896-1.295-1.341-1.944 5.279-3.191 10.557-6.381 15.834-9.572 3.521-2.129 7.133-4.337 9.606-7.627 2.473-3.291 3.569-7.967 1.589-11.58-1.712-3.124-5.456-4.817-9.008-4.62-3.552.197-6.863 2.061-9.372 4.583-2.51 2.522-4.299 5.669-5.831 8.882-2.614 5.485-4.577 11.498-4.436 17.525-5.295-8.018-9.917-16.477-13.799-25.265 5.224-3.438 10.447-6.876 15.671-10.314 3.437-2.263 6.961-4.608 9.306-7.991 2.345-3.384 3.261-8.097 1.144-11.633-1.83-3.056-5.637-4.605-9.178-4.271-3.541.333-6.779 2.324-9.19 4.94-2.411 2.616-4.079 5.83-5.486 9.1-2.253 5.235-3.918 10.913-3.81 16.563-2.662-6.42-4.94-13-6.793-19.701-.549-1.984-1.047-3.98-1.52-5.983 5.256-3.713 10.512-7.425 15.767-11.138 3.361-2.374 6.806-4.834 9.039-8.293 2.233-3.458 2.993-8.2.762-11.664-1.93-2.994-5.784-4.416-9.313-3.967-3.529.449-6.699 2.545-9.022 5.24-2.324 2.695-3.886 5.961-5.184 9.276-1.856 4.736-3.228 9.808-3.294 14.855-1.36-6.845-2.282-13.775-2.75-20.744 2.782-5.623 5.564-11.247 8.347-16.87 1.826-3.69 3.685-7.496 4.004-11.604.318-4.108-1.267-8.643-4.875-10.627-3.12-1.715-7.184-1.131-10.072.947-2.888 2.076-4.678 5.431-5.44 8.91-.762 3.479-.582 7.096-.148 10.632.799 6.515 2.565 13.143 6.498 18.351 0 .023-.004.043-.002.067.485 7.418 1.485 14.795 2.971 22.072-2.76-4.518-6.804-8.283-11.098-11.454-2.864-2.115-5.925-4.05-9.327-5.095-3.402-1.045-7.201-1.133-10.428.363-3.227 1.497-5.733 4.752-5.773 8.313-.046 4.12 3.122 7.73 6.854 9.471 3.732 1.741 7.958 1.99 12.067 2.212 6.258.338 12.517.676 18.775 1.014 2.083 8.85 4.888 17.529 8.367 25.933-3.873-4.008-8.974-6.83-14.183-8.943-3.298-1.338-6.742-2.452-10.296-2.619-3.553-.168-7.255.692-10.009 2.944-2.754 2.252-4.374 6.029-3.53 9.49.977 4.003 4.94 6.714 8.985 7.473 4.046.759 8.2-.049 12.235-.855 6.142-1.228 12.284-2.454 18.426-3.682.116.261.226.526.343.787 3.842 8.562 8.382 16.805 13.546 24.633-4.877-3.9-11.109-5.93-17.293-7.064-3.5-.642-7.097-1.035-10.61-.478-3.514.557-6.964 2.149-9.205 4.913-2.241 2.764-3.063 6.792-1.537 10.011 1.766 3.723 6.194 5.574 10.309 5.498 4.114-.077 8.019-1.71 11.806-3.318 5.951-2.526 11.903-5.052 17.854-7.578.073.108.149.216.223.323l-.069.17c.044-.027.087-.053.131-.079 5.152 7.533 10.895 14.658 17.183 21.28-5.406-1.498-11.271-1.375-16.876-.585-3.59.506-7.194 1.283-10.413 2.951-3.219 1.668-6.046 4.316-7.327 7.707-1.282 3.391-.787 7.547 1.721 10.166 2.9 3.029 7.776 3.394 11.73 1.997 3.955-1.397 7.207-4.232 10.354-7.003 4.47-3.936 8.941-7.872 13.411-11.808.155-.094.31-.187.464-.281 7.118 7.108 14.872 13.563 23.174 19.243.877.6 1.982-.655 1.093-1.262-8.161-5.584-15.785-11.916-22.792-18.872 5.007-3.027 10.015-6.054 15.022-9.08 3.521-2.129 7.133-4.337 9.606-7.627C387.709 216.29 388.804 211.615 386.824 208.001z" class="colorB4D2FA svgShape"></path><path fill="#326ab3" d="M1173.169,514.074c10.226-11.853,17.965-24.915,23.898-37.991c0.1-0.244,0.205-0.43,0.305-0.674
						c1.934-4.286,3.659-8.586,5.18-12.843c-7.261,0.683-12.735-2.11-17.147-6.964c8.191,2.711,15.221,0.506,21.178-6.209
						c0.245-0.284,0.455-0.655,0.547-1.017c3.128-10.975,5.149-21.306,6.473-30.253c0.01-0.268,0.051-0.507,0.092-0.747
						c2.2-15.524,2.209-26.654,2.208-29.081c0.004-0.327-0.008-0.503-0.008-0.503s-0.177,0.013-0.499,0.066
						c-3.515,0.495-25.85,3.888-52.268,14.894c-0.2,0.103-0.432,0.18-0.631,0.283c-7.291,3.083-14.897,6.722-22.481,11.04
						c-6.899,5.186-7.27,12.198-6.202,16.649c-2.893-3.103-4.507-6.535-3.429-10.788c-11.717,7.7-23.188,17.101-33.141,28.638
						c-0.273,0.316-0.573,0.664-0.814,1.007l-0.573,0.664c-5.114,6.118-9.612,12.548-13.536,19.142
						c-0.133,0.216-0.236,0.402-0.342,0.587c-27.246,45.963-27.528,98.759-27.469,104.379c-0.005,0.326,0.008,0.502,0.008,0.502
						s0.176-0.013,0.498-0.065c3.075-0.435,19.819-2.971,41.13-10.611c0.231-0.076,0.403-0.148,0.634-0.224
						c6.718-2.42,13.872-5.344,21.188-8.902c0.372-0.175,0.744-0.351,1.116-0.527c9.714-4.741,19.649-10.505,29.221-17.574
						c-3.143-2.877-5.662-5.325-5.662-5.325l14.387-1.593C1162.656,525.238,1168.124,519.922,1173.169,514.074z M1195.959,397.224
						c1.025-0.164,1.996,0.564,2.128,1.56c0.164,1.023-0.536,1.963-1.56,2.128c-1.024,0.164-1.964-0.537-2.128-1.56
						C1194.268,398.356,1194.936,397.388,1195.959,397.224z M1190.317,400.186c1.233,1.064,1.368,2.889,0.305,4.122
						c-1.063,1.233-2.916,1.399-4.15,0.335c-1.232-1.063-1.371-2.948-0.308-4.18
						C1187.228,399.229,1189.085,399.123,1190.317,400.186z M1134.116,438.426c0.854,0.736,0.917,2.005,0.181,2.858
						c-0.709,0.822-1.973,0.945-2.826,0.208c-0.853-0.736-0.917-2.004-0.208-2.826
						C1131.999,437.813,1133.263,437.69,1134.116,438.426z M1124.396,439.469c1.485,1.281,1.65,3.518,0.396,4.972
						c-1.282,1.486-3.519,1.651-5.004,0.37c-1.455-1.255-1.619-3.492-0.337-4.978
						C1120.704,438.379,1122.941,438.214,1124.396,439.469z M1197.571,465.657c0.411,0.355,0.454,0.943,0.1,1.354
						c-0.355,0.411-0.97,0.487-1.382,0.132c-0.41-0.354-0.427-0.975-0.072-1.386C1196.571,465.346,1197.16,465.303,1197.571,465.657
						z M1200.058,443.985c0.948,0.818,1.053,2.231,0.234,3.179c-0.818,0.948-2.231,1.052-3.179,0.234
						c-0.949-0.818-1.052-2.232-0.234-3.179C1197.697,443.271,1199.109,443.167,1200.058,443.985z M1192.564,448.326
						c0.379,0.327,0.455,0.943,0.1,1.354c-0.355,0.411-1.002,0.458-1.381,0.131c-0.411-0.355-0.459-1.001-0.104-1.413
						C1191.533,447.987,1192.153,447.971,1192.564,448.326z" class="color326AB3 svgShape"></path><path fill="#ffffff" d="M1169.961,476.572l9.45,12.564l-0.536,0.365l-9.744-12.927l-29.854,0.544l-22.797,26.425l33.784-0.242
						l0.016,0.621l-34.372,0.284l-39.513,45.802l42.689,4.518c-0.372,0.176-0.744,0.352-1.116,0.527l-27.087-2.858l5.899,11.76
						c-0.231,0.076-0.404,0.148-0.634,0.224l-6.07-12.073l-14.199-1.498l-21.106,24.465l-0.506-0.437l30.678-35.56l-2.322-20.251
						l0.675-0.08l2.22,19.667l21.215-24.591l-4.48-26.249c-4.682-4.095-14.486-12.607-20.271-17.598
						c0.106-0.185,0.21-0.371,0.342-0.587c6.132,5.29,16.599,14.375,19.732,17.133l-6.196-36.275l0.573-0.664l10.873,63.576
						l42.321-49.057l-6.546-18.934l0.607-0.193l6.43,18.559l17.943-20.799l-5.561-39.697c0.199-0.103,0.431-0.18,0.631-0.283
						l2.757,19.746c4.471-6.012,10.824-14.59,11.106-15.174l0.276,0.127l0.028-0.032l0.127-0.276l0.194,0.223
						c0.045,0.204,0.09,0.407-11.602,16.069l2.617,18.633l46.766-54.21c0.322-0.053,0.499-0.066,0.499-0.066
						s0.012,0.176,0.008,0.503l-36.704,42.546l34.496-13.465c-0.041,0.24-0.082,0.479-0.092,0.747l-35.33,13.793l-38.422,44.537
						l57.521-1.045c-0.1,0.244-0.205,0.43-0.305,0.674L1169.961,476.572z" class="colorFFF svgShape"></path><path fill="#326ab3" d="M349.785,251.295c-10.521-11.592-22.544-20.863-34.801-28.342c-0.23-0.129-0.402-0.256-0.632-0.385
						c-4.019-2.441-8.078-4.677-12.117-6.704c-0.205,7.29-3.643,12.383-8.998,16.172c3.688-7.8,2.354-15.046-3.586-21.776
						c-0.252-0.278-0.595-0.531-0.943-0.666c-10.513-4.44-20.521-7.703-29.241-10.105c-0.265-0.043-0.497-0.113-0.73-0.182
						c-15.141-4.073-26.187-5.435-28.596-5.73c-0.324-0.044-0.5-0.053-0.5-0.053s-0.009,0.177,0.005,0.503
						c0.064,3.55,0.715,26.131,8.424,53.692c0.078,0.211,0.126,0.45,0.204,0.661c2.173,7.612,4.859,15.604,8.222,23.657
						c4.308,7.479,11.223,8.7,15.771,8.181c-3.432,2.494-7.034,3.679-11.125,2.092c6.218,12.567,14.153,25.097,24.393,36.379
						c0.281,0.309,0.589,0.649,0.901,0.93l0.589,0.649c5.451,5.82,11.285,11.067,17.353,15.765c0.199,0.158,0.371,0.284,0.541,0.411
						c42.307,32.636,94.676,39.339,100.261,39.963c0.323,0.045,0.5,0.053,0.5,0.053s0.008-0.176-0.004-0.503
						c-0.058-3.105-0.538-20.033-5.528-42.115c-0.047-0.238-0.098-0.418-0.145-0.657c-1.584-6.962-3.617-14.419-6.258-22.113
						c-0.129-0.39-0.258-0.781-0.387-1.172c-3.524-10.218-8.036-20.781-13.888-31.143c-3.238,2.769-5.975,4.972-5.975,4.972
						l0.169-14.474C359.587,263.089,354.975,257.014,349.785,251.295z M236.576,214.458c-0.038-1.037,0.803-1.912,1.808-1.923
						c1.036-0.038,1.884,0.771,1.922,1.807c0.038,1.036-0.772,1.884-1.807,1.922C237.493,216.275,236.614,215.493,236.576,214.458z
						 M238.829,220.418c1.206-1.095,3.034-1.007,4.128,0.199c1.094,1.205,1.034,3.065-0.172,4.159
						c-1.205,1.094-3.093,1.003-4.187-0.203C237.504,223.369,237.624,221.512,238.829,220.418z M269.948,280.854
						c0.835-0.758,2.101-0.667,2.859,0.168c0.729,0.804,0.698,2.073-0.137,2.831c-0.834,0.757-2.101,0.666-2.83-0.137
						C269.082,282.881,269.113,281.612,269.948,280.854z M269.8,290.629c1.452-1.318,3.693-1.209,4.983,0.212
						c1.319,1.453,1.211,3.693-0.242,5.012c-1.423,1.291-3.663,1.182-4.982-0.271C268.27,294.161,268.378,291.92,269.8,290.629z
						 M304.696,221.184c0.402-0.365,0.992-0.336,1.356,0.065c0.365,0.402,0.365,1.022-0.037,1.388
						c-0.401,0.364-1.02,0.305-1.385-0.097C304.266,222.139,304.295,221.548,304.696,221.184z M283.488,216.079
						c0.927-0.842,2.342-0.773,3.184,0.154c0.841,0.927,0.773,2.343-0.154,3.184c-0.928,0.842-2.343,0.773-3.184-0.154
						C282.492,218.335,282.56,216.921,283.488,216.079z M286.885,224.045c0.371-0.336,0.991-0.336,1.356,0.066
						c0.365,0.402,0.333,1.051-0.038,1.387c-0.402,0.365-1.05,0.334-1.415-0.069C286.424,225.027,286.482,224.41,286.885,224.045z" class="color326AB3 svgShape"></path><path fill="#ffffff" d="M312.171,249.917l13.62-7.852l0.297,0.576l-14.017,8.098l-3.092,29.699l23.455,25.842l3.87-33.562
						l0.618,0.059l-3.9,34.152l40.654,44.792l9.678-41.822c0.13,0.39,0.259,0.781,0.387,1.172l-6.132,26.538l12.39-4.425
						c0.047,0.238,0.098,0.419,0.145,0.657l-12.721,4.556l-3.214,13.911l21.716,23.926l-0.495,0.449l-31.564-34.776l-20.383-0.16
						l0.003-0.679l19.791,0.19l-21.828-24.049l-26.599,1.253c-4.634,4.15-14.276,12.845-19.933,17.98
						c-0.171-0.128-0.343-0.254-0.541-0.411c5.997-5.443,16.287-14.726,19.407-17.501l-36.759,1.737l-0.589-0.649l64.426-3.057
						l-43.544-47.975l-19.59,4.193l-0.118-0.626l19.203-4.124l-18.462-20.34l-40.078,0.69c-0.078-0.21-0.126-0.45-0.204-0.661
						l19.935-0.334c-5.424-5.169-13.165-12.519-13.71-12.87l0.16-0.258l-0.028-0.031l-0.258-0.16l0.245-0.166
						c0.208-0.02,0.415-0.04,14.538,13.471l18.812-0.331l-48.117-53.014c-0.014-0.326-0.005-0.503-0.005-0.503
						s0.176,0.009,0.5,0.053l37.764,41.608l-9.168-35.878c0.233,0.07,0.466,0.14,0.73,0.182l9.392,36.746l39.532,43.555
						l5.961-57.221c0.23,0.129,0.402,0.256,0.632,0.385L312.171,249.917z" class="colorFFF svgShape"></path><path fill="#b4d2fa" d="M1179.303,625.254c14.72-5.327,27.865-12.924,39.441-21.42c0.207-0.164,0.39-0.274,0.596-0.438
						c3.785-2.79,7.395-5.694,10.806-8.66c-6.665-2.96-10.07-8.076-11.539-14.469c5.814,6.375,13.023,7.895,21.506,4.958
						c0.353-0.128,0.717-0.348,0.974-0.619c8.102-8.037,14.923-16.054,20.459-23.207c0.14-0.229,0.293-0.417,0.446-0.606
						c9.521-12.458,14.979-22.157,16.167-24.273c0.164-0.283,0.239-0.443,0.239-0.443s-0.161-0.075-0.467-0.186
						c-3.307-1.29-24.442-9.269-52.865-12.612c-0.225-0.008-0.464-0.055-0.689-0.062c-7.867-0.883-16.28-1.435-25.007-1.385
						c-8.555,1.142-12.312,7.075-13.56,11.478c-1.003-4.122-0.73-7.905,2.293-11.085c-13.987,0.976-28.592,3.554-42.92,8.738
						c-0.393,0.142-0.824,0.298-1.203,0.479l-0.824,0.298c-7.455,2.83-14.525,6.232-21.176,10.06
						c-0.221,0.124-0.403,0.235-0.586,0.344c-46.265,26.73-72.367,72.623-75.067,77.552c-0.164,0.281-0.239,0.442-0.239,0.442
						s0.16,0.074,0.467,0.187c2.894,1.127,18.734,7.116,41.056,10.892c0.239,0.047,0.424,0.069,0.663,0.116
						c7.042,1.18,14.712,2.134,22.833,2.615c0.41,0.029,0.821,0.058,1.231,0.087c10.791,0.623,22.276,0.464,34.084-1.011
						c-1.331-4.047-2.329-7.416-2.329-7.416l13.324,5.657C1164.669,629.839,1172.041,627.882,1179.303,625.254z M1256.399,534.537
						c0.974,0.359,1.464,1.469,1.091,2.403c-0.358,0.973-1.429,1.449-2.402,1.091c-0.973-0.359-1.45-1.43-1.091-2.402
						C1254.37,534.696,1255.426,534.179,1256.399,534.537z M1250.029,534.356c0.554,1.532-0.222,3.189-1.753,3.743
						c-1.531,0.554-3.228-0.208-3.782-1.74c-0.554-1.53,0.248-3.242,1.779-3.796
						C1247.804,532.009,1249.475,532.826,1250.029,534.356z M1182.301,540.173c0.384,1.06-0.182,2.197-1.241,2.58
						c-1.021,0.369-2.183-0.142-2.566-1.203c-0.383-1.06,0.182-2.196,1.203-2.566
						C1180.756,538.602,1181.918,539.114,1182.301,540.173z M1173.316,536.322c0.667,1.845-0.285,3.876-2.09,4.529
						c-1.845,0.668-3.876-0.284-4.544-2.128c-0.654-1.806,0.298-3.838,2.143-4.505
						C1170.631,533.564,1172.662,534.516,1173.316,536.322z M1224.29,594.991c0.185,0.511-0.066,1.045-0.576,1.229
						c-0.511,0.185-1.084-0.051-1.269-0.562c-0.184-0.51,0.106-1.059,0.616-1.244C1223.57,594.23,1224.105,594.481,1224.29,594.991z
						 M1237.072,577.314c0.426,1.178-0.175,2.461-1.353,2.887c-1.177,0.426-2.461-0.175-2.887-1.353
						c-0.426-1.178,0.176-2.461,1.353-2.887C1235.363,575.535,1236.645,576.136,1237.072,577.314z M1228.412,577.429
						c0.17,0.471-0.066,1.045-0.576,1.229c-0.51,0.185-1.098-0.091-1.268-0.562c-0.185-0.511,0.09-1.098,0.601-1.283
						C1227.679,576.629,1228.227,576.918,1228.412,577.429z" class="colorB4D2FA svgShape"></path><path fill="#ffffff" d="M1194.872,590.986l2.087,15.582l-0.646,0.056l-2.164-16.043l-26.296-14.146l-32.817,11.875
						l29.573,16.334l-0.29,0.55l-30.107-16.586l-56.881,20.582l35.006,24.845c-0.41-0.028-0.821-0.058-1.231-0.087l-22.217-15.757
						l-0.616,13.142c-0.239-0.047-0.424-0.069-0.663-0.116l0.62-13.498l-11.646-8.26l-30.383,10.994l-0.228-0.629l44.162-15.98
						l7.894-18.793l0.627,0.261l-7.696,18.234l30.54-11.051l8.949-25.08c-2.077-5.863-6.456-18.086-9.056-25.27
						c0.183-0.109,0.365-0.221,0.586-0.344c2.756,7.616,7.432,20.662,8.813,24.602l12.363-34.662l0.824-0.298l-21.656,60.755
						l60.923-22.045l3.566-19.714l0.624,0.129l-3.483,19.33l25.83-9.347l14.593-37.334c0.224,0.008,0.464,0.054,0.689,0.062
						l-7.267,18.566c6.842-3.052,16.583-7.42,17.115-7.79l0.178,0.246l0.04-0.014l0.246-0.178l0.06,0.289
						c-0.061,0.2-0.121,0.399-17.985,8.328l-6.843,17.527l67.323-24.361c0.306,0.111,0.467,0.186,0.467,0.186
						s-0.076,0.16-0.239,0.443l-52.837,19.119l36.67,5.154c-0.153,0.189-0.306,0.378-0.446,0.606l-37.558-5.277l-55.311,20.014
						l50.663,27.26c-0.207,0.164-0.389,0.275-0.596,0.438L1194.872,590.986z" class="colorFFF svgShape"></path><path fill="#868ab5" d="M1226.351,771.909H226.734c-3.81,0-6.899,3.088-6.899,6.898v24.946
							c0,8.629,6.995,15.624,15.624,15.624h983.608c8.63,0,15.624-6.995,15.624-15.624v-23.504
							C1234.691,775.643,1230.957,771.909,1226.351,771.909z" class="color868AB5 svgShape"></path><path fill="#c8cbe3" d="M1219.692,786.147H234.839c-8.108,0-17.519-6.548-14.387-10.107l138.831-157.858
										c1.333-1.517,3.597-2.355,6.361-2.355h723.175c2.763,0,5.029,0.838,6.362,2.355l138.893,157.858
										C1237.207,779.6,1227.8,786.147,1219.692,786.147z" class="colorC8CBE3 svgShape"></path><path fill="#aaaecf" d="M447.619 643.322h-35.281c-3.67 0-7.564 1.349-8.701 3.023l-9.1 13.403c-1.206 1.779.905 3.23 4.724 3.23h36.694c3.819 0 7.755-1.451 8.787-3.23l7.773-13.403C453.486 644.671 451.291 643.322 447.619 643.322zM393.946 733.771h-41.783c-4.349 0-9.159 1.893-10.756 4.245l-12.856 18.939c-1.717 2.526.577 4.591 5.132 4.591h43.78c4.557 0 9.448-2.065 10.913-4.591l10.981-18.939C400.722 735.664 398.295 733.771 393.946 733.771zM463.667 733.771h-41.782c-4.349 0-8.933 1.893-10.246 4.245l-10.584 18.939c-1.413 2.526 1.128 4.591 5.684 4.591h43.779c4.558 0 9.2-2.065 10.362-4.591l8.71-18.939C470.672 735.664 468.018 733.771 463.667 733.771zM857.619 733.771h-41.782c-4.349 0-7.648 1.893-7.369 4.245l2.253 18.939c.3 2.526 4.24 4.591 8.796 4.591h43.779c4.558 0 7.802-2.065 7.249-4.591l-4.125-18.939C865.906 735.664 861.967 733.771 857.619 733.771zM929.247 733.771h-41.782c-4.349 0-7.416 1.893-6.846 4.245l4.587 18.939c.612 2.526 4.805 4.591 9.362 4.591h43.779c4.557 0 7.548-2.065 6.683-4.591l-6.461-18.939C937.768 735.664 933.596 733.771 929.247 733.771zM1000.875 733.771h-41.784c-4.349 0-7.182 1.893-6.321 4.245l6.919 18.939c.924 2.526 5.372 4.591 9.931 4.591h43.779c4.555 0 7.291-2.065 6.117-4.591l-8.794-18.939C1009.628 735.664 1005.223 733.771 1000.875 733.771zM1117.637 733.771h-81.283c-8.46 0-14.399 1.893-13.258 4.245l9.197 18.939c1.226 2.526 9.414 4.591 18.278 4.591h85.166c8.867 0 14.651-2.065 12.937-4.591l-12.841-18.939C1134.238 735.664 1126.097 733.771 1117.637 733.771zM511.961 643.322h-35.28c-3.672 0-7.387 1.349-8.305 3.023l-7.341 13.403c-.974 1.779 1.326 3.23 5.147 3.23h36.692c3.819 0 7.566-1.451 8.364-3.23l6.015-13.403C518.003 644.671 515.633 643.322 511.961 643.322zM518.035 667.952h-37.441c-3.897 0-7.826 1.518-8.783 3.405l-7.676 15.13c-1.021 2.012 1.44 3.654 5.504 3.654h39.03c4.062 0 8.024-1.642 8.847-3.654l6.184-15.13C524.47 669.471 521.933 667.952 518.035 667.952zM587 667.952H549.56c-3.898 0-7.628 1.518-8.336 3.405l-5.68 15.13c-.754 2.012 1.921 3.654 5.985 3.654h39.03c4.062 0 7.81-1.642 8.365-3.654l4.189-15.13C593.636 669.471 590.899 667.952 587 667.952zM655.967 667.952h-37.442c-3.896 0-7.424 1.518-7.884 3.405l-3.686 15.13c-.489 2.012 2.406 3.654 6.466 3.654h39.031c4.062 0 7.592-1.642 7.884-3.654l2.193-15.13C662.802 669.471 659.864 667.952 655.967 667.952zM724.932 667.952h-37.443c-3.895 0-7.224 1.518-7.434 3.405l-1.691 15.13c-.224 2.012 2.885 3.654 6.947 3.654h39.031c4.062 0 7.378-1.642 7.403-3.654l.198-15.13C731.967 669.471 728.829 667.952 724.932 667.952zM793.896 667.952h-37.44c-3.897 0-7.026 1.518-6.987 3.405l.304 15.13c.041 2.012 3.367 3.654 7.429 3.654h39.032c4.061 0 7.159-1.642 6.919-3.654l-1.797-15.13C801.134 669.471 797.795 667.952 793.896 667.952zM862.864 667.952h-37.443c-3.898 0-6.825 1.518-6.539 3.405l2.301 15.13c.307 2.012 3.85 3.654 7.91 3.654h39.032c4.061 0 6.942-1.642 6.44-3.654l-3.794-15.13C870.3 669.471 866.761 667.952 862.864 667.952zM931.829 667.952h-37.443c-3.896 0-6.625 1.518-6.089 3.405l4.295 15.13c.572 2.012 4.332 3.654 8.392 3.654h39.029c4.064 0 6.731-1.642 5.96-3.654l-5.789-15.13C939.466 669.471 935.724 667.952 931.829 667.952zM1000.794 667.952h-37.443c-3.897 0-6.422 1.518-5.638 3.405l6.292 15.13c.836 2.012 4.812 3.654 8.875 3.654h39.027c4.063 0 6.511-1.642 5.479-3.654l-7.784-15.13C1008.632 669.471 1004.691 667.952 1000.794 667.952zM530.487 699.865h-39.344c-4.096 0-8.197 1.678-9.17 3.762l-7.804 16.748c-1.041 2.229 1.579 4.05 5.858 4.05h41.111c4.279 0 8.416-1.822 9.234-4.05l6.148-16.748C537.286 701.543 534.583 699.865 530.487 699.865zM597.578 699.865h-39.346c-4.094 0-7.991 1.678-8.707 3.762l-5.753 16.748c-.766 2.229 2.076 4.05 6.355 4.05h41.111c4.28 0 8.193-1.822 8.739-4.05l4.095-16.748C604.582 701.543 601.673 699.865 597.578 699.865zM664.667 699.865h-39.344c-4.095 0-7.785 1.678-8.246 3.762l-3.702 16.748c-.492 2.229 2.574 4.05 6.854 4.05h41.11c4.278 0 7.969-1.822 8.241-4.05l2.042-16.748C671.878 701.543 668.763 699.865 664.667 699.865zM731.758 699.865h-39.345c-4.097 0-7.581 1.678-7.785 3.762l-1.648 16.748c-.22 2.229 3.071 4.05 7.349 4.05h41.11c4.278 0 7.747-1.822 7.745-4.05l-.01-16.748C739.172 701.543 735.854 699.865 731.758 699.865zM798.846 699.865h-39.344c-4.096 0-7.375 1.678-7.324 3.762l.407 16.748c.053 2.229 3.565 4.05 7.845 4.05h41.109c4.28 0 7.524-1.822 7.248-4.05l-2.062-16.748C806.467 701.543 802.942 699.865 798.846 699.865zM865.937 699.865h-39.346c-4.093 0-7.168 1.678-6.861 3.762l2.457 16.748c.328 2.229 4.065 4.05 8.343 4.05h41.111c4.278 0 7.299-1.822 6.752-4.05l-4.116-16.748C873.764 701.543 870.032 699.865 865.937 699.865zM933.026 699.865h-39.344c-4.095 0-6.962 1.678-6.401 3.762l4.512 16.748c.6 2.229 4.558 4.05 8.837 4.05h41.111c4.279 0 7.077-1.822 6.256-4.05l-6.169-16.748C941.06 701.543 937.122 699.865 933.026 699.865zM1000.116 699.865h-39.345c-4.094 0-6.756 1.678-5.939 3.762l6.563 16.748c.874 2.229 5.057 4.05 9.336 4.05h41.111c4.278 0 6.852-1.822 5.757-4.05l-8.221-16.748C1008.356 701.543 1004.212 699.865 1000.116 699.865zM576.3 643.322h-35.279c-3.673 0-7.211 1.349-7.908 3.023l-5.584 13.403c-.741 1.779 1.75 3.23 5.568 3.23h36.695c3.818 0 7.375-1.451 7.941-3.23l4.258-13.403C582.522 644.671 579.973 643.322 576.3 643.322zM640.641 643.322h-35.28c-3.67 0-7.033 1.349-7.512 3.023l-3.827 13.403c-.507 1.779 2.175 3.23 5.993 3.23h36.694c3.819 0 7.185-1.451 7.517-3.23l2.499-13.403C647.038 644.671 644.314 643.322 640.641 643.322zM704.983 643.322h-35.281c-3.672 0-6.857 1.349-7.115 3.023l-2.071 13.403c-.273 1.779 2.597 3.23 6.417 3.23h36.693c3.819 0 6.995-1.451 7.095-3.23l.743-13.403C711.556 644.671 708.655 643.322 704.983 643.322zM769.322 643.322h-35.278c-3.674 0-6.681 1.349-6.719 3.023l-.313 13.403c-.042 1.779 3.021 3.23 6.84 3.23h36.694c3.819 0 6.805-1.451 6.669-3.23l-1.015-13.403C776.075 644.671 772.995 643.322 769.322 643.322zM833.664 643.322h-35.28c-3.673 0-6.502 1.349-6.323 3.023l1.446 13.403c.192 1.779 3.444 3.23 7.263 3.23h36.693c3.819 0 6.615-1.451 6.247-3.23l-2.772-13.403C840.592 644.671 837.337 643.322 833.664 643.322zM898.005 643.322h-35.281c-3.672 0-6.327 1.349-5.926 3.023l3.202 13.403c.425 1.779 3.869 3.23 7.687 3.23h36.695c3.819 0 6.424-1.451 5.821-3.23l-4.529-13.403C905.109 644.671 901.677 643.322 898.005 643.322zM962.347 643.322h-35.281c-3.672 0-6.15 1.349-5.531 3.023l4.96 13.403c.659 1.779 4.291 3.23 8.111 3.23h36.692c3.819 0 6.234-1.451 5.401-3.23l-6.287-13.403C969.627 644.671 966.017 643.322 962.347 643.322zM1059.047 643.322h-66.704c-6.944 0-11.91 1.349-11.087 3.023l6.581 13.403c.874 1.779 7.44 3.23 14.66 3.23h69.377c7.222 0 12.091-1.451 10.886-3.23l-9.091-13.403C1072.533 644.671 1065.992 643.322 1059.047 643.322zM1097.858 699.865h-64.23c-6.685 0-11.236 1.678-10.161 3.762l8.651 16.748c1.15 2.229 7.755 4.05 14.738 4.05h67.111c6.986 0 11.413-1.822 9.9-4.05l-11.355-16.748C1111.099 701.543 1104.542 699.865 1097.858 699.865zM1082.476 667.952h-50.583c-5.267 0-8.71 1.518-7.688 3.405l8.204 15.13c1.09 2.012 6.427 3.654 11.916 3.654h52.73c5.489 0 8.828-1.642 7.471-3.654l-10.218-15.13C1093.035 669.471 1087.74 667.952 1082.476 667.952zM457.388 668.062h-66.159c-3.326 0-7.208 1.754-8.685 3.939l-9.334 13.806c-1.566 2.32-.041 4.216 3.425 4.216h68.937c3.463 0 7.27-1.897 8.492-4.216l7.267-13.806C462.483 669.817 460.713 668.062 457.388 668.062zM465.049 699.097h-89.112c-4.479 0-9.422 1.935-11.056 4.338l-10.338 15.229c-1.739 2.565.63 4.66 5.305 4.66h93.065c4.675 0 9.486-2.095 10.731-4.66l7.405-15.229C472.218 701.032 469.529 699.097 465.049 699.097zM778.5 733.771H506.721c-5.541 0-11.038 2.414-12.292 5.419l-6.879 16.518c-1.339 3.21 2.272 5.838 8.079 5.838h284.766c5.807 0 10.289-2.628 10.014-5.838l-1.412-16.518C788.737 736.186 784.04 733.771 778.5 733.771z" class="colorAAAECF svgShape"></path><g fill="#000000" class="color000 svgShape"><path fill="#ffffff" d="M442.623 635.457h-35.489c-3.694 0-7.603 1.364-8.742 3.059l-9.097 13.562c-1.208 1.799.921 3.266 4.762 3.266h36.908c3.841 0 7.797-1.467 8.827-3.266l7.767-13.562C448.529 636.821 446.318 635.457 442.623 635.457zM388.996 726.947h-42.014c-4.373 0-9.202 1.914-10.798 4.293l-12.846 19.146c-1.712 2.555.602 4.642 5.182 4.642h44.017c4.583 0 9.49-2.088 10.953-4.642l10.966-19.146C395.817 728.861 393.368 726.947 388.996 726.947zM459.104 726.947h-42.013c-4.374 0-8.975 1.914-10.287 4.293l-10.567 19.146c-1.41 2.555 1.152 4.642 5.734 4.642h44.016c4.583 0 9.243-2.088 10.4-4.642l8.688-19.146C466.154 728.861 463.477 726.947 459.104 726.947zM855.239 726.947h-42.015c-4.373 0-7.687 1.914-7.4 4.293l2.305 19.146c.309 2.555 4.273 4.642 8.854 4.642h44.017c4.582 0 7.838-2.088 7.281-4.642l-4.187-19.146C863.574 728.861 859.61 726.947 855.239 726.947zM927.261 726.947h-42.013c-4.373 0-7.453 1.914-6.877 4.293l4.647 19.146c.619 2.555 4.842 4.642 9.422 4.642h44.016c4.583 0 7.584-2.088 6.713-4.642l-6.525-19.146C935.831 728.861 931.636 726.947 927.261 726.947zM999.286 726.947h-42.014c-4.373 0-7.219 1.914-6.352 4.293l6.986 19.146c.933 2.555 5.409 4.642 9.99 4.642h44.016c4.58 0 7.329-2.088 6.146-4.642l-8.867-19.146C1008.092 728.861 1003.659 726.947 999.286 726.947zM1116.695 726.947h-81.733c-8.506 0-14.477 1.914-13.325 4.293l9.268 19.146c1.236 2.555 9.471 4.642 18.385 4.642h85.627c8.912 0 14.728-2.088 13.003-4.642l-12.924-19.146C1133.39 728.861 1125.201 726.947 1116.695 726.947zM507.346 635.457h-35.49c-3.693 0-7.426 1.364-8.342 3.059l-7.334 13.562c-.975 1.799 1.345 3.266 5.186 3.266h36.909c3.841 0 7.604-1.467 8.401-3.266l6.005-13.562C513.431 636.821 511.04 635.457 507.346 635.457zM516.966 660.712h-37.651c-3.92 0-7.869 1.536-8.829 3.446l-7.701 15.297c-1.025 2.034 1.452 3.693 5.535 3.693h39.246c4.084 0 8.067-1.659 8.892-3.693l6.207-15.297C523.437 662.248 520.885 660.712 516.966 660.712zM586.316 660.712h-37.65c-3.919 0-7.668 1.536-8.379 3.446l-5.7 15.297c-.757 2.034 1.935 3.693 6.019 3.693h39.244c4.086 0 7.852-1.659 8.41-3.693l4.205-15.297C592.99 662.248 590.234 660.712 586.316 660.712zM655.666 660.712h-37.65c-3.919 0-7.468 1.536-7.929 3.446l-3.698 15.297c-.493 2.034 2.418 3.693 6.503 3.693h39.244c4.083 0 7.634-1.659 7.926-3.693l2.203-15.297C662.54 662.248 659.585 660.712 655.666 660.712zM725.016 660.712h-37.65c-3.919 0-7.265 1.536-7.477 3.446l-1.696 15.297c-.228 2.034 2.901 3.693 6.984 3.693h39.245c4.085 0 7.417-1.659 7.445-3.693l.2-15.297C732.093 662.248 728.935 660.712 725.016 660.712zM794.368 660.712h-37.652c-3.92 0-7.065 1.536-7.027 3.446l.305 15.297c.042 2.034 3.386 3.693 7.469 3.693h39.244c4.086 0 7.2-1.659 6.961-3.693l-1.801-15.297C801.643 662.248 798.286 660.712 794.368 660.712zM863.717 660.712h-37.65c-3.918 0-6.864 1.536-6.576 3.446l2.306 15.297c.306 2.034 3.868 3.693 7.953 3.693h39.244c4.085 0 6.983-1.659 6.478-3.693l-3.805-15.297C871.195 662.248 867.636 660.712 863.717 660.712zM933.067 660.712h-37.652c-3.917 0-6.66 1.536-6.123 3.446l4.307 15.297c.574 2.034 4.351 3.693 8.437 3.693h39.243c4.083 0 6.766-1.659 5.994-3.693l-5.803-15.297C940.745 662.248 936.986 660.712 933.067 660.712zM1002.417 660.712h-37.649c-3.92 0-6.463 1.536-5.677 3.446l6.31 15.297c.837 2.034 4.833 3.693 8.919 3.693h39.244c4.085 0 6.548-1.659 5.512-3.693l-7.806-15.297C1010.296 662.248 1006.336 660.712 1002.417 660.712zM526.178 692.659h-39.57c-4.119 0-8.237 1.696-9.205 3.806l-7.79 16.936c-1.036 2.255 1.604 4.095 5.906 4.095h41.341c4.302 0 8.457-1.84 9.273-4.095l6.126-16.936C533.022 694.355 530.295 692.659 526.178 692.659zM593.65 692.659h-39.57c-4.117 0-8.029 1.696-8.744 3.806l-5.729 16.936c-.763 2.255 2.103 4.095 6.405 4.095h41.342c4.301 0 8.23-1.84 8.772-4.095l4.068-16.936C600.698 694.355 597.768 692.659 593.65 692.659zM661.121 692.659h-39.569c-4.119 0-7.825 1.696-8.281 3.806l-3.67 16.936c-.488 2.255 2.599 4.095 6.902 4.095h41.34c4.302 0 8.01-1.84 8.276-4.095l2.008-16.936C668.378 694.355 665.238 692.659 661.121 692.659zM728.592 692.659h-39.568c-4.118 0-7.617 1.696-7.819 3.806l-1.612 16.936c-.213 2.255 3.099 4.095 7.402 4.095h41.34c4.303 0 7.785-1.84 7.777-4.095l-.052-16.936C736.056 694.355 732.712 692.659 728.592 692.659zM796.065 692.659h-39.57c-4.117 0-7.41 1.696-7.355 3.806l.449 16.936c.058 2.255 3.596 4.095 7.898 4.095h41.341c4.303 0 7.56-1.84 7.279-4.095l-2.111-16.936C803.734 694.355 800.184 692.659 796.065 692.659zM863.538 692.659h-39.57c-4.118 0-7.206 1.696-6.893 3.806l2.509 16.936c.333 2.255 4.094 4.095 8.396 4.095h41.342c4.302 0 7.337-1.84 6.781-4.095l-4.17-16.936C871.412 694.355 867.655 692.659 863.538 692.659zM931.009 692.659h-39.568c-4.12 0-7.001 1.696-6.432 3.806l4.566 16.936c.609 2.255 4.594 4.095 8.896 4.095h41.34c4.303 0 7.114-1.84 6.284-4.095l-6.231-16.936C939.089 694.355 935.127 692.659 931.009 692.659zM998.479 692.659h-39.569c-4.116 0-6.794 1.696-5.968 3.806l6.627 16.936c.882 2.255 5.091 4.095 9.392 4.095h41.341c4.302 0 6.888-1.84 5.787-4.095l-8.291-16.936C1006.768 694.355 1002.598 692.659 998.479 692.659zM572.069 635.457h-35.489c-3.695 0-7.249 1.364-7.946 3.059l-5.57 13.562c-.74 1.799 1.77 3.266 5.613 3.266h36.908c3.841 0 7.414-1.467 7.977-3.266l4.24-13.562C578.332 636.821 575.763 635.457 572.069 635.457zM636.794 635.457h-35.49c-3.694 0-7.071 1.364-7.546 3.059l-3.809 13.562c-.503 1.799 2.197 3.266 6.038 3.266h36.909c3.841 0 7.224-1.467 7.552-3.266l2.477-13.562C643.233 636.821 640.488 635.457 636.794 635.457zM701.517 635.457h-35.49c-3.694 0-6.893 1.364-7.149 3.059l-2.044 13.562c-.272 1.799 2.622 3.266 6.465 3.266h36.909c3.839 0 7.03-1.467 7.124-3.266l.713-13.562C708.135 636.821 705.21 635.457 701.517 635.457zM766.241 635.457h-35.489c-3.695 0-6.719 1.364-6.752 3.059l-.282 13.562c-.036 1.799 3.048 3.266 6.889 3.266h36.909c3.841 0 6.841-1.467 6.702-3.266l-1.051-13.562C773.034 636.821 769.936 635.457 766.241 635.457zM830.964 635.457h-35.49c-3.692 0-6.539 1.364-6.353 3.059l1.483 13.562c.198 1.799 3.472 3.266 7.314 3.266h36.909c3.841 0 6.649-1.467 6.276-3.266l-2.815-13.562C837.935 636.821 834.658 635.457 830.964 635.457zM895.688 635.457h-35.491c-3.693 0-6.36 1.364-5.955 3.059l3.248 13.562c.429 1.799 3.895 3.266 7.736 3.266h36.909c3.841 0 6.46-1.467 5.851-3.266l-4.578-13.562C902.837 636.821 899.38 635.457 895.688 635.457zM960.411 635.457h-35.489c-3.695 0-6.186 1.364-5.558 3.059l5.011 13.562c.665 1.799 4.321 3.266 8.162 3.266h36.909c3.841 0 6.268-1.467 5.427-3.266l-6.344-13.562C967.737 636.821 964.106 635.457 960.411 635.457zM1057.688 635.457h-67.103c-6.983 0-11.976 1.364-11.147 3.059l6.639 13.562c.879 1.799 7.487 3.266 14.749 3.266h69.784c7.262 0 12.16-1.467 10.945-3.266l-9.157-13.562C1071.256 636.821 1064.672 635.457 1057.688 635.457zM1096.776 692.659h-64.593c-6.724 0-11.3 1.696-10.215 3.806l8.718 16.936c1.162 2.255 7.804 4.095 14.826 4.095h67.486c7.024 0 11.474-1.84 9.952-4.095l-11.433-16.936C1110.096 694.355 1103.499 692.659 1096.776 692.659zM1078.408 660.712h-45.594c-4.745 0-7.821 1.536-6.865 3.446l7.665 15.297c1.019 2.034 5.86 3.693 10.805 3.693h47.525c4.947 0 7.927-1.659 6.668-3.693l-9.477-15.297C1087.952 662.248 1083.154 660.712 1078.408 660.712zM455.981 660.824h-66.529c-3.343 0-7.246 1.777-8.728 3.986l-9.364 13.957c-1.574 2.346-.035 4.261 3.448 4.261h69.315c3.484 0 7.309-1.915 8.534-4.261l7.295-13.957C461.107 662.601 459.325 660.824 455.981 660.824zM460.365 691.883h-89.621c-4.504 0-9.469 1.956-11.1 4.389l-10.333 15.402c-1.737 2.593.653 4.711 5.356 4.711h93.584c4.703 0 9.531-2.118 10.774-4.711l7.39-15.402C467.581 693.839 464.869 691.883 460.365 691.883zM775.681 726.947H502.396c-5.572 0-11.092 2.441-12.339 5.48l-6.861 16.699c-1.333 3.244 2.309 5.902 8.145 5.902h286.307c5.839 0 10.339-2.657 10.056-5.902l-1.458-16.699C785.981 729.388 781.25 726.947 775.681 726.947z" class="colorFFF svgShape"></path></g><g fill="#000000" class="color000 svgShape"><path fill="#b5bdff" d="M1076.119,163.471v416.463c0,6.316-5.008,11.435-11.199,11.435H389.508
											c-6.191,0-11.213-5.119-11.213-11.435V163.471c0-6.315,5.022-11.435,11.213-11.435h675.412
											C1071.111,152.036,1076.119,157.156,1076.119,163.471z" class="colorB5BDFF svgShape"></path><path fill="#999999" d="M714.851,133.29c0-7.307,5.923-13.229,13.227-13.229c7.307,0,13.23,5.923,13.23,13.229
											c0,7.307-5.923,13.228-13.23,13.228C720.774,146.519,714.851,140.597,714.851,133.29z" class="color999 svgShape"></path><path fill="#868ab5" d="M1090.465,621.741H365.693c-4.52,0-8.186-3.665-8.186-8.186l0,0c0-4.52,3.665-8.187,8.186-8.187
											h724.772c4.521,0,8.184,3.666,8.184,8.187l0,0C1098.65,618.076,1094.986,621.741,1090.465,621.741z" class="color868AB5 svgShape"></path><path fill="#8287ab" d="M1084.828,112.822H367.375c-5.898,0-10.683,4.785-10.683,10.684v471.174
											c0,5.898,4.785,10.683,10.683,10.683h717.453c5.897,0,10.683-4.785,10.683-10.683V123.506
											C1095.511,117.607,1090.725,112.822,1084.828,112.822z M1076.119,579.934c0,6.316-5.008,11.435-11.199,11.435H389.508
											c-6.191,0-11.213-5.119-11.213-11.435V163.471c0-6.315,5.022-11.435,11.213-11.435h675.412
											c6.191,0,11.199,5.12,11.199,11.435V579.934z" class="color8287AB svgShape"></path><path fill="#ffffff" d="M757.314,133.29c0,7.503-6.086,13.599-13.6,13.599c-7.515,0-13.601-6.096-13.601-13.599
													c0-7.515,6.086-13.601,13.601-13.601C751.228,119.689,757.314,125.776,757.314,133.29z" class="colorFFF svgShape"></path><path fill="#8287ab" d="M734.049,133.286c0-5.338,4.327-9.665,9.664-9.665c5.338,0,9.665,4.327,9.665,9.665
													c0,5.337-4.327,9.663-9.665,9.663C738.375,142.949,734.049,138.623,734.049,133.286z" class="color8287AB svgShape"></path><path fill="#ffffff" d="M739.109,129.508c0-1.271,1.03-2.301,2.301-2.301c1.271,0,2.302,1.03,2.302,2.301
												c0,1.271-1.031,2.301-2.302,2.301C740.139,131.809,739.109,130.779,739.109,129.508z" class="colorFFF svgShape"></path><g fill="#000000" class="color000 svgShape"><path fill="#ffffff" d="M1082.061,163.548v419.311c0,6.35-5.107,11.505-11.399,11.505H383.184
												c-6.291,0-11.412-5.155-11.412-11.505V163.548c0-6.351,5.121-11.518,11.412-11.518h687.478
												C1076.954,152.03,1082.061,157.197,1082.061,163.548z" class="colorFFF svgShape"></path><path fill="#d3dcf0" d="M1082.061,163.548v34.274H371.773v-34.274c0-6.351,5.121-11.518,11.412-11.518h687.478
									C1076.954,152.03,1082.061,157.197,1082.061,163.548z" class="colorD3DCF0 svgShape"></path><path fill="#ffffff" d="M952.354 161.919H418.083c-11.724 0-21.227 5.667-21.227 12.657l0 0c0 6.99 9.504 12.657 21.227 12.657h534.271c11.723 0 21.227-5.666 21.227-12.657l0 0C973.581 167.586 964.077 161.919 952.354 161.919zM1032.247 187.233h-34.765c-7.067 0-12.796-5.666-12.796-12.657l0 0c0-6.99 5.729-12.657 12.796-12.657h34.765c7.067 0 12.795 5.667 12.795 12.657l0 0C1045.042 181.566 1039.314 187.233 1032.247 187.233z" class="colorFFF svgShape"></path><path fill="#d3dcf0" d="M1023.205,180.683l-5.638-3.91c-0.065-0.045-0.135-0.081-0.205-0.114
									c0.531-1,0.834-2.136,0.834-3.341c0-3.983-3.276-7.224-7.303-7.224c-4.027,0-7.303,3.241-7.303,7.224
									c0,3.983,3.276,7.224,7.303,7.224c1.835,0,3.51-0.678,4.794-1.788c0.081,0.1,0.172,0.194,0.283,0.271l5.638,3.91
									c0.314,0.218,0.689,0.29,1.039,0.229c0.35-0.061,0.678-0.255,0.898-0.566
									C1023.986,181.977,1023.834,181.119,1023.205,180.683z M1010.893,178.479c-2.877,0-5.216-2.314-5.216-5.16
									c0-2.845,2.34-5.16,5.216-5.16c2.877,0,5.217,2.314,5.217,5.16C1016.109,176.164,1013.77,178.479,1010.893,178.479z" class="colorD3DCF0 svgShape"></path><path fill="#ffffff" d="M1060.494 166.218c0-1.583 1.297-2.866 2.897-2.866 1.6 0 2.897 1.283 2.897 2.866 0 1.583-1.297 2.866-2.897 2.866C1061.791 169.084 1060.494 167.801 1060.494 166.218zM1060.494 173.382c0-1.582 1.297-2.865 2.897-2.865 1.6 0 2.897 1.283 2.897 2.865 0 1.583-1.297 2.866-2.897 2.866C1061.791 176.248 1060.494 174.965 1060.494 173.382zM1060.494 180.547c0-1.583 1.297-2.866 2.897-2.866 1.6 0 2.897 1.283 2.897 2.866 0 1.583-1.297 2.866-2.897 2.866C1061.791 183.412 1060.494 182.129 1060.494 180.547z" class="colorFFF svgShape"></path></g><g fill="#000000" class="color000 svgShape"><path fill="#70bdff" d="M526.172 252.08H515.6l-1.469 4.975h-9.508l11.326-30.135h10.157l11.324 30.135h-9.751L526.172 252.08zM524.241 245.563l-3.326-10.833-3.292 10.833H524.241zM558.563 226.919h9.291v17.954c0 1.78-.278 3.461-.833 5.043-.555 1.582-1.425 2.965-2.611 4.15-1.185 1.185-2.429 2.016-3.731 2.496-1.809.671-3.981 1.007-6.516 1.007-1.467 0-3.066-.103-4.8-.308-1.734-.206-3.183-.613-4.348-1.223-1.165-.609-2.23-1.475-3.196-2.598-.966-1.123-1.627-2.28-1.984-3.472-.576-1.917-.863-3.615-.863-5.094v-17.954h9.292v18.382c0 1.643.455 2.927 1.367 3.851.911.924 2.175 1.386 3.793 1.386 1.603 0 2.86-.455 3.772-1.366.911-.911 1.367-2.201 1.367-3.872V226.919zM571.904 226.919h28.306v7.441h-9.497v22.694h-9.312V234.36h-9.497V226.919zM604.465 226.919h9.312v10.545h10.175v-10.545h9.353v30.135h-9.353v-12.19h-10.175v12.19h-9.312V226.919zM639.472 226.919h24.955v6.434h-15.623v4.79h14.492v6.146h-14.492v5.941h16.075v6.825h-25.407V226.919zM669.956 226.919h8.695l11.347 16.672v-16.672h8.777v30.135h-8.777l-11.285-16.546v16.546h-8.757V226.919zM702.846 226.919h28.306v7.441h-9.497v22.694h-9.312V234.36h-9.497V226.919zM735.736 226.919h9.332v30.135h-9.332V226.919zM771.812 244.721l8.161 2.467c-.548 2.289-1.412 4.2-2.59 5.735-1.179 1.535-2.641 2.693-4.389 3.474-1.747.781-3.971 1.172-6.67 1.172-3.276 0-5.951-.476-8.027-1.428-2.076-.952-3.868-2.626-5.376-5.022-1.508-2.397-2.261-5.464-2.261-9.203 0-4.985 1.326-8.816 3.978-11.493 2.652-2.677 6.403-4.016 11.255-4.016 3.796 0 6.78.768 8.952 2.302 2.172 1.535 3.786 3.892 4.841 7.071l-8.222 1.829c-.288-.918-.589-1.59-.904-2.014-.521-.712-1.158-1.261-1.912-1.644-.754-.384-1.597-.576-2.529-.576-2.11 0-3.728.849-4.851 2.546-.85 1.259-1.274 3.238-1.274 5.933 0 3.34.507 5.63 1.521 6.868 1.014 1.239 2.439 1.858 4.276 1.858 1.781 0 3.128-.5 4.039-1.501C770.739 248.078 771.401 246.626 771.812 244.721zM803.022 252.08H792.45l-1.469 4.975h-9.508l11.326-30.135h10.157l11.324 30.135h-9.751L803.022 252.08zM801.09 245.563l-3.326-10.833-3.291 10.833H801.09zM812.225 226.919h28.305v7.441h-9.497v22.694h-9.312V234.36h-9.497V226.919zM845.115 226.919h9.332v30.135h-9.332V226.919zM859.956 242.007c0-4.92 1.37-8.75 4.111-11.491 2.741-2.741 6.557-4.111 11.45-4.111 5.016 0 8.88 1.346 11.594 4.039 2.713 2.693 4.07 6.465 4.07 11.316 0 3.522-.593 6.41-1.778 8.664-1.186 2.254-2.898 4.008-5.139 5.262-2.241 1.254-5.033 1.881-8.376 1.881-3.399 0-6.212-.541-8.438-1.624-2.227-1.082-4.033-2.796-5.417-5.139C860.648 248.462 859.956 245.529 859.956 242.007zM869.268 242.048c0 3.043.565 5.228 1.696 6.558 1.131 1.329 2.669 1.994 4.615 1.994 2.001 0 3.549-.65 4.646-1.952 1.096-1.302 1.645-3.639 1.645-7.01 0-2.837-.572-4.909-1.716-6.218-1.144-1.308-2.696-1.963-4.656-1.963-1.878 0-3.385.665-4.522 1.994C869.836 236.779 869.268 238.979 869.268 242.048zM896.258 226.919h8.695l11.347 16.672v-16.672h8.778v30.135H916.3l-11.285-16.546v16.546h-8.757V226.919z" class="color70BDFF svgShape"></path></g><g fill="#000000" class="color000 svgShape"><circle cx="518.823" cy="351.682" r="62.96" fill="#d3dcf0" transform="rotate(-59.869 518.827 351.673)" class="colorD3DCF0 svgShape"></circle><circle cx="517.886" cy="333.873" r="24.442" fill="#ffffff" class="colorFFF svgShape"></circle><path fill="#ffffff" d="M540.303,358.512c-1.967-1.537-4.717-1.483-6.651,0.095c-4.207,3.432-9.585,5.5-15.451,5.5
									c-5.675,0-10.895-1.932-15.036-5.181c-1.971-1.547-4.766-1.515-6.668,0.116c-4.931,4.228-7.934,10.326-7.934,18.251v0.715
									c0,4.099,3.323,7.421,7.422,7.421h45.675c4.099,0,7.421-3.323,7.421-7.421v-0.715
									C549.082,369.029,545.727,362.75,540.303,358.512z" class="colorFFF svgShape"></path><path fill="#d3dcf0" d="M454.658 431.638h17.866c1.801 0 3.262 1.46 3.262 3.262v17.866c0 1.801-1.46 3.262-3.262 3.262h-17.866c-1.801 0-3.262-1.46-3.262-3.262v-17.866C451.397 433.098 452.857 431.638 454.658 431.638zM491.828 431.638h17.866c1.802 0 3.262 1.46 3.262 3.262v17.866c0 1.801-1.46 3.262-3.262 3.262h-17.866c-1.801 0-3.262-1.46-3.262-3.262v-17.866C488.567 433.098 490.027 431.638 491.828 431.638zM528.998 431.638h17.866c1.801 0 3.262 1.46 3.262 3.262v17.866c0 1.801-1.46 3.262-3.262 3.262h-17.866c-1.802 0-3.262-1.46-3.262-3.262v-17.866C525.737 433.098 527.197 431.638 528.998 431.638zM566.168 431.638h17.866c1.801 0 3.262 1.46 3.262 3.262v17.866c0 1.801-1.46 3.262-3.262 3.262h-17.866c-1.801 0-3.262-1.46-3.262-3.262v-17.866C562.906 433.098 564.367 431.638 566.168 431.638zM454.658 477.85h17.866c1.801 0 3.262 1.46 3.262 3.262v17.866c0 1.801-1.46 3.262-3.262 3.262h-17.866c-1.801 0-3.262-1.46-3.262-3.262v-17.866C451.397 479.31 452.857 477.85 454.658 477.85zM489.873 477.85h17.866c1.802 0 3.262 1.46 3.262 3.262v17.866c0 1.801-1.46 3.262-3.262 3.262h-17.866c-1.801 0-3.262-1.46-3.262-3.262v-17.866C486.611 479.31 488.071 477.85 489.873 477.85z" class="colorD3DCF0 svgShape"></path><g fill="#000000" class="color000 svgShape"><path fill="#d3dcf0" d="M527.043,477.85h17.866c1.801,0,3.262,1.46,3.262,3.262v17.866c0,1.801-1.46,3.262-3.262,3.262
							h-17.866c-1.802,0-3.262-1.46-3.262-3.262v-17.866C523.781,479.31,525.241,477.85,527.043,477.85z" class="colorD3DCF0 svgShape"></path></g><g fill="#000000" class="color000 svgShape"><path fill="#d3dcf0" d="M564.213,477.85h17.866c1.802,0,3.262,1.46,3.262,3.262v17.866c0,1.801-1.46,3.262-3.262,3.262
							h-17.866c-1.801,0-3.262-1.46-3.262-3.262v-17.866C560.951,479.31,562.411,477.85,564.213,477.85z" class="colorD3DCF0 svgShape"></path></g></g><g fill="#000000" class="color000 svgShape"><path fill="#d3dcf0" d="M719.316 312.153h-66.443c-1.001 0-1.812-.811-1.812-1.812v-2.985c0-1.001.811-1.812 1.812-1.812h66.443c1.001 0 1.812.811 1.812 1.812v2.985C721.128 311.341 720.317 312.153 719.316 312.153zM1039.475 312.153h-66.443c-1.001 0-1.812-.811-1.812-1.812v-2.985c0-1.001.811-1.812 1.812-1.812h66.443c1.001 0 1.812.811 1.812 1.812v2.985C1041.287 311.341 1040.476 312.153 1039.475 312.153zM1039.475 341.62H876.813c-1.001 0-1.812-.811-1.812-1.812v-2.985c0-1.001.811-1.812 1.812-1.812h162.662c1.001 0 1.812.811 1.812 1.812v2.985C1041.287 340.809 1040.476 341.62 1039.475 341.62zM955.459 312.153H742.175c-1.001 0-1.812-.811-1.812-1.812v-2.985c0-1.001.811-1.812 1.812-1.812h213.285c1.001 0 1.812.811 1.812 1.812v2.985C957.271 311.341 956.46 312.153 955.459 312.153zM861.852 341.62H653.647c-1.001 0-1.812-.811-1.812-1.812v-2.985c0-1.001.811-1.812 1.812-1.812h208.205c1.001 0 1.812.811 1.812 1.812v2.985C863.664 340.809 862.853 341.62 861.852 341.62z" class="colorD3DCF0 svgShape"></path></g><g fill="#000000" class="color000 svgShape"><path fill="#d3dcf0" d="M719.316 373.999h-66.443c-1.001 0-1.812-.811-1.812-1.812v-2.985c0-1.001.811-1.812 1.812-1.812h66.443c1.001 0 1.812.811 1.812 1.812v2.985C721.128 373.188 720.317 373.999 719.316 373.999zM1039.475 373.999h-66.443c-1.001 0-1.812-.811-1.812-1.812v-2.985c0-1.001.811-1.812 1.812-1.812h66.443c1.001 0 1.812.811 1.812 1.812v2.985C1041.287 373.188 1040.476 373.999 1039.475 373.999zM1039.475 403.467H876.813c-1.001 0-1.812-.811-1.812-1.812v-2.985c0-1.001.811-1.812 1.812-1.812h162.662c1.001 0 1.812.811 1.812 1.812v2.985C1041.287 402.656 1040.476 403.467 1039.475 403.467zM955.459 373.999H742.175c-1.001 0-1.812-.811-1.812-1.812v-2.985c0-1.001.811-1.812 1.812-1.812h213.285c1.001 0 1.812.811 1.812 1.812v2.985C957.271 373.188 956.46 373.999 955.459 373.999zM861.852 403.467H653.647c-1.001 0-1.812-.811-1.812-1.812v-2.985c0-1.001.811-1.812 1.812-1.812h208.205c1.001 0 1.812.811 1.812 1.812v2.985C863.664 402.656 862.853 403.467 861.852 403.467z" class="colorD3DCF0 svgShape"></path></g><g fill="#000000" class="color000 svgShape"><path fill="#d3dcf0" d="M719.316 435.845h-66.443c-1.001 0-1.812-.811-1.812-1.812v-2.985c0-1.001.811-1.812 1.812-1.812h66.443c1.001 0 1.812.811 1.812 1.812v2.985C721.128 435.034 720.317 435.845 719.316 435.845zM1039.475 435.845h-66.443c-1.001 0-1.812-.811-1.812-1.812v-2.985c0-1.001.811-1.812 1.812-1.812h66.443c1.001 0 1.812.811 1.812 1.812v2.985C1041.287 435.034 1040.476 435.845 1039.475 435.845zM1039.475 465.313H876.813c-1.001 0-1.812-.811-1.812-1.812v-2.985c0-1.001.811-1.812 1.812-1.812h162.662c1.001 0 1.812.811 1.812 1.812v2.985C1041.287 464.502 1040.476 465.313 1039.475 465.313zM955.459 435.845H742.175c-1.001 0-1.812-.811-1.812-1.812v-2.985c0-1.001.811-1.812 1.812-1.812h213.285c1.001 0 1.812.811 1.812 1.812v2.985C957.271 435.034 956.46 435.845 955.459 435.845zM861.852 465.313H653.647c-1.001 0-1.812-.811-1.812-1.812v-2.985c0-1.001.811-1.812 1.812-1.812h208.205c1.001 0 1.812.811 1.812 1.812v2.985C863.664 464.502 862.853 465.313 861.852 465.313z" class="colorD3DCF0 svgShape"></path></g><g fill="#000000" class="color000 svgShape"><path fill="#d3dcf0" d="M719.316 497.692h-66.443c-1.001 0-1.812-.811-1.812-1.812v-2.985c0-1.001.811-1.812 1.812-1.812h66.443c1.001 0 1.812.811 1.812 1.812v2.985C721.128 496.881 720.317 497.692 719.316 497.692zM1039.475 497.692h-66.443c-1.001 0-1.812-.811-1.812-1.812v-2.985c0-1.001.811-1.812 1.812-1.812h66.443c1.001 0 1.812.811 1.812 1.812v2.985C1041.287 496.881 1040.476 497.692 1039.475 497.692zM1039.475 527.16H876.813c-1.001 0-1.812-.811-1.812-1.812v-2.985c0-1.001.811-1.812 1.812-1.812h162.662c1.001 0 1.812.811 1.812 1.812v2.985C1041.287 526.349 1040.476 527.16 1039.475 527.16zM955.459 497.692H742.175c-1.001 0-1.812-.811-1.812-1.812v-2.985c0-1.001.811-1.812 1.812-1.812h213.285c1.001 0 1.812.811 1.812 1.812v2.985C957.271 496.881 956.46 497.692 955.459 497.692zM861.852 527.16H653.647c-1.001 0-1.812-.811-1.812-1.812v-2.985c0-1.001.811-1.812 1.812-1.812h208.205c1.001 0 1.812.811 1.812 1.812v2.985C863.664 526.349 862.853 527.16 861.852 527.16z" class="colorD3DCF0 svgShape"></path></g></g><g fill="#000000" class="color000 svgShape"><path fill="#70bdff" d="M644.091,521.788V303.285c0-4.732,3.836-8.568,8.568-8.568h215.232c4.732,0,8.568,3.836,8.568,8.568
						v218.502c0,4.732-3.836,8.568-8.568,8.568H652.659C647.928,530.356,644.091,526.52,644.091,521.788z" class="color70BDFF svgShape"></path><path fill="#ffffff" d="M859.484,523.244H661.066c-5.447,0-9.863-4.416-9.863-9.863V311.692c0-5.447,4.416-9.863,9.863-9.863
						h198.418c5.447,0,9.863,4.416,9.863,9.863V513.38C869.348,518.828,864.932,523.244,859.484,523.244z" class="colorFFF svgShape"></path><path fill="#636b96" d="M783.126,348.896v9.262c0,1.843-1.494,3.337-3.337,3.337l0,0c-1.843,0-3.337-1.494-3.337-3.337v-8.431
							c0-4.487-3.637-8.125-8.124-8.125h-18.922c-4.489,0-8.128,3.639-8.128,8.128v28.519h-6.674v-29.353
							c0-7.716,6.255-13.972,13.972-13.972h20.579C776.871,334.924,783.126,341.18,783.126,348.896z" class="color636B96 svgShape"></path><path fill="#4b5482" d="M765.872 341.313H746.95c-4.489 0-8.128 3.639-8.128 8.128v28.519h-4.218v.289h6.674V349.73c0-4.489 3.639-8.128 8.128-8.128h18.613C767.335 341.415 766.616 341.313 765.872 341.313zM769.583 334.935c6.332 1.329 11.087 6.945 11.087 13.672v9.262c0 1.545-1.051 2.841-2.476 3.221.474.258 1.017.405 1.595.405 1.843 0 3.337-1.494 3.337-3.337v-9.262C783.126 341.323 777.101 335.162 769.583 334.935z" class="color4B5482 svgShape"></path><path fill="#ffbc47" d="M798.29,377.79v9.723c0,9.874-4.411,18.811-11.546,25.282c-7.135,6.471-16.991,10.472-27.881,10.472
							c-21.771,0-39.423-16.009-39.423-35.754v-9.723c0-1.178,0.214-2.311,0.609-3.37c0.273-0.738,0.635-1.436,1.074-2.093
							c2.038-3.031,5.718-5.057,9.919-5.057h55.647c4.201,0,7.881,2.026,9.919,5.057c0.435,0.657,0.801,1.355,1.074,2.093
							C798.076,375.48,798.29,376.613,798.29,377.79z" class="colorFFBC47 svgShape"></path><path fill="#f5af36" d="M789.544,367.591c1.786,1.851,2.871,4.272,2.871,6.924v9.725c0,19.745-17.651,35.752-39.425,35.752
							c-6.328,0-12.307-1.354-17.607-3.757c6.559,4.417,14.683,7.031,23.481,7.031c21.774,0,39.425-16.007,39.425-35.752v-9.725
							C798.29,372.873,794.57,368.745,789.544,367.591z" class="colorF5AF36 svgShape"></path><path fill="#ffffff" d="M743.718,395.268c0-8.365,6.781-15.147,15.147-15.147c8.365,0,15.147,6.782,15.147,15.147
									c0,8.365-6.782,15.147-15.147,15.147C750.499,410.415,743.718,403.633,743.718,395.268z" class="colorFFF svgShape"></path><circle cx="758.865" cy="395.268" r="13.187" fill="#ffd285" class="colorFFD285 svgShape"></circle><g fill="#000000" class="color000 svgShape"><path fill="#4b5482" d="M761.99,392.308c0-1.783-1.492-3.217-3.296-3.121c-1.606,0.085-2.907,1.422-2.953,3.029
								c-0.034,1.173,0.581,2.202,1.51,2.765l-0.567,7.155c-0.023,0.294,0.209,0.545,0.503,0.545h3.356
								c0.295,0,0.526-0.251,0.503-0.545l-0.567-7.155C761.384,394.433,761.99,393.443,761.99,392.308z" class="color4B5482 svgShape"></path></g><g fill="#000000" class="color000 svgShape"><path fill="#ffffff" d="M797.681,374.42h-77.632c0.273-0.738,0.635-1.436,1.074-2.093h75.484
							C797.042,372.984,797.408,373.682,797.681,374.42z" class="colorFFF svgShape"></path></g><g fill="#000000" class="color000 svgShape"><circle cx="693.959" cy="454.597" r="9.564" fill="#b4d2fa" transform="rotate(-76.768 693.933 454.574)" class="colorB4D2FA svgShape"></circle><circle cx="726.412" cy="454.597" r="9.564" fill="#b4d2fa" transform="rotate(-45.001 726.41 454.608)" class="colorB4D2FA svgShape"></circle><circle cx="758.865" cy="454.597" r="9.564" fill="#b4d2fa" transform="rotate(-76.768 758.837 454.574)" class="colorB4D2FA svgShape"></circle><circle cx="791.318" cy="454.597" r="9.564" fill="#b4d2fa" transform="rotate(-16.349 791.314 454.59)" class="colorB4D2FA svgShape"></circle><circle cx="823.771" cy="454.597" r="9.564" fill="#b4d2fa" transform="rotate(-45.001 823.77 454.609)" class="colorB4D2FA svgShape"></circle><path fill="#ffffff" d="M694.268,449.933l0.435,3.052c0.022,0.153,0.179,0.247,0.324,0.193l2.893-1.064
							c0.259-0.095,0.451,0.248,0.233,0.419l-2.426,1.902c-0.121,0.095-0.124,0.278-0.006,0.377l2.368,1.974
							c0.212,0.177,0.011,0.514-0.246,0.411l-2.86-1.149c-0.143-0.058-0.303,0.032-0.329,0.184l-0.525,3.038
							c-0.047,0.272-0.44,0.267-0.479-0.007l-0.435-3.052c-0.022-0.153-0.179-0.247-0.324-0.193l-2.893,1.064
							c-0.259,0.095-0.451-0.248-0.234-0.419l2.426-1.902c0.122-0.095,0.124-0.278,0.006-0.377l-2.368-1.974
							c-0.212-0.177-0.011-0.514,0.246-0.411l2.86,1.149c0.143,0.058,0.303-0.032,0.329-0.184l0.525-3.038
							C693.835,449.653,694.229,449.659,694.268,449.933z" class="colorFFF svgShape"></path><g fill="#000000" class="color000 svgShape"><path fill="#ffffff" d="M726.879,449.933l0.435,3.052c0.022,0.153,0.179,0.247,0.324,0.193l2.893-1.064
							c0.259-0.095,0.451,0.248,0.233,0.419l-2.425,1.902c-0.122,0.095-0.124,0.278-0.006,0.377l2.368,1.974
							c0.212,0.177,0.011,0.514-0.246,0.411l-2.86-1.149c-0.143-0.058-0.303,0.032-0.329,0.184l-0.525,3.038
							c-0.047,0.272-0.44,0.267-0.479-0.007l-0.435-3.052c-0.022-0.153-0.179-0.247-0.324-0.193l-2.893,1.064
							c-0.259,0.095-0.451-0.248-0.233-0.419l2.426-1.902c0.121-0.095,0.124-0.278,0.006-0.377l-2.368-1.974
							c-0.212-0.177-0.011-0.514,0.246-0.411l2.86,1.149c0.143,0.058,0.303-0.032,0.33-0.184l0.525-3.038
							C726.447,449.653,726.84,449.659,726.879,449.933z" class="colorFFF svgShape"></path></g><g fill="#000000" class="color000 svgShape"><path fill="#ffffff" d="M759.491,449.933l0.435,3.052c0.022,0.153,0.179,0.247,0.324,0.193l2.893-1.064
							c0.259-0.095,0.451,0.248,0.233,0.419l-2.426,1.902c-0.121,0.095-0.124,0.278-0.006,0.377l2.368,1.974
							c0.212,0.177,0.011,0.514-0.246,0.411l-2.86-1.149c-0.143-0.058-0.303,0.032-0.329,0.184l-0.525,3.038
							c-0.047,0.272-0.44,0.267-0.479-0.007l-0.435-3.052c-0.022-0.153-0.179-0.247-0.324-0.193l-2.893,1.064
							c-0.259,0.095-0.451-0.248-0.233-0.419l2.426-1.902c0.122-0.095,0.124-0.278,0.006-0.377l-2.368-1.974
							c-0.212-0.177-0.011-0.514,0.246-0.411l2.86,1.149c0.143,0.058,0.303-0.032,0.329-0.184l0.525-3.038
							C759.059,449.653,759.452,449.659,759.491,449.933z" class="colorFFF svgShape"></path></g><g fill="#000000" class="color000 svgShape"><path fill="#ffffff" d="M792.102,449.933l0.435,3.052c0.022,0.153,0.179,0.247,0.324,0.193l2.893-1.064
							c0.26-0.095,0.451,0.248,0.233,0.419l-2.426,1.902c-0.121,0.095-0.124,0.278-0.006,0.377l2.368,1.974
							c0.212,0.177,0.011,0.514-0.246,0.411l-2.86-1.149c-0.143-0.058-0.303,0.032-0.33,0.184l-0.525,3.038
							c-0.047,0.272-0.44,0.267-0.479-0.007l-0.435-3.052c-0.022-0.153-0.179-0.247-0.324-0.193l-2.893,1.064
							c-0.259,0.095-0.451-0.248-0.233-0.419l2.426-1.902c0.121-0.095,0.124-0.278,0.006-0.377l-2.368-1.974
							c-0.212-0.177-0.011-0.514,0.246-0.411l2.86,1.149c0.143,0.058,0.303-0.032,0.33-0.184l0.525-3.038
							C791.67,449.653,792.063,449.659,792.102,449.933z" class="colorFFF svgShape"></path></g><g fill="#000000" class="color000 svgShape"><path fill="#ffffff" d="M824.714,449.933l0.435,3.052c0.022,0.153,0.179,0.247,0.324,0.193l2.893-1.064
							c0.259-0.095,0.451,0.248,0.233,0.419l-2.426,1.902c-0.122,0.095-0.124,0.278-0.006,0.377l2.368,1.974
							c0.212,0.177,0.011,0.514-0.246,0.411l-2.86-1.149c-0.143-0.058-0.303,0.032-0.329,0.184l-0.525,3.038
							c-0.047,0.272-0.44,0.267-0.479-0.007l-0.435-3.052c-0.022-0.153-0.179-0.247-0.324-0.193l-2.893,1.064
							c-0.26,0.095-0.451-0.248-0.233-0.419l2.426-1.902c0.121-0.095,0.124-0.278,0.006-0.377l-2.368-1.974
							c-0.212-0.177-0.011-0.514,0.246-0.411l2.86,1.149c0.143,0.058,0.303-0.032,0.329-0.184l0.525-3.038
							C824.282,449.653,824.675,449.659,824.714,449.933z" class="colorFFF svgShape"></path></g></g><g fill="#000000" class="color000 svgShape"><circle cx="863.357" cy="311.449" r="31.111" fill="#70bdff" class="color70BDFF svgShape"></circle><path fill="#5daef5" d="M873.729,282.115c9.731,5.259,16.342,15.55,16.342,27.387c0,17.182-13.929,31.111-31.111,31.111
							c-3.638,0-7.127-0.63-10.373-1.778c4.394,2.375,9.424,3.724,14.769,3.724c17.182,0,31.111-13.929,31.111-31.111
							C894.468,297.905,885.81,286.388,873.729,282.115z" class="color5DAEF5 svgShape"></path><path fill="#ffffff" d="M876.089,294.479c-5.499,7.68-10.998,15.36-16.497,23.04c-3.828-3.593-7.655-7.186-11.483-10.779
							c-2.306,2.934-4.611,5.869-6.917,8.803c6.491,4.292,12.981,8.584,19.472,12.876c8.285-8.903,16.571-17.806,24.856-26.709
							C882.377,299.299,879.233,296.889,876.089,294.479z" class="colorFFF svgShape"></path></g></g><g fill="#000000" class="color000 svgShape"><path fill="#ffc9d0" d="M441.496,617.753c-3.758,0.793-7.641,1.531-11.658,2.207c9.268,40.171,19.404,84.025,28.693,124.257
						c9.82-6.055,24.625-15.185,34.295-21.149c2.847,5.267,6.777,13.149,8.658,21.9c1.075,26.426-23.021,54.076-41.458,73.586
						c-45.041,43.301-96.082,72.301-165.416,92.376c-14.58,3.994-27.658,12.382-37.148,23.955v0.007
						c-4.865,6.068-12.389,18.666-17.084,25.108H0c34.106-35.993,81.979-88.099,105.036-120.47
						c28.389-83.586-14.163-144.529,69.808-235.536c14.512-19.2,27.334-35.554,30.152-40.748
						c6.337-11.733,9.358-49.94,16.089-52.809c1.668-0.711,6.029,1.131,10.923,5.456c28.3,24.752,21.435,71.623-0.001,103.839
						c-3.823,7.26-21.782,38.962-13.558,36.773c29.8-16.558,63.153-37.255,93.308-55.328c25.797-15.255,14.906-11.093,37.863-17.817
						c32.887-9.554,66.655-18.97,100.156-27.357c20.086-4.721,71.426-18.174,81.503-12.927
						C553.629,570.021,483.527,612.374,441.496,617.753z" class="colorFFC9D0 svgShape"></path><path fill="#ffbac3" d="M278.591,917.414c-8.111,4.435-15.29,10.36-21.129,17.472c4.774-27.688-28.455-42.208-44.249-42.208
						c-15.787,0-30.593-15.051-37.989-19.907c-7.403-4.855-30.594-9.712-51.316-2.427c-10.985,3.863-38.115,48.519-61.2,89.657H0
						c34.106-35.993,81.979-88.099,105.036-120.47c16.088-22.583,7.431-128.858,23.435-166.209
						c7.031-16.417,28.055-45.125,46.366-69.33c1.241,4.429,1.255,8.692-1.101,11.954c-8.384,11.657-20.224,39.324-34.532,61.177
						c-14.308,21.845-14.554,128.947-6.008,147.668c8.875,19.466,39.559,16.906,65.217,40.773
						c13.025,12.12,39.965,18.859,52.297,22.743C260.405,891.36,273.445,909.695,278.591,917.414z" class="colorFFBAC3 svgShape"></path><path fill="#ffbac3" d="M423.55,849.474c-6.438-3.222-12.851-6.341-18.209-8.744c-18.698-8.391-112.445,0.73-126.754,0
						c-14.31-0.73-82.777-12.747-64.154-38.678c19.662-27.377,11.033-128.492,1.905-145.079
						c11.608-6.002,65.582-37.726,95.418-55.797l140.262,2.813l8.138,9.077c-9.14,2.69-19.231,5.028-30.318,6.892l28.691,124.258
						l34.296-21.145c0,0,13.776,8.776,14.645,19.113C510.49,778.102,483.014,806.544,423.55,849.474z" class="colorFFBAC3 svgShape"></path><path fill="#ffffff" d="M487.774,358.179H256.657c-8.98,0-16.258,6.992-16.258,15.608v422.386
							c0,8.616,7.279,15.597,16.258,15.597h231.117c8.98,0,16.269-6.981,16.269-15.597V373.787
							C504.043,365.171,496.754,358.179,487.774,358.179z" class="colorFFF svgShape"></path><path fill="#5a6187" d="M495.048,345.444H247.624c-9.141,0-16.546,7.469-16.546,16.691v444.992
							c0,9.229,7.405,16.706,16.546,16.706h247.424c9.141,0,16.538-7.476,16.538-16.706V362.135
							C511.586,352.914,504.188,345.444,495.048,345.444z M258.794,811.772c-8.755,0-15.852-6.982-15.852-15.597V373.786
							c0-8.622,7.105-15.606,15.868-15.606h89.18c1.164,0,2.091,0.911,2.137,2.057c0.471,11.021,9.943,20,21.352,20
							c11.417,0,20.866-8.956,21.337-20c0.046-1.146,0.972-2.057,2.129-2.057h89.196c5.199,0,9.82,2.46,12.713,6.27
							c0.308,0.395,0.594,0.812,0.856,1.245c0.27,0.425,0.509,0.865,0.733,1.321c0.223,0.455,0.425,0.926,0.602,1.404
							c0.177,0.479,0.331,0.964,0.463,1.465c0.331,1.244,0.501,2.55,0.501,3.901v422.389c0,1.351-0.17,2.656-0.501,3.901
							c-0.132,0.493-0.286,0.986-0.463,1.464c-0.178,0.478-0.379,0.941-0.602,1.396c-0.224,0.456-0.463,0.896-0.733,1.329
							c-0.663,1.07-1.45,2.065-2.353,2.937c-0.718,0.714-1.504,1.351-2.345,1.906c-0.633,0.425-1.296,0.796-1.983,1.123
							c0,0.008-0.007,0-0.007,0c-0.687,0.333-1.412,0.614-2.152,0.842c-1.49,0.456-3.071,0.698-4.713,0.698H258.794z" class="color5A6187 svgShape"></path><path fill="#ffffff" d="M360.144,362.331c0-6.158,5.072-11.148,11.331-11.148c6.259,0,11.332,4.991,11.332,11.148
								c0,6.159-5.073,11.15-11.332,11.15C365.216,373.482,360.144,368.491,360.144,362.331z" class="colorFFF svgShape"></path><path fill="#5a6187" d="M362.286,362.331c0-4.993,4.115-9.04,9.189-9.04c5.074,0,9.188,4.048,9.188,9.04
								c0,4.994-4.114,9.041-9.188,9.041C366.401,371.373,362.286,367.325,362.286,362.331z" class="color5A6187 svgShape"></path><path fill="#ffffff" d="M371.475,358.36c0-1.429,1.177-2.587,2.629-2.587s2.629,1.158,2.629,2.587
								c0,1.428-1.177,2.587-2.629,2.587S371.475,359.788,371.475,358.36z" class="colorFFF svgShape"></path><circle cx="290.517" cy="505.134" r="12.428" fill="#70bdff" transform="rotate(-50.726 290.544 505.165)" class="color70BDFF svgShape"></circle><circle cx="332.689" cy="505.134" r="12.428" fill="#70bdff" transform="rotate(-42.507 332.681 505.111)" class="color70BDFF svgShape"></circle><circle cx="374.862" cy="505.134" r="12.428" fill="#70bdff" transform="rotate(-39.66 374.885 505.164)" class="color70BDFF svgShape"></circle><circle cx="417.034" cy="505.134" r="12.428" fill="#70bdff" transform="rotate(-45.001 417.03 505.142)" class="color70BDFF svgShape"></circle><circle cx="459.206" cy="505.134" r="12.428" fill="#70bdff" transform="rotate(-45.001 459.203 505.142)" class="color70BDFF svgShape"></circle><path fill="#ffffff" d="M290.918,499.073l0.565,3.966c0.028,0.199,0.233,0.321,0.421,0.251l3.76-1.383
							c0.337-0.124,0.586,0.322,0.303,0.544l-3.152,2.472c-0.158,0.124-0.161,0.362-0.007,0.49l3.077,2.564
							c0.276,0.23,0.014,0.669-0.319,0.535l-3.717-1.494c-0.186-0.075-0.394,0.041-0.428,0.239l-0.682,3.947
							c-0.061,0.354-0.572,0.346-0.623-0.009l-0.565-3.966c-0.028-0.199-0.233-0.321-0.421-0.251l-3.76,1.383
							c-0.337,0.124-0.586-0.322-0.303-0.544l3.152-2.472c0.158-0.124,0.161-0.362,0.007-0.49l-3.077-2.564
							c-0.276-0.23-0.014-0.669,0.319-0.535l3.717,1.494c0.186,0.075,0.394-0.041,0.428-0.239l0.682-3.947
							C290.357,498.71,290.868,498.717,290.918,499.073z" class="colorFFF svgShape"></path><g fill="#000000" class="color000 svgShape"><path fill="#ffffff" d="M333.296,499.073l0.565,3.966c0.028,0.199,0.233,0.321,0.421,0.251l3.76-1.383
							c0.337-0.124,0.586,0.322,0.303,0.544l-3.152,2.472c-0.158,0.124-0.161,0.362-0.007,0.49l3.077,2.564
							c0.276,0.23,0.014,0.669-0.319,0.535l-3.717-1.494c-0.186-0.075-0.394,0.041-0.428,0.239l-0.682,3.947
							c-0.061,0.354-0.572,0.346-0.623-0.009l-0.565-3.966c-0.028-0.199-0.233-0.321-0.421-0.251l-3.76,1.383
							c-0.337,0.124-0.586-0.322-0.303-0.544l3.152-2.472c0.158-0.124,0.161-0.362,0.007-0.49l-3.077-2.564
							c-0.276-0.23-0.014-0.669,0.319-0.535l3.717,1.494c0.186,0.075,0.394-0.041,0.428-0.239l0.682-3.947
							C332.735,498.71,333.246,498.717,333.296,499.073z" class="colorFFF svgShape"></path></g><g fill="#000000" class="color000 svgShape"><path fill="#ffffff" d="M375.675,499.073l0.565,3.966c0.028,0.199,0.233,0.321,0.421,0.251l3.76-1.383
							c0.337-0.124,0.586,0.322,0.303,0.544l-3.152,2.472c-0.158,0.124-0.161,0.362-0.007,0.49l3.077,2.564
							c0.276,0.23,0.014,0.669-0.319,0.535l-3.717-1.494c-0.186-0.075-0.394,0.041-0.428,0.239l-0.682,3.947
							c-0.061,0.354-0.572,0.346-0.623-0.009l-0.565-3.966c-0.028-0.199-0.233-0.321-0.421-0.251l-3.76,1.383
							c-0.337,0.124-0.586-0.322-0.303-0.544l3.152-2.472c0.158-0.124,0.161-0.362,0.007-0.49l-3.077-2.564
							c-0.276-0.23-0.014-0.669,0.319-0.535l3.717,1.494c0.186,0.075,0.394-0.041,0.428-0.239l0.682-3.947
							C375.113,498.71,375.624,498.717,375.675,499.073z" class="colorFFF svgShape"></path></g><g fill="#000000" class="color000 svgShape"><path fill="#ffffff" d="M418.053,499.073l0.565,3.966c0.028,0.199,0.233,0.321,0.421,0.251l3.76-1.383
							c0.337-0.124,0.586,0.322,0.303,0.544l-3.152,2.472c-0.158,0.124-0.161,0.362-0.007,0.49l3.077,2.564
							c0.276,0.23,0.014,0.669-0.319,0.535l-3.717-1.494c-0.186-0.075-0.394,0.041-0.428,0.239l-0.682,3.947
							c-0.061,0.354-0.572,0.346-0.623-0.009l-0.565-3.966c-0.028-0.199-0.233-0.321-0.421-0.251l-3.76,1.383
							c-0.337,0.124-0.586-0.322-0.303-0.544l3.152-2.472c0.158-0.124,0.161-0.362,0.007-0.49l-3.077-2.564
							c-0.276-0.23-0.014-0.669,0.319-0.535l3.717,1.494c0.186,0.075,0.394-0.041,0.428-0.239l0.682-3.947
							C417.492,498.71,418.003,498.717,418.053,499.073z" class="colorFFF svgShape"></path></g><g fill="#000000" class="color000 svgShape"><path fill="#ffffff" d="M460.432,499.073l0.565,3.966c0.028,0.199,0.233,0.321,0.421,0.251l3.76-1.383
							c0.337-0.124,0.586,0.322,0.303,0.544l-3.152,2.472c-0.158,0.124-0.161,0.362-0.007,0.49l3.077,2.564
							c0.276,0.23,0.014,0.669-0.319,0.535l-3.717-1.494c-0.186-0.075-0.394,0.041-0.428,0.239l-0.682,3.947
							c-0.061,0.354-0.572,0.346-0.623-0.009l-0.565-3.966c-0.028-0.199-0.233-0.321-0.421-0.251l-3.76,1.383
							c-0.337,0.124-0.586-0.322-0.303-0.544l3.152-2.472c0.158-0.124,0.161-0.362,0.007-0.49l-3.077-2.564
							c-0.276-0.23-0.014-0.669,0.319-0.535l3.717,1.494c0.186,0.075,0.394-0.041,0.428-0.239l0.682-3.947
							C459.87,498.71,460.381,498.717,460.432,499.073z" class="colorFFF svgShape"></path></g><g fill="#000000" class="color000 svgShape"><circle cx="376.224" cy="584.976" r="45.225" fill="#70bdff" class="color70BDFF svgShape"></circle><path fill="#5daef5" d="M391.302,542.336c14.145,7.644,23.756,22.604,23.756,39.812c0,24.977-20.248,45.225-45.225,45.225
							c-5.289,0-10.361-0.916-15.078-2.585c6.388,3.452,13.699,5.413,21.469,5.413c24.977,0,45.225-20.248,45.225-45.225
							C421.449,565.287,408.864,548.546,391.302,542.336z" class="color5DAEF5 svgShape"></path><path fill="#ffffff" d="M394.733,560.308c-7.994,11.164-15.987,22.328-23.981,33.492
							c-5.564-5.223-11.128-10.446-16.692-15.669c-3.351,4.265-6.703,8.531-10.054,12.796c9.435,6.239,18.87,12.478,28.305,18.717
							c12.044-12.941,24.088-25.883,36.132-38.825C403.873,567.315,399.303,563.812,394.733,560.308z" class="colorFFF svgShape"></path></g><g fill="#000000" class="color000 svgShape"><path fill="#d3dcf0" d="M480.99 410.486h-38.842c-1.695 0-3.069-1.374-3.069-3.069l0 0c0-1.695 1.374-3.069 3.069-3.069h38.842c1.695 0 3.069 1.374 3.069 3.069l0 0C484.06 409.111 482.685 410.486 480.99 410.486zM480.99 423.9h-38.842c-1.695 0-3.069-1.374-3.069-3.069l0 0c0-1.695 1.374-3.069 3.069-3.069h38.842c1.695 0 3.069 1.374 3.069 3.069l0 0C484.06 422.526 482.685 423.9 480.99 423.9zM480.99 437.314h-38.842c-1.695 0-3.069-1.374-3.069-3.069l0 0c0-1.695 1.374-3.069 3.069-3.069h38.842c1.695 0 3.069 1.374 3.069 3.069l0 0C484.06 435.94 482.685 437.314 480.99 437.314z" class="colorD3DCF0 svgShape"></path></g><g fill="#000000" class="color000 svgShape"><rect width="138.301" height="24.027" x="267.787" y="410.92" fill="#d3dcf0" class="colorD3DCF0 svgShape"></rect></g><g fill="#000000" class="color000 svgShape"><path fill="#d3dcf0" d="M448.989,675.554H300.455c-1.001,0-1.812-0.811-1.812-1.812l0,0c0-1.001,0.811-1.812,1.812-1.812
						h148.535c1.001,0,1.812,0.811,1.812,1.812l0,0C450.801,674.743,449.99,675.554,448.989,675.554z" class="colorD3DCF0 svgShape"></path></g><g fill="#000000" class="color000 svgShape"><path fill="#d3dcf0" d="M304.396 688.453h-34.797c-1.001 0-1.812-.811-1.812-1.812l0 0c0-1.001.811-1.812 1.812-1.812h34.797c1.001 0 1.812.811 1.812 1.812l0 0C306.207 687.641 305.396 688.453 304.396 688.453zM479.952 688.453h-34.797c-1.001 0-1.812-.811-1.812-1.812l0 0c0-1.001.811-1.812 1.812-1.812h34.797c1.001 0 1.812.811 1.812 1.812l0 0C481.764 687.641 480.953 688.453 479.952 688.453zM479.952 704.611h-87.558c-1.001 0-1.812-.811-1.812-1.812l0 0c0-1.001.811-1.812 1.812-1.812h87.558c1.001 0 1.812.811 1.812 1.812l0 0C481.764 703.8 480.953 704.611 479.952 704.611zM433.882 688.453H318.566c-1.001 0-1.812-.811-1.812-1.812l0 0c0-1.001.811-1.812 1.812-1.812h115.316c1.001 0 1.812.811 1.812 1.812l0 0C435.694 687.641 434.883 688.453 433.882 688.453zM382.554 704.611H270.023c-1.001 0-1.812-.811-1.812-1.812l0 0c0-1.001.811-1.812 1.812-1.812h112.531c1.001 0 1.812.811 1.812 1.812l0 0C384.366 703.8 383.555 704.611 382.554 704.611z" class="colorD3DCF0 svgShape"></path></g><g fill="#000000" class="color000 svgShape"><path fill="#d3dcf0" d="M328.807,791.018h-58.784c-1.001,0-1.812-0.811-1.812-1.812l0,0c0-1.001,0.811-1.812,1.812-1.812
						h58.784c1.001,0,1.812,0.811,1.812,1.812l0,0C330.619,790.206,329.808,791.018,328.807,791.018z" class="colorD3DCF0 svgShape"></path></g><g fill="#000000" class="color000 svgShape"><path fill="#d3dcf0" d="M449.782,791.018H341.918c-1.001,0-1.812-0.811-1.812-1.812l0,0c0-1.001,0.811-1.812,1.812-1.812
						h107.863c1.001,0,1.812,0.811,1.812,1.812l0,0C451.594,790.206,450.782,791.018,449.782,791.018z" class="colorD3DCF0 svgShape"></path></g><g fill="#000000" class="color000 svgShape"><path fill="#ffc9d0" d="M520.28,684.828c17.268,9.325,18.295,39.148-7.266,47.723c-25.127,8.468-68.973,25.02-74.212,0.883
								c-3.458-13.995,9.204-26.265,20.393-33.086c-40.715,4.478-36.317-29.928-6.277-45.691
								c-40.76,9.263-49.984-25.684-14.417-44.015c19.047-9.242,76.232-26.864,79.237-26.883
								c15.368-0.09,21.437,5.413,24.534,19.678c2.642,12.293-6.871,22.215-19.267,29.344
								C546.232,638.266,550.584,672.692,520.28,684.828z" class="colorFFC9D0 svgShape"></path><path fill="#ffd9de" d="M451.163 619.859c3.657 6.712 5.033 14.651 4.25 21.692-.267 2.398-1.911 4.271-3.963 4.617-6.965 1.177-22.808 2.904-24.627-5.311-2.524-11.399 11.782-19.774 18.603-23.064C447.518 616.783 449.949 617.631 451.163 619.859zM459.903 661.635c6.34 5.917 8.237 15.186 4.671 24.737-.634 1.698-1.988 2.882-3.558 3.165-6.423 1.158-23.578 3.406-25.476-5.163-2.669-12.052 13.479-20.725 19.699-23.58C456.81 660.073 458.585 660.405 459.903 661.635zM471.216 707.473c5.555 6.701 6.977 15.548 4.581 23.637-.571 1.927-1.998 3.344-3.726 3.652-6.552 1.165-23.423 3.299-25.304-5.195-2.615-11.809 12.835-20.374 19.31-23.4C467.857 705.334 469.882 705.865 471.216 707.473z" class="colorFFD9DE svgShape"></path><g fill="#000000" class="color000 svgShape"><path fill="#ffbac3" d="M522.965,686.539c-13.187,5.368-49.744,14.323-69.692,17.923c1.884-1.448,3.872-2.818,5.921-4.113
							l61.086-15.521C521.225,685.341,522.12,685.911,522.965,686.539z" class="colorFFBAC3 svgShape"></path></g><g fill="#000000" class="color000 svgShape"><path fill="#ffbac3" d="M527.705,634.447c-19.283,6.873-54.533,17.052-79.682,23.381c1.577-1.089,3.213-2.146,4.894-3.171
							l70.296-21.818C524.805,633.25,526.305,633.788,527.705,634.447z" class="colorFFBAC3 svgShape"></path></g></g><g fill="#000000" class="color000 svgShape"><path fill="#ffbc47" d="M313.332,304.519v69.719c0,3.245-1.667,6.103-4.192,7.759c-0.762,0.501-1.601,0.892-2.497,1.152
							c-0.821,0.238-1.69,0.366-2.588,0.366H202.057c-1.255,0-2.452-0.25-3.544-0.701c-0.828-0.341-1.594-0.8-2.28-1.354
							c-2.107-1.7-3.454-4.304-3.454-7.222v-69.719c0-1.661,0.436-3.218,1.201-4.566c0.206-0.362,0.435-0.71,0.686-1.039
							c1.692-2.231,4.373-3.671,7.39-3.671h101.998c3.016,0,5.697,1.441,7.391,3.671c0.492,0.648,0.902,1.361,1.211,2.127
							C313.092,302.114,313.332,303.288,313.332,304.519z" class="colorFFBC47 svgShape"></path><path fill="#ffffff" d="M253.065,334.686l-56.832,46.775c0.686,0.554,1.452,1.013,2.28,1.354l54.534-44.885l53.596,45.22
								c0.896-0.26,1.735-0.651,2.497-1.152L253.065,334.686z" class="colorFFF svgShape"></path><path fill="#ffffff" d="M313.332,304.519l-2.781,7.521l-41.772,29.726c-4.46,3.173-9.711,4.851-15.185,4.851
							c-5.474,0-10.725-1.678-15.185-4.851l-41.772-29.726l-3.858-7.521c0-2.107,0.701-4.049,1.887-5.606
							c1.692-2.231,4.373-3.671,7.39-3.671h101.998c3.016,0,5.697,1.441,7.391,3.671
							C312.631,300.47,313.332,302.412,313.332,304.519z" class="colorFFF svgShape"></path><path fill="#ffcb70" d="M312.656,301.039l-5.028,9.897l-40.168,28.907c-8.3,5.972-19.43,5.972-27.73,0l-40.168-28.907
							l-5.581-10.985c0.206-0.362,0.435-0.71,0.686-1.039c1.692-2.231,4.373-3.671,7.39-3.671h101.998
							c3.016,0,5.697,1.441,7.391,3.671C311.938,299.561,312.347,300.274,312.656,301.039z" class="colorFFCB70 svgShape"></path></g><g fill="#000000" class="color000 svgShape"><circle cx="196.233" cy="299.717" r="15.087" fill="#db6565" transform="rotate(-45.001 196.23 299.72)" class="colorDB6565 svgShape"></circle></g></g><g fill="#000000" class="color000 svgShape"><path fill="#9dc8ff" d="M1247.057 345.995c-.849-.007-1.706-.057-2.545-.148-.626-.068-1.078-.631-1.01-1.257.068-.626.631-1.079 1.257-1.01 1.573.171 3.197.179 4.775.024.627-.065 1.185.396 1.247 1.023.062.627-.396 1.185-1.023 1.246C1248.866 345.962 1247.958 346.003 1247.057 345.995zM1239.73 344.792c-.116-.001-.233-.02-.348-.058-1.662-.548-3.272-1.276-4.786-2.161-.544-.318-.727-1.016-.408-1.56.318-.543 1.016-.726 1.56-.408 1.376.805 2.839 1.466 4.349 1.964.598.197.923.842.725 1.44C1240.662 344.492 1240.212 344.796 1239.73 344.792zM1254.544 344.869c-.479-.004-.923-.313-1.077-.794-.191-.6.14-1.241.74-1.433 1.515-.483 2.985-1.129 4.368-1.92.546-.312 1.243-.122 1.556.424.312.547.122 1.243-.425 1.556-1.522.869-3.139 1.58-4.806 2.112C1254.782 344.852 1254.662 344.87 1254.544 344.869zM1231.124 339.761c-.271-.002-.542-.1-.758-.297-1.296-1.179-2.472-2.496-3.495-3.915-.368-.511-.253-1.224.258-1.591.511-.368 1.224-.253 1.592.258.93 1.291 2 2.489 3.179 3.561.466.424.5 1.145.076 1.611C1231.75 339.638 1231.437 339.764 1231.124 339.761zM1263.2 339.927c-.311-.003-.619-.131-.842-.382-.419-.47-.377-1.191.093-1.61 1.189-1.06 2.271-2.247 3.215-3.529.374-.507 1.088-.614 1.594-.242.507.374.615 1.087.242 1.594-1.038 1.409-2.228 2.714-3.535 3.879C1263.747 339.834 1263.473 339.929 1263.2 339.927zM1225.299 331.676c-.435-.004-.848-.257-1.035-.681-.706-1.603-1.245-3.285-1.6-5-.128-.616.269-1.22.885-1.348.617-.128 1.22.269 1.348.885.323 1.559.812 3.087 1.454 4.544.254.576-.007 1.25-.584 1.503C1225.615 331.646 1225.456 331.677 1225.299 331.676zM1269.109 331.9c-.155-.001-.311-.034-.46-.102-.574-.26-.828-.935-.568-1.509.657-1.45 1.162-2.974 1.5-4.53.134-.615.742-1.005 1.357-.871.615.134 1.005.741.871 1.357-.373 1.712-.928 3.389-1.651 4.985C1269.965 331.654 1269.546 331.903 1269.109 331.9zM1223.273 321.918c-.63-.005-1.136-.52-1.131-1.15l.001-.099c.014-1.758.212-3.512.586-5.215.135-.615.743-1.005 1.358-.869.615.135 1.004.743.869 1.358-.34 1.548-.52 3.144-.533 4.743l-.001.099C1224.417 321.417 1223.902 321.923 1223.273 321.918zM1271.234 322.162c-.629-.005-1.135-.518-1.131-1.147.01-1.6-.146-3.198-.465-4.75-.126-.617.271-1.22.888-1.346.621-.126 1.22.271 1.346.888.35 1.707.522 3.465.511 5.223-.004.63-.518 1.137-1.147 1.133C1271.235 322.162 1271.235 322.162 1271.234 322.162zM1225.418 312.086c-.155-.001-.312-.034-.463-.103-.573-.261-.826-.937-.565-1.51.725-1.591 1.621-3.113 2.664-4.524.375-.506 1.089-.613 1.595-.239.506.374.613 1.089.239 1.595-.949 1.283-1.764 2.666-2.423 4.113C1226.273 311.841 1225.854 312.09 1225.418 312.086zM1269.23 312.401c-.436-.004-.849-.258-1.035-.683-.638-1.456-1.433-2.85-2.362-4.146-.367-.512-.25-1.224.262-1.591.511-.367 1.224-.25 1.591.262 1.022 1.424 1.897 2.959 2.598 4.56.253.577-.01 1.249-.587 1.502C1269.544 312.372 1269.385 312.402 1269.23 312.401zM1231.345 304.071c-.311-.002-.621-.132-.844-.384-.418-.471-.375-1.192.096-1.61 1.311-1.163 2.747-2.191 4.267-3.056.547-.312 1.243-.119 1.555.428.311.547.12 1.243-.428 1.555-1.382.786-2.688 1.721-3.88 2.779C1231.891 303.979 1231.617 304.073 1231.345 304.071zM1263.42 304.303c-.272-.002-.543-.101-.759-.298-1.177-1.075-2.47-2.029-3.841-2.835-.543-.319-.724-1.018-.405-1.561.319-.543 1.017-.725 1.561-.405 1.508.886 2.929 1.935 4.223 3.117.465.425.498 1.146.073 1.611C1264.044 304.181 1263.732 304.306 1263.42 304.303zM1240.01 299.148c-.48-.004-.925-.314-1.077-.796-.19-.6.143-1.241.743-1.431 1.668-.528 3.399-.881 5.144-1.049.628-.057 1.184.399 1.244 1.026.06.627-.399 1.184-1.026 1.244-1.586.153-3.159.473-4.674.953C1240.246 299.132 1240.127 299.149 1240.01 299.148zM1254.825 299.255c-.116-.001-.234-.02-.35-.059-1.508-.501-3.077-.844-4.661-1.02-.626-.07-1.077-.633-1.007-1.259.07-.626.629-1.076 1.259-1.007 1.743.194 3.469.571 5.129 1.123.597.198.921.844.722 1.442C1255.757 298.955 1255.307 299.259 1254.825 299.255zM1257.45 309.364c-3.8 5.216-7.6 10.433-11.4 15.649-2.595-2.476-5.19-4.953-7.785-7.429-1.591 1.992-3.183 3.984-4.775 5.976 4.411 2.969 8.821 5.937 13.232 8.906 5.711-6.036 12.54-9.968 18.251-16.004C1262.838 314.797 1259.584 311.028 1257.45 309.364z" class="color9DC8FF svgShape"></path></g><g fill="#000000" class="color000 svgShape"><path fill="#9dc8ff" d="M211.041 156.095c-.849-.007-1.706-.057-2.545-.148-.626-.068-1.078-.631-1.01-1.257.068-.626.631-1.079 1.257-1.01 1.573.171 3.197.179 4.775.024.627-.065 1.185.396 1.247 1.023.062.627-.396 1.185-1.023 1.247C212.85 156.062 211.941 156.102 211.041 156.095zM203.713 154.892c-.116-.001-.233-.019-.348-.058-1.662-.548-3.272-1.276-4.786-2.161-.544-.318-.727-1.016-.408-1.56.318-.543 1.016-.726 1.56-.409 1.376.805 2.839 1.466 4.349 1.964.598.197.923.842.725 1.44C204.645 154.591 204.195 154.896 203.713 154.892zM218.528 154.968c-.479-.004-.923-.313-1.077-.794-.191-.6.14-1.242.74-1.433 1.515-.483 2.985-1.129 4.368-1.92.546-.312 1.243-.122 1.556.424.312.547.122 1.243-.425 1.556-1.522.87-3.139 1.58-4.806 2.112C218.766 154.952 218.645 154.969 218.528 154.968zM195.107 149.861c-.271-.002-.541-.1-.758-.297-1.296-1.179-2.472-2.496-3.495-3.915-.368-.511-.253-1.224.258-1.592.511-.368 1.224-.252 1.592.258.93 1.291 2 2.489 3.179 3.562.466.424.5 1.145.077 1.611C195.733 149.738 195.42 149.864 195.107 149.861zM227.183 150.027c-.311-.003-.619-.131-.842-.382-.419-.47-.377-1.191.093-1.61 1.189-1.06 2.271-2.247 3.216-3.529.374-.507 1.088-.614 1.594-.242.507.374.615 1.087.242 1.594-1.038 1.409-2.228 2.714-3.535 3.879C227.73 149.934 227.456 150.029 227.183 150.027zM189.282 141.775c-.435-.004-.848-.257-1.035-.681-.706-1.603-1.245-3.285-1.6-5-.128-.616.269-1.22.885-1.348.617-.128 1.22.268 1.348.885.323 1.559.812 3.087 1.454 4.544.254.576-.007 1.249-.584 1.503C189.598 141.745 189.439 141.777 189.282 141.775zM233.092 142c-.155-.001-.311-.034-.461-.102-.574-.26-.828-.935-.568-1.509.657-1.45 1.162-2.974 1.5-4.529.134-.615.742-1.005 1.357-.871.615.134 1.005.741.872 1.357-.373 1.712-.928 3.389-1.651 4.985C233.948 141.753 233.529 142.003 233.092 142zM187.256 132.017c-.63-.005-1.136-.52-1.131-1.149l.001-.099c.014-1.758.212-3.512.586-5.215.135-.615.743-1.005 1.358-.869.615.135 1.004.743.869 1.358-.34 1.548-.52 3.144-.533 4.743l-.001.099C188.401 131.516 187.886 132.023 187.256 132.017zM235.217 132.262c-.629-.005-1.135-.518-1.131-1.147.01-1.6-.146-3.198-.465-4.75-.126-.617.271-1.22.888-1.346.621-.126 1.22.271 1.346.888.35 1.707.522 3.465.511 5.222-.004.63-.518 1.137-1.147 1.133C235.219 132.262 235.218 132.262 235.217 132.262zM189.401 122.186c-.155-.001-.312-.034-.463-.103-.573-.261-.826-.937-.565-1.51.725-1.591 1.621-3.113 2.664-4.524.375-.506 1.088-.613 1.595-.239.506.374.613 1.089.239 1.595-.949 1.283-1.764 2.666-2.423 4.113C190.256 121.941 189.838 122.19 189.401 122.186zM233.213 122.501c-.436-.004-.85-.258-1.036-.683-.638-1.455-1.433-2.85-2.362-4.146-.367-.512-.25-1.224.262-1.591.511-.367 1.224-.25 1.591.262 1.023 1.425 1.897 2.959 2.598 4.56.253.577-.01 1.249-.587 1.502C233.527 122.471 233.369 122.502 233.213 122.501zM195.328 114.171c-.311-.003-.621-.132-.844-.384-.418-.471-.375-1.192.096-1.61 1.311-1.163 2.747-2.191 4.267-3.056.547-.312 1.243-.12 1.555.428.311.547.12 1.243-.428 1.555-1.382.786-2.688 1.721-3.881 2.779C195.875 114.078 195.601 114.173 195.328 114.171zM227.403 114.403c-.272-.002-.543-.101-.759-.298-1.177-1.075-2.47-2.029-3.841-2.835-.543-.319-.724-1.018-.405-1.561.319-.543 1.017-.725 1.561-.405 1.508.886 2.929 1.935 4.223 3.117.465.425.498 1.146.073 1.611C228.027 114.28 227.715 114.405 227.403 114.403zM203.993 109.248c-.48-.004-.925-.313-1.077-.796-.19-.6.143-1.241.743-1.431 1.668-.528 3.399-.881 5.144-1.049.628-.057 1.184.399 1.244 1.026.06.627-.399 1.184-1.026 1.244-1.586.153-3.159.474-4.674.953C204.23 109.232 204.11 109.249 203.993 109.248zM218.809 109.354c-.116-.001-.234-.02-.351-.059-1.508-.501-3.077-.844-4.662-1.02-.626-.07-1.077-.633-1.007-1.259.07-.626.629-1.076 1.259-1.007 1.743.194 3.469.571 5.129 1.123.597.198.921.844.722 1.442C219.74 109.055 219.29 109.358 218.809 109.354zM221.433 119.463c-3.8 5.216-7.6 10.433-11.4 15.649-2.595-2.476-5.19-4.953-7.785-7.429-1.591 1.992-3.183 3.984-4.775 5.976 4.411 2.969 8.821 5.937 13.232 8.906 5.711-6.036 12.541-9.968 18.251-16.004C226.821 124.897 223.567 121.128 221.433 119.463z" class="color9DC8FF svgShape"></path></g><g fill="#000000" class="color000 svgShape"><circle cx="1220.441" cy="226.094" r="9.474" fill="#b4d2fa" transform="rotate(-45.001 1220.445 226.109)" class="colorB4D2FA svgShape"></circle></g><g fill="#000000" class="color000 svgShape"><circle cx="1263.353" cy="462.009" r="9.474" fill="#b4d2fa" transform="rotate(-45.001 1263.353 462.026)" class="colorB4D2FA svgShape"></circle></g><g fill="#000000" class="color000 svgShape"><circle cx="1170.003" cy="134.962" r="9.474" fill="#b4d2fa" transform="rotate(-45.001 1170.007 134.976)" class="colorB4D2FA svgShape"></circle></g><g fill="#000000" class="color000 svgShape"><path fill="#b4d2fa" d="M300.828,47.716c1.038-5.129,6.037-8.444,11.166-7.406c5.128,1.038,8.444,6.037,7.406,11.166
				c-1.038,5.129-6.037,8.444-11.166,7.406C303.105,57.844,299.79,52.845,300.828,47.716z" class="colorB4D2FA svgShape"></path></g><g fill="#000000" class="color000 svgShape"><circle cx="187.546" cy="193.522" r="9.474" fill="#b4d2fa" transform="rotate(-76.768 187.537 193.513)" class="colorB4D2FA svgShape"></circle></g><g fill="#000000" class="color000 svgShape"><circle cx="1239.16" cy="190.668" r="14.42" fill="#b4d2fa" transform="rotate(-76.714 1239.257 190.646)" class="colorB4D2FA svgShape"></circle></g><g fill="#000000" class="color000 svgShape"><path fill="#b4d2fa" d="M372.844,71.963c1.58-7.806,9.189-12.853,16.995-11.272c7.806,1.58,12.853,9.189,11.272,16.995
				s-9.189,12.853-16.995,11.272C376.31,87.377,371.263,79.769,372.844,71.963z" class="colorB4D2FA svgShape"></path></g><g fill="#000000" class="color000 svgShape"><path fill="#326ab3" d="M981.737,106.794v205.243c-23.823,0-45.406-9.628-61.046-25.216
					c-24.81-24.713-25.445-55.351-25.454-61.117c4.373-8.226,10.007-21.407,11.708-38.414c2.83-28.434-7.053-50.361-11.893-59.556
					c13.04-2.901,29.068-10.121,45.432-20.86l41.033-0.079H981.737z" class="color326AB3 svgShape"></path><path fill="#9bbdeb" d="M981.737,116.872V301.96c-20.367,0-39.507-7.909-53.94-22.28c-18.973-18.912-22.024-42.064-22.42-51.622
					c6.321-12.573,10.218-25.93,11.602-39.772c2.16-21.715-2.292-40.283-7.882-54.17c10.853-3.835,22.659-9.716,34.367-17.166
					L981.737,116.872z" class="color9BBDEB svgShape"></path><path fill="#b4d2fa" d="M981.737,122.206v174.429c-18.982-0.009-36.854-7.388-50.308-20.79
					c-17.096-17.034-20.313-37.876-20.86-47.099c6.181-12.59,10.016-25.974,11.391-39.79c1.746-17.457-0.441-34.746-6.507-51.48
					c9.549-3.738,19.714-8.94,29.695-15.2L981.737,122.206z" class="colorB4D2FA svgShape"></path><polygon fill="#ffffff" points="981.737 204.986 981.737 230.739 944.531 208.979 958.84 187.335 980.873 206.379" class="colorFFF svgShape"></polygon><path fill="#2860a8" d="M1068.229,225.387c0.018,5.757-0.503,36.404-25.216,61.205c-15.623,15.676-37.233,25.401-61.117,25.445
				h-0.159V301.96h0.141c20.411-0.035,39.587-8.023,53.993-22.482c18.903-18.974,21.865-42.144,22.236-51.71
				c-6.375-12.537-10.324-25.886-11.753-39.719c-2.249-21.715,2.143-40.301,7.67-54.205c-10.862-3.791-22.685-9.628-34.429-17.043
				l-37.859,0.071v-10.077l40.803-0.079c16.408,10.686,32.463,17.845,45.512,20.693c-4.814,9.222-14.609,31.176-11.673,59.601
				C1058.143,204.016,1063.829,217.179,1068.229,225.387z" class="color2860A8 svgShape"></path><path fill="#8fb4e6" d="M1058.107,227.768c-0.371,9.566-3.333,32.736-22.236,51.71c-14.406,14.459-33.582,22.447-53.993,22.482
				h-0.141v-5.325h0.132c19.035-0.044,36.915-7.485,50.352-20.975c17.034-17.095,20.181-37.956,20.692-47.187
				c-6.233-12.564-10.121-25.93-11.55-39.745c-1.799-17.439,0.326-34.747,6.321-51.498c-9.566-3.703-19.74-8.87-29.747-15.094
				l-36.201,0.071v-5.334l37.859-0.071c11.744,7.415,23.567,13.251,34.429,17.043c-5.527,13.904-9.919,32.489-7.67,54.205
				C1047.783,201.882,1051.733,215.23,1058.107,227.768z" class="color8FB4E6 svgShape"></path><path fill="#a7c9f5" d="M1052.914,228.473c-0.511,9.231-3.659,30.091-20.692,47.187c-13.437,13.49-31.317,20.931-50.352,20.975
				h-0.132v-65.896l0.035,0.018l48.774-52.882l-21.786-16.487l-27.023,43.598v-82.78l36.201-0.071
				c10.007,6.224,20.181,11.391,29.747,15.094c-5.995,16.752-8.12,34.059-6.321,51.498
				C1042.793,202.543,1046.681,215.909,1052.914,228.473z" class="colorA7C9F5 svgShape"></path><polygon fill="#f0f2fa" points="1030.546 177.874 981.773 230.757 981.737 230.739 981.737 204.986 1008.76 161.387" class="colorF0F2FA svgShape"></polygon></g></svg>