<svg xmlns="http://www.w3.org/2000/svg" viewBox="0 0 4680 3120" width="550" height="550"><g data-name="2" fill="#000000" class="color000 svgShape"><rect width="4680" height="3120" fill="#ffffff" data-name="2" opacity="0" class="colorfff svgShape"></rect><path fill="#c2ddfb" d="M3519,507.17a24.08,24.08,0,0,0-20.86-12H3017.76a24.08,24.08,0,0,0-20.85,12L2756.7,923.22a24.09,24.09,0,0,0,0,24.08l240.21,416.05a24.08,24.08,0,0,0,20.85,12h480.41a24.08,24.08,0,0,0,20.86-12l240.2-416a24,24,0,0,0,0-24.08Z" class="colorc2ddfb svgShape"></path><path fill="#e7f3ff" d="M3803.27 1277.17a24.08 24.08 0 00-20.86-12H3640.75a24.1 24.1 0 00-20.86 12l-70.83 122.69a24.09 24.09 0 000 24.08l70.83 122.68a24.1 24.1 0 0020.86 12h141.66a24.08 24.08 0 0020.86-12l70.83-122.68a24.09 24.09 0 000-24.08zM3514.94 1443.21a24.08 24.08 0 00-20.86-12H3352.42a24.1 24.1 0 00-20.86 12l-70.83 122.68a24.09 24.09 0 000 24.08l70.83 122.69a24.1 24.1 0 0020.86 12h141.66a24.08 24.08 0 0020.86-12L3585.77 1590a24.09 24.09 0 000-24.08z" class="colore7f3ff svgShape"></path><path fill="#c2ddfb" d="M1693.92,2062.71a24.08,24.08,0,0,0-20.85-12H1373.36a24.08,24.08,0,0,0-20.85,12l-149.85,259.55a24.11,24.11,0,0,0,0,24.09l149.85,259.55a24.08,24.08,0,0,0,20.85,12h299.71a24.08,24.08,0,0,0,20.85-12l149.86-259.55a24.11,24.11,0,0,0,0-24.09Z" class="colorc2ddfb svgShape"></path><path fill="#aac6fc" d="M1374.09,652.07a24.77,24.77,0,1,0,24.76,24.77A24.77,24.77,0,0,0,1374.09,652.07Z" class="coloraac6fc svgShape"></path><rect width="370.82" height="49.54" x="1514.54" y="652.07" fill="#aac6fc" class="coloraac6fc svgShape"></rect><rect width="481.46" height="49.54" x="1950.09" y="652.07" fill="#aac6fc" class="coloraac6fc svgShape"></rect><rect width="367.73" height="49.54" x="2494.53" y="652.07" fill="#aac6fc" class="coloraac6fc svgShape"></rect><path fill="#aac6fc" d="M1374.09,739.18A24.77,24.77,0,1,0,1398.85,764,24.77,24.77,0,0,0,1374.09,739.18Z" class="coloraac6fc svgShape"></path><rect width="825.5" height="49.54" x="1514.54" y="739.18" fill="#aac6fc" class="coloraac6fc svgShape"></rect><rect width="200.65" height="49.54" x="2404.77" y="739.18" fill="#aac6fc" class="coloraac6fc svgShape"></rect><rect width="193.87" height="49.54" x="2668.39" y="739.18" fill="#aac6fc" class="coloraac6fc svgShape"></rect><path fill="#aac6fc" d="M1374.09,826.28a24.77,24.77,0,1,0,24.76,24.77A24.77,24.77,0,0,0,1374.09,826.28Z" class="coloraac6fc svgShape"></path><rect width="435.55" height="49.54" x="1514.54" y="826.28" fill="#aac6fc" class="coloraac6fc svgShape"></rect><rect width="590.59" height="49.54" x="2014.82" y="826.28" fill="#aac6fc" class="coloraac6fc svgShape"></rect><rect width="193.87" height="49.54" x="2668.39" y="826.28" fill="#aac6fc" class="coloraac6fc svgShape"></rect><path fill="#aac6fc" d="M1374.09,913.39a24.77,24.77,0,1,0,24.76,24.77A24.77,24.77,0,0,0,1374.09,913.39Z" class="coloraac6fc svgShape"></path><rect width="103.45" height="49.54" x="1514.54" y="913.39" fill="#aac6fc" class="coloraac6fc svgShape"></rect><rect width="267.38" height="49.54" x="1682.72" y="913.39" fill="#aac6fc" class="coloraac6fc svgShape"></rect><rect width="849.19" height="49.54" x="2013.06" y="913.39" fill="#aac6fc" class="coloraac6fc svgShape"></rect><path fill="#aac6fc" d="M1374.09,1000.5a24.77,24.77,0,1,0,24.76,24.76A24.76,24.76,0,0,0,1374.09,1000.5Z" class="coloraac6fc svgShape"></path><rect width="370.82" height="49.54" x="1514.54" y="1000.5" fill="#aac6fc" class="coloraac6fc svgShape"></rect><rect width="655.32" height="49.54" x="1950.09" y="1000.5" fill="#aac6fc" class="coloraac6fc svgShape"></rect><rect width="193.87" height="49.54" x="2668.39" y="1000.5" fill="#aac6fc" class="coloraac6fc svgShape"></rect><path fill="#aac6fc" d="M1374.09,1087.6a24.77,24.77,0,1,0,24.76,24.77A24.77,24.77,0,0,0,1374.09,1087.6Z" class="coloraac6fc svgShape"></path><rect width="620.97" height="49.54" x="1514.54" y="1087.6" fill="#aac6fc" class="coloraac6fc svgShape"></rect><rect width="231.32" height="49.54" x="2200.24" y="1087.6" fill="#aac6fc" class="coloraac6fc svgShape"></rect><rect width="367.73" height="49.54" x="2494.53" y="1087.6" fill="#aac6fc" class="coloraac6fc svgShape"></rect><path fill="#aac6fc" d="M1374.09,1174.71a24.77,24.77,0,1,0,24.76,24.76A24.77,24.77,0,0,0,1374.09,1174.71Z" class="coloraac6fc svgShape"></path><rect width="206.9" height="49.54" x="1514.54" y="1174.71" fill="#aac6fc" class="coloraac6fc svgShape"></rect><rect width="819.25" height="49.54" x="1786.17" y="1174.71" fill="#aac6fc" class="coloraac6fc svgShape"></rect><rect width="193.87" height="49.54" x="2668.39" y="1174.71" fill="#aac6fc" class="coloraac6fc svgShape"></rect><path fill="#4e7aaf" d="M2555.39 2391.55h-45.66a5.32 5.32 0 00-5.33 5.32v45.67c0 3 3.82 5.07 6.83 1.65v-45.81H2557C2560.47 2395.37 2558.38 2391.55 2555.39 2391.55zM2555.39 2618h-44.16v-45.8c-3-3.43-6.83-1.34-6.83 1.64v45.6a5.39 5.39 0 005.39 5.4H2557C2560.47 2621.85 2558.38 2618 2555.39 2618zM3705.73 2391.55h-47.88c-3.43 3-1.34 6.83 1.64 6.83h44.16v45.81c3 3.42 6.84 1.33 6.84-1.65v-46.23A4.77 4.77 0 003705.73 2391.55zM3703.65 2572.23V2618h-45.8c-3.43 3-1.34 6.84 1.64 6.84h44.9a6.1 6.1 0 006.1-6.1v-44.9C3710.49 2570.89 3706.67 2568.8 3703.65 2572.23z" class="color4e7aaf svgShape"></path><path fill="#d8eafc" d="M3542.46,2425.27h-870a82.94,82.94,0,0,0,0,165.88h870a82.94,82.94,0,0,0,0-165.88Z" class="colord8eafc svgShape"></path><path fill="#83b3ff" d="M2753.36 2486.39a21.82 21.82 0 1021.82 21.82A21.82 21.82 0 002753.36 2486.39zM2855.68 2486.39a21.82 21.82 0 1021.82 21.82A21.82 21.82 0 002855.68 2486.39z" class="color83b3ff svgShape"></path><circle cx="2958" cy="2508.21" r="21.82" fill="#83b3ff" transform="rotate(-75.13 2957.87 2508.199)" class="color83b3ff svgShape"></circle><circle cx="3060.32" cy="2508.21" r="21.82" fill="#83b3ff" class="color83b3ff svgShape"></circle><circle cx="3162.63" cy="2508.21" r="21.82" fill="#83b3ff" transform="rotate(-11.98 3163.007 2508.452)" class="color83b3ff svgShape"></circle><circle cx="3264.95" cy="2508.21" r="21.82" fill="#83b3ff" class="color83b3ff svgShape"></circle><circle cx="3367.27" cy="2508.21" r="21.82" fill="#83b3ff" class="color83b3ff svgShape"></circle><circle cx="3461.52" cy="2508.21" r="21.82" fill="#83b3ff" transform="rotate(-52.02 3461.38 2508.183)" class="color83b3ff svgShape"></circle><path fill="#4e7aaf" d="M3301.94,920.3H1622.72a110.17,110.17,0,0,0-110.16,110.17v29.94H3412.1v-29.94A110.17,110.17,0,0,0,3301.94,920.3Z" class="color4e7aaf svgShape"></path><path fill="#d8eafc" d="M1512.56,2174.13a110.16,110.16,0,0,0,110.16,110.17H3301.94a110.16,110.16,0,0,0,110.16-110.17V1072H1512.56Z" class="colord8eafc svgShape"></path><rect width="1290.27" height="212.75" x="1817.17" y="1332.76" fill="#ffffff" class="colorfff svgShape"></rect><rect width="212.75" height="212.75" x="1817.17" y="1332.76" fill="#4e7aaf" class="color4e7aaf svgShape"></rect><path fill="#ffffff" d="M1939.24,1435.84a2.46,2.46,0,0,1-.54-4.2,24.72,24.72,0,0,0,9.56-16.64,24.9,24.9,0,1,0-49.61-3,24.68,24.68,0,0,0,9.71,19.61,2.49,2.49,0,0,1-.55,4.24,39.71,39.71,0,0,0-24.2,36.51v10a8.83,8.83,0,0,0,8.83,8.84h62.21a8.83,8.83,0,0,0,8.83-8.84v-10A39.72,39.72,0,0,0,1939.24,1435.84Z" class="colorfff svgShape"></path><rect width="1290.27" height="212.75" x="1817.17" y="1602.65" fill="#ffffff" class="colorfff svgShape"></rect><rect width="212.75" height="212.75" x="1817.17" y="1602.65" fill="#4e7aaf" class="color4e7aaf svgShape"></rect><path fill="#ffffff" d="M1947.32,1689.87h-1a4.22,4.22,0,0,1-4.22-4.22v-1.78c0-11.33-8.45-21.15-19.73-22.18a21.79,21.79,0,0,0-23.79,21.67v2.29a4.22,4.22,0,0,1-4.22,4.22h-1a7.43,7.43,0,0,0-7.41,7.41v42.36a7.46,7.46,0,0,0,7.41,7.47h54a7.47,7.47,0,0,0,7.48-7.47v-42.36A7.46,7.46,0,0,0,1947.32,1689.87Zm-23,30.88v17.56a.78.78,0,0,1-.78.78h-5.25a.8.8,0,0,1-.79-.78v-17.56a9.51,9.51,0,1,1,6.82,0Zm9.42-33.94a3.06,3.06,0,0,1-3.06,3.06H1910a3.06,3.06,0,0,1-3.06-3.06v-4.26a13.43,13.43,0,0,1,15.67-13.22,13.64,13.64,0,0,1,11.15,13.59Z" class="colorfff svgShape"></path><path fill="#4e7aaf" d="M2128.2,1697a12.18,12.18,0,1,0,12.17,12.18A12.18,12.18,0,0,0,2128.2,1697Z" class="color4e7aaf svgShape"></path><circle cx="2188.82" cy="1709.15" r="12.18" fill="#4e7aaf" class="color4e7aaf svgShape"></circle><circle cx="2249.44" cy="1709.15" r="12.18" fill="#4e7aaf" class="color4e7aaf svgShape"></circle><circle cx="2310.06" cy="1709.15" r="12.18" fill="#4e7aaf" class="color4e7aaf svgShape"></circle><circle cx="2370.68" cy="1709.15" r="12.18" fill="#4e7aaf" class="color4e7aaf svgShape"></circle><circle cx="2431.3" cy="1709.15" r="12.18" fill="#4e7aaf" class="color4e7aaf svgShape"></circle><path fill="#4e7aaf" d="M2491.92,1697a12.18,12.18,0,1,0,12.18,12.18A12.17,12.17,0,0,0,2491.92,1697Z" class="color4e7aaf svgShape"></path><circle cx="2552.54" cy="1709.15" r="12.18" fill="#4e7aaf" class="color4e7aaf svgShape"></circle><path fill="#4e7aaf" d="M2613.16,1697a12.18,12.18,0,1,0,12.18,12.18A12.17,12.17,0,0,0,2613.16,1697Z" class="color4e7aaf svgShape"></path><rect width="63.57" height="63.57" x="1817.17" y="1998.59" fill="#ffffff" class="colorfff svgShape"></rect><polygon fill="#4e7aaf" points="1840.48 2035.24 1833.27 2028.04 1827.8 2033.51 1840.48 2046.18 1868.58 2018.08 1863.11 2012.61 1840.48 2035.24" class="color4e7aaf svgShape"></polygon><rect width="470.09" height="67.93" x="1931.96" y="1998.59" fill="#ffffff" rx="26.01" class="colorfff svgShape"></rect><rect width="100.74" height="49.86" x="3006.71" y="1984.21" fill="#ffffff" rx="19.09" class="colorfff svgShape"></rect><path fill="#d8eafc" d="M1608.55 974.49a20.76 20.76 0 1020.76 20.76A20.76 20.76 0 001608.55 974.49zM1697.7 974.49a20.76 20.76 0 1020.76 20.76A20.75 20.75 0 001697.7 974.49zM1792.29 974.49a20.76 20.76 0 1020.76 20.76A20.76 20.76 0 001792.29 974.49z" class="colord8eafc svgShape"></path><circle cx="1107.02" cy="1224.24" r="24.88" fill="#d8eafc" transform="rotate(-45 1107.016 1224.239)" class="colord8eafc svgShape"></circle><circle cx="1066.78" cy="1131.53" r="40.24" fill="#d8eafc" class="colord8eafc svgShape"></circle><circle cx="1032.89" cy="832.1" r="230.22" fill="#d8eafc" transform="rotate(-45 1032.889 832.104)" class="colord8eafc svgShape"></circle><path fill="#83b3ff" d="M1025.39 899a23.12 23.12 0 00-16.8 6.69 22.15 22.15 0 00-6.84 16.49q0 11 7.08 17.18a24.44 24.44 0 0016.56 6.15 23.67 23.67 0 0016.18-6.22q7-6.22 7-17.11A22.85 22.85 0 001025.39 899zM1069 718.32q-17.27-8.33-39.82-8.32-24.27 0-42.47 10T959 745.07q-9.48 15.18-9.48 29.95 0 7.15 6 13.3a19.74 19.74 0 0014.7 6.14q14.77 0 20.07-17.58 5.6-16.78 13.69-25.43t25.2-8.63q14.61 0 23.87 8.55a27.51 27.51 0 019.26 21 23.82 23.82 0 01-3 11.83 44.51 44.51 0 01-7.46 9.87q-4.44 4.44-14.39 13.15a243.41 243.41 0 00-18 17.18 57.74 57.74 0 00-10.74 16.8q-4 9.57-4 22.64 0 10.41 5.52 15.71a18.94 18.94 0 0013.61 5.28q15.55 0 18.51-16.17 1.71-7.62 2.57-10.66a32.53 32.53 0 012.41-6.06 34.21 34.21 0 014.74-6.69 108.42 108.42 0 018.48-8.48q19.14-17.12 26.52-24.34a70.81 70.81 0 0012.76-17.19q5.36-10 5.36-23.18a55.54 55.54 0 00-9.41-31.11Q1086.21 726.64 1069 718.32z" class="color83b3ff svgShape"></path><circle cx="958.02" cy="2114.81" r="28.71" fill="#ff9739" transform="rotate(-67.5 958.017 2114.81)" class="colorff9739 svgShape"></circle><rect width="667.91" height="38.28" x="1019.4" y="2095.67" fill="#ff9739" rx="12.65" class="colorff9739 svgShape"></rect><circle cx="958.02" cy="2220.29" r="28.71" fill="#ff9739" transform="rotate(-13.28 958.238 2220.687)" class="colorff9739 svgShape"></circle><rect width="667.91" height="38.28" x="1019.4" y="2201.15" fill="#ff9739" rx="12.65" class="colorff9739 svgShape"></rect><circle cx="958.02" cy="2325.76" r="28.71" fill="#ff9739" transform="rotate(-9.22 957.709 2325.177)" class="colorff9739 svgShape"></circle><rect width="667.91" height="38.28" x="1019.4" y="2306.62" fill="#ff9739" rx="12.65" class="colorff9739 svgShape"></rect><circle cx="958.02" cy="2431.24" r="28.71" fill="#ff9739" transform="rotate(-9.22 957.697 2430.59)" class="colorff9739 svgShape"></circle><rect width="667.91" height="38.28" x="1019.4" y="2412.1" fill="#ff9739" rx="12.65" class="colorff9739 svgShape"></rect><path fill="#5a251c" d="M1684.64,1973.57a11.6,11.6,0,0,0-2.32-4.3c-6.46-7.43-16.23-13.14-24.88-17.59-6.93-3.57-19.92-8.39-24.08-1.73-97.3,11.5-195-8.2-290.09,15.31-9.7-8-19.49-15.58-29.2-23.61-16.27-1.05-33.91-.25-48.07,7.83s-25.16,22.72-26.06,39c-.8,14.66,6.3,28.51,13.78,41.14,10.13,17.09,22.3,33,34.49,48.65,85.59,4.3,168-1.47,253.51,4.26,24.54,1.65,49.45,2.49,73.48-2.76s47.38-17.23,62-37a71.07,71.07,0,0,0,11.23-23.25,64.35,64.35,0,0,0,.8-32.17C1688.05,1982.62,1686.12,1978.16,1684.64,1973.57Z" class="color5a251c svgShape"></path><path fill="#f2b79c" d="M1422.87,2035.69c-.15-.25-.34-.54-.49-.78s-.39-.1-.88-.1c-1.07,0-2.83,0-2.78,0a54.81,54.81,0,0,0-7.43.58c-1.12.2-2.24.39-3.41.64a73,73,0,0,0-11.09,3.27c-2.93,1.12-6.11,2.3-8.6,4.3s-4,3.32-6.94,4.44c-8.2,3.13-16.46,6.16-24.71,9.24-12.26,4.54-19.69,15.14-27.16,25.84,2,18.51,8.35,39.71,15.73,56.76a32.32,32.32,0,0,0,5.27,9.18c2.39,2.64,5.77,4.59,9.28,4.5,2-5.23,4-12.17,6-17.44q23-13.64,46-27.31c8.15-4.83,16.31-9.72,24.52-14.56-.3-4.1-1.08-8.45-.34-12.55.24-1.46.78-2.88.92-4.35.49-4.64-1-9.86-2.1-14.31A95.09,95.09,0,0,0,1422.87,2035.69Z" class="colorf2b79c svgShape"></path><path fill="#de8567" d="M1422.87,2035.69c-.44-.3-.88-.59-1.37-.88-3.51-2.1-8-4.06-11.28-1.61a7.65,7.65,0,0,0-2.34,2.88c-2.4,4.83-.74,12.55-.4,17.19.64,8.5,1.27,17,1.91,25.45.68,9.53,1.42,19.05,2.1,28.58,0,.54.1,1,.15,1.56,8.15-4.83,16.31-9.72,24.52-14.56-.3-4.1-1.08-8.45-.34-12.55.24-1.46.78-2.88.92-4.35.49-4.64-1-9.86-2.1-14.31A95.09,95.09,0,0,0,1422.87,2035.69Z" class="colorde8567 svgShape"></path><path fill="#732e22" d="M1624.22,1958.7c-38.78,1.08-71.56,28.48-107.27,43.62-29.75,12.61-51.53,22.47-96.42,27.46-4.55.48-8.89-.59-13.34-1.66,9.23,11.23,12.56,27.89,16.56,41.57a161.18,161.18,0,0,1,6.74,39.07c3.32-1.66,3.76-6.49,7.48-6.44h.19c18.72.37,37.46.54,56.17,1.15,19,.62,38-.11,56.92,1.66,14.08,1.31,28,4.07,42,5.67,23.74,2.71,46.89.55,70.61.55a1.65,1.65,0,0,0,.83-.14,134.13,134.13,0,0,0,44.74-59.16c9.14-23.79,4.25-51.44-7.86-73.86C1678.49,1967.06,1649.87,1958,1624.22,1958.7Z" class="color732e22 svgShape"></path><path fill="#5a251c" d="M1491.26,2082.29c-13,1.71-26.38,3.52-38.2,9.23a49.3,49.3,0,0,0-14.9,10.8c18.31.36,36.66.45,55,1.14,19.16.73,38.38-.15,57.5,1.61,14.18,1.31,28.2,4.06,42.36,5.68a325.14,325.14,0,0,0,38.34,1.92q9.62-.06,19.22-.51,4.8-.21,9.6-.51c1.48-.09,5.49-2,6.34-1.91-25-3.13-46.65-18.27-70.59-25.89C1562.38,2073.15,1526.14,2077.7,1491.26,2082.29Z" class="color5a251c svgShape"></path><path fill="#f2b79c" d="M1531,2499.55c-.24-.78-.49-1.57-.78-2.4-7.28-3.46-17.39-12-22.91-17.87,1.91-6.45-.83-13.14-4.25-19-7.08-1.71-15.09-4.78-22.18-6.54-20.51-25.11-38.34-49.34-57.93-68.44-3.81-9.72-7.67-19.44-11.48-29.16q-5.94-15-11.87-30.09c-1.69-4.23-26.58,4.84-30.18,6.4-4,1.73-2.81,18.6-3.19,22.3a112.21,112.21,0,0,1-7,28.35c-3.11,8.17-7.13,15.6-7,24.62.26,13.88,8.59,25.09,16.33,35.91,6.1,8.53,11.57,16.55,14.19,26.9,1.82,7.14,4.79,8.53,9,13.65,1.94,2.34,1.91,5.68,2.66,8.49,2,7.52,3.52,15.24,2,23a18.65,18.65,0,0,0,7.91,18.56,18.88,18.88,0,0,0,20.33-.15,15.45,15.45,0,0,0,12.06,7.23c4.84.25,11.28-2,14.27-5.81,7,4.82,23.88,5.24,26.61-4.72,1.68-6.1.77-10.91-1.62-16.5-1.69-4-3.66-12.06-6.38-15.17.34.39.68.73,1,1.07,4.92,4.92,10.33,9.23,14.83,14.52,6.11,7.18,13,13.65,22.89,14.14,16,.79,26.74-14.22,22.51-29.29Z" class="colorf2b79c svgShape"></path><path fill="#de8567" d="M1456.38 2528.71c-3.76-7.38-7.47-14.75-11.23-22.13 2.29 7.52 3.37 15.49 5.66 23.06-5.42 1.51-12.6.24-17.83-1.76-2.24-7.87-4.54-15.68-6.79-23.55.59 6.79-1.17 14.76-.53 21.55a12 12 0 01-11.73 2.39c-3.71-1.27-5.47-4-7.37-7.18-4.3-7.13-5.57-15.44-6.89-23.59-2.15-13.58-3.32-27.55-8.79-40.16-3.62-8.25-9-15.68-12.22-24.08s-5.52-20-.24-27.31c-4-1.17-6.69-5-7.67-9s-.63-8.26-.19-12.36c1.22-12.51 2.49-25 3.71-37.52.39-4-1.86-7.66-5.28-10.5-.63 5.67-1.71 11.29-2.83 16.9-.78 3.72-.54 7.57-1.12 11.34a45.9 45.9 0 01-1.52 6.3 118.7 118.7 0 01-4.59 12c-3.27 7.87-6.79 16-6.6 24.67.52 23 22 37.9 28.93 58.74 1.14 3.45 2 7 3.5 10.35a14.58 14.58 0 002.81 4.54c1.27 1.18 3.12 1.57 4.33 2.92 1.76 2 2 6 2.64 8.4 2 7.52 3.52 15.24 2 23a18.65 18.65 0 007.91 18.56 18.88 18.88 0 0020.33-.15 15.45 15.45 0 0012.06 7.23c4.84.25 11.28-2 14.26-5.81 6.45 4.44 18.86 3.75 25.3-.64.49-2.69 1.42-5.18 1.91-7.67C1472.64 2528.46 1461.56 2529.3 1456.38 2528.71zM1518.66 2511.81a30.05 30.05 0 01-18.17 3.22c-9.23-1.27-15-9.18-21.74-15.63a8 8 0 01-.14-1.42c-.1-1-.2-1.95-.3-2.88-.24-1.9-.48-3.81-.88-5.71a65.71 65.71 0 00-2.49-9.19 5.32 5.32 0 00-2.24-2.29 21.45 21.45 0 00-7.09-3.42 207.62 207.62 0 005.18 25.74c5.52 5.67 11.82 10.11 16.66 16.37 5.18 6.69 8.11 9 16.85 12.16 10.21.24 19.25-.39 24-9.38 3.71-7 4.73-12.65 2.73-19.78A30.1 30.1 0 011518.66 2511.81z" class="colorde8567 svgShape"></path><path fill="#de8567" d="M1503.09 2496.4a7.67 7.67 0 00-3.53 2.82 8 8 0 00-.45 4.68c.41 3.78 3 7 3.45 10.83a70.72 70.72 0 0022.13-15.6 32 32 0 00-3-10A103.43 103.43 0 001503.09 2496.4zM1469.86 2509.88a39.9 39.9 0 01-5.42 2.93 8.37 8.37 0 01-2.79.82c-2.33.13-4.35-1.52-6.09-3.07.68 3.86 1.24 8.27 3.11 11.72a7.28 7.28 0 003.06 3.39c1.69.76 3.68.26 5.36-.51a9.74 9.74 0 004.4-3.52 9 9 0 001-6.08C1472.18 2513.49 1470.65 2511.82 1469.86 2509.88zM1446.08 2516.86c-.33-2-.95-4-3.35-3.9a16.49 16.49 0 00-4.86 1.45l-5.15 1.91a2.42 2.42 0 00-1.62 1.22 2.33 2.33 0 00.35 1.79 46.24 46.24 0 004.07 6.65 6.67 6.67 0 003.06 2.64c1.48.47 3.07-.08 4.52-.62a6 6 0 002.77-1.64 5.78 5.78 0 00.79-3.85A51 51 0 001446.08 2516.86zM1423.45 2511.2a11.56 11.56 0 00-2.42.65 17.55 17.55 0 01-2.7.48 17.24 17.24 0 01-5.5-.37 15.84 15.84 0 01-2.61-.83c-.24-.1-2.45-1-2.4-1.25a27.84 27.84 0 00-1.09 6.06 8.21 8.21 0 006.59 8.91 27 27 0 005.88.73c1.72.09 3.68.08 4.83-1.2a5.49 5.49 0 001.09-3 50.43 50.43 0 00.53-7.47C1425.65 2512.5 1425.09 2511.13 1423.45 2511.2zM1375.1 2330.34q-2.86 19-5.77 37.86a76.21 76.21 0 0018.18-2 77.17 77.17 0 0015.53-5.37c2.59-1.22 6-2.59 8.45-4.69q-5.94-15-11.87-30.09C1391.8 2325.84 1383 2327.65 1375.1 2330.34z" class="colorde8567 svgShape"></path><path fill="#732e22" d="M1414.23,2334.93c-2.4-128.18-48.71-255.77-120.85-361.77-7.23-10.6-39.18-18.22-39.18-18.22-54.56-2.44-102,10.6-153.38,28.33l-3.81,1.32c-6.45,2.25-11,5.52-17.64,7.13-11.67-3.17-22.13-5.52-32-10.11,4.74,21.5,10.94,36.05,17,57.15,6.79,23.94,26.18,41.33,50.07,48.27,25.59,7.42,53.44,8.74,80,6.74,0,4.64,2,9.23,4.15,13.33,4.15-1.66,8.79-4.15,13-5.81-.15,5.28-.15,10.55.09,15.83.59,10.45,2.25,20.9,6.26,30.58,9,21.78,28.43,36.68,44.4,53.09,17.63,18.22,37.71,29.36,50.56,56.86,17,34.88,32,57.3,44.5,89.74,0,2.83,0,6.54,0,9.52v.59c21.88,5.57,46.4.58,64.09-13.44C1419.7,2341,1414.27,2338.4,1414.23,2334.93Z" class="color732e22 svgShape"></path><path fill="#5a251c" d="M1298.75,2187.46c-24.52-30.39-78.45-55.79-72.1-94.33,2.93-17.63,7.67-36,16.75-51.39q-16.85,13.2-33.65,26.43c.68-12.94,3.27-27.06,10-38.1-6.45,7.23-13.43,13.43-19.88,20.66-20.42,2.59-42.11,2.64-57.74-10.79a154.25,154.25,0,0,1-41.32-56.67l-3.81,1.32c-6.45,2.25-11,5.52-17.64,7.13-11.67-3.17-22.13-5.52-32-10.11,4.74,21.5,10.94,36.05,17,57.15,6.79,23.94,26.18,41.33,50.07,48.27,25.59,7.42,53.44,8.74,80,6.74,0,4.64,2,9.23,4.15,13.33,4.15-1.66,8.79-4.15,13-5.81-.15,5.28-.15,10.55.09,15.83.59,10.45,2.25,20.9,6.26,30.58,9,21.78,28.43,36.68,44.4,53.09,17.63,18.22,37.71,29.36,50.56,56.86,17,34.88,32,57.3,44.5,89.74,0,2.83,0,6.54,0,9.52A55.12,55.12,0,0,0,1364,2332c.49-15.05-4-29.8-9.18-43.92C1341.44,2251.89,1323,2217.45,1298.75,2187.46Z" class="color5a251c svgShape"></path><path fill="#dd2f37" d="M1347,1740.92s-14.82-23.39-16.48-64.61-34.24-121.49-43.28-128.14-30.07-12.82-30.07-12.82l-.4,2.15c-3.32,19.29-27.11,162.11-2.9,187.47,25.94,27.18,52.34,115,52.34,118.71s-1.66,16.87-1.66,16.87a149.46,149.46,0,0,0,19,15.27c10.12,7,21.08,14.19,24.25,16.28h0c.2.13.36.26.49.33a3.1,3.1,0,0,0,.36.26l0,0c5.35-3.72,6.17-16.9,6.17-16.9s-8.22,8.22-11.13-14,7.87-96.2,11.17-102.79,11.09-3.11,11.09-3.11l-5.75-15C1351.93,1737.92,1347,1740.92,1347,1740.92Z" class="colordd2f37 svgShape"></path><path fill="#a51119" d="M1311.34,1862.73c-12.07-22.47,18.53-67.28,18.53-67.28-36.48-1.24-51.3-69.24-51.3-69.24s10.51-84.09,3.07-126.77-24.5-64.09-24.5-64.09l-.4,2.15c-3.32,19.29-27.11,162.11-2.9,187.47,25.94,27.18,52.34,115,52.34,118.71s-1.66,16.87-1.66,16.87a149.46,149.46,0,0,0,19,15.27c10.12,7,21.08,14.19,24.25,16.28C1342.14,1888.15,1313.64,1867,1311.34,1862.73Z" class="colora51119 svgShape"></path><path fill="#f2b79c" d="M1182.53,1535.35s-10.73-16-10.73-53.35l-83.59-93.79s4.2,81.79-10,106.75c-3.74,6.6-21.2,17-21.2,17s76.4,94.22,113.08,85.17,29.33-49,29.33-49S1193.24,1550.6,1182.53,1535.35Z" class="colorf2b79c svgShape"></path><path fill="#f2b79c" d="M1144.36,1548.75c-35.64-2.32-77-43.58-77-43.58l-7.33,3s27.81,49.25,56.87,61.92,66.77,11.75,71.72-7.32-12.32-43.28-12.32-43.28S1182.54,1551.23,1144.36,1548.75Z" class="colorf2b79c svgShape"></path><path fill="#dd2f37" d="M1257.14,1535.35c-9.67-4.33-25.55-4.54-38.77-7.64s-37.81-7.87-37.81-7.87,27.66,42.92-11.55,47.55c-34.36,4.07-112.65-62.22-112.65-62.22a63.92,63.92,0,0,1-21.7,13.18,36.65,36.65,0,0,1-24,0s-1.24-6.07-4.53-6.36-17.36,12.72-17.36,12.72c17.65-2.38,27.67,2.81,37.13,88.14s-25.74,105.52-25.74,105.52l-1.86-3.52s-5.16,8.06-4.54,13,10.93,8.42,10.93,8.42c15.47,67.57,43.27,95.67,50.71,130.29s-21.05,84.06-21.67,88.4,12.53,16.08,12.53,16.08c-8.51,11.75-3.85,27.18-3.85,27.18s60-14.81,137.25-21.63,84.71-26,84.71-26,3.65-8.1,3.06-14.49a9.73,9.73,0,0,0-1.2-4,61.23,61.23,0,0,0-8.06-10.5,51.91,51.91,0,0,0,.65-16.55.62.62,0,0,1,0-.16c-1.24-8.65-11.13-15.44-11.13-15.44-16.05-69.86-3.72-134.37-3.72-134.37s25.58-42.06,29.69-111.3S1268.92,1540.63,1257.14,1535.35Z" class="colordd2f37 svgShape"></path><path fill="#de8567" d="M1171.94,1473.42s-20.35-33.53-33.42-49.83c-18.07-22.56-50.31-35.38-50.31-35.38l-1.59,75.19s33.69,61.65,89.63,56.08C1176.25,1519.48,1171.39,1489,1171.94,1473.42Z" class="colorde8567 svgShape"></path><path fill="#a51119" d="M1267.38,1936.05c-4.14,16.58-27.72,22-109.26,30.85s-92.23,2.89-92.23,2.89,30.9-16.08,83.24-26,109-22.25,109-22.25c2.28-6.6.88-15.28.65-16.55a.62.62,0,0,1,0-.16s-73.58,30.31-130.33,32.79-62.56.16-62.56.16a217.16,217.16,0,0,0,14.82-57.67c4.62-43.88-23.66-109.75-23.66-109.75s30.48-12.66,63.86-18.7,121.39-15.43,121.39-15.43c-40.76-2.94-36,2.92-82.44,4.46s-86.11-13.29-86.11-13.29-20.13-44.24-32.23-115.1c-14.45-84.6-35.4-100.34-35.4-100.34-3.3-.3-17.36,12.72-17.36,12.72,17.65-2.38,27.67,2.81,37.13,88.14s-25.74,105.52-25.74,105.52l-1.86-3.52s-5.16,8.06-4.54,13,10.93,8.42,10.93,8.42c15.47,67.57,43.27,95.67,50.71,130.29s-21.05,84.06-21.67,88.4,12.53,16.08,12.53,16.08c-8.51,11.75-3.85,27.18-3.85,27.18s60-14.81,137.25-21.63,84.71-26,84.71-26,3.65-8.1,3.06-14.49Z" class="colora51119 svgShape"></path><path fill="#ffffff" d="M992.31,1684.14c1.5,15.44,7.83,34.23,7.83,34.23,25.35-16.88,26.83-63.29,26.83-63.29C1017.33,1673.81,992.31,1684.14,992.31,1684.14Z" class="colorfff svgShape"></path><path d="M991.92,1683.22l-.68.28.07.74c1.5,15.37,7.82,34.26,7.88,34.45l.41,1.24,1.09-.72c13.36-8.9,20.07-25.89,23.34-38.57a133.06,133.06,0,0,0,3.94-25.53l.14-4.44-2,3.95C1016.72,1672.81,992.17,1683.12,991.92,1683.22Zm8.75,33.57c-1.4-4.39-5.94-19.31-7.3-32,3.89-1.7,22.48-10.45,32.3-25.48C1024.6,1670.85,1019.94,1702.9,1000.67,1716.79Z" fill="#000000" class="color000 svgShape"></path><path fill="#f2b79c" d="M1454.25,1712.69l-.39.18c-6.08,2.75-83.82,32.36-87.93,36.83-10.49,11.38-14.47-10.08-18.6,47-3.55,38-8.67,87.7,7.47,79.09s108.83-118,108.83-118S1490.53,1701.8,1454.25,1712.69Z" class="colorf2b79c svgShape"></path><path fill="#255384" d="M1494,1655.53c-8.85.5-95.14,106.19-112.32,127.33a5.11,5.11,0,0,0,1.79,7.89l.16.07a5.07,5.07,0,0,0,5.86-1.4c15.34-17.88,99.12-106.42,114.31-122.45a5.12,5.12,0,0,0,.55-6.36A11.07,11.07,0,0,0,1494,1655.53Z" class="color255384 svgShape"></path><path fill="#255384" d="M1493,1655.53h-63.82a8.47,8.47,0,0,0-8,5.57l-44.12,120.79a5.51,5.51,0,0,0,5.17,7.4h64.07a8.47,8.47,0,0,0,8-5.57l44-120.56A5.68,5.68,0,0,0,1493,1655.53Z" class="color255384 svgShape"></path><path fill="#4e7aaf" d="M1499.21,1658.73h-63.82a8.47,8.47,0,0,0-8,5.57l-44.12,120.79a5.51,5.51,0,0,0,5.18,7.4h64.06a8.47,8.47,0,0,0,8-5.57l44-120.56A5.68,5.68,0,0,0,1499.21,1658.73Z" class="color4e7aaf svgShape"></path><path fill="#de8567" d="M1469.81,1751.7l-6.18,18s15.86,3.09,15.8-3.57S1469.81,1751.7,1469.81,1751.7Z" class="colorde8567 svgShape"></path><path fill="#f2b79c" d="M1487.53,1707l-2.68,13.39c-22-2.06-42.86,4.74-43.28,11s8.66,8.33,8.66,8.33c-6.18,1.45-8.86,6.6-4.74,10.31s17.93,7,26.17,5.36,13.4-8.45,12.57-11.54-5.35-5.16-5.35-5.16l6.18-1.64c13.81-3.75,12-15.67,10.51-20.41C1494.24,1712.36,1487.53,1707,1487.53,1707Z" class="colorf2b79c svgShape"></path><path fill="#f2b79c" d="M1504.23 1675.68l-5.11 9.71c-11.59 1.85-25.65 10.09-28.28 16a14.47 14.47 0 000 11.33c28.13-3.5 44.51-12.47 44.51-19.58S1504.23 1675.68 1504.23 1675.68zM1471.81 1759.58s-19.11-1.86-17.46 15.6c0 0 10.69 1.5 18.53-.76s6.8-8.25 6.18-10.31S1477.75 1760.4 1471.81 1759.58z" class="colorf2b79c svgShape"></path><path fill="#de8567" d="M1450.23,1739.79s17,3.11,30.76.21l-2.11-1.24S1462.6,1740.62,1450.23,1739.79Z" class="colorde8567 svgShape"></path><path fill="#a51119" d="M1176.25,1519.48s8.92,14.28,10.77,26-5.93,19.31-18,21.89c0,0,19.45-1.12,21.93-14.52s-10.38-33-10.38-33Z" class="colora51119 svgShape"></path><path fill="#8c0c18" d="M1064.91,1748.81c-43.25-3.79-22,134.69-22,134.69l11.84-7.68c-.43-65.48,12-118.63,12-118.63Z" class="color8c0c18 svgShape"></path><path fill="#dd2f37" d="M1046.92,1740.92s-15.65-23.37-16.48-64.61c-3-146.24-22.4-151-31.69-153.44-10.87-2.83-41.67,12.48-41.67,12.48l-.39,2.15c-44,34.53-27.11,162.11-2.9,187.47,25.94,27.18,52.34,115,52.34,118.71s-1.67,16.87-1.67,16.87a150.1,150.1,0,0,0,19,15.27c10.12,7,21.08,14.19,24.25,16.28h0c.2.13.36.26.49.33a3.1,3.1,0,0,0,.36.26l0,0c5.35-3.72,6.17-16.9,6.17-16.9s-8.23,8.22-11.13-14,7.44-101.39,10.74-108,11.52-4.11,11.52-4.11l-5.75-8.78C1051.88,1737.92,1046.92,1740.92,1046.92,1740.92Z" class="colordd2f37 svgShape"></path><path fill="#a51119" d="M1011.28,1862.73c-12.06-22.47,18.54-67.28,18.54-67.28-36.48-1.24-51.3-69.24-51.3-69.24s10.51-84.09,3.07-126.77-24.51-64.09-24.51-64.09l-.39,2.15c-43.13,27.82-27.11,162.11-2.9,187.47,25.94,27.18,52.34,115,52.34,118.71s-1.67,16.87-1.67,16.87a150.1,150.1,0,0,0,19,15.27c10.12,7,21.08,14.19,24.25,16.28C1042.09,1888.15,1013.59,1867,1011.28,1862.73Z" class="colora51119 svgShape"></path><path fill="#f2b79c" d="M1134.49,1808.38c-41.72-25.7-74.66-39.1-74.66-39.1-16.6,27.45-12.16,98.2-12.16,98.2s30,9.75,159,28a8.4,8.4,0,0,1,2.14.89c.07-.51-5-37-5-37S1176.18,1834.06,1134.49,1808.38Z" class="colorf2b79c svgShape"></path><g style="mix-blend-mode:multiply" fill="#000000" class="color000 svgShape"><path fill="#ffffff" d="M1245.64,1864.06c11.71,10.62,21.74,13.17,21.74,13.17l5.61-7.72s-24.77-15.48-34.23-25.22C1238.76,1844.29,1233.93,1853.43,1245.64,1864.06Z" class="colorfff svgShape"></path><path d="M1239.48,1843.59l-1-1-.64,1.22c-.22.4-5.06,10,7.09,21,11.75,10.67,21.75,13.29,22.17,13.4l.65.17,6.64-9.15-.91-.56C1273.27,1868.5,1248.74,1853.13,1239.48,1843.59Zm27.51,32.48c-2.37-.76-11-4-20.68-12.75-8.51-7.73-7.92-14.46-7.16-17.23,9.06,8.73,28,20.89,32.4,23.69Z" fill="#000000" class="color000 svgShape"></path></g><path fill="#f2b79c" d="M1306.32,1784.13c-.93-.47-4.59.54-7.19.27s-23.85-3.89-26.42-2.41a3.55,3.55,0,0,0-.54.39h0c-3.08,2.53-11.48,12.84-12.57,14.2l-.12.15-4.78-4.2,0,0H1239l-11.63,4.09-15.64,3.3a118.48,118.48,0,0,0-7,19.26v0l-.11.43c-.12.43-.24.85-.35,1.28a7.2,7.2,0,0,0-.27,1.17c-.2.82-.39,1.67-.59,2.53-.08.39-.15.78-.23,1.17-2.8,14-3.85,42.28-3.46,43.72s7.11,24.62,8.38,26.86c5.47,0,19.67,1,25.14,1,18.7-6.6,35.37-8,37.59-12.88,3.7-7.93,5.92-27.81,14-40,4.67-7,10.5-12.3,14.86-16.23l0-.07c3.19-2.88,5.56-5.1,6.11-6.73,1.28-3.85.39-8.68-3.85-10.12s-21.56,5.33-25.06,8.83-3.5,11-7,20.08-8.68,13.26-8.68,13.26-1.48-1.08-1.48-5c0-1.32,1-6,2.53-11.78,1.52-6,3.5-13.08,5.22-18.91.58-2.06,1.16-3.93,1.67-5.53,0,0,0,0,0-.07.54-1.91,1.09-3.43,1.44-4.4,2.37-6.46,13.3-11.09,13.3-11.09,11.44,4.32,21.59,2.88,23.54-1.75S1307.26,1784.59,1306.32,1784.13Z" class="colorf2b79c svgShape"></path><path fill="#f2b79c" d="M1271,1817.16a17.37,17.37,0,0,0-1.79-4.94c-.16-.35-.35-.7-.55-1.09v0c-4.47-8-13.34-17.78-14-18.56l0,0H1239l-11.63,4.09-15.64,3.3c1.83.7,4,4,6.22,8.1l0,.07a163.63,163.63,0,0,1,7.32,16.5l.23.58-.51,3.43s-2.33,14-.85,15.13,8.83.35,8.83.35l6.77-20.77,1.24,20.89,4,1.59a37,37,0,0,0,9.57-3.54l4.08-.85s1.6-1.87,3.62-4.63c3.89-5.26,9.42-13.81,8.8-19.22A2.68,2.68,0,0,1,1271,1817.16Z" class="colorf2b79c svgShape"></path><path fill="#c6674e" fill-rule="evenodd" d="M1272.71,1782a3.55,3.55,0,0,0-.54.39h0c-4.79,3.19-11.64,12.8-12.57,14.2l-.12.15a63.43,63.43,0,0,1,9.26,14.36v0c.2.43.35.78.51,1.16a40.9,40.9,0,0,1,1.83,4.87,17.37,17.37,0,0,0-1.79-4.94c.54-1.91,1.09-3.43,1.44-4.4,2.37-6.46,13.3-11.09,13.3-11.09C1276.06,1794.44,1272.71,1782,1272.71,1782Z" class="colorc6674e svgShape"></path><path fill="#de8567" fill-rule="evenodd" d="M1277,1831.2c-2.22-3.5,0-11,0-11-3.5,3.5-3.5,11-7,20.08s-8.68,13.26-8.68,13.26-1.48-1.08-1.48-5c0-1.32,1-6,2.53-11.78,3.89-5.26,9.42-13.81,8.8-19.22l-3.58.31-6.38.54-12.26-17.81,7.94,19c-3.58,1.21-12.88.89-12.88.89l-14.4-23.73,9.11,22.41v5c-3.7,3.85-13.15,1-13.15,1l-.23-.58-7.32-16.5,0-.07-.15,11.16h-7.36l5.88,6.19s5,16.38,5.52,20.42,25.64,29.88,25.1,31.17-5,4.43-9.42,5-28-2.76-32.25-13.26c-4.16-10.27-.66-47.89-.51-49.45l-.11.43c-.12.43-.24.85-.35,1.28a7.2,7.2,0,0,0-.27,1.17c-.2.82-.39,1.67-.59,2.53-.08.39-.15.78-.23,1.17-2.8,14-3.85,42.28-3.46,43.72s7.11,24.62,8.38,26.86c5.47,0,19.67,1,25.14,1,18.7-6.6,35.37-8,37.59-12.88,3.7-7.93,5.92-27.81,14-40,4.67-7,10.5-12.3,14.86-16.23l0-.07-10.47,5.06S1279.13,1834.7,1277,1831.2Z" class="colorde8567 svgShape"></path><path fill="#c6674e" fill-rule="evenodd" d="M1258.7,1841.36s-10.45,3.79-13.65,4.39-4-1.59-4-1.59l-1.92-18.83L1233,1844s-8,1-8.83-.35,0-10.7,0-10.7l-2.94,9.87,4.29,5.94,35.75,4.69c-1.72-4.55,1.79-17.78,1.79-17.78Z" class="colorc6674e svgShape"></path><path fill="#f2b79c" d="M1210.52,1275.51c-6.76-4.84-14.09-6.59-22.22-7.93-39.64-6.53-101.4,6.24-106.65,54.79-2,14,0,29.13,1.07,43.15.31,4-.63,20.52,3.14,23.06,3.93,2.64,6.49,7.7,9.8,11.1,1.53,1.56,8.4,5.85,8.8,7.65a218.54,218.54,0,0,0,16.68,47.19c.66,1.35,6.49,3,7.95,3.68q4.34,2,8.69,4c5.22,2.36,10.48,4.65,15.72,7,10.32,4.54,21.09,9.73,32.68,8.74a160.68,160.68,0,0,0,31.54-5.86c1.63-2.44,3.6-14.4,3.78-17.87a356.24,356.24,0,0,1,6.38-48.72c2.11-11,7.12-22.29,3.71-33.55-1.93-6.38.51-12.86,2.29-19.42,5.19-19.18,1.8-42.27-8-59.5A54.31,54.31,0,0,0,1210.52,1275.51Z" class="colorf2b79c svgShape"></path><path fill="#de8567" d="M1220.49 1299.43c-16.78-3.67-33.53-8-50.69-8.87-4.62-.27-9.34-.24-13.66 1.38s-7.14 5.76-8 10.29l8.53 3.47c18.48 7.52 37.4 15.17 57.34 16.38a148.43 148.43 0 0021.19-.49 85.5 85.5 0 00-4.84-19.31A50.74 50.74 0 001220.49 1299.43zM1227.74 1405.88c-8.46 2-17.3 3.5-26 2.92a33.08 33.08 0 009 5.92 14.27 14.27 0 0010.57.34c2.16-.9 4.92-1.76 6.61-3.38a19.31 19.31 0 005-7.32c-6.31-9.11-12.53-20-16.35-30.4C1218.45 1385.22 1221.82 1396.13 1227.74 1405.88z" class="colorde8567 svgShape"></path><path fill="#4b1c38" d="M1186.59 1364.68c-3.37.92-5.59 2.08-7.22 6s-.68 6.29.1 8.91a15.64 15.64 0 001.61 3.73c1 .13 2 .24 3.05.3a3.77 3.77 0 002.27-.31 4.12 4.12 0 001.25-1.6 27.5 27.5 0 002-5.3 28.45 28.45 0 00.87-10C1189.7 1365.35 1188.52 1364.15 1186.59 1364.68zM1225.44 1363.69a13.89 13.89 0 00-1.44 6.06 15.78 15.78 0 00.76 5.07 2.93 2.93 0 003.48-1.61 12.85 12.85 0 001.22-3.43 48.15 48.15 0 001.75-9C1229.38 1358.9 1226.4 1362 1225.44 1363.69z" class="color4b1c38 svgShape"></path><path fill="#4b1c38" d="M1228 1354a13.17 13.17 0 00-5.13 4.4 22.17 22.17 0 00-4.22 8.09 40.71 40.71 0 017.1-8.38c1-.88 2.16-1.76 3.46-1.58a2.46 2.46 0 012 2.2c.12-1.35.57-3.39.69-4.75A4.59 4.59 0 001228 1354zM1175 1365.45a28.17 28.17 0 00-7.22 11.25 46.36 46.36 0 0121.13-16.28 9.68 9.68 0 00.51 3.29 23 23 0 001.73-7.33 16.92 16.92 0 00-8.94 2.87A41.74 41.74 0 001175 1365.45z" class="color4b1c38 svgShape"></path><path fill="#dd2f37" d="M1249.47,1372.41a3.79,3.79,0,0,0-.26,1.61c-.09,3.69-1.39,7.6-2.65,11-8.73,3.15-20.14,1-21.93.16a35.81,35.81,0,0,1-.67-9.59c-.54.17-.66.5-1.19.67a66.13,66.13,0,0,0,1.29,11.86,63,63,0,0,0,15.24.66,28.24,28.24,0,0,0,9.57-2.09,77.06,77.06,0,0,0,2.45-15.53C1250.88,1371,1249.71,1371.93,1249.47,1372.41Z" class="colordd2f37 svgShape"></path><path fill="#dd2f37" d="M1200.41,1380.6a45.69,45.69,0,0,0,0-5.36,2,2,0,0,0-2.19,0,2.6,2.6,0,0,0-.23,1.59,38.57,38.57,0,0,1-1.55,14.51,27.86,27.86,0,0,1-7,1.61,90.55,90.55,0,0,1-23-.51,50.21,50.21,0,0,1-3.16-16.25c-.76.19-1,.48-1.74.67,0,.93.11,1.84.17,2.76L1115,1363.85l2.63,4,44.36,14.46a49.25,49.25,0,0,0,3.7,13.52,74.37,74.37,0,0,0,32.35-2.75,57.1,57.1,0,0,0,1.93-7.86c0,.17,8.16-3.73,24-2.13a12,12,0,0,0-.09-2.67C1216.61,1378,1208.6,1379,1200.41,1380.6Z" class="colordd2f37 svgShape"></path><path fill="#4b1c38" d="M1219,1266a114.05,114.05,0,0,0,23.94.77c-2.2-5.7-6.06-11.3-11.14-14.68a42.24,42.24,0,0,0-15.59-5.9,71.6,71.6,0,0,0-43.14,5.3c4.1-3.48,6-8,7-13.25a5.92,5.92,0,0,0-.11-3.61c-13.38,7.07-28.16,14.48-37.89,26.08,1-9,6.69-16.17,12.17-23.41-10.52,5.45-19.66,15.53-22.71,27-3.56,3.28-8.19,5.15-12.62,7.07-11.77,5.12-23.83,11-31.51,21.32s-9.92,23.34-9.82,36c.09,12,2.17,23.83,2.91,35.77.67,10.92.11,39.09,4.43,49.39,5,.76,10-15.64,15-15.68-4.34-7-6.32-14.59-6.92-22.82-.29-4-.07-8.25,1.78-11.84s5.65-6.41,9.68-6.09a11.07,11.07,0,0,1,4.44,1.45c7.13,3.9,10.66,12.26,11.92,20.3a10.72,10.72,0,0,0,8.49-.69q-1-13.53-1.76-27.1c-.21-4-.78-8.29-.47-12.31.34-4.51,1.32-9.07,2-13.56a4.1,4.1,0,0,0,0-1.35,4.32,4.32,0,0,0-.45-1.09,59.09,59.09,0,0,1-3.29-7.57,203.64,203.64,0,0,1,25-15.71c21.16,9.31,44.26,12.13,67.23,14.75,8.49,1,17,1.85,25.55,1.33,3.63-.22,7.4-.75,10.39-2.81C1251,1292.92,1237.62,1274.14,1219,1266Z" class="color4b1c38 svgShape"></path><path fill="#311327" d="M1110.87 1302.73c-6.47-3.71-13.48-5.2-18.36-11.39A39.62 39.62 0 001086 1306c-.48 2.5-.3 10.61-2.08 12.41a175.66 175.66 0 0113.4-12.17 17.78 17.78 0 00-1.51 9.4c1.4-.12 1.3-2.48 2.55-3.13 1-.54 2.27.53 2.66 1.65s.42 2.4 1.13 3.35c1.21 1.6 3.63 1.39 5.59 1l6.62-1.24a7.7 7.7 0 002.86-.93 9.79 9.79 0 001.79-1.79 21.6 21.6 0 015.3-4.46 2.69 2.69 0 001.8-2C1125.72 1310.31 1112.34 1303.57 1110.87 1302.73zM1224.21 1273.07c-4.79-2.8-10.86-3.77-16-1.62q.62 2.58 1.22 5.16c.37 1.57.72 3.3 0 4.71s-3.19 1.88-3.89.44c.74 2 1.49 3.91 2.24 5.86a13.68 13.68 0 01-6.19-.51c-1.36-.45-8.85 8.68-10.45 10-7.1 5.67-9.9 8.13-19.59 7.11 7.88 2.58 16.23 4.65 24.64 4 6.22-.5 12-3.29 17.57-6 6.06-3 12.48-6.29 15.73-12.21a2.39 2.39 0 00.39-1.36 2.58 2.58 0 00-.78-1.35l-4.67-5.19 11 3.11C1232.64 1280.33 1229 1275.88 1224.21 1273.07z" class="color311327 svgShape"></path><path fill="#4b1c38" d="M1221.31 1347.67s6.37-2.61 9.56-2.32 4.28 1.3 4.28 1.3c3-5.88 1.55-8.18 1.55-8.18C1226.49 1339 1221.31 1347.67 1221.31 1347.67zM1172.17 1337.75c-3 1.07-10.36 6.7-10.36 6.7s7.19-3.64 12.94-3.4c8.06.34 23.33 8.07 23.33 8.07a8.31 8.31 0 004.58-3.92C1192.06 1342.07 1176.44 1336.21 1172.17 1337.75z" class="color4b1c38 svgShape"></path><path fill="#de8567" d="M1200.71 1351.71s-.86 1 2.72-.6 3-7.8 3-7.8C1205.3 1349.92 1200.71 1351.71 1200.71 1351.71zM1177.79 1440.34c8.18-1 40.82-7 40.82-7S1214.91 1423.37 1177.79 1440.34z" class="colorde8567 svgShape"></path><path fill="#ff9739" d="M3622.3 1814q-42.57-20.51-98.19-20.52-59.84 0-104.71 24.55t-68.27 61.94q-23.4 37.39-23.39 73.84 0 17.64 14.76 32.79t36.25 15.15q36.43 0 49.48-43.34 13.8-41.43 33.75-62.71t62.13-21.29q36 0 58.88 21.1t22.82 51.78a58.88 58.88 0 01-7.48 29.15 110.07 110.07 0 01-18.41 24.35q-10.93 10.93-35.48 32.41-28 24.56-44.49 42.38a141.58 141.58 0 00-26.47 41.43q-10 23.58-10 55.8 0 25.71 13.62 38.74t33.56 13q38.34 0 45.64-39.89 4.22-18.78 6.33-26.27a81 81 0 015.94-15 85.35 85.35 0 0111.7-16.49 263.78 263.78 0 0120.91-20.9q47.17-42.2 65.39-60a175.09 175.09 0 0031.45-42.38q13.23-24.54 13.23-57.15 0-41.43-23.2-76.71T3622.3 1814zM3514.91 2259.46q-24.55 0-41.43 16.49t-16.87 40.65q0 27.24 17.45 42.39a60.4 60.4 0 0040.85 15.15q22.62 0 39.89-15.35t17.26-42.19q0-24.15-16.5-40.65T3514.91 2259.46z" class="colorff9739 svgShape"></path></g></svg>