<svg xmlns="http://www.w3.org/2000/svg" enable-background="new 0 0 3000 3000" viewBox="0 0 3000 3000" width="550" height="550"><polygon fill="#f5bf9a" points="2223.21 2043.78 2209.43 2073.87 2193.05 2066.33 2191.93 2065.85 2187.44 2063.81 2179.19 2060.02 2169.61 2055.6 2183.39 2025.54 2186.84 2027.14 2191.12 2029.07 2191.34 2029.18 2206.98 2036.35" class="colorf5bf9a svgShape"></polygon><path fill="#343433" d="M2189.26,2025.07l-17.51-16.71c-1.47-1.4-3.18-2.31-5.01-2.66l0,0c-4.6-0.87-9.21,1.96-11.63,7.15
							l-24.14,51.7c-2.06,4.42-3.36,9.35-3.79,14.43l0,0c-0.47,5.58,2.66,10.49,7,10.97l0,0c1.77,0.2,3.55-0.38,5.06-1.63l37.58-25
							c0.9-0.6,1.64-1.53,2.12-2.67l11.65-27.63C2191.74,2030.27,2191.18,2026.9,2189.26,2025.07z" class="color343433 svgShape"></path><polygon fill="#f5bf9a" points="2697.9 2203.46 2673.04 2220.66 2668.62 2214.27 2662.97 2206.1 2659.45 2201.04 2657.4 2198.03 2650.27 2187.74 2655.54 2184.1 2659.67 2181.24 2675.12 2170.54 2683.52 2182.65 2692.4 2195.51" class="colorf5bf9a svgShape"></polygon><path fill="#343433" d="M2668.22 2218.27l5.97 21.28c.5 1.78 1.43 3.3 2.7 4.42l0 0c3.21 2.83 8.15 2.75 12.47-.19l43.06-29.36c3.68-2.51 7-5.78 9.7-9.57l0 0c2.97-4.16 2.8-9.48-.39-11.88l0 0c-1.3-.98-2.96-1.36-4.73-1.07l-41.17 2.13c-.98.05-2 .44-2.91 1.11l-22.03 16.28C2668.7 2213.03 2667.57 2215.94 2668.22 2218.27zM2687.83 2179.35l-4.31 3.31-21.51 16.42-2.56 1.97-1.49 1.15-2.79 2.12-54.35-80.54c-5.8-8.54-13.3-15.83-22.03-21.32l-118.7-74.86-95.78 92.58c-14.15 13.08-34.59 16.79-52.38 9.47l-119.85-56.28-1.9-.89 1.82-3.86c0-.04 0-.04 0-.04l1.04-2.23 13.93-29.98 2.34-5.02 108.04 38.79c4.64 1.41 9.62-.67 11.89-4.94l59.74-112.38.93-1.78 68.28 1.23 60.74 2.45 106.25 109.08c7.39 7.62 13.41 16.46 17.8 26.15l1.23 2.41 5.87 11.7L2687.83 2179.35z" class="color343433 svgShape"></path><path fill="#f5bf9a" d="M2693.48,1820.23l3.71,20.19l8.82-0.12c0,0,29.9,9.09,29.51-17.4c-0.15-10.32-13.17-14.92-19.67-6.91
							c-0.09,0.11-0.18,0.23-0.27,0.34c-0.22,0.28-0.67,0.04-0.55-0.3l2.83-8.09c0.48-1.38-0.22-2.88-1.58-3.41l0,0
							c-1.25-0.48-2.66,0.02-3.32,1.19l-4.46,7.86c-1,1.76-2.64,3.06-4.58,3.62L2693.48,1820.23z" class="colorf5bf9a svgShape"></path><path fill="#2e90cb" d="M2705.59,1842.79l-14.79,4.68l-4.5,1.45l-55.73,17.72c-1.11,0.37-2.23,0.67-3.38,0.93
							c-1.45,0.37-2.93,0.67-4.42,0.89c-12.67,1.9-25.71-1.08-36.37-8.51l-16.79-11.7l-5.8,8.1
							c-20.25,28.38-35.11,60.22-43.76,93.99l-1.11,4.35l-2.6,0.52c-29.35,11.33-75.01,6.84-124.2-1c-1.23-0.19-2.27-0.67-3.16-1.41
							c-2.53-1.97-3.46-5.61-1.78-8.69l14.45-26.6c15.86-29.24,28.9-59.85,40.16-91.13c1.41-3.94,3.08-8.02,5.05-12.22
							c11.55-24.59,33.4-51.75,74.08-58.36c0.37-0.07,0.74-0.11,1.15-0.19l-0.15,2.01l2.64-3.34c6.09,13.6,11.67,17.94,27.71,10.77
							c0.04,0,0.07,0.04,0.11,0.04c32.99,10.85,39.75,27.08,60.48,58.29c1.71,2.56,4.27,4.35,7.13,5.09
							c1.45,0.37,2.97,0.48,4.5,0.33c0.22-0.04,0.45-0.07,0.67-0.11l61.52-10.66l4.46-0.74l12.59-2.19l0.15,2.12l1.52,23.11
							L2705.59,1842.79z" class="color2e90cb svgShape"></path><path fill="#f5bf9a" d="M2553.58,1754.54c-0.8-0.19-1.51,0.53-1.31,1.32l0.21,14.41c0.2,0.75,0.2,1.64-0.21,2.12
								c-1.12,1.25-1,1.78-2.25,2.52c-5.44,3.2-11.96,1.98-17.43-0.3c-5.64-2.32-10.12-5.75-11.14-6.71
								c-0.19-0.16-0.27-0.4-0.26-0.64l1.75-22.34c0.02-0.35-0.13-0.69-0.41-0.91c-12.91-10.91-9.75-30.9-9.75-30.9
								c9.51-43.43,41.05-33.3,55.87-25.77c4.95,2.51,8.31,7.37,8.94,12.88C2584.31,1758.75,2560.66,1756.31,2553.58,1754.54z" class="colorf5bf9a svgShape"></path><path fill="#343433" d="M2533.07,1716.27l0.87,13.56c0.1,1.57,1.77,2.53,3.18,1.83l0,0c0.72-0.36,1.18-1.07,1.22-1.87
								l0.47-10.05c0.1-2.22,1.4-4.19,3.37-5.21c3.76-1.95,9.43-6.16,8.88-13.62c-0.12-1.61,1.16-2.98,2.76-2.95
								c5.6,0.08,16.77-0.36,21.57-4.82c0.88-0.82,1.84-1.56,2.85-2.21c2.84-1.82,7.86-6.11,5.48-12.8
								c-0.39-1.11-1.48-1.82-2.65-1.75l-9.89,0.63c-0.69,0.04-1.3-0.43-1.42-1.11l-1.48-8.42c-0.16-0.91-1.16-1.39-1.98-0.95
								l-10.73,5.82c-2.33,1.27-5.17,1.11-7.36-0.4c-4.54-3.12-13.78-7.26-26.77-2.06c-11.55,4.63-17.94,16.74-21.18,25.51
								c-2.12,5.75-1.56,12.15,1.48,17.47l7.12,12.47c0.26,0.46,0.49,0.94,0.68,1.44c1.45,3.74,6.22,20.76,13.09,17.75
								c0.19-0.08,0.3-0.28,0.29-0.49l1.75-8.55c-0.13-2-0.83-3.91-2.03-5.51c-3.24-4.3-8.96-13.57-1.1-17.06
								c2.62-1.17,5.64-1.19,8.28-0.07C2531.45,1713.52,2532.96,1714.6,2533.07,1716.27z" class="color343433 svgShape"></path><path fill="#393939" d="M2332.12,1892.21l-13.15,19.92l-7.1-4.68l12.03-18.22l-40.06-26.45l-12.02,18.22l-7.1-4.68
										l13.15-19.92c1.97-2.98,5.98-3.8,8.96-1.84l43.46,28.69C2333.27,1885.22,2334.09,1889.23,2332.12,1892.21z" class="color393939 svgShape"></path><rect width="16.17" height="8.5" x="2264.73" y="1867.72" fill="#fdeb5f" transform="rotate(-56.571 2272.826 1871.893)" class="colorfdeb5f svgShape"></rect><rect width="16.17" height="8.5" x="2311.8" y="1898.87" fill="#fdeb5f" transform="rotate(-56.564 2319.88 1903.135)" class="colorfdeb5f svgShape"></rect><path fill="#865635" d="M2298.64,1995.92l-102.99-67.98c-2.53-1.67-3.23-5.07-1.56-7.6l23.29-35.28l112.15,74.03
											l-23.29,35.28C2304.57,1996.89,2301.17,1997.59,2298.64,1995.92z" class="color865635 svgShape"></path><path fill="#6d4729" d="M2312.41,1967.52l-96.05-63.41c-4.44-2.93-5.67-8.91-2.73-13.36l23.61-35.77l112.15,74.03
											l-23.61,35.77C2322.84,1969.22,2316.86,1970.45,2312.41,1967.52z" class="color6d4729 svgShape"></path><path fill="#9c6840" d="M2348.65,1930.13l-20.02,30.32c-2.93,4.44-8.91,5.67-13.36,2.73l-96.05-63.41
											c-4.44-2.93-5.67-8.91-2.73-13.36l20.02-30.32c1.99-3.01,6.04-3.84,9.04-1.85l101.25,66.84
											C2349.81,1923.07,2350.64,1927.12,2348.65,1930.13z" class="color9c6840 svgShape"></path><path fill="#bf8a5a" d="M2348.65,1930.13l-1.39,2.1l-112.15-74.03l1.39-2.1c1.99-3.01,6.04-3.84,9.04-1.85l101.25,66.84
										C2349.81,1923.07,2350.64,1927.12,2348.65,1930.13z" class="colorbf8a5a svgShape"></path><path fill="#f7b036" d="M2277.88,1934.34l-5.02,7.61c-0.87,1.31-2.62,1.67-3.93,0.8l-12.71-8.39
										c-1.31-0.87-1.67-2.62-0.81-3.93l5.03-7.61c0.86-1.3,2.62-1.67,3.93-0.81l12.71,8.39
										C2278.39,1931.28,2278.74,1933.04,2277.88,1934.34z" class="colorf7b036 svgShape"></path><path fill="#ffe66b" d="M2277.88,1934.34l-3.88,5.88c-0.86,1.3-2.62,1.67-3.93,0.8l-12.71-8.39
										c-1.31-0.87-1.67-2.63-0.81-3.93l3.88-5.88c0.86-1.3,2.62-1.67,3.93-0.81l12.71,8.39
										C2278.39,1931.28,2278.74,1933.04,2277.88,1934.34z" class="colorffe66b svgShape"></path><rect width="2.74" height="8.5" x="2319.12" y="1897.83" fill="#f7b036" transform="rotate(-56.564 2320.489 1902.095)" class="colorf7b036 svgShape"></rect><rect width="2.74" height="8.5" x="2272.01" y="1866.55" fill="#f7b036" transform="rotate(-56.571 2273.39 1870.731)" class="colorf7b036 svgShape"></rect><path fill="#f5bf9a" d="M2335.74,1861.9l-13.96-14.36l-7.09,4.89c0,0-29.17,8.84-14.5,30.11c5.72,8.28,18.77,4.96,19.7-5.06
								c0.01-0.14,0.03-0.29,0.04-0.43c0.03-0.35,0.52-0.4,0.6-0.06l2.09,8.09c0.35,1.38,1.74,2.22,3.13,1.91l0,0
								c1.27-0.29,2.14-1.46,2.05-2.76l-0.65-8.78c-0.14-1.97,0.48-3.91,1.75-5.42L2335.74,1861.9z" class="colorf5bf9a svgShape"></path><g fill="#000000" class="color000 svgShape"><path fill="#2e90cb" d="M2520.95,1755.78l-18.24,24.71l-55.84,33.66l-1.15,0.71l-19.91,0.93h-0.04l-4.5,0.22l-27.16,1.3
							l-52.83,46.11l-3.75,3.31l-4.64,4.05l-2.6-2.38l-16.83-15.57h-0.04l-2.97-2.75l18.35-19.1l3.72-3.9l41.13-42.8
							c5.68-5.16,12.78-8.54,20.36-9.66c6.54-1.82,13-3.49,19.43-5.05c1.45-0.37,2.9-0.74,4.35-1.08
							C2453.85,1759.91,2488.44,1755.19,2520.95,1755.78z" class="color2e90cb svgShape"></path></g><g fill="#000000" class="color000 svgShape"><path fill="#343433" d="M2341.28 1863.41l-3.75 3.31c-3.16-11.81-6.05-23.74-8.73-35.74-30.46-136.53-28.91-293.11 2.22-459.14l4.38.82c-30.8 164.25-32.57 319.34-2.89 454.42C2335.19 1839.3 2338.09 1851.41 2341.28 1863.41zM2417.78 1768.49c2.27 15.9 4.94 31.65 7.99 47.29l-4.5.22c-3.01-15.34-5.65-30.84-7.84-46.44-18.91-133.15-8.88-275.29 30.31-432.44l4.35 1.08C2409.05 1494.61 2399.05 1636.05 2417.78 1768.49zM2691.17 1817.27c.04 10.55-.07 20.66-.37 30.2l-4.5 1.45c.3-9.73.41-20.06.41-30.91-.11-112.87-14.86-281.94-30.32-448.34l4.46-.41C2676.27 1535.37 2690.99 1704.11 2691.17 1817.27zM2662.97 2206.1l-3.53-5.05-1.49 1.15c-.22-1.41-.41-2.79-.56-4.16-.63-4.68-1.26-9.29-1.86-13.93-4.09-31.09-7.84-61.67-11.33-91.76-9.06-77.79-16.2-152.32-21.44-223.87-1-13.45-1.89-26.79-2.75-40.01-10.89-169.26-10.85-321.36-.04-459.45l4.46.33c-10.81 138.05-10.85 290.15.07 459.45.82 12.82 1.71 25.75 2.67 38.79 5.5 75.38 13.12 154.14 22.89 236.47 2.97 25.37 6.17 51.12 9.58 77.2.78 5.91 1.56 11.85 2.34 17.83C2662.34 2201.38 2662.64 2203.72 2662.97 2206.1zM2191.93 2065.85l-4.5-2.04c-.11-7.47-.22-14.97-.37-22.55-.07-4.68-.15-9.36-.22-14.12 0-1.45-.04-2.93-.04-4.42-3.05-217.37 1.08-474.76 41.16-671.4l4.38.89c-40.42 198.2-44.21 458.45-41.02 676.97C2191.52 2041.55 2191.75 2053.77 2191.93 2065.85zM2192.01 2068.6c.04 1.6.04 3.16.07 4.75l-1.9-.89L2192.01 2068.6z" class="color343433 svgShape"></path></g><g fill="#000000" class="color000 svgShape"><path fill="#343433" d="M2689.44,1820.09c-0.28,0-0.57,0-0.87-0.01l-2.46-0.05l0.72-2.35c0.13-0.41,3.16-10.11,8.36-14.3
							c2.24-1.8,5.12-2.06,7.54-0.67c2.4,1.38,3.68,4.1,3.26,6.92C2705.4,1813.57,2702.46,1820.09,2689.44,1820.09z
							 M2699.47,1805.55c-0.67,0-1.34,0.24-1.94,0.73c-2.74,2.2-5,6.86-6.27,10.06c6.68-0.35,10.39-2.79,11.06-7.25
							c0.2-1.34-0.33-2.52-1.43-3.15C2700.44,1805.67,2699.95,1805.55,2699.47,1805.55z" class="color343433 svgShape"></path><path fill="#343433" d="M2687.79,1820.09c-13.01,0-15.96-6.52-16.55-10.46c-0.42-2.83,0.86-5.54,3.26-6.92
							c2.41-1.38,5.3-1.12,7.53,0.67c5.2,4.19,8.23,13.89,8.36,14.3l0.72,2.35l-2.46,0.05
							C2688.36,1820.09,2688.07,1820.09,2687.79,1820.09z M2677.76,1805.55c-0.48,0-0.97,0.13-1.42,0.38
							c-1.1,0.63-1.63,1.81-1.43,3.15c0.67,4.46,4.38,6.9,11.05,7.25c-1.15-2.93-3.36-7.72-6.26-10.06
							C2679.1,1805.79,2678.43,1805.55,2677.76,1805.55z" class="color343433 svgShape"></path><path fill="#343433" d="M2679.02,1831.81c-1.46-5.65,1.28-11.6,6.52-14.15l2.26-1.11l1.63,3.34l-2.26,1.1
						c-3.66,1.78-5.57,5.94-4.55,9.88L2679.02,1831.81z" class="color343433 svgShape"></path></g><g fill="#000000" class="color000 svgShape"><path fill="#343433" d="M2650.16,2216.86c-1.12,0-2.23-0.29-3.26-0.88c-2.41-1.38-3.69-4.1-3.26-6.92
							c0.6-4.03,3.65-10.72,17.42-10.45l2.46,0.05l-0.72,2.35c-0.13,0.41-3.16,10.11-8.36,14.3
							C2653.15,2216.33,2651.66,2216.86,2650.16,2216.86z M2658.36,2202.35c-6.67,0.35-10.39,2.79-11.06,7.25
							c-0.2,1.34,0.34,2.52,1.44,3.15c1.08,0.62,2.33,0.49,3.36-0.34C2654.83,2210.21,2657.1,2205.55,2658.36,2202.35z" class="color343433 svgShape"></path><path fill="#343433" d="M2671.86,2216.86c-1.49,0-2.99-0.52-4.27-1.55c-5.2-4.19-8.23-13.89-8.36-14.3l-0.72-2.35l2.46-0.05
							c13.68-0.26,16.82,6.42,17.42,10.45c0.42,2.83-0.86,5.54-3.26,6.92C2674.1,2216.57,2672.98,2216.86,2671.86,2216.86z
							 M2663.67,2202.35c1.15,2.93,3.36,7.72,6.26,10.06c1.03,0.83,2.28,0.96,3.35,0.34c1.1-0.63,1.64-1.81,1.43-3.15
							C2674.05,2205.14,2670.34,2202.71,2663.67,2202.35z" class="color343433 svgShape"></path><path fill="#343433" d="M2661.83,2202.13l-1.63-3.34l2.26-1.1c3.66-1.78,5.57-5.94,4.55-9.88l3.6-0.93
						c1.46,5.64-1.28,11.6-6.52,14.15L2661.83,2202.13z" class="color343433 svgShape"></path></g><g fill="#000000" class="color000 svgShape"><path fill="#343433" d="M2177.45,2079.53c-1.12,0-2.24-0.29-3.26-0.88c-2.41-1.38-3.69-4.1-3.26-6.92
							c0.6-4.03,3.65-10.75,17.42-10.45l2.46,0.05l-0.72,2.35c-0.13,0.41-3.16,10.11-8.36,14.3
							C2180.44,2079,2178.94,2079.53,2177.45,2079.53z M2185.65,2065.02c-6.68,0.35-10.39,2.79-11.06,7.25
							c-0.2,1.34,0.33,2.52,1.43,3.15c1.08,0.62,2.33,0.49,3.36-0.34C2182.12,2072.88,2184.38,2068.22,2185.65,2065.02z" class="color343433 svgShape"></path><path fill="#343433" d="M2199.15,2079.53c-1.49,0-2.99-0.52-4.27-1.55c-5.2-4.19-8.23-13.89-8.36-14.29l-0.72-2.35l2.46-0.05
							c13.73-0.26,16.82,6.42,17.42,10.45c0.42,2.83-0.86,5.54-3.26,6.92C2201.38,2079.24,2200.26,2079.53,2199.15,2079.53z
							 M2190.95,2065.02c1.15,2.93,3.37,7.72,6.26,10.06c1.03,0.83,2.28,0.96,3.36,0.34c1.1-0.63,1.64-1.81,1.44-3.15
							C2201.33,2067.81,2197.62,2065.38,2190.95,2065.02z" class="color343433 svgShape"></path><path fill="#343433" d="M2189.11,2064.8l-1.63-3.34l2.26-1.1c3.66-1.79,5.58-5.94,4.55-9.88l3.6-0.93
						c1.46,5.65-1.28,11.6-6.52,14.15L2189.11,2064.8z" class="color343433 svgShape"></path></g><g fill="#000000" class="color000 svgShape"><path fill="#343433" d="M2324.89,1878.3c-1.12,0-2.23-0.29-3.26-0.88c-2.41-1.38-3.69-4.1-3.26-6.92
							c0.6-4.03,3.66-10.72,17.42-10.45l2.46,0.05l-0.72,2.35c-0.13,0.41-3.16,10.11-8.36,14.29
							C2327.88,1877.78,2326.38,1878.3,2324.89,1878.3z M2333.09,1863.8c-6.67,0.35-10.39,2.79-11.06,7.25
							c-0.2,1.34,0.34,2.52,1.43,3.15c1.07,0.61,2.33,0.48,3.35-0.34C2329.56,1871.65,2331.83,1866.99,2333.09,1863.8z" class="color343433 svgShape"></path><path fill="#343433" d="M2346.59,1878.3c-1.5,0-2.99-0.52-4.27-1.56c-5.2-4.19-8.23-13.88-8.36-14.3l-0.72-2.35l2.46-0.05
							c13.68-0.26,16.82,6.42,17.42,10.45c0.42,2.83-0.86,5.54-3.26,6.92C2348.83,1878.01,2347.71,1878.3,2346.59,1878.3z
							 M2338.4,1863.8c1.15,2.93,3.36,7.72,6.26,10.06c1.03,0.83,2.28,0.95,3.36,0.34c1.1-0.63,1.64-1.81,1.43-3.15
							C2348.78,1866.58,2345.06,1864.15,2338.4,1863.8z" class="color343433 svgShape"></path><path fill="#343433" d="M2336.55,1863.57l-1.63-3.34l2.26-1.1c3.66-1.78,5.57-5.94,4.55-9.88l3.6-0.93
						c1.46,5.65-1.28,11.6-6.52,14.15L2336.55,1863.57z" class="color343433 svgShape"></path></g><g fill="#000000" class="color000 svgShape"><path fill="#343433" d="M2412.55,1828.94c-1.12,0-2.24-0.29-3.27-0.88c-2.41-1.38-3.69-4.1-3.26-6.92
							c0.6-4.03,3.65-10.78,17.42-10.45l2.46,0.05l-0.72,2.35c-0.13,0.41-3.16,10.11-8.36,14.3
							C2415.54,1828.42,2414.05,1828.94,2412.55,1828.94z M2420.76,1814.44c-6.67,0.35-10.39,2.79-11.06,7.25
							c-0.2,1.34,0.34,2.52,1.43,3.15c1.08,0.62,2.33,0.49,3.36-0.34C2417.23,1822.29,2419.5,1817.63,2420.76,1814.44z" class="color343433 svgShape"></path><path fill="#343433" d="M2434.26,1828.94c-1.49,0-2.99-0.52-4.27-1.55c-5.2-4.19-8.23-13.89-8.36-14.3l-0.72-2.35l2.46-0.05
							c13.7-0.26,16.82,6.42,17.42,10.45c0.42,2.83-0.86,5.54-3.26,6.92C2436.49,1828.65,2435.37,1828.94,2434.26,1828.94z
							 M2426.06,1814.44c1.15,2.93,3.37,7.72,6.26,10.06c1.03,0.83,2.28,0.96,3.36,0.34c1.1-0.63,1.64-1.81,1.44-3.15
							C2436.44,1817.23,2432.73,1814.79,2426.06,1814.44z" class="color343433 svgShape"></path><path fill="#343433" d="M2424.22,1814.22l-1.63-3.34l2.26-1.1c3.66-1.78,5.57-5.94,4.55-9.88l3.6-0.93
						c1.46,5.64-1.28,11.6-6.52,14.15L2424.22,1814.22z" class="color343433 svgShape"></path></g><g fill="#000000" class="color000 svgShape"><path fill="#f5bf9a" d="M2737.55,1304.72c-0.94,7.59-5,14.64-11.52,19.31c-13.06,9.24-31.17,5.64-39.73-7.93l-34.49-55.11
				l-14.07-22.5l-6.52-10.41l-22.4-35.77l-10.08-16.09c-0.54-0.84-1.08-1.68-1.68-2.52c-6.01-8.87-13.9-16.39-23.07-21.96
				c-41.41-25.05-81.31-44.57-119.39-57.4c-14.47-4.8-30.9-1.75-41.88,8.9c-17.43,16.83-14.24,44.03-5.68,68.58l-5.27-2.75
				L2125.3,1043.8l25.09-109.76l262.53,28.75c39.09,4.27,76.04,19.78,106.46,44.67l122.48,99.88c11.62,9.47,20.92,21.56,27.07,35.33
				l3.22,7.15l14.41,31.94l15.75,35.13l0.84,1.85l30.97,68.68l1.11,2.49C2737.42,1294.71,2738.16,1299.82,2737.55,1304.72z" class="colorf5bf9a svgShape"></path><path fill="#f5bf9a" d="M2561.06,1203.33l6.27,61.5c1.72,16.88-11.14,31.72-28.1,32.41l0,0c-15.74,0.64-29.2-11.22-30.54-26.92
				l-6.56-76.83c-0.87-10.18-5.43-19.69-12.83-26.74l-115.68-110.22l125.42,48.34l63.17,69.48L2561.06,1203.33z" class="colorf5bf9a svgShape"></path><path fill="#f5bf9a" d="M2663.1,1258.83l1.9,61.79c0.52,16.96-13.36,30.85-30.32,30.34l0,0c-15.75-0.48-28.33-13.26-28.56-29.01
				l-1.32-92.96l-110.25-146.86l113.68,74.09l58.08,73.78L2663.1,1258.83z" class="colorf5bf9a svgShape"></path><path fill="#f5bf9a" d="M2613.64,1244.98l1.9,61.79c0.52,16.96-13.36,30.85-30.32,30.34l0,0c-15.75-0.48-28.33-13.26-28.56-29.01
				l-1.32-92.96l-110.25-146.86l113.68,74.09l58.08,73.79L2613.64,1244.98z" class="colorf5bf9a svgShape"></path><path fill="#e8b592" d="M2606.97 1328.46l-1.84-84.49c-.22-9.86-2.65-19.53-7.12-28.32l-33.68-66.2 38.89 59.75c7.97 12.25 11.63 26.8 10.39 41.36L2606.97 1328.46zM2554.95 1294.96l-1.8-82.56c-.24-10.99-3.94-21.63-10.57-30.4l-48.57-64.24 54.23 59.96c9.73 10.76 14.55 25.07 13.32 39.52L2554.95 1294.96z" class="colore8b592 svgShape"></path><path fill="#e0e2e8" d="M2714.78,1307.22c0,0-14.69-16.5-12.95-30.57c1.22-9.8,13.21-13.85,20.33-7.01
				c5.09,4.9,10.79,13.18,13.69,26.84L2714.78,1307.22z" class="colore0e2e8 svgShape"></path><polygon fill="none" points="2857.86 1460.83 2974.99 1396 2974.99 1364.78 2857.77 1427.3"></polygon><path fill="#8b613c" d="M2719.55 1378.29c.3.64.6 1.24.91 1.85l-.97-.34L2719.55 1378.29zM2975 1364.79l-117.25 62.5-47.35-16.25-33.35-54.54c39.5 13.3 56.09 5.1 62.1-.17 1.85-1.61 2.08-4.43.44-6.28-12.29-13.67-27-27.98-43.76-42.82L2975 1364.79z" class="color8b613c svgShape"></path><polygon fill="#8a4323" points="1984.17 1364.24 1984.17 1403.01 2089.24 1457.08 2091.04 1419.66" class="color8a4323 svgShape"></polygon><polygon fill="#8a4323" points="2089.24 1457.08 2472.83 1327.36 2857.86 1460.83 2857.77 1427.3 2467.79 1293.35 2091.04 1419.66" class="color8a4323 svgShape"></polygon><polygon fill="#8a4323" points="2935.22 1139.07 2935.22 1169.97 2632.96 1275.36 2598.41 1248.44" class="color8a4323 svgShape"></polygon><path fill="#f5bf9a" d="M2430.59,1220.66c-32.01,5.81-62.9,11.92-92.59,18.4c-5-5.84-10.24-11.52-15.85-16.79l-82.05-77.78
					c-13.16-12.49-30.33-19.98-48.5-21.13l-83.32-5.17l17.03-74.39l276.47,125.27l5.27,2.75c4.7,13.4,10.98,26.03,16.42,35.73
					C2425.85,1211.92,2428.27,1216.26,2430.59,1220.66z" class="colorf5bf9a svgShape"></path><path fill="#bf6f30" d="M2975,1364.77l-117.25,62.54l-389.96-133.94l-376.76,126.28l-106.87-55.42l231.57-91.49l83.83-33.79
					l-334.71-156.84l45.34-90.44l115.1,52.12l-17.03,74.39l83.32,5.17c18.17,1.14,35.33,8.63,48.5,21.13l82.05,77.78
					c5.61,5.27,10.85,10.95,15.85,16.79c29.69-6.48,60.59-12.59,92.59-18.4c-2.32-4.4-4.74-8.73-7.12-13.1
					c-5.44-9.71-11.72-22.33-16.42-35.73l0.4,0.2l73.85,38.49l115.77-36.81l75.1-23.88l145.93-46.38l117.14,35.63l-232.91,77.82
					l-64.58,21.59l-27.44,9.17l41.51,13.33l82.32,26.43L2975,1364.77z" class="colorbf6f30 svgShape"></path><path fill="#8a4323" d="M2516.91,1248.44c0,9.73-18.64,17.61-41.63,17.61s-41.63-7.88-41.63-17.61s18.64-17.61,41.63-17.61
					S2516.91,1238.71,2516.91,1248.44z" class="color8a4323 svgShape"></path><path fill="#f5bf9a" d="M2337.99,1239.06c8.67,10.12,16.37,20.99,22.95,32.6c0.2,0.34,0.46,0.77,0.58,1.1
							c27.54-5.8,56.31-11.29,86.08-16.5c-5.17-12.07-10.92-23.97-17.03-35.6C2398.58,1226.47,2367.67,1232.57,2337.99,1239.06z" class="colorf5bf9a svgShape"></path><path fill="#f5bf9a" d="M2361.51,1272.76c15.47,26.99,30.37,51.61,44.28,71.9c0.05,0.08,0.11,0.15,0.16,0.23
							c7.51,10.88,21.52,15.25,34.28,11.78c26.9-7.31,31.72-26.79,25.77-49.64c-3.74-14.03-9.23-28.68-15.33-43.56
							c-0.97-2.42-2.02-4.85-3.08-7.2C2417.83,1261.47,2389.06,1266.96,2361.51,1272.76z" class="colorf5bf9a svgShape"></path><path fill="#e0e2e8" d="M2427.9,1343.96l24.13-12.64c1.39-0.73,2.18-2.25,1.96-3.8c-0.94-6.42-4.46-22.78-16.23-27.52
				c-10.66-4.3-22.91,2.83-24.69,14.18c-1.08,6.85,0.72,16.37,10.2,28.79C2424.34,1344.39,2426.32,1344.79,2427.9,1343.96z" class="colore0e2e8 svgShape"></path><polygon fill="#f5bf9a" points="2430.59 1220.66 2406.37 1251.99 2337.99 1239.06 2245.93 1150.11 2401.77 1169.07 2406.3 1169.61 2407.45 1172.03" class="colorf5bf9a svgShape"></polygon><rect width="276.72" height="53.1" x="2034.02" y="1005.53" fill="#eceff0" transform="rotate(-82.952 2172.474 1032.126)" class="coloreceff0 svgShape"></rect><rect width="357.69" height="799.07" x="1577" y="580.92" fill="#37424c" transform="rotate(-82.952 1755.92 980.496)" class="color37424c svgShape"></rect></g><g fill="#000000" class="color000 svgShape"><path fill="#393939" d="M1464.5,1953.1l-9.46,18.64l-6.64-3.37l8.65-17.05l-37.5-19.02l-8.65,17.05l-6.64-3.37l9.46-18.64
								c1.42-2.79,4.83-3.91,7.62-2.49l40.67,20.64C1464.8,1946.9,1465.91,1950.31,1464.5,1953.1z" class="color393939 svgShape"></path><rect width="14.16" height="7.45" x="1403.78" y="1937.65" fill="#fdeb5f" transform="rotate(-63.097 1410.815 1941.315)" class="colorfdeb5f svgShape"></rect><rect width="14.16" height="7.45" x="1447.93" y="1960.04" fill="#fdeb5f" transform="rotate(-63.097 1454.961 1963.7)" class="colorfdeb5f svgShape"></rect><path fill="#865635" d="M1445.69,2046.68l-96.39-48.9c-2.37-1.2-3.31-4.09-2.11-6.46l16.75-33.02l104.97,53.25l-16.75,33.02
								C1450.95,2046.94,1448.06,2047.89,1445.69,2046.68z" class="color865635 svgShape"></path><path fill="#6d4729" d="M1454.85,2020.59l-89.9-45.61c-4.16-2.11-5.82-7.19-3.71-11.35l16.99-33.48l104.97,53.25l-16.99,33.48
								C1464.09,2021.04,1459.01,2022.7,1454.85,2020.59z" class="color6d4729 svgShape"></path><path fill="#9c6840" d="M1482.66,1984.45l-14.4,28.38c-2.11,4.16-7.19,5.82-11.35,3.71l-89.91-45.61
								c-4.16-2.11-5.82-7.19-3.71-11.35l14.4-28.38c1.43-2.82,4.87-3.94,7.68-2.51l94.77,48.08
								C1482.96,1978.19,1484.09,1981.63,1482.66,1984.45z" class="color9c6840 svgShape"></path><path fill="#bf8a5a" d="M1482.66,1984.45l-1,1.97l-104.97-53.25l1-1.97c1.43-2.82,4.87-3.94,7.68-2.51l94.77,48.08
							C1482.96,1978.19,1484.09,1981.63,1482.66,1984.45z" class="colorbf8a5a svgShape"></path><path fill="#f7b036" d="M1421.5,1995.17l-3.61,7.12c-0.62,1.23-2.11,1.72-3.34,1.09l-11.9-6.04c-1.23-0.62-1.72-2.11-1.09-3.34
							l3.61-7.12c0.62-1.22,2.11-1.72,3.34-1.09l11.9,6.04C1421.63,1992.45,1422.12,1993.95,1421.5,1995.17z" class="colorf7b036 svgShape"></path><path fill="#ffe66b" d="M1421.5,1995.17l-2.79,5.5c-0.62,1.22-2.11,1.72-3.34,1.09l-11.9-6.04c-1.23-0.62-1.71-2.12-1.09-3.34
							l2.79-5.5c0.62-1.22,2.11-1.72,3.34-1.09l11.9,6.04C1421.63,1992.45,1422.12,1993.95,1421.5,1995.17z" class="colorffe66b svgShape"></path><rect width="2.4" height="7.45" x="1454.23" y="1959.08" fill="#f7b036" transform="rotate(-63.102 1455.423 1962.836)" class="colorf7b036 svgShape"></rect><rect width="2.4" height="7.45" x="1409.99" y="1936.71" fill="#f7b036" transform="rotate(-63.102 1411.176 1940.463)" class="colorf7b036 svgShape"></rect><rect width="28.98" height="38.37" x="1313.73" y="2052.8" fill="#f5bf9a" transform="rotate(-65.09 1328.186 2071.923)" class="colorf5bf9a svgShape"></rect><path fill="#343433" d="M1322.13,2050.25l-15.26-14.71c-1.28-1.23-2.78-2.04-4.37-2.35l0,0c-4.02-0.78-8.08,1.68-10.22,6.2
						l-21.38,45.17c-1.83,3.86-2.99,8.17-3.39,12.62l0,0c-0.44,4.88,2.28,9.2,6.08,9.64l0,0c1.55,0.18,3.11-0.32,4.44-1.41
						l33.03-21.73c0.79-0.52,1.44-1.33,1.87-2.33l10.33-24.15C1324.27,2054.81,1323.8,2051.86,1322.13,2050.25z" class="color343433 svgShape"></path><rect width="26.47" height="35.05" x="1732.75" y="2184.42" fill="#f5bf9a" transform="rotate(-34.401 1746.001 2201.916)" class="colorf5bf9a svgShape"></rect><path fill="#343433" d="M1740.76 2221.65l5.13 18.67c.43 1.56 1.23 2.9 2.34 3.88l0 0c2.8 2.49 7.13 2.45 10.92-.11l37.85-25.52c3.24-2.18 6.15-5.03 8.54-8.33l0 0c2.62-3.63 2.49-8.29-.29-10.41l0 0c-1.13-.86-2.59-1.2-4.14-.96l-36.07 1.67c-.86.04-1.75.37-2.55.96l-19.37 14.16C1741.2 2217.07 1740.2 2219.61 1740.76 2221.65zM1498.23 1986.31l-53.67 99.7c-2.01 3.73-6.37 5.53-10.42 4.29l-94.47-34.46-16.93 35.93 106.35 50.63c15.57 6.48 33.49 3.34 45.92-8.05l84.31-80.66 103.63 66.1c7.63 4.87 14.17 11.27 19.19 18.8l47.25 70.78 28.72-21.72-38.88-78.52c-3.79-8.5-9.02-16.27-15.48-22.97l-92.56-96.02 0 0-53.19-2.44L1498.23 1986.31z" class="color343433 svgShape"></path><path fill="#f5bf9a" d="M1764.7,1873.13l3.16,17.7l7.73-0.07c0,0,26.15,8.1,25.93-15.1c-0.09-9.04-11.47-13.13-17.2-6.14
						c-0.08,0.1-0.16,0.2-0.24,0.3c-0.2,0.25-0.58,0.03-0.48-0.26l2.52-7.07c0.43-1.2-0.18-2.53-1.36-2.99l0,0
						c-1.09-0.43-2.33,0.01-2.91,1.02l-3.94,6.86c-0.88,1.54-2.33,2.67-4.03,3.15L1764.7,1873.13z" class="colorf5bf9a svgShape"></path><path fill="#fbb03b" d="M1608.91,1990.54c-25.73,9.8-65.72,5.66-108.75-1.44c-4.1-0.68-6.29-5.22-4.29-8.86l12.78-23.25
						c14.02-25.53,25.58-52.29,35.6-79.63c8.7-23.75,28.13-55.43,70.54-61.62l-0.14,1.75l2.43-2.89
						c5.27,11.92,10.13,15.74,24.23,9.56c28.94,9.64,34.75,23.89,52.79,51.35c2.33,3.55,6.55,5.4,10.74,4.7l68.89-11.55l1.48,24.29
						l-65.82,20.55c-13.13,4.1-27.43,1.86-38.67-6.07l-14.64-10.32l-5.11,7.07c-17.88,24.75-31.03,52.59-38.77,82.13l-1,3.81
						L1608.91,1990.54z" class="colorfbb03b svgShape"></path><path fill="#f5bf9a" d="M1642.46,1814.96c-0.7-0.17-1.33,0.46-1.15,1.15l0.11,12.63c0.17,0.66,0.16,1.44-0.19,1.86
							c-0.99,1.09-0.88,1.56-1.99,2.19c-4.78,2.78-10.48,1.68-15.27-0.35c-4.92-2.06-8.84-5.09-9.73-5.93
							c-0.16-0.14-0.23-0.35-0.22-0.56l1.64-19.56c0.02-0.31-0.11-0.6-0.35-0.8c-11.26-9.61-8.4-27.11-8.4-27.11
							c8.52-38,36.1-28.98,49.06-22.32c4.32,2.22,7.24,6.49,7.77,11.32C1669.36,1818.79,1648.65,1816.54,1642.46,1814.96z" class="colorf5bf9a svgShape"></path><path fill="#343433" d="M1624.67,1781.35l0.7,11.88c0.08,1.38,1.54,2.23,2.77,1.62l0,0c0.63-0.31,1.04-0.93,1.08-1.63l0.46-8.8
							c0.1-1.94,1.25-3.66,2.98-4.55c3.3-1.7,8.29-5.36,7.84-11.89c-0.1-1.41,1.03-2.6,2.43-2.58c4.9,0.1,14.69-0.24,18.91-4.13
							c0.78-0.71,1.62-1.36,2.51-1.92c2.5-1.58,6.91-5.32,4.86-11.19c-0.34-0.97-1.29-1.6-2.31-1.54l-8.66,0.51
							c-0.6,0.04-1.13-0.39-1.24-0.98l-1.26-7.38c-0.14-0.8-1.01-1.23-1.73-0.84l-9.42,5.05c-2.05,1.1-4.53,0.95-6.44-0.38
							c-3.96-2.76-12.04-6.42-23.44-1.92c-10.14,4-15.79,14.58-18.66,22.25c-1.88,5.03-1.42,10.63,1.22,15.31l6.18,10.95
							c0.23,0.41,0.43,0.83,0.59,1.26c1.26,3.28,5.35,18.21,11.38,15.6c0.17-0.07,0.27-0.25,0.25-0.43l1.58-7.48
							c-0.1-1.75-0.71-3.43-1.76-4.83c-2.82-3.78-7.79-11.92-0.89-14.95c2.3-1.01,4.95-1.02,7.25-0.02
							C1623.26,1778.93,1624.58,1779.88,1624.67,1781.35z" class="color343433 svgShape"></path><path fill="#f5bf9a" d="M1464.63,1926.36l-13.58-11.1l-5.68,4.96c0,0-24.51,10.6-9.62,27.65c5.8,6.64,16.83,2.45,16.64-6.37
						c0-0.13-0.01-0.25-0.01-0.38c-0.01-0.31,0.41-0.4,0.52-0.11l2.62,6.83c0.44,1.16,1.73,1.76,2.91,1.35l0,0
						c1.08-0.38,1.72-1.48,1.51-2.61l-1.44-7.58c-0.32-1.7,0.03-3.45,0.99-4.89L1464.63,1926.36z" class="colorf5bf9a svgShape"></path><path fill="#fbb03b" d="M1614.82,1815.75c-34.53,3.28-70.95,13.82-108.58,29.03c-6.5,1.74-12.34,5.37-16.77,10.44l-48.43,63.53
					l21.59,15.78l47.95-52.62l44.65-7.27l46.17-35.59L1614.82,1815.75z" class="colorfbb03b svgShape"></path><g fill="#000000" class="color000 svgShape"><path fill="#f5bf9a" d="M1089.89,1866.19l1.37,12.54l5.42,0.32c0,0,17.92,6.91,18.87-9.34c0.37-6.33-7.4-9.74-11.75-5.12
					c-0.06,0.06-0.12,0.13-0.18,0.2c-0.15,0.16-0.41,0-0.32-0.21l2.1-4.83c0.36-0.82,0-1.78-0.81-2.16l0,0
					c-0.74-0.35-1.63-0.11-2.09,0.58l-3.08,4.61c-0.69,1.03-1.75,1.76-2.97,2.01L1089.89,1866.19z" class="colorf5bf9a svgShape"></path><rect width="25.76" height="34.11" x="1018.82" y="2169.46" fill="#f5bf9a" transform="rotate(-13.062 1031.727 2186.577)" class="colorf5bf9a svgShape"></rect><path fill="#343433" d="M1020.06,2202.63l-1.96,18.74c-0.16,1.57,0.09,3.06,0.75,4.35l0,0c1.65,3.25,5.59,4.74,9.94,3.77
					l43.35-9.73c3.71-0.83,7.36-2.38,10.7-4.53l0,0c3.66-2.36,5.2-6.63,3.43-9.53l0,0c-0.72-1.18-1.92-2.01-3.41-2.34l-33.29-11.26
					c-0.79-0.27-1.72-0.28-2.65-0.04l-22.57,5.97C1022.08,2198.63,1020.27,2200.58,1020.06,2202.63z" class="color343433 svgShape"></path><rect width="31.9" height="24.09" x="752.21" y="2178.87" fill="#f5bf9a" transform="rotate(-47.456 768.117 2190.781)" class="colorf5bf9a svgShape"></rect><path fill="#343433" d="M749.57 2190.22l-15.5 8.39c-1.3.7-2.31 1.69-2.96 2.87l0 0c-1.63 2.99-.71 6.82 2.34 9.66l30.4 28.31c2.6 2.42 5.72 4.42 9.15 5.86l0 0c3.76 1.58 7.86.51 9.17-2.39l0 0c.53-1.18.53-2.54 0-3.87l-8.9-31.63c-.21-.76-.69-1.48-1.38-2.07l-16.53-14.26C753.73 2189.67 751.27 2189.3 749.57 2190.22zM760.7 2174.57l25.01 20.96 74.41-86.7 44.15-85.48 92.58 78.01 15.71 82.56 34.13-6.75-14.07-106.28-83.24-99.81c0 0-16.56-10.55-45.13-5.78-7.55 1.26-15.15 2.17-22.81 2.12-10.12-.07-22.55-.96-27.29-4.6-26.4 37.95-17.74 79.53-22.51 121.54L760.7 2174.57z" class="color343433 svgShape"></path><path fill="#5bb3e4" d="M951.4,1970.69l10.98-43.38l28.4-40.04l37.73,13.9l68.64-18.6l-1.52-21.69l-67.53,11.94
					c-19.23-27.79-23.44-41.64-51.14-50.6c-12.53,5.59-16.88,2.23-21.7-8.38l-2.16,2.61l0.13-1.58
					c-62.02,9.64-68.32,79.9-68.32,79.9l-36.37,65.88c-1.95,3.53-0.27,7.96,3.51,9.37C884.48,1982.14,917.79,1984.05,951.4,1970.69z
					" class="color5bb3e4 svgShape"></path><path fill="#f5bf9a" d="M977.94,1813.97c-0.62-0.15-1.18,0.42-1.02,1.04l0.2,11.28c0.16,0.59,0.16,1.28-0.16,1.66
						c-0.87,0.98-0.77,1.4-1.76,1.98c-4.24,2.52-9.35,1.59-13.64-0.19c-4.42-1.8-7.94-4.47-8.74-5.22c-0.15-0.13-0.21-0.31-0.21-0.5
						l1.31-17.49c0.01-0.27-0.1-0.54-0.32-0.71c-10.13-8.5-7.72-24.15-7.72-24.15c7.31-34.01,32.02-26.17,43.64-20.33
						c3.88,1.95,6.52,5.74,7.04,10.05C1002,1817.18,983.49,1815.34,977.94,1813.97z" class="colorf5bf9a svgShape"></path><path fill="#343433" d="M961.78,1784.09l0.72,10.6c0.08,1.23,1.39,1.98,2.49,1.43l0,0c0.56-0.28,0.92-0.84,0.95-1.47l0.34-7.86
						c0.07-1.74,1.08-3.28,2.62-4.09c2.94-1.54,7.36-4.85,6.9-10.68c-0.1-1.26,0.9-2.33,2.15-2.32c4.38,0.05,13.12-0.33,16.86-3.84
						c0.69-0.64,1.43-1.23,2.22-1.74c2.22-1.43,6.13-4.81,4.25-10.03c-0.31-0.87-1.16-1.42-2.08-1.36l-7.74,0.52
						c-0.54,0.04-1.02-0.34-1.11-0.87l-1.19-6.58c-0.13-0.71-0.91-1.09-1.55-0.74l-8.38,4.58c-1.82,1-4.04,0.88-5.76-0.29
						c-3.56-2.43-10.81-5.64-20.95-1.53c-9.02,3.65-13.99,13.15-16.49,20.02c-1.64,4.51-1.18,9.51,1.21,13.66l5.61,9.73
						c0.21,0.36,0.39,0.73,0.54,1.12c1.15,2.92,4.93,16.22,10.29,13.85c0.15-0.06,0.23-0.22,0.22-0.38l1.35-6.7
						c-0.1-1.56-0.66-3.06-1.61-4.3c-2.55-3.35-7.05-10.59-0.91-13.35c2.05-0.92,4.41-0.95,6.48-0.08
						C960.5,1781.94,961.69,1782.78,961.78,1784.09z" class="color343433 svgShape"></path><path fill="#f5bf9a" d="M814.18,1915.45l-9.84-7.9l-4.06,3.6c0,0-17.56,7.78-6.74,19.95c4.21,4.74,12.12,1.65,11.93-4.69
					c0-0.09-0.01-0.18-0.01-0.27c-0.01-0.22,0.29-0.29,0.37-0.08l1.93,4.9c0.33,0.83,1.26,1.26,2.1,0.95l0,0
					c0.77-0.28,1.23-1.08,1.07-1.89l-1.08-5.44c-0.24-1.22,0-2.48,0.68-3.52L814.18,1915.45z" class="colorf5bf9a svgShape"></path><path fill="#5bb3e4" d="M953.25,1814.9c-30.82,3.21-63.26,12.91-96.76,26.8c-5.8,1.6-10.98,4.9-14.9,9.46l-42.76,57.14l17.92,10.61
				l42.79-48.92l40.94-2.01l40.96-32.17L953.25,1814.9z" class="color5bb3e4 svgShape"></path></g><g fill="#000000" class="color000 svgShape"><polygon fill="#f5bf9a" points="55.41 2137.94 62.95 2113.08 95.62 2123.21 88.09 2148.07" class="colorf5bf9a svgShape"></polygon><path fill="#343433" d="M67.44,2112.12l-15.27-11.22c-1.28-0.94-2.7-1.47-4.15-1.56l0,0c-3.65-0.21-6.92,2.47-8.25,6.76
					l-13.3,42.77c-1.14,3.66-1.63,7.63-1.43,11.63l0,0c0.21,4.4,3.14,7.9,6.55,7.83l0,0c1.39-0.03,2.7-0.66,3.74-1.79l26.45-23.34
					c0.63-0.56,1.11-1.36,1.36-2.3l6.14-22.73C69.89,2115.92,69.11,2113.35,67.44,2112.12z" class="color343433 svgShape"></path><polygon fill="#f5bf9a" points="558.09 2212.79 541.46 2228.02 521.39 2205.78 538.02 2190.55" class="colorf5bf9a svgShape"></polygon><path fill="#343433" d="M537.66 2226.72l6.51 15.25c.55 1.28 1.38 2.31 2.43 3.02l0 0c2.65 1.79 6.29 1.25 9.18-1.36l28.87-26.06c2.47-2.23 4.59-4.98 6.21-8.07l0 0c1.78-3.39 1.13-7.33-1.46-8.8l0 0c-1.05-.6-2.32-.72-3.6-.33l-30.16 5.61c-.72.13-1.43.52-2.04 1.11l-14.64 14.27C537.5 2222.78 536.95 2225.06 537.66 2226.72zM243.64 2012.48l-44.95 122.01-114.91-18.6-10.07 32.6 123.12 32.77c17.5 4.66 36.06-1.34 47.58-15.36l74.11-90.23 139.58 69 64.1 72.75 24.51-24.68-50.15-81.17c-5.28-8.54-11.99-16.1-19.84-22.33L364.2 2000l0 0-56.85 5.19L243.64 2012.48z" class="color343433 svgShape"></path><path fill="#f5bf9a" d="M476.76,1843.38l10.57,11.02l5.38-3.66c0,0,22.14-6.5,11.04-22.77c-4.32-6.34-14.23-3.91-14.95,3.7
					c-0.01,0.11-0.02,0.22-0.03,0.32c-0.02,0.26-0.39,0.3-0.46,0.04l-1.57-6.17c-0.27-1.05-1.32-1.7-2.37-1.48l0,0
					c-0.97,0.21-1.63,1.09-1.56,2.08l0.48,6.68c0.11,1.49-0.37,2.97-1.34,4.1L476.76,1843.38z" class="colorf5bf9a svgShape"></path><path fill="#ef576a" d="M361.82,2000.77c-27.55,15.19-74.6,15.84-124.82,14.13l13.4-35.43c11.15-29.49,19.36-59.98,26.06-90.82
					c5.8-26.68,21.8-63.14,65.7-75.92l0.11,1.89l2.15-3.45c7.36,11.99,13.09,15.37,27.15,6.69c34.37,6.5,36.02,20.47,63.23,50.9
					l47.08-36.06l10.9,21.25l-46.38,44.93c-6.48,6.43-16.19,8.34-24.61,4.83l-23.72-9.89l-27.56,52.38l-6.32,53.79L361.82,2000.77z" class="coloref576a svgShape"></path><path fill="#f5bf9a" d="M371.44,1807.83c-0.76-0.08-1.34,0.69-1.05,1.41l1.99,13.5c0.28,0.68,0.39,1.51,0.07,2.02
						c-0.89,1.31-0.7,1.8-1.78,2.64c-4.66,3.67-10.88,3.34-16.27,1.87c-5.54-1.48-10.14-4.15-11.21-4.92
						c-0.19-0.13-0.3-0.34-0.32-0.56l-1.16-21.19c-0.02-0.33-0.21-0.63-0.49-0.8c-13.38-8.64-12.93-27.8-12.93-27.8
						c3.43-41.94,34.05-36.32,48.79-31.1c4.92,1.75,8.65,5.89,9.93,10.99C400.58,1807.98,378.26,1808.62,371.44,1807.83z" class="colorf5bf9a svgShape"></path><path fill="#343433" d="M347.57,1774.45l2.5,12.62c0.29,1.46,1.96,2.16,3.19,1.33l0,0c0.62-0.42,0.97-1.15,0.9-1.91l-0.82-9.49
						c-0.18-2.1,0.78-4.11,2.49-5.31c3.25-2.3,8.01-6.95,6.56-13.88c-0.31-1.49,0.7-2.94,2.2-3.11c5.22-0.62,15.56-2.41,19.48-7.19
						c0.72-0.88,1.52-1.69,2.38-2.43c2.42-2.06,6.55-6.71,3.5-12.69c-0.51-0.99-1.6-1.53-2.69-1.31l-9.13,1.81
						c-0.63,0.13-1.26-0.25-1.46-0.87l-2.43-7.72c-0.26-0.83-1.26-1.16-1.96-0.65l-9.26,6.79c-2.01,1.48-4.68,1.68-6.9,0.53
						c-4.61-2.37-13.74-5.11-25.18,1.38c-10.17,5.77-14.61,17.93-16.53,26.56c-1.26,5.66,0.07,11.59,3.56,16.21l8.19,10.82
						c0.3,0.4,0.58,0.82,0.82,1.27c1.82,3.33,8.38,18.71,14.4,15.04c0.17-0.1,0.24-0.3,0.21-0.49l0.56-8.24
						c-0.37-1.86-1.26-3.57-2.58-4.92c-3.55-3.63-10.03-11.63-3.15-15.88c2.29-1.42,5.1-1.82,7.7-1.09
						C345.72,1772.06,347.26,1772.9,347.57,1774.45z" class="color343433 svgShape"></path><g fill="#000000" class="color000 svgShape"><path fill="#f5bf9a" d="M494.33,1939.19l1.68,15.1l6.53,0.32c0,0,21.61,8.12,22.72-11.48c0.43-7.63-8.94-11.65-14.17-6.03
						c-0.07,0.08-0.15,0.16-0.22,0.24c-0.18,0.2-0.49,0-0.39-0.24l2.52-5.85c0.43-0.99-0.01-2.14-0.98-2.6l0,0
						c-0.9-0.41-1.97-0.11-2.52,0.72l-3.71,5.6c-0.83,1.25-2.11,2.14-3.57,2.46L494.33,1939.19z" class="colorf5bf9a svgShape"></path><path fill="#ef576a" d="M290.12,1908.41c29.03,23.24,64.98,42.26,105.38,58.57c6.31,3.51,13.54,5.05,20.76,4.43l85.09-13.12
					l-6.28-24.25l-78.12,6l-36.65-32.81l-62.31-6.87L290.12,1908.41z" class="coloref576a svgShape"></path></g></g></g></svg>