<svg xmlns="http://www.w3.org/2000/svg" enable-background="new 0 0 800 600" viewBox="0 0 800 600" width="550" height="550"><circle cx="83.202" cy="405.759" r="19.919" fill="#5089c3" transform="rotate(-22.5 83.197 405.741)" class="color5089c3 svgShape"></circle><circle cx="672.853" cy="443.878" r="79.682" fill="#96c6ed" transform="rotate(-45.001 672.851 443.888)" class="color96c6ed svgShape"></circle><circle cx="401.852" cy="313.982" r="243.646" fill="#f7e6da" transform="rotate(-45.001 401.85 313.988)" class="colorf7e6da svgShape"></circle><circle cx="580.096" cy="159.829" r="94.146" fill="#eeeeee" transform="rotate(-45.001 580.097 159.836)" class="coloreee svgShape"></circle><path fill="#262935" d="M544.988,559.639H285.761c-6.989,0-12.654-5.665-12.654-12.654V53.015
		c0-6.989,5.665-12.654,12.654-12.654h259.227c6.989,0,12.654,5.665,12.654,12.654v493.969
		C557.642,553.973,551.977,559.639,544.988,559.639z" class="color262935 svgShape"></path><path fill="#f2f2f3" d="M538.166,546.529H292.582c-4.539,0-8.218-3.679-8.218-8.218V63.49c0-4.539,3.679-8.218,8.218-8.218
		h245.583c4.539,0,8.218,3.679,8.218,8.218v474.821C546.384,542.849,542.705,546.529,538.166,546.529z" class="colorf2f2f3 svgShape"></path><path fill="#262935" d="M457.128,45.1H373.62c-4.964,0-8.988,4.024-8.988,8.987v11.534c0,4.964,4.024,8.988,8.988,8.988
		h83.507c4.964,0,8.988-4.024,8.988-8.988V54.088C466.116,49.124,462.092,45.1,457.128,45.1z" class="color262935 svgShape"></path><circle cx="396.015" cy="526.237" r="3.492" fill="#262935" class="color262935 svgShape"></circle><circle cx="408.921" cy="526.237" r="3.492" fill="#262935" class="color262935 svgShape"></circle><circle cx="421.827" cy="526.237" r="3.492" fill="#262935" class="color262935 svgShape"></circle><circle cx="434.733" cy="526.237" r="3.492" fill="#262935" class="color262935 svgShape"></circle><path fill="#707893" d="M512.061,110.609H318.688c-8.523,0-15.432,6.909-15.432,15.432c0,8.523,6.909,15.432,15.432,15.432
		h193.373c8.523,0,15.432-6.909,15.432-15.432C527.492,117.519,520.583,110.609,512.061,110.609z" class="color707893 svgShape"></path><path fill="#eeeeee" d="M507.704,130.436c-1.586,0-3.172-0.604-4.378-1.81c-2.413-2.415-2.413-6.343,0-8.757
				c1.17-1.17,2.725-1.814,4.378-1.814c1.654,0,3.209,0.644,4.378,1.814c2.413,2.414,2.413,6.343,0,8.757
				C510.875,129.832,509.289,130.436,507.704,130.436z M507.704,119.569c-1.249,0-2.424,0.487-3.307,1.37
				c-1.823,1.824-1.823,4.791,0,6.615c1.823,1.823,4.791,1.824,6.614,0c1.823-1.824,1.823-4.791,0-6.615
				C510.128,120.056,508.953,119.569,507.704,119.569z" class="coloreee svgShape"></path><rect width="1.515" height="7.641" x="513.49" y="126.971" fill="#eeeeee" transform="rotate(-44.992 514.25 130.798)" class="coloreee svgShape"></rect><rect width="3.179" height="6.773" x="525.424" y="68.361" fill="#868ca5" class="color868ca5 svgShape"></rect><path fill="#868ca5" d="M504.776,64.46v14.575h20.648V64.46H504.776z M523.075,76.663h-15.949v-9.831h15.949V76.663z" class="color868ca5 svgShape"></path><rect width="2.608" height="6.619" x="508.903" y="68.361" fill="#868ca5" class="color868ca5 svgShape"></rect><rect width="2.608" height="6.619" x="513.296" y="68.361" fill="#868ca5" class="color868ca5 svgShape"></rect><path fill="#868ca5" d="M322.698 78.79c0 1.384-1.122 2.507-2.507 2.507s-2.506-1.122-2.506-2.507 1.122-2.507 2.506-2.507S322.698 77.406 322.698 78.79zM315.342 75.69l-1.604-1.604c1.724-1.724 4.016-2.673 6.454-2.673 2.438 0 4.729.949 6.453 2.673l-1.604 1.604c-1.295-1.295-3.018-2.008-4.849-2.008C318.36 73.681 316.638 74.395 315.342 75.69z" class="color868ca5 svgShape"></path><path fill="#868ca5" d="M312.042,72.389l-1.604-1.604c2.606-2.606,6.07-4.041,9.754-4.041
				c3.685,0,7.149,1.435,9.753,4.041l-1.604,1.604c-2.177-2.177-5.07-3.376-8.149-3.376
				C317.114,69.013,314.219,70.212,312.042,72.389z" class="color868ca5 svgShape"></path><path fill="#868ca5" d="M331.563,69.168c-6.269-6.267-16.471-6.27-22.742,0l-1.604-1.604
				c7.154-7.154,18.796-7.155,25.95,0L331.563,69.168z" class="color868ca5 svgShape"></path><rect width="235.444" height="101.509" x="297.652" y="163.727" fill="#80b0d8" class="color80b0d8 svgShape"></rect><path fill="#ffffff" d="M534.612,421.943H296.137V272.678h238.475V421.943z M299.167,418.913h232.414V275.709H299.167
			V418.913z" class="colorfff svgShape"></path><path fill="#f2f2f3" d="M365.154 200.215c-.763 0-1.507.078-2.227.221.001-.075.022-.146.022-.221 0-4.266-3.459-7.725-7.724-7.725-1.443 0-2.776.421-3.932 1.109-1.634-5.081-6.395-8.76-12.019-8.76-6.974 0-12.628 5.654-12.628 12.628 0 .962.118 1.894.321 2.794-1.456-.64-3.062-1.001-4.755-1.001-6.535 0-11.833 5.298-11.833 11.833 0 6.535 5.298 11.833 11.833 11.833h42.942c6.271 0 11.355-5.084 11.355-11.356C376.509 205.299 371.425 200.215 365.154 200.215zM332.492 241.371c-.805 2.527-3.507 3.922-6.033 3.116-2.527-.806-3.922-3.507-3.117-6.034.805-2.527 7.341-7.218 7.341-7.218S333.297 238.844 332.492 241.371zM348.056 241.371c-.805 2.527-3.507 3.922-6.033 3.116-2.527-.806-3.922-3.507-3.117-6.034s7.341-7.218 7.341-7.218S348.861 238.844 348.056 241.371zM363.62 241.371c-.805 2.527-3.507 3.922-6.033 3.116-2.527-.806-3.922-3.507-3.117-6.034.805-2.527 7.341-7.218 7.341-7.218S364.425 238.844 363.62 241.371z" class="colorf2f2f3 svgShape"></path><path fill="#ffffff" d="M453.617 217.374v-6.358h4.214v6.358h3.908v4.022h-3.908v6.589h-4.214v-6.589h-12.795v-3.37l9.158-16.856h4.367l-8.696 16.204H453.617zM482.211 207.72c0 2.72-2.068 5.747-4.903 8.812l-6.971 7.392h13.1v4.061H464.36v-3.294l9.882-10.611c1.956-1.992 3.256-4.177 3.256-5.708 0-2.146-1.684-3.448-4.482-3.448-2.336 0-5.056 1.302-7.317 3.372l-1.8-3.486c2.913-2.375 6.323-3.832 9.769-3.832C478.723 200.978 482.211 203.621 482.211 207.72zM498.34 209.284c0 3.571-2.52 6.026-6.182 6.026-3.684 0-6.207-2.455-6.207-6.026 0-3.593 2.523-6.028 6.207-6.028C495.819 203.256 498.34 205.691 498.34 209.284zM488.517 209.306c0 2.299 1.497 3.861 3.64 3.861 2.121 0 3.615-1.563 3.615-3.861 0-2.277-1.494-3.84-3.615-3.84C490.015 205.466 488.517 207.029 488.517 209.306z" class="colorfff svgShape"></path><rect width="57.143" height="57.143" x="310.378" y="284.468" fill="#b2b2b2" class="colorb2b2b2 svgShape"></rect><rect width="57.143" height="57.143" x="310.378" y="353.01" fill="#d0efff" class="colord0efff svgShape"></rect><rect width="123.551" height="10.159" x="383.153" y="297.03" fill="#d7d6e9" class="colord7d6e9 svgShape"></rect><rect width="87.829" height="10.159" x="383.153" y="323.248" fill="#d7d6e9" class="colord7d6e9 svgShape"></rect><rect width="123.551" height="10.159" x="383.153" y="365.196" fill="#d7d6e9" class="colord7d6e9 svgShape"></rect><rect width="87.829" height="10.159" x="383.153" y="391.414" fill="#d7d6e9" class="colord7d6e9 svgShape"></rect><circle cx="325.036" cy="469.657" r="21.626" fill="#d7d6e9" class="colord7d6e9 svgShape"></circle><circle cx="385.262" cy="469.657" r="21.626" fill="#d7d6e9" class="colord7d6e9 svgShape"></circle><circle cx="445.487" cy="469.657" r="21.626" fill="#d7d6e9" class="colord7d6e9 svgShape"></circle><circle cx="505.712" cy="469.657" r="21.626" fill="#d7d6e9" class="colord7d6e9 svgShape"></circle><g fill="#000000" class="color000 svgShape"><path fill="#fbdcbc" d="M293.236,546.529h77.066l9.886-56.723c1.807-10.372,8.523-19.228,18.023-23.766l33.055-15.792
			l-27.081-79.961l-24.976-13.304l-37.502,17.917l-14.845,42.006l7.005,14.662L293.236,546.529z" class="colorfbdcbc svgShape"></path><rect width="17.958" height="39.581" x="377.626" y="353.624" fill="#c6c6c6" transform="rotate(-24.153 386.567 373.384)" class="colorc6c6c6 svgShape"></rect><path fill="#3b9bea" d="M558.081,339.256l-53.506-119.321l-53.506-119.321c-1.031-2.301-4.425-1.976-5.013,0.485
			c-16.725,69.923-80.046,121.041-105.414,139.415l19.762,44.069l19.762,44.069c30.594-6.72,110.882-19.998,174.218,14.024
			C556.613,343.874,559.112,341.557,558.081,339.256z" class="color3b9bea svgShape"></path><path fill="#ef5656" d="M383.53,336.156l-73.812,33.098c-3.955,1.773-8.598,0.005-10.371-3.95l-39.83-88.823
			c-1.773-3.955-0.005-8.598,3.95-10.371l73.812-33.099L383.53,336.156z" class="coloref5656 svgShape"></path><path fill="#5089c3" d="M297.839,361.944l-16.484,7.392c-6.281,2.817-13.656,0.008-16.473-6.273l-26.616-59.354
			c-2.817-6.281-0.008-13.656,6.273-16.473l16.484-7.392L297.839,361.944z" class="color5089c3 svgShape"></path><ellipse cx="509.901" cy="217.547" fill="#7dc7f9" rx="33.722" ry="138.896" transform="rotate(-24.153 509.856 217.532)" class="color7dc7f9 svgShape"></ellipse><path fill="#868ca5" d="M536.492,205.622c27.122,60.483,37.199,114.855,22.52,121.437
			c-12.616,5.657-39.401-25.784-63.892-73.084c-4.015-7.778-7.975-15.97-11.804-24.508c-3.829-8.538-7.311-16.944-10.448-25.116
			c-19.028-49.751-24.688-90.664-12.073-96.321C475.474,101.448,509.37,145.139,536.492,205.622z" class="color868ca5 svgShape"></path><path fill="#e50042" d="M515.749,214.924c6.334,14.125,0.014,30.701-14.102,37.031c-2.13,0.955-4.327,1.631-6.527,2.021
			c-4.015-7.778-7.975-15.97-11.804-24.508c-3.829-8.538-7.311-16.944-10.448-25.116c1.754-1.383,3.721-2.575,5.85-3.53
			C492.833,194.492,509.419,200.808,515.749,214.924z" class="colore50042 svgShape"></path><path fill="#d74f4f" d="M441.493,457.461l-33.019,14.806c-6.498,2.914-14.149,0.83-18.273-4.976l-68.856-103.25
			l44.198-19.819L441.493,457.461z" class="colord74f4f svgShape"></path><polygon fill="#c43d3d" points="373.158 354.944 365.542 344.222 321.344 364.041 328.959 374.763" class="colorc43d3d svgShape"></polygon><path fill="#ff9f9f" d="M290.835 295.054l42.69-19.143c2.318-1.04 3.355-3.762 2.315-6.08-1.04-2.318-3.762-3.355-6.08-2.315l-42.69 19.143c-2.318 1.039-3.355 3.761-2.315 6.08C285.794 295.056 288.517 296.093 290.835 295.054zM339.38 288.97l-42.69 19.143c-2.318 1.039-3.355 3.761-2.315 6.08 1.04 2.318 3.762 3.355 6.08 2.315l42.689-19.143c2.318-1.039 3.355-3.762 2.315-6.08C344.42 288.967 341.698 287.931 339.38 288.97zM349 310.424l-42.689 19.143c-2.318 1.04-3.355 3.762-2.315 6.08 1.04 2.318 3.762 3.355 6.08 2.315l42.69-19.143c2.318-1.039 3.355-3.762 2.315-6.08C354.041 310.421 351.319 309.385 349 310.424z" class="colorff9f9f svgShape"></path><path fill="#fbdcbc" d="M369.649,430.397c22.011-19.435-2.378-43.309-2.378-43.309l12.226-5.841l7.705,1.562
			c10.648,2.354,19.651-11.101,19.651-11.101l-27.646-14.726l-37.502,17.917l-14.845,42.006l7.005,14.662
			C333.865,431.568,353.308,444.826,369.649,430.397z" class="colorfbdcbc svgShape"></path><path fill="#efc8a5" d="M379.208,356.983l-0.054,0.026l21.224,11.305c0,0-9.004,13.455-19.651,11.101l-7.705-1.563
			l-12.227,5.841c0,0,24.389,23.875,2.378,43.309c-10.526,9.294-22.331,7.099-29.405,4.361l0.097,0.204
			c0,0,19.442,13.259,35.784-1.17c22.011-19.435-2.378-43.309-2.378-43.309l12.226-5.841l7.705,1.563
			c10.648,2.354,19.651-11.101,19.651-11.101L379.208,356.983z" class="colorefc8a5 svgShape"></path><path fill="#fbdcbc" d="M428.583 429.407l-29.354 14.024c-4.974 2.376-7.079 8.334-4.703 13.308 2.376 4.974 8.334 7.08 13.308 4.703l29.354-14.024c4.974-2.376 7.079-8.334 4.703-13.308C439.515 429.137 433.557 427.031 428.583 429.407zM422.881 410.009l-33.455 15.983c-4.974 2.376-7.079 8.335-4.703 13.308 2.376 4.974 8.334 7.079 13.308 4.703l33.454-15.983c4.974-2.376 7.079-8.334 4.703-13.308C433.813 409.738 427.855 407.633 422.881 410.009z" class="colorfbdcbc svgShape"></path><path fill="#fbdcbc" d="M415.274 391.521l-35.449 16.936c-4.973 2.376-7.079 8.334-4.703 13.308 2.376 4.974 8.335 7.079 13.308 4.703l35.449-16.936c4.974-2.376 7.079-8.335 4.703-13.308C426.206 391.251 420.248 389.145 415.274 391.521zM404.475 374.558l-31.061 14.839c-4.974 2.376-7.079 8.334-4.703 13.308 2.376 4.974 8.334 7.079 13.308 4.703l31.061-14.839c4.973-2.376 7.079-8.335 4.703-13.308C415.407 374.287 409.448 372.182 404.475 374.558z" class="colorfbdcbc svgShape"></path><path fill="#efc8a5" d="M434.924 442.68l-29.354 14.024c-4.153 1.984-8.983.835-11.851-2.49.156.854.414 1.703.807 2.525 2.376 4.974 8.334 7.08 13.308 4.703l29.354-14.024c4.974-2.376 7.079-8.334 4.703-13.308-.392-.821-.89-1.556-1.457-2.214C441.218 436.216 439.077 440.696 434.924 442.68zM429.222 423.282l-33.455 15.983c-4.153 1.984-8.983.835-11.851-2.489.156.854.414 1.703.807 2.525 2.376 4.974 8.334 7.079 13.308 4.703l33.454-15.983c4.974-2.376 7.079-8.334 4.703-13.308-.392-.821-.89-1.556-1.457-2.214C435.516 416.818 433.375 421.298 429.222 423.282zM421.615 404.794l-35.449 16.936c-4.152 1.984-8.983.835-11.85-2.49.155.855.414 1.704.806 2.525 2.376 4.974 8.335 7.079 13.308 4.703l35.449-16.936c4.974-2.376 7.079-8.335 4.703-13.308-.392-.821-.89-1.556-1.457-2.214C427.909 398.33 425.768 402.81 421.615 404.794zM410.816 387.831l-31.061 14.839c-4.153 1.984-8.983.835-11.851-2.489.156.854.414 1.703.807 2.525 2.376 4.974 8.334 7.079 13.308 4.703l31.061-14.839c4.973-2.376 7.079-8.335 4.703-13.308-.392-.821-.89-1.556-1.457-2.214C417.11 381.367 414.968 385.847 410.816 387.831z" class="colorefc8a5 svgShape"></path></g><circle cx="161.996" cy="487.167" r="42.026" fill="#d7d6e9" class="colord7d6e9 svgShape"></circle><circle cx="86.129" cy="284.468" r="54.854" fill="#f2f2f3" transform="rotate(-45.001 86.126 284.47)" class="colorf2f2f3 svgShape"></circle><circle cx="645.498" cy="99.059" r="42.026" fill="#96c6ed" transform="rotate(-1.812 644.844 98.784)" class="color96c6ed svgShape"></circle><path fill="#ffffff" d="M660.389,76.267h-29.783c-4.363,0-7.901,3.537-7.901,7.901v29.783c0,4.363,3.538,7.9,7.901,7.9
		h14.021v-20.945h-3.885v-5.504h3.885V93.41c0-2.225,0.237-3.885,0.708-4.981c0.475-1.096,1.346-1.988,2.617-2.678
		c1.269-0.688,2.876-1.033,4.819-1.033c1.993,0,3.944,0.299,5.852,0.896l-0.946,4.881c-1.112-0.265-2.184-0.398-3.214-0.398
		c-1.012,0-1.738,0.236-2.178,0.711c-0.441,0.472-0.661,1.381-0.661,2.726v1.868h5.23v5.504h-5.23v20.945h8.765
		c4.363,0,7.901-3.537,7.901-7.9V84.168C668.29,79.804,664.752,76.267,660.389,76.267z" class="colorfff svgShape"></path><path fill="#96c6ed" d="M155.875,163.727h-29.783c-4.363,0-7.901,3.537-7.901,7.9v29.783c0,4.363,3.538,7.9,7.901,7.9
		h14.021v-20.945h-3.885v-5.504h3.885v-1.992c0-2.225,0.237-3.885,0.708-4.981c0.475-1.096,1.346-1.988,2.617-2.678
		c1.269-0.689,2.876-1.033,4.818-1.033c1.993,0,3.944,0.299,5.852,0.896l-0.946,4.881c-1.112-0.265-2.184-0.398-3.214-0.398
		c-1.012,0-1.738,0.236-2.178,0.711c-0.441,0.471-0.661,1.382-0.661,2.726v1.868h5.23v5.504h-5.23v20.945h8.765
		c4.363,0,7.901-3.537,7.901-7.9v-29.783C163.775,167.264,160.237,163.727,155.875,163.727z" class="color96c6ed svgShape"></path><g fill="#000000" class="color000 svgShape"><path fill="#8cc63f" d="M727.235,184.679c-22.911,0-41.49,18.579-41.49,41.49s18.579,41.49,41.49,41.49
			c22.911,0,41.49-18.579,41.49-41.49S750.146,184.679,727.235,184.679z M728.201,252.688
			C728.2,252.688,728.201,252.688,728.201,252.688h-0.011c-4.563-0.002-9.046-1.146-13.028-3.317l-14.451,3.79l3.868-14.122
			c-2.386-4.132-3.641-8.821-3.639-13.624c0.006-15.026,12.235-27.25,27.261-27.25c7.292,0.003,14.137,2.841,19.283,7.992
			c5.147,5.151,7.98,11.998,7.977,19.28C755.454,240.462,743.224,252.688,728.201,252.688z" class="color8cc63f svgShape"></path><path fill="#8cc63f" d="M728.21,202.768c-12.498,0-22.662,10.16-22.668,22.649c-0.001,4.28,1.197,8.448,3.465,12.054
			l0.539,0.857l-2.289,8.359l8.576-2.249l0.828,0.491c3.478,2.064,7.466,3.156,11.532,3.157h0.009
			c12.488,0,22.652-10.161,22.658-22.65c0.002-6.053-2.352-11.743-6.63-16.024C739.95,205.129,734.261,202.77,728.21,202.768z
			 M741.537,235.154c-0.568,1.59-3.289,3.042-4.597,3.238c-1.174,0.175-2.658,0.248-4.29-0.27c-0.99-0.314-2.258-0.733-3.884-1.435
			c-6.832-2.949-11.295-9.827-11.635-10.281c-0.341-0.454-2.781-3.693-2.781-7.044c0-3.351,1.76-4.999,2.384-5.68
			c0.625-0.682,1.363-0.852,1.817-0.852c0.454,0,0.908,0.004,1.305,0.024c0.418,0.021,0.98-0.159,1.532,1.169
			c0.568,1.364,1.93,4.715,2.1,5.055c0.17,0.341,0.284,0.739,0.057,1.193c-0.227,0.455-0.982,1.435-1.703,2.329
			c-0.302,0.375-0.696,0.708-0.299,1.39c0.397,0.681,1.765,2.911,3.789,4.717c2.602,2.32,4.797,3.038,5.478,3.38
			c0.681,0.341,1.078,0.284,1.476-0.17c0.397-0.454,1.703-1.988,2.156-2.67c0.454-0.682,0.909-0.568,1.533-0.341
			c0.625,0.227,3.973,1.874,4.654,2.215c0.681,0.341,1.135,0.511,1.305,0.796C742.104,232.201,742.104,233.564,741.537,235.154z" class="color8cc63f svgShape"></path></g><path fill="#ffffff" d="M134.815 504.387c6.059.543 11.466-.94 16.242-4.628-5.02-.495-8.452-3.029-10.334-7.836 1.702.309 3.277.25 4.968-.186-5.595-1.675-8.54-5.316-8.907-11.135 1.616.816 3.202 1.352 4.967 1.353-4.977-4.109-6.058-9.052-3.399-14.945 6.126 7.176 13.765 11.111 23.14 11.749-.066-.707-.125-1.322-.181-1.936-.158-1.741.155-3.411.833-5.007.973-2.289 2.544-4.075 4.699-5.322 2.003-1.159 4.165-1.634 6.478-1.451 2.745.217 5.081 1.3 7.044 3.224.134.131.422.206.609.166 2.339-.497 4.548-1.344 6.729-2.623-.909 2.636-2.464 4.603-4.69 6.083 2.12-.151 4.113-.774 6.163-1.613-.351.486-.629.892-.93 1.28-.303.389-.62.767-.949 1.134-.339.379-.677.763-1.055 1.102-.734.657-1.494 1.285-2.245 1.923-.202.171-.364.33-.352.648.11 3.126-.257 6.198-1.069 9.219-1.15 4.276-3.05 8.179-5.74 11.701-1.41 1.845-2.996 3.519-4.78 4.999-2.267 1.88-4.757 3.4-7.474 4.552-1.913.811-3.886 1.421-5.917 1.832-2.687.544-5.4.734-8.145.633-2.657-.099-5.249-.529-7.79-1.274-2.711-.795-5.265-1.953-7.668-3.439C134.991 504.545 134.932 504.483 134.815 504.387zM576.29 203.739c6.059.542 11.466-.941 16.242-4.628-5.02-.495-8.452-3.029-10.334-7.837 1.702.309 3.277.25 4.968-.186-5.595-1.675-8.54-5.317-8.907-11.135 1.616.816 3.202 1.352 4.968 1.353-4.977-4.109-6.058-9.052-3.399-14.945 6.126 7.176 13.765 11.111 23.14 11.749-.066-.707-.125-1.322-.181-1.936-.158-1.742.155-3.411.833-5.007.973-2.289 2.544-4.075 4.699-5.322 2.003-1.159 4.165-1.634 6.478-1.451 2.745.217 5.081 1.3 7.044 3.224.134.131.422.205.609.166 2.339-.497 4.548-1.344 6.729-2.623-.909 2.636-2.464 4.603-4.69 6.083 2.12-.151 4.113-.774 6.163-1.613-.351.486-.629.892-.93 1.28-.303.389-.62.767-.949 1.134-.339.379-.677.763-1.055 1.102-.734.657-1.494 1.285-2.245 1.923-.202.171-.364.33-.352.648.11 3.126-.257 6.198-1.069 9.219-1.15 4.276-3.05 8.179-5.74 11.701-1.41 1.845-2.996 3.519-4.78 4.999-2.267 1.88-4.757 3.4-7.474 4.551-1.913.811-3.886 1.421-5.918 1.832-2.687.544-5.4.734-8.145.633-2.657-.098-5.249-.529-7.79-1.274-2.711-.795-5.265-1.954-7.668-3.439C576.466 203.897 576.407 203.835 576.29 203.739z" class="colorfff svgShape"></path><g fill="#000000" class="color000 svgShape"><path fill="#ffffff" d="M86.148,252.617c2.896,0.02,5.793,0.022,8.689,0.065c1.697,0.025,3.394,0.092,5.089,0.184
			c2.181,0.119,4.32,0.482,6.396,1.192c2.961,1.012,5.421,2.735,7.414,5.139c1.39,1.677,2.344,3.583,2.993,5.652
			c0.473,1.508,0.797,3.051,0.901,4.625c0.134,2.039,0.265,4.082,0.284,6.124c0.047,5.203,0.054,10.406,0.031,15.608
			c-0.011,2.36-0.097,4.721-0.211,7.079c-0.121,2.491-0.558,4.929-1.52,7.246c-1.791,4.314-4.862,7.346-9.19,9.096
			c-1.689,0.683-3.454,1.077-5.26,1.292c-1.96,0.233-3.931,0.287-5.901,0.326c-2.202,0.044-4.405,0.064-6.607,0.069
			c-3.353,0.007-6.706,0.016-10.059-0.022c-2.299-0.027-4.599-0.098-6.896-0.212c-2.354-0.116-4.662-0.521-6.872-1.379
			c-4.541-1.762-7.709-4.91-9.493-9.443c-0.692-1.759-1.085-3.592-1.284-5.468c-0.227-2.145-0.298-4.299-0.312-6.451
			c-0.035-5.233-0.049-10.467-0.026-15.7c0.01-2.323,0.097-4.648,0.21-6.969c0.131-2.678,0.622-5.292,1.728-7.752
			c1.816-4.043,4.789-6.903,8.904-8.562c1.81-0.73,3.698-1.156,5.636-1.355c2.521-0.259,5.052-0.311,7.583-0.33
			c2.592-0.02,5.184-0.004,7.777-0.004C86.148,252.65,86.148,252.633,86.148,252.617z M86.13,310.542c0,0.018,0,0.035,0,0.053
			c3.121-0.027,6.243-0.03,9.364-0.089c1.714-0.032,3.428-0.131,5.139-0.251c1.411-0.099,2.79-0.398,4.117-0.907
			c2.869-1.1,4.912-3.062,6.108-5.893c0.75-1.776,1.047-3.655,1.146-5.563c0.096-1.847,0.173-3.697,0.186-5.546
			c0.031-4.32,0.023-8.641,0.022-12.962c-0.001-3.036-0.032-6.073-0.269-9.102c-0.122-1.564-0.422-3.093-0.993-4.563
			c-1.018-2.623-2.8-4.546-5.333-5.754c-1.775-0.847-3.68-1.204-5.627-1.333c-1.414-0.094-2.831-0.159-4.248-0.187
			c-2.287-0.044-4.576-0.065-6.863-0.063c-4.758,0.005-9.517-0.056-14.274,0.126c-1.398,0.054-2.796,0.11-4.18,0.336
			c-1.54,0.251-3.034,0.661-4.398,1.43c-2.4,1.353-4.037,3.349-4.914,5.969c-0.524,1.564-0.777,3.177-0.86,4.814
			c-0.091,1.805-0.179,3.612-0.184,5.418c-0.013,5.878-0.006,11.757,0.033,17.635c0.012,1.841,0.076,3.686,0.314,5.518
			c0.178,1.375,0.489,2.719,1.046,3.99c1.271,2.902,3.429,4.846,6.424,5.869c1.567,0.535,3.187,0.781,4.831,0.866
			c1.738,0.089,3.478,0.162,5.217,0.181C80.665,310.564,83.397,310.542,86.13,310.542z" class="colorfff svgShape"></path><path fill="#ffffff" d="M86.135 268.122c9.037.009 16.357 7.34 16.345 16.37-.012 9.026-7.342 16.346-16.36 16.337-9.043-.009-16.366-7.352-16.345-16.388C69.796 275.422 77.124 268.113 86.135 268.122zM86.122 273.87c-5.857.005-10.591 4.737-10.601 10.598-.009 5.857 4.738 10.609 10.603 10.615 5.859.005 10.609-4.744 10.61-10.608C96.736 278.614 91.984 273.865 86.122 273.87zM103.12 271.305c-2.116-.001-3.826-1.718-3.821-3.835.005-2.108 1.716-3.812 3.825-3.81 2.12.002 3.826 1.714 3.819 3.833C106.937 269.603 105.229 271.306 103.12 271.305z" class="colorfff svgShape"></path></g><g fill="#000000" class="color000 svgShape"><path fill="#ffffff" d="M681.375,491.283c-0.782,0-1.564,0-2.345,0c-0.14-0.017-0.279-0.047-0.419-0.05
			c-3.201-0.072-6.387-0.323-9.501-1.094c-9.754-2.412-17.568-7.584-22.94-16.214c-3.146-5.053-5.219-10.445-5.476-16.463
			c-0.165-3.868-0.108-7.712,0.66-11.524c0.916-4.545,2.512-8.826,5.122-12.669c2.659-3.915,5.831-7.4,9.336-10.575
			c2.346-2.126,5.021-3.697,8.08-4.576c0.082-0.023,0.168-0.033,0.305-0.059c-0.116,0.179-0.197,0.307-0.281,0.434
			c-1.794,2.716-3.51,5.479-5.034,8.356c-1.18,2.226-2.281,4.489-2.974,6.924c-0.133,0.467-0.212,0.949-0.32,1.448
			c11.543,0,22.992,0,34.452,0c0.013-0.115,0.035-0.208,0.033-0.3c-0.026-1.088-0.014-2.178-0.092-3.262
			c-0.162-2.266-0.656-4.466-1.505-6.575c-1.918-4.766-5.274-8.004-10.219-9.52c-3.514-1.077-7.101-1.169-10.719-0.729
			c-2.729,0.332-5.392,0.968-8.015,1.783c-6.88,2.136-13.066,5.523-18.557,10.194c-3.623,3.082-6.966,6.419-9.693,10.336
			c-0.51,0.733-0.974,1.498-1.478,2.277c0-0.151-0.012-0.276,0.002-0.398c0.274-2.53,0.723-5.029,1.332-7.499
			c1.369-5.555,3.41-10.836,6.403-15.73c3.554-5.811,8.219-10.486,14.174-13.839c5.911-3.328,12.291-5.009,19.033-5.409
			c3.548-0.21,7.072,0,10.574,0.618c5.447,0.961,10.516,2.866,15.136,5.939c3.007,2.001,5.853,4.187,8.299,6.864
			c2.289,2.506,4.145,5.319,5.825,8.25c2.555,4.458,3.869,9.323,4.549,14.373c0.294,2.179,0.456,4.376,0.675,6.565
			c0.046,0.457,0.081,0.915,0.122,1.373c0,3.98,0,7.961,0,11.941c-0.19,0.001-0.379,0.003-0.568,0.003c-19.733,0-39.465,0-59.198,0
			c-0.164,0-0.328,0-0.486,0c-0.022,0.058-0.042,0.09-0.044,0.124c-0.006,0.094-0.007,0.189-0.006,0.284
			c0.005,1.701,0.243,3.373,0.671,5.015c1.653,6.345,5.452,10.889,11.446,13.574c3.534,1.583,7.278,2.244,11.116,2.467
			c2.701,0.157,5.395,0.065,8.081-0.27c3.3-0.412,6.503-1.202,9.59-2.437c3.958-1.584,7.579-3.711,10.643-6.716
			c0.029-0.028,0.068-0.045,0.147-0.097c0,0.181,0,0.308,0,0.435c0.002,6.052,0.005,12.105,0.005,18.157
			c0,0.449,0.139,0.993-0.064,1.32c-0.222,0.358-0.758,0.532-1.174,0.756c-7.317,3.927-15.18,5.763-23.43,6.12
			C682.222,491.228,681.798,491.258,681.375,491.283z" class="colorfff svgShape"></path></g><g fill="#000000" class="color000 svgShape"><path fill="#f2f2f3" d="M96.571,406.795c0.009-1.066-0.848-1.939-1.915-1.948l-1.326-0.012
			c1.067,0.009,1.938-0.848,1.948-1.914c0.009-1.067-0.848-1.939-1.914-1.948l-8.477-0.074c0.917-1.788,1.367-3.675,1.358-5.175
			c-0.013-2.428-1.012-4.267-3.415-4.625c-0.011,0.07-1.052,6.598-5.183,9.84l-2.465,1.754v11.895l1.457,0.426l2.454,1.285
			l3.165,0.028h0.001l8.477,0.085c1.067,0.009,1.939-0.848,1.948-1.914c0.01-1.067-0.847-1.939-1.914-1.948l0.008-0.011l2.321,0.02
			c1.066,0.009,1.938-0.848,1.948-1.914c0.009-1.066-0.848-1.939-1.914-1.948v0l1.489,0.013
			C95.689,408.719,96.561,407.862,96.571,406.795z" class="colorf2f2f3 svgShape"></path><rect width="4.109" height="11.357" x="69.834" y="403.215" fill="#f2f2f3" class="colorf2f2f3 svgShape"></rect></g><g fill="#000000" class="color000 svgShape"><path fill="#f2f2f3" d="M731.784,325.345c0.018-2.094-1.664-3.806-3.758-3.824l-2.602-0.023
			c2.094,0.018,3.805-1.664,3.824-3.758c0.018-2.094-1.665-3.806-3.758-3.824l-16.64-0.146c1.801-3.51,2.683-7.214,2.667-10.158
			c-0.025-4.767-1.987-8.376-6.703-9.08c-0.021,0.138-2.065,12.953-10.174,19.316l-4.838,3.444v23.35l2.86,0.836l4.816,2.521
			l6.214,0.054h0.001l16.64,0.167c2.094,0.018,3.806-1.664,3.823-3.758c0.019-2.094-1.663-3.806-3.757-3.824l0.016-0.021l4.556,0.04
			c2.093,0.018,3.805-1.664,3.825-3.758c0.018-2.094-1.664-3.806-3.758-3.824v0l2.922,0.026
			C730.053,329.121,731.765,327.439,731.784,325.345z" class="colorf2f2f3 svgShape"></path><rect width="8.067" height="22.295" x="679.299" y="318.316" fill="#f2f2f3" class="colorf2f2f3 svgShape"></rect></g></svg>