<svg xmlns="http://www.w3.org/2000/svg" enable-background="new 0 0 2000 2000" viewBox="56.376 429.875 1887.248 1419.979" width="550" height="550"><g opacity=".41" fill="#000000" class="color000 svgShape"><path fill="#abe9ff" d="M142.16 932.37L142.16 932.37c0-101.28 88.06-183.38 196.68-183.38h41.03c-19.19-15.49-31.35-38.35-31.35-63.87v0c0-46.65 40.56-84.47 90.59-84.47h136.55c-13.81-11.08-22.59-27.47-22.59-45.79 0-33.38 29.02-60.44 64.82-60.44h342.87c35.8 0 64.82 27.06 64.82 60.44 0 33.38-29.02 60.44-64.82 60.44H832.38c-23.9 15.21-39.6 40.8-39.6 69.82v0c0 25.52 12.16 48.38 31.35 63.87h211.14c108.62 0 196.68 82.1 196.68 183.38l0 0c0 101.28-88.06 183.38-196.68 183.38h279.71c50.03 0 90.59 37.82 90.59 84.47 0 46.65-40.56 84.47-90.59 84.47h113.97c124.52 0 227.88 84.17 248.4 194.8h39.91c77.64 0 140.58 58.68 140.58 131.07v13.28c0 72.39-62.94 131.07-140.58 131.07h-288.31H485.4h-91.07c-139.27 0-252.17-105.26-252.17-235.11v0c0-129.85 112.9-235.11 252.17-235.11h441.46c-50.03 0-90.59-37.82-90.59-84.47 0-46.65 40.56-84.47 90.59-84.47H338.84C230.22 1115.75 142.16 1033.65 142.16 932.37zM1144.48 615.3c-32.52 0-58.89-27.06-58.89-60.44s26.37-60.44 58.89-60.44c32.52 0 58.89 27.06 58.89 60.44S1177 615.3 1144.48 615.3z" class="colorabe9ff svgShape"></path></g><path fill="#231f20" d="M1857.84,1758.35c0,22.45-392.68,26.96-866.46,26.96c-473.77,0-849.22-4.51-849.22-26.96    c0-22.45,383.91-21.75,857.68-21.75S1857.84,1735.9,1857.84,1758.35z" opacity=".15" class="color231f20 svgShape"></path><path fill="#9eb6d7" d="M1661.86,1458.24c46.81-23.56,79.78-79.8,79.78-145.47c0-8.34-0.54-16.52-1.56-24.51H1485.6     c-1.02,7.99-1.56,16.17-1.56,24.51c0,2.45,0.06,4.88,0.15,7.3c39.18,0.1,182.69,0.8,201.63,5.95c21.96,5.96,28.12,20.57,24,58.14     C1706.63,1413.31,1675.6,1445.34,1661.86,1458.24z" class="color9eb6d7 svgShape"></path><path fill="none" stroke="#acdafd" stroke-miterlimit="10" stroke-width="18.497" d="M1656.76,1501.98c-1.4-7.2-2.39-15.44-2.38-24.63c0.01-5.77,0.43-11.13,1.07-16.14     c50.18-21.49,86.18-79.82,86.18-148.44c0-8.34-0.54-16.52-1.56-24.51H1485.6c-1.02,7.99-1.56,16.17-1.56,24.51     c0,68.1,35.44,126.08,85.03,147.97c0.55,4.89,0.92,10.08,0.96,15.62c0.07,9.65-0.79,18.4-2.08,26.06     c-49,22.26-83.91,79.87-83.91,147.46c0,10.66,0.88,21.07,2.53,31.13h252.53c1.65-10.06,2.53-20.47,2.53-31.13     C1741.63,1581.84,1706.26,1523.91,1656.76,1501.98z" class="colorStrokeacdafd svgStroke"></path><path fill="#e4f5fd" d="M1656.76,1501.98c-1.4-7.2-2.39-15.44-2.38-24.63c0.01-5.77,0.43-11.13,1.07-16.14     c50.18-21.49,86.18-79.82,86.18-148.44c0-8.34-0.54-16.52-1.56-24.51H1485.6c-1.02,7.99-1.56,16.17-1.56,24.51     c0,68.1,35.44,126.08,85.03,147.97c0.55,4.89,0.92,10.08,0.96,15.62c0.07,9.65-0.79,18.4-2.08,26.06     c-49,22.26-83.91,79.87-83.91,147.46c0,10.66,0.88,21.07,2.53,31.13h252.53c1.65-10.06,2.53-20.47,2.53-31.13     C1741.63,1581.84,1706.26,1523.91,1656.76,1501.98z" class="colore4f5fd svgShape"></path><path fill="#9eb6d7" d="M1655.35,1681.01h83.75c1.65-10.06,2.53-20.47,2.53-31.13c0-65.33-32.62-121.35-79.04-145.12     C1662.62,1504.79,1737.24,1580.75,1655.35,1681.01z" opacity=".29" class="color9eb6d7 svgShape"></path><path fill="#112772" d="M1718.9,1664.45c-1.08-9.27-10.85-24.51-56.31-35.76c-45.46-11.26-44.02-41.06-44.02-41.06     s-0.54-110.61-0.54-120.54s12.37-17.69,12.37-17.69c-0.01-0.02-0.03-0.04-0.04-0.05c30.54-5.81,57.05-26.48,74.37-55.83     c-10.57-15.09-21.43-7.8-42.14,3.78c-23.23,13-25.58-24.25-62.46-38.83c-36.81-14.54-76.74,38.61-76.89,38.82     c13.57,21.42,32.19,37.81,53.66,46.59c-0.03,0.01-0.07,0.03-0.07,0.03c14.31,7.24,20.6,19.21,20.6,19.21v122.53     c-3.8,13.25-22.78,39.08-57.48,39.74c-34.71,0.66-45.55,39.08-45.55,39.08l-9.76,0.22c0.42,5.53,1.07,10.98,1.95,16.33h252.53     c0.89-5.42,1.54-10.95,1.96-16.56H1718.9z" class="color112772 svgShape"></path><path fill="#fffffd" d="M1667.9,1373.25h-0.98c-5.69,0-10.3-4.61-10.3-10.3v-29.13c0-5.69,4.61-10.3,10.3-10.3h0.98     c5.69,0,10.3,4.61,10.3,10.3v29.13C1678.2,1368.64,1673.59,1373.25,1667.9,1373.25z" class="colorfffffd svgShape"></path><path fill="#28a2eb" d="M1752.68,1280.68h-281.78c-7.85,0-14.21-6.36-14.21-14.21l0,0c0-7.85,6.36-14.21,14.21-14.21h281.78     c7.85,0,14.21,6.36,14.21,14.21l0,0C1766.89,1274.31,1760.53,1280.68,1752.68,1280.68z" class="color28a2eb svgShape"></path><path fill="#1f49a8" d="M1766.89,1224.57h-310.2c-10.47,0-18.95,8.49-18.95,18.95l0,0c0,10.47,8.49,18.95,18.95,18.95h310.2     c10.47,0,18.95-8.49,18.95-18.95l0,0C1785.85,1233.05,1777.36,1224.57,1766.89,1224.57z" class="color1f49a8 svgShape"></path><path fill="#28a2eb" d="M1752.68,1688.58h-281.78c-7.85,0-14.21,6.36-14.21,14.21l0,0c0,7.85,6.36,14.21,14.21,14.21h281.78     c7.85,0,14.21-6.36,14.21-14.21l0,0C1766.89,1694.94,1760.53,1688.58,1752.68,1688.58z" class="color28a2eb svgShape"></path><path fill="#1f49a8" d="M1762.33,1753.8h-301.08c-12.99,0-23.51-10.53-23.51-23.51l0,0c0-12.99,10.53-23.51,23.51-23.51h301.08     c12.99,0,23.51,10.53,23.51,23.51l0,0C1785.85,1743.27,1775.32,1753.8,1762.33,1753.8z" class="color1f49a8 svgShape"></path><path fill="#92bff7" d="M1445.54,975.27H349.88c-33.15,0-60.03,26.87-60.03,60.03v641.73c0,1.98,1.61,3.59,3.59,3.59h1200.32      c1.98,0,3.59-1.61,3.59-3.59v-649.94C1497.35,998.47,1474.15,975.27,1445.54,975.27z" class="color92bff7 svgShape"></path><rect width="1061.97" height="628.16" x="362.62" y="1030.59" fill="#29478c" class="color29478c svgShape"></rect><path fill="#ffffff" d="M1424.59,1030.59h-25.29c1.61,111-13.85,257.3-89.24,366.34C1189.8,1570.87,536,1623.97,362.62,1635.09      v23.66h1061.97V1030.59z" opacity=".06" class="colorfff svgShape"></path><path fill="#426388" d="M297.01,1035.38c0-29.38,24.66-53.19,55.08-53.19h1103.44c13.38,0,25.65,4.62,35.19,12.29      c-10.11-11.73-25.32-19.2-42.36-19.2H344.93c-30.42,0-55.08,23.82-55.08,53.19v652.15h7.16V1035.38z" class="color426388 svgShape"></path><path fill="#8caed9" d="M213.36,1681.12v17.56c0,30.44,24.67,55.11,55.11,55.11H1518.2c30.73,0,55.64-24.91,55.64-55.64v-17.43      c0-0.06-0.05-0.11-0.11-0.11H213.87C213.59,1680.61,213.36,1680.84,213.36,1681.12z" class="color8caed9 svgShape"></path><path fill="#305c8f" d="M1077.98,1687.18H709.23l0,0c0,7.44,11.51,13.47,25.69,13.47h317.37      C1066.47,1700.64,1077.98,1694.61,1077.98,1687.18L1077.98,1687.18z" class="color305c8f svgShape"></path><path fill="#5e8ccf" d="M215.19,1717.2c5.72,19.11,24.69,33.67,48.13,36.18c0.77,0.07,1.54,0.16,2.32,0.21      c0.62,0.04,1.24,0.05,1.86,0.08c1.38,0.06,2.76,0.13,4.16,0.13h1243.89c1.4,0,2.78-0.06,4.16-0.13      c0.62-0.03,1.24-0.03,1.85-0.08c0.78-0.05,1.55-0.14,2.32-0.21c23.44-2.51,42.42-17.07,48.14-36.18H215.19z" class="color5e8ccf svgShape"></path><circle cx="985.39" cy="1198.81" r="27.9" fill="#9b9af3" class="color9b9af3 svgShape"></circle><path fill="#c6c4f9" d="M861.39,1194.68c0,15.41-12.49,27.9-27.9,27.9c-15.41,0-27.9-12.49-27.9-27.9      c0-15.41,12.49-27.9,27.9-27.9C848.9,1166.78,861.39,1179.27,861.39,1194.68z" class="colorc6c4f9 svgShape"></path><circle cx="906.68" cy="1381.71" r="27.9" fill="#e6e9fc" transform="rotate(-54.217 906.748 1381.778)" class="colore6e9fc svgShape"></circle><path fill="#ffffff" d="M1010.36,1353.81c0,15.41-12.49,27.9-27.9,27.9c-15.41,0-27.9-12.49-27.9-27.9      c0-15.41,12.49-27.9,27.9-27.9C997.87,1325.91,1010.36,1338.4,1010.36,1353.81z" class="colorfff svgShape"></path><circle cx="827.81" cy="1350.36" r="27.9" fill="#d3d6fc" class="colord3d6fc svgShape"></circle><path fill="#bcb6f7" d="M939.92,1166.78c0,15.41-12.49,27.9-27.9,27.9c-15.41,0-27.9-12.49-27.9-27.9s12.49-27.9,27.9-27.9      C927.43,1138.88,939.92,1151.37,939.92,1166.78z" class="colorbcb6f7 svgShape"></path><circle cx="798.01" cy="1272.52" r="27.9" fill="#c6c4f9" class="colorc6c4f9 svgShape"></circle><g fill="#000000" class="color000 svgShape"><path fill="#e8eaf9" d="M807.76 1500.08h4.73v18.72c0 3.27.52 5.63 1.55 7.1 1.03 1.47 2.7 2.2 5.01 2.2 2.43 0 4.19-.73 5.26-2.2 1.07-1.47 1.61-3.87 1.61-7.22v-18.59h4.13v17.9c0 3.86-.46 6.63-1.37 8.31-1.94 3.57-5.13 5.36-9.59 5.36-3.86 0-6.71-1.06-8.56-3.17-1.85-2.11-2.77-5.37-2.77-9.75V1500.08zM839.21 1530.91v-30.82h10.03c3.58 0 6.12.32 7.65.96 3.11 1.35 4.67 3.94 4.67 7.78 0 3.24-1.25 5.77-3.77 7.62-2.51 1.84-5.97 2.76-10.38 2.76h-3.46v11.7H839.21zM843.94 1515.65h2.96c6.41 0 9.61-2.24 9.61-6.73 0-1.89-.6-3.24-1.81-4.06-1.21-.82-3.22-1.23-6.04-1.23h-4.71V1515.65zM866.5 1530.91v-30.82h9.3c10.25 0 15.38 4.93 15.38 14.8 0 4.56-1.11 8.26-3.34 11.08-1.39 1.78-3.11 3.05-5.15 3.81-2.04.76-4.76 1.14-8.16 1.14H866.5zM871.24 1527.35h2.38c4.52 0 7.73-.9 9.65-2.69 1.91-1.79 2.87-4.8 2.87-9.03 0-4.29-.86-7.36-2.59-9.21-1.73-1.85-4.61-2.77-8.65-2.77h-3.65V1527.35zM893.32 1530.91l12.16-30.82h4.73l12.16 30.82h-5.01l-2.91-7.71h-14.09l-2.96 7.71H893.32zM901.77 1519.64h11.25l-5.66-14.73L901.77 1519.64zM935.12 1530.91v-27.27h-11.84v-3.56h28.45v3.56h-11.87v27.27H935.12zM957.51 1530.91v-30.82h20.83v3.56h-16.1v9.35h13.65v3.56h-13.65v10.81h17.2v3.56H957.51z" class="colore8eaf9 svgShape"></path></g><g fill="#000000" class="color000 svgShape"><path fill="#e8eaf9" d="M1092.5,1556.31H644.61c-8.24,0-14.93,6.68-14.93,14.93l0,0c0,8.24,6.68,14.93,14.93,14.93h447.89      c8.24,0,14.93-6.68,14.93-14.93S1100.74,1556.31,1092.5,1556.31z" class="colore8eaf9 svgShape"></path><path fill="#fc6e3c" d="M906.43,1556.31H644.61c-8.24,0-14.93,6.68-14.93,14.93c0,8.24,6.68,14.93,14.93,14.93h261.82V1556.31z" class="colorfc6e3c svgShape"></path></g><g fill="#000000" class="color000 svgShape"><path fill="#ffca3f" d="M1407.7,804.33l-108.11,177.18c-8.85,14.5,0.62,33.98,16.49,33.93l216.34-0.57      c15.84-0.04,25.23-19.52,16.37-33.97l-108.23-176.6C1432.71,791.47,1415.54,791.49,1407.7,804.33z" class="colorffca3f svgShape"></path><path fill="#feda3d" d="M1415.34,796.96c-2.95,1.61-5.61,4.05-7.64,7.37l-108.11,177.18c-8.85,14.5,0.62,33.98,16.49,33.93      l43.74-0.12c39.01-5.59,96.11-17.61,118.56-41.72C1512.83,936.6,1459.4,824.09,1415.34,796.96z" class="colorfeda3d svgShape"></path><path fill="#faec4f" d="M1398.13,895.99c9.51-22.82,3.74-48.07-4.79-68.12l-71.78,117.64      C1346.01,940.45,1384.96,927.6,1398.13,895.99z" class="colorfaec4f svgShape"></path><path fill="#141355" d="M1423.41 963.04c-3.47 0-6.43 1.23-8.89 3.69-2.46 2.46-3.69 5.46-3.69 8.99 0 3.47 1.23 6.43 3.69 8.89 2.46 2.46 5.42 3.69 8.89 3.69 3.46 0 6.42-1.23 8.88-3.69 2.46-2.45 3.69-5.42 3.69-8.89 0-3.53-1.23-6.52-3.69-8.99C1429.84 964.27 1426.88 963.04 1423.41 963.04zM1435.16 866.92c-2.65-2.11-6.22-3.16-10.71-3.16-4.73 0-8.45 1.08-11.14 3.25-2.69 2.17-4.04 5.18-4.04 9.04 0 2.93.49 7.09 1.47 12.47l11.51 65.6h2.2l13.22-67.36c.98-4.86 1.47-8.58 1.47-11.16C1439.14 871.92 1437.81 869.03 1435.16 866.92z" class="color141355 svgShape"></path></g><g fill="#000000" class="color000 svgShape"><rect width="23.88" height="308.22" x="1263.07" y="1445.58" fill="#79c9ea" class="color79c9ea svgShape"></rect><rect width="7.41" height="308.22" x="1279.54" y="1445.58" fill="#62b6ce" class="color62b6ce svgShape"></rect><rect width="23.88" height="308.22" x="1586.55" y="1445.58" fill="#79c9ea" class="color79c9ea svgShape"></rect><rect width="7.41" height="308.22" x="1603.03" y="1445.58" fill="#62b6ce" class="color62b6ce svgShape"></rect><rect width="468.2" height="74.63" x="1199.42" y="1467.67" fill="#febf4b" class="colorfebf4b svgShape"></rect><polygon fill="#0683c5" points="1281.58 1467.67 1241.9 1467.67 1199.42 1540.21 1199.42 1542.3 1237.88 1542.3" class="color0683c5 svgShape"></polygon><polygon fill="#0683c5" points="1293.48 1542.3 1333.16 1542.3 1376.86 1467.67 1337.18 1467.67" class="color0683c5 svgShape"></polygon><polygon fill="#0683c5" points="1388.76 1542.3 1428.44 1542.3 1472.14 1467.67 1432.46 1467.67" class="color0683c5 svgShape"></polygon><polygon fill="#0683c5" points="1484.04 1542.3 1523.72 1542.3 1567.42 1467.67 1527.74 1467.67" class="color0683c5 svgShape"></polygon><polygon fill="#0683c5" points="1579.31 1542.3 1619 1542.3 1662.7 1467.67 1623.02 1467.67" class="color0683c5 svgShape"></polygon><rect width="468.2" height="11.4" x="1199.42" y="1467.67" fill="#dd7814" opacity=".31" class="colordd7814 svgShape"></rect><rect width="468.2" height="3.43" x="1199.42" y="1538.87" fill="#dd7814" opacity=".31" class="colordd7814 svgShape"></rect><g fill="#000000" class="color000 svgShape"><rect width="468.2" height="74.63" x="1199.42" y="1574.85" fill="#febf4b" class="colorfebf4b svgShape"></rect><polygon fill="#0683c5" points="1281.58 1574.85 1241.9 1574.85 1199.42 1647.39 1199.42 1649.48 1237.88 1649.48" class="color0683c5 svgShape"></polygon><polygon fill="#0683c5" points="1293.48 1649.48 1333.16 1649.48 1376.86 1574.85 1337.18 1574.85" class="color0683c5 svgShape"></polygon><polygon fill="#0683c5" points="1388.76 1649.48 1428.44 1649.48 1472.14 1574.85 1432.46 1574.85" class="color0683c5 svgShape"></polygon><polygon fill="#0683c5" points="1484.04 1649.48 1523.72 1649.48 1567.42 1574.85 1527.74 1574.85" class="color0683c5 svgShape"></polygon><polygon fill="#0683c5" points="1579.31 1649.48 1619 1649.48 1662.7 1574.85 1623.02 1574.85" class="color0683c5 svgShape"></polygon><rect width="468.2" height="11.4" x="1199.42" y="1574.85" fill="#dd7814" opacity=".31" class="colordd7814 svgShape"></rect><rect width="468.2" height="3.43" x="1199.42" y="1646.04" fill="#dd7814" opacity=".31" class="colordd7814 svgShape"></rect></g></g><g fill="#000000" class="color000 svgShape"><path fill="#644032" d="M1576.12,1153.12c-7.79-8.13-8.57-20.9-5.82-31.82c2.75-10.92,13.72-19.51,20.58-30.79      c7.29-11.98,4.52-36.83,5.19-41.07c0.65-4.11,41.16,3.27,41.16,3.27c0.36,19.68,8.88,40.19,7.66,59.92      c-0.91,14.81-3.27,31.17-14.67,40.67L1576.12,1153.12z" class="color644032 svgShape"></path><path fill="#4b3026" d="M1636.72 1084.02c.32-10.41-1.03-21.24-.31-31.51.96.17 1.51.27 1.51.27.36 19.68 8.88 40.19 7.66 59.92-.91 14.81-3.27 31.17-14.67 40.67l-1.92-.01C1641.4 1132.41 1636.05 1108.04 1636.72 1084.02zM1624.76 1129.06c-3.88-12.29-10.63-23.49-12.83-36.09-2.46 10.45-1.96 19.81-5.46 30.17-3.98-13 .12-39.3-1.08-40.46-1.2-1.17-5.23 13.97-5.49 15.53-.29-16.71 1.65-33.43 4.38-49.91 6.87.3 17.05 1.75 24.41 2.92C1630.62 1077.12 1634.42 1104.66 1624.76 1129.06z" class="color4b3026 svgShape"></path><path fill="#1e2b5b" d="M1698.78,1135.98l-10.93-3.78c-0.71-0.25-1.5,0.1-1.8,0.8l-13.45,31.42c-0.39,0.9,0.22,1.92,1.2,2      l12.47,1.1c0.63,0.06,1.22-0.3,1.46-0.88l11.91-28.74C1699.96,1137.13,1699.56,1136.25,1698.78,1135.98z" class="color1e2b5b svgShape"></path><path fill="#fdc596" d="M1690.23,1143.07c-0.68-0.62-1.77-0.21-1.85,0.71c-0.07,0.74,0.03,1.67,0.56,2.67      c1.29,2.47,1.41,5.28,0.82,5.28c-0.59,0-2.23-5.28-4.23-4.87c-2,0.41,2.11,6.63,1.53,7.45c-0.59,0.82-2.82-4.34-3.87-3.4      c-1.06,0.94,2.47,6.34,2.11,7.04c-0.35,0.7-2.7-2.23-2.93-1.17c-0.23,1.06,0.34,3.17,3.87,5.4c0,0,5.29,3.76,7.87,0.94      C1696.55,1160.44,1697.63,1149.86,1690.23,1143.07z" class="colorfdc596 svgShape"></path><path fill="#e55daa" d="M1664.25,1142.77c4.22,8.03,14.6,7.06,14.6,7.06l0,0l-5.09,11.89c-13.02,3.66-24.88-10.46-24.88-10.46      c-9.68-9.45-12.42-57.7-12.42-57.7C1651.85,1097.78,1660.04,1134.74,1664.25,1142.77z" class="colore55daa svgShape"></path><path fill="#e2a36a" d="M1652.12,1325.62c0,0-0.98,3.57-0.91,7.39l-5-1.17l0.3-6.3L1652.12,1325.62z" class="colore2a36a svgShape"></path><path fill="#e2a36a" d="M1661.99,1335.58c-0.08,1.01-16.17,0.2-16.17,0.2l0.37-3.94l5.07,0.07      C1651.28,1331.91,1662.08,1334.57,1661.99,1335.58z" class="colore2a36a svgShape"></path><path fill="#2d313d" d="M1645.78,1335.76l0.25-2.2c0,0,0.93,1.24,5.85,1.31c4.33,0.06,4.84-1.48,4.84-1.48      c4.04,1.22,6.31,1.45,5.72,2.28C1661.69,1336.73,1645.78,1335.76,1645.78,1335.76z" class="color2d313d svgShape"></path><path fill="#d38753" d="M1646.5,1325.55l-0.24,5.27c0,0,2.35-1.42,4.98,0.07c0,0,0.41-3.9,0.87-5.26L1646.5,1325.55z" class="colord38753 svgShape"></path><path fill="#e2a36a" d="M1675.58,1325.95c0,0-0.98,3.57-0.91,7.39l-5-1.17l0.3-6.3L1675.58,1325.95z" class="colore2a36a svgShape"></path><path fill="#e2a36a" d="M1685.46,1335.91c-0.08,1.01-16.17,0.2-16.17,0.2l0.37-3.94l5.07,0.07      C1674.74,1332.24,1685.54,1334.9,1685.46,1335.91z" class="colore2a36a svgShape"></path><path fill="#2d313d" d="M1669.25,1336.09l0.25-2.2c0,0,0.93,1.24,5.85,1.31c4.33,0.06,4.84-1.48,4.84-1.48      c4.04,1.22,6.31,1.45,5.72,2.28C1685.16,1337.06,1669.25,1336.09,1669.25,1336.09z" class="color2d313d svgShape"></path><path fill="#d38753" d="M1669.97,1325.87l-0.24,5.27c0,0,2.35-1.42,4.98,0.07c0,0,0.41-3.9,0.87-5.26L1669.97,1325.87z" class="colord38753 svgShape"></path><path fill="#476291" d="M1645.69,1187.33c0,0-31.52,8.94-27.3,37.91l81.14,1.14c0,0,2.54-12.44-2.54-18.13     C1691.94,1202.61,1645.69,1187.33,1645.69,1187.33z" class="color476291 svgShape"></path><path fill="#476291" d="M1676.12,1226.05l23.2,0.33c0,0,0,0,0,0c0,0-11.14,31.78-23.11,102.4l-8.16-0.11c0,0-5.05-52.89-3.61-67.13     C1665.69,1249.18,1673.96,1230.71,1676.12,1226.05z" class="color476291 svgShape"></path><path fill="#3e5c87" d="M1664.53 1260.46c1.06-4.95 2.07-9.29 3-13.05 3.53-10.94 8.8-21.55 8.8-21.55l-2.29-.02c.12-.82.62-4.59.24-8.69 5.19 1.81 9.02 3.34 9.21 3.97.6 2.03-11.8 32.11-12.86 41.29-1.06 9.18.83 66.28.83 66.28l-3.4-.05c0 0-4.37-53.86-3.61-67.13C1664.47 1261.18 1664.5 1260.82 1664.53 1260.46zM1645.27 1187.84l-7.95 9.76c-10.33-2.1-21.72-4.16-32.28-6.19C1618.81 1192.89 1632.24 1191.85 1645.27 1187.84z" class="color3e5c87 svgShape"></path><path fill="#5775aa" d="M1581.59,1186.43c0,0-9.37,15.18-2.57,38.26l95,1.33c0,0,2.1-12.67-3.21-18.14     C1663.39,1200.26,1608.34,1193.16,1581.59,1186.43z" class="color5775aa svgShape"></path><path fill="#5775aa" d="M1650.75,1225.69l23.26,0.33c0,0-10.36,22.82-20.71,102.44l-8.19-0.11c0,0-5.98-52.9-4.82-67.14     C1641.45,1246.95,1650.75,1225.69,1650.75,1225.69z" class="color5775aa svgShape"></path><path fill="#476291" d="M1579.01,1224.69l71.74,1c0,0-9.66,23.36-10.47,35.5c-1.02,15.37,4.82,67.14,4.82,67.14l3.04,0.04     c0,0-3.62-53.15-2.07-66.45c1.55-13.31,13.36-38.95,11.45-41.7c-1.91-2.75-52.01-6.18-80.79-16.33     C1576.74,1203.9,1575.64,1215.98,1579.01,1224.69z" class="color476291 svgShape"></path><path fill="#ff77c4" d="M1632.13,1148.86c-0.2,13.96,4.24,22.66,14.65,38.52c-20.98,6.84-43,5.89-65.81-0.92     c5.08-13.47,12.68-24.43,21.13-33.96c0.06-0.06,0.14-0.15,0.19-0.21c0.1-0.11,0.19-0.21,0.25-0.28c0.07-0.08,0.18-0.2,0.18-0.2     c4.46-7.81-8.89-17.01-13.99-32.36c-5.2-15.64-2.71-23.73-2.71-23.73c19.75-8.52,31.28-10.39,53.49-0.94l0.65,13.55     c0,0,5.91,10.65,5.16,15.38C1644.57,1128.43,1632.23,1141.42,1632.13,1148.86z" class="colorff77c4 svgShape"></path><path fill="#ed65b2" d="M1646.78,1187.38c-1.88-6.65-14.95-16.96-14.65-38.52c0.12-8.64,12.42-18.67,13.19-25.28     c-4.64,1.91-23.8,7.6-54.08,1.71c5.63,15.46,12.81,19.7,11.47,26.51c0,0-0.11,0.12-0.18,0.2c-0.06,0.07-0.15,0.17-0.25,0.28     c-0.05,0.05-0.13,0.14-0.19,0.21c-8.45,9.54-16.05,20.5-21.13,33.96c11.17,3.34,22.15,5.24,32.91,5.54     C1624.51,1192.13,1636.6,1190.7,1646.78,1187.38z" class="colored65b2 svgShape"></path><path fill="#db52a3" d="M1622.88,1157.41c0-1.91,1.03-6.51,2.12-11.37c1.55-6.94,3.32-14.8,3.04-18.68     c-0.47-6.59-6.83-25.37-7.1-26.17l-0.88,0.3c0.06,0.19,6.59,19.46,7.05,25.93c0.27,3.75-1.48,11.54-3.02,18.41     c-1.15,5.13-2.15,9.56-2.14,11.57c0.02,11.72,2.44,22.56,7.52,33.81c0.32-0.04,0.65-0.05,0.97-0.1     C1625.33,1179.9,1622.9,1169.09,1622.88,1157.41z" class="colordb52a3 svgShape"></path><path fill="#f4be84" d="M1634.93,1173.54c0.38,0.22,0.75,0.44,1.15,0.68c2.09,1.37,4.56,2.66,6.27,3.88l0-0.02      c5.68,3.36,6.15,4.23,6.65,4.9c0.63,0.83,2.08,5.41,1.49,5.62c-1.99-0.57-2.33-4.01-2.79-4.41c-0.37-0.33-2.89-1.39-3.79-1.77      c-0.12,0.19-0.25,0.38-0.4,0.55c1.32,4.48,1.13,5.02,1.35,6.18c0.2,1.06,0.14,5.63-0.74,5.46c-1.14-1.06-0.96-4.33-1.05-4.97      c-0.09-0.62-1.84-4.89-1.97-5.2c-0.09,0.03-0.17,0.06-0.26,0.08c0.85,3.11,0.73,3.63,0.92,4.61c0.19,1.02,0.14,5.4-0.71,5.24      c-1.1-1.02-0.92-4.16-1.01-4.77c-0.08-0.54-1.51-4.05-1.84-4.86c-0.1-0.01-0.19-0.01-0.29-0.02c0.31,1.36,0.28,1.77,0.4,2.41      c0.16,0.86,0.11,4.57-0.6,4.44c-0.93-0.86-0.78-3.52-0.85-4.04c-0.06-0.38-0.88-2.45-1.33-3.55c-0.08-0.05-0.17-0.09-0.25-0.14      c-1.53-1.22-2.59-3.57-3.18-5.21C1632.95,1177.55,1634.29,1175.66,1634.93,1173.54z" class="colorf4be84 svgShape"></path><path fill="#ff77c4" d="M1586.39,1095.87c-12.33,0.42-26.6,69.51-18.62,78.44c10.32,13.01,44.57,4.96,63.53,5.22      c0,0,3.35-3.44,3.9-7.15c-13.45-7.8-48.61-8.45-51.66-9.93C1580.49,1160.96,1598.68,1095.45,1586.39,1095.87z" class="colorff77c4 svgShape"></path><path fill="#e55daa" d="M1569.44,1171.29c-6.26-7.01,1.2-50.97,10.65-69.8c-10.21,16.6-18.94,65.41-12.31,72.82      c10.32,13.01,44.57,4.96,63.53,5.22c0,0,1.13-1.24,2.2-2.97C1614.41,1176.46,1579.65,1184.17,1569.44,1171.29z" class="colore55daa svgShape"></path><polygon fill="#db52a3" points="1598.12 1091.1 1612.55 1105.85 1616.87 1099.75 1620.86 1103.27 1623.62 1099.27 1628.36 1104.34 1628.79 1090.86 1620.16 1091.71" class="colordb52a3 svgShape"></polygon><polygon fill="#ed65b2" points="1598.12 1091.1 1604.82 1081.09 1620.16 1091.71 1613.08 1102.3" class="colored65b2 svgShape"></polygon><polygon fill="#ed65b2" points="1623.52 1083.73 1620.16 1091.71 1627.68 1101.04 1628.79 1090.86" class="colored65b2 svgShape"></polygon><g fill="#000000" class="color000 svgShape"><path fill="#feb48c" d="M1623.21,1084.48l-3.05,7.22l-14.42-9.99c0.34-0.06,0.69-0.09,1.06-0.08l0.27-4.01      c4.03,3.53,9.46,6.82,14.01,6.29c0.51-0.06,1.02-0.19,1.52-0.35l-0.04,0.59C1622.79,1084.26,1623,1084.37,1623.21,1084.48z" class="colorfeb48c svgShape"></path><path fill="#ba6549" d="M1613.8,1084.85c-3.97-1.05-6.87-5.04-6.87-5.04c0.05-0.78,0.1-1.51,0.15-2.18      c4.03,3.53,9.46,6.82,14.01,6.29c0.51-0.06,1.02-0.19,1.52-0.35c-0.01,0.21-0.03,0.41-0.04,0.61      C1622.56,1084.18,1618.44,1086.07,1613.8,1084.85z" class="colorba6549 svgShape"></path><path fill="#feb48c" d="M1601.17,1070.33c0.26-2.31,0.6-4.52,1-6.55c1.58-1.14,3.12-2.33,4.59-3.59       c-0.29,0.28-0.47,0.44-0.47,0.44c0.29-0.25,0.57-0.51,0.85-0.76c0.31-0.27,0.62-0.55,0.93-0.83c1.02-0.94,2.02-1.91,2.95-2.95       c3.98-4.45,7.73-9.53,8.34-15.4c3.5,3.11,7.25,5.32,11.4,6.83c1.42,2.22,3.08,5.17,4.57,8.71c-0.09,4.27-0.2,8.88-0.34,10.56       c-0.28,3.44-6.46,16.27-13.9,17.14c-7.99,0.93-18.73-9.91-19.8-13.2C1601.25,1070.61,1601.21,1070.46,1601.17,1070.33z" class="colorfeb48c svgShape"></path><path fill="#feb48c" d="M1634.55 1060.67c-.07 1.37-.13 2.59-.01 3.52.12.92.43 1.58 1.17 1.69.72.1 1.63-.45 2.35-1.56.36-.55.67-1.23.89-2 .21-.77.34-1.61.34-2.48 0-1.74-.48-3.21-1.12-4.08-.64-.88-1.41-1.19-2.07-.87-.67.32-1.01 1.1-1.21 2.11C1634.68 1058.02 1634.62 1059.29 1634.55 1060.67zM1601.33 1065.2c.61 1.4 1.15 2.64 1.39 3.65.24 1 .17 1.81-.55 2.21-.71.39-1.87.17-3.04-.7-.59-.43-1.17-1.02-1.7-1.72-.52-.71-.98-1.54-1.32-2.44-.68-1.81-.75-3.52-.43-4.67.32-1.17.99-1.78 1.81-1.71.82.07 1.48.75 2.08 1.72C1600.17 1062.51 1600.72 1063.81 1601.33 1065.2z" class="colorfeb48c svgShape"></path></g><g fill="#000000" class="color000 svgShape"><path fill="#644032" d="M1631.2,1032.91c2.15,2.29,3.56,5.32,4.46,8.37c0.78,2.63,1.25,5.35,1.8,8.04       c-6.96-1.25-12.81-3.94-18.1-8.64c-0.62,5.87-4.36,10.95-8.34,15.4c-4.17,4.66-9.36,8.25-14.65,11.62       c-1.63-4.28-3.15-8.61-4-13.11c-1.05-5.53-1.05-11.39,0.96-16.66c2-5.26,6.2-9.86,11.6-11.46c4.96-1.48,10.84-0.03,14.13,3.88       c2.86-1.6,6.81-1.3,9.67,0.5C1629.65,1031.43,1630.47,1032.13,1631.2,1032.91z" class="color644032 svgShape"></path><path fill="#4b3026" d="M1618.99 1037.6c-.03 11.49-12.7 23.02-12.7 23.02 1.68-1.41 3.27-2.91 4.73-4.55 3.98-4.45 7.73-9.53 8.34-15.4 5.29 4.7 11.14 7.38 18.1 8.64-.07-.33-.13-.66-.2-.98C1629.01 1046.76 1623.59 1044.57 1618.99 1037.6zM1606.67 1026.08c-.59.09-1.18.22-1.75.39-5.4 1.61-9.6 6.2-11.6 11.46-2 5.26-2 11.12-.96 16.66.85 4.49 2.37 8.83 4 13.11 0 0-1.72-11.53-2.24-17.26C1593.5 1040.81 1597.34 1029.77 1606.67 1026.08zM1631.2 1032.91c-.73-.78-1.56-1.47-2.47-2.05-2.86-1.8-6.81-2.1-9.67-.5-1.44-1.7-3.36-2.94-5.49-3.67 2.89 1.75 4.57 3.19 5.43 6.39 4.2-4.71 9.53-1.91 12.29-.06C1631.26 1032.98 1631.23 1032.94 1631.2 1032.91zM1612.86 1031.14c.49 10.1-2.06 18.36-10.38 24.63C1610.91 1048.48 1612.6 1039.78 1612.86 1031.14z" class="color4b3026 svgShape"></path><path fill="#4b3026" d="M1596.29,1053.44c4.83-2.13,8.9-6.09,11.19-11.05C1605.96,1047.51,1601.6,1051.9,1596.29,1053.44z" class="color4b3026 svgShape"></path><path fill="#644032" d="M1627.28 1042.72c0 0 12.16 13.62 12.23 33.43 0 0 2.05-10.67.2-18.46-1.57-6.6-2.93-11.78-2.93-11.78L1627.28 1042.72zM1606.04 1050.31c0 0-7.9 18.68-4.44 37.69 0 0-5.25-9.78-5.19-17.76.05-6.76.19-12.1.19-12.1L1606.04 1050.31z" class="color644032 svgShape"></path></g></g><g fill="#000000" class="color000 svgShape"><path fill="#e8b795" d="M287.26 1568.89c0 0-4.12 78.29-6.87 95.07 0 0 1.65 4.44 11.37 7.28 9.72 2.84 15.4 5.68 11.55 10.3 0 0-36.67.89-39.6-1.24-2.93-2.13-1.83-5.5 2.38-13.49 0 0-6.05-90.01-2.57-97.91H287.26zM257.1 1568.89c0 0-.55 22.99-7.7 38.79-7.15 15.8-20.72 47.58-20.72 52.73 0 5.15 0 12.78 0 12.78s-8.07 5.33-12.28-3.73c0 0 1.83-13.67 3.48-24.32 1.65-10.65 8.07-43.32 10.45-53.44 2.38-10.12 2.93-22.81 2.93-22.81H257.1z" class="colore8b795 svgShape"></path><path fill="#01153e" d="M292.57 1671.49c9.2 2.76 14.47 5.57 10.73 10.05 0 0-36.67.89-39.6-1.24-2.72-1.98-1.96-5.04 1.54-11.86C265.24 1668.44 283.68 1676.7 292.57 1671.49zM228.68 1673.19c0 0 5.5 4.75 2.61 9.81-2.89 5.06-16.22 1.43-17.87-1.28-1.65-2.71 2.98-12.26 2.98-12.26L228.68 1673.19z" class="color01153e svgShape"></path><path fill="#1c1715" d="M252.72,1330.2c0,0-6.81-3.53-12.01,10.23c-5.19,13.75-5.46,35.19-3.59,42.49c0,0-15.08,16.23-2.76,26.84     c0,0,16.97,17.85,18.09,22.45c0.44-1.08,7.72-14.19,19.53-14.92c11.8-0.73,40.89-31.29,25.38-36.03c0,0,1.16,4.94-4.14,3.75     c-5.29-1.19-1.96-19.41-2.01-25.86c-0.05-6.45-3.94-22.33-15.22-29.07C264.71,1323.33,251.71,1323.81,252.72,1330.2z" class="color1c1715 svgShape"></path><path fill="#eba97a" d="M271.99,1372.61c0,0,2.44,9.08,4.04,10.29c0,0,1.61,4.19-3.13,16.02c-4.73,11.84-16.72,5.23-18.64,2     c-1.92-3.23-6.15-9.41-2.29-15.56c0,0,5.29-3.84,2.53-12.18C254.51,1373.18,271.15,1369.83,271.99,1372.61z" class="coloreba97a svgShape"></path><path fill="#fdc596" d="M252.44,1373.39c0,0,8.02,6.22,14.58,3.82c6.56-2.4,12.37-8.75,14.17-15.1c1.8-6.35-1.12-19.09-5.53-23.62     c-4.41-4.53-20.81-7.51-25.41-1.61C245.64,1342.79,243.85,1366.61,252.44,1373.39z" class="colorfdc596 svgShape"></path><path fill="#34455d" d="M237.65,1485.76c0,0-17.45,9.4-18.41,14.13l19.23-6.15L237.65,1485.76z" class="color34455d svgShape"></path><path fill="#314452" d="M288.97,1490.88c0,0,7.01,51.14,0.2,83.73c0,0-49.31,3.9-58.57-1.28c0,0-3.1-56.12,0.73-82.16     L288.97,1490.88z" class="color314452 svgShape"></path><path fill="#f6f6f6" d="M254.68,1382.33c0,0,14.34,6.28,21.29-0.88c0,0,30.07,30.13,13,109.16c0,0-57.35,2.96-58.49,3.16     c-1.14,0.2,4.12-17.14,10.83-21.95c6.66-4.78,45.15-26.95,13.22-88.22C254.31,1383.17,254.34,1382.93,254.68,1382.33z" class="colorf6f6f6 svgShape"></path><path fill="#dce2ea" d="M249.29,1492.64c45.4-10.3,31.36-56.72,32.91-66.03c1.29-7.74-11.53-33.33-15.88-41.74     c3.49,0.03,7.08-0.77,9.65-3.42c0,0,30.07,30.13,13,109.16c0,0-22.79,1.18-39.93,2.09     C249.13,1492.67,249.21,1492.65,249.29,1492.64z" class="colordce2ea svgShape"></path><path fill="#ff77c4" d="M254.25,1382.15c0,0-3.77,0.39-8.93,1.95c-2.08,0.64-16.12,5.76-15.16,28.08     c1.03,24.1,3.22,44.41-0.24,52.69c-3.47,8.28-11.38,22.04-11.8,36.89c17.89-14.42,39.52-29.92,51.37-54.82     C285.95,1412.32,254.25,1382.15,254.25,1382.15z" class="colorff77c4 svgShape"></path><path fill="#e55daa" d="M241.36,1385.96c-4.8,2.98-11.89,10.14-11.2,26.22c1.03,24.1,3.22,44.41-0.24,52.69     c-3.47,8.28-11.38,22.04-11.8,36.89c0,0,7.74-24.77,20.36-37.73C238.47,1464.03,228.34,1411.91,241.36,1385.96z" class="colore55daa svgShape"></path><polygon fill="#9cd6e2" points="252.77 1382.13 265.5 1392.65 267.53 1385.16 257.32 1382.29" class="color9cd6e2 svgShape"></polygon><path fill="#9cd6e2" d="M275.48,1381.44l-7.47,3.42l7.06,8.12C275.07,1392.98,278.49,1384.68,275.48,1381.44z" class="color9cd6e2 svgShape"></path><path fill="#ff77c4" d="M333.56,1438.72c7.32,8.77,23.09,6.17,23.09,6.17l0,0l-6.51,14.58c-22.1,8.08-37.83-12.11-37.83-12.11     c-15.82-9.66-26.56-62.12-26.56-62.12C309.74,1388,326.24,1429.96,333.56,1438.72z" class="colorff77c4 svgShape"></path><path fill="#ff77c4" d="M299.07,1405.54c0,0-0.9-5.74-2.85-13.3c-0.56-2.17-2.01-4.76-4.02-6c-4.36-2.69-11.34-4.02-16.73-4.8     c0,0,14.96,56.99,13.94,100.41c-0.73,3.82-1.05,7.13-0.44,8.75c0,0,3.56,1.4,9.68,5.5c5.61,3.76-2.18-28.42-3.5-33.75     C298.78,1441.64,301.19,1427.09,299.07,1405.54z" class="colorff77c4 svgShape"></path><path fill="#fdc596" d="M356.87,1437.91c-0.84-0.77-2.19-0.26-2.29,0.88c-0.08,0.92,0.04,2.06,0.69,3.3     c1.6,3.05,1.74,6.54,1.02,6.54s-2.76-6.54-5.23-6.03c-2.47,0.51,2.62,8.21,1.89,9.23c-0.73,1.02-3.49-5.38-4.79-4.21     c-1.31,1.16,3.05,7.85,2.62,8.72c-0.44,0.87-3.34-2.76-3.63-1.45c-0.29,1.31,0.42,3.92,4.79,6.68c0,0,6.55,4.65,9.74,1.16     C364.68,1459.41,366.02,1446.32,356.87,1437.91z" class="colorfdc596 svgShape"></path><path fill="#442b19" d="M255.08,1335.97c0,0,15.55-4.12,23.36,14.7s-3.4,27.49-1.43,33.3c1.97,5.8,7.26,6.64,11.81,0.67     c0,0-5.59,3.6-6.42-0.47c-0.83-4.07,8.45-10.03,7.61-25.55c-0.3-5.45-1.18-10.15-2.2-13.94c-2.39-5.61-6.18-11.25-11.81-14.61     c-11.29-6.74-24.28-6.27-23.27,0.13L255.08,1335.97z" class="color442b19 svgShape"></path><path fill="#0a8cc9" d="M260.84,1383.68c27.59,7.34,62.71-0.64,62.71-0.64s25.03,25.89,52.15,34.84c0,0-14.7,89.09-91.91,98.71       C224.41,1466.31,260.84,1383.68,260.84,1383.68z" class="color0a8cc9 svgShape"></path><path fill="#6ba3d8" d="M261.08,1382.87c27.58,7.38,62.47,0.17,62.47,0.17s25.26,25.12,52.39,34.03c0,0-13.53,85.15-90.33,93.4       C225.83,1461.55,261.08,1382.87,261.08,1382.87z" class="color6ba3d8 svgShape"></path><linearGradient id="a" x1="1785.698" x2="1785.698" y1="1364.395" y2="1484.821" gradientTransform="matrix(-.9429 -.2807 -.2854 .9584 2394.894 582.656)" gradientUnits="userSpaceOnUse"><stop offset="0" stop-color="#e5e5e5" class="stopColore5e5e5 svgShape"></stop><stop offset=".156" stop-color="#e1e1e1" class="stopColore1e1e1 svgShape"></stop><stop offset=".298" stop-color="#d6d6d6" class="stopColord6d6d6 svgShape"></stop><stop offset=".434" stop-color="#c4c4c4" class="stopColorc4c4c4 svgShape"></stop><stop offset=".567" stop-color="#aaaaaa" class="stopColoraaa svgShape"></stop><stop offset=".697" stop-color="#888888" class="stopColor888 svgShape"></stop><stop offset=".825" stop-color="#5f5f5f" class="stopColor5f5f5f svgShape"></stop><stop offset=".95" stop-color="#303030" class="stopColor303030 svgShape"></stop><stop offset="1" stop-color="#1a1a1a" class="stopColor1a1a1a svgShape"></stop></linearGradient><path fill="url(#a)" d="M265.09,1388.86c25.02,6.7,56.67,0.18,56.67,0.18s22.93,22.76,47.54,30.85c0,0-12.24,77.13-81.9,84.57       C233.15,1460.13,265.09,1388.86,265.09,1388.86z"></path><path fill="#939292" d="M267.63,1392.58c23.42,6.27,53.03,0.17,53.03,0.17s21.45,21.3,44.48,28.86c0,0-11.45,72.18-76.64,79.14       C237.74,1459.27,267.63,1392.58,267.63,1392.58z" opacity=".54" class="color939292 svgShape"></path><path fill="#ffffff" d="M269.8,1394.65c22.19,5.92,50.32-0.12,50.32-0.12s20.25,20.45,42.06,27.63c0,0-11.26,69.75-73.16,76.83       C241.07,1459.2,269.8,1394.65,269.8,1394.65z" class="colorfff svgShape"></path><path fill="#5388c6" d="M272.87,1398.04c20.39,5.43,46.33-0.41,46.33-0.41s18.52,19.08,38.56,25.69c0,0-10.78,65.55-67.81,72.56       C246.04,1458.81,272.87,1398.04,272.87,1398.04z" class="color5388c6 svgShape"></path><path fill="#3d62ad" d="M319.21,1397.63l-29.25,98.25c-43.91-37.07-17.08-97.84-17.08-97.84       C293.27,1403.47,319.2,1397.63,319.21,1397.63z" class="color3d62ad svgShape"></path><path fill="#ffffff" d="M304.26,1460.59c0.06,0.02,0.13,0.04,0.19,0.05c1.68,0.44,3.45,0.15,4.98-0.82l14.11-8.93       c1.52-0.96,2.07-3.02,1.23-4.6c-0.84-1.58-2.75-2.08-4.27-1.12l-14.11,8.93c-0.02,0.01-0.09,0.06-0.19,0.03       c-0.12-0.03-0.14-0.1-0.15-0.12l-15.19-28.73c-0.84-1.58-2.75-2.09-4.27-1.13c-1.52,0.96-2.08,3.01-1.24,4.6l15.19,28.73       C301.34,1459.02,302.66,1460.12,304.26,1460.59z" class="colorfff svgShape"></path><path fill="#f4be84" d="M277.04,1461.05c2.38,1.49,5.38,3.24,7.45,4.65l0-0.02c7.57,4.92,7.07,4.4,7.58,9.81      c-3.76-2.67-0.25-3.98-6.22-5.85c-0.12,0.17-0.26,0.33-0.41,0.47c1.14,5.51,2.04,7.35,0.16,10.46c-1.08-1-0.78-3.93-0.84-4.51      c-0.06-0.56-1.62-4.47-1.74-4.76c-0.09,0.02-0.17,0.04-0.26,0.06c0.73,3.98,1.54,6.53-0.17,8.84c-1.04-0.96-0.74-3.77-0.81-4.33      c-0.06-0.49-1.32-3.7-1.62-4.44c-0.09-0.01-0.19-0.02-0.28-0.03c0.3,1.89,0.77,5.21-0.46,6.13c-1.31-2.65-0.26-4.16-1.85-6.91      c-1.78-1.16-2.79-3.88-3.3-5.41C275.16,1464.31,276.39,1462.78,277.04,1461.05z" class="colorf4be84 svgShape"></path><path fill="#ff77c4" d="M240.25,1387.67c-11.95-1.86-33.9,58.33-27.19,67.33c8.52,12.94,42.73,10.31,61.12,13.04      c0,0,3.2-4.32,4.16-7.54c-12.16-8.72-43.74-13.06-46.53-14.78C229.02,1444,259.71,1390.7,240.25,1387.67z" class="colorff77c4 svgShape"></path><path fill="#e55daa" d="M215.03,1452.54c-5.27-7.06,7.07-45.19,18.44-60.7c-11.84,13.42-25.98,55.7-20.4,63.17      c8.52,12.94,42.73,10.3,61.12,13.04c0,0,0.81-1.03,1.82-2.76C257.47,1462.68,223.47,1465.35,215.03,1452.54z" class="colore55daa svgShape"></path><path fill="#442b19" d="M243.33,1393.77c0,0-6.58,2.55-10.32-2.53c-3.74-5.08,2.53-8.13,2.53-8.13s-4.08,5.14,1.87,5.78     c5.95,0.64,5.98-9.34,3.9-14.85c-6.03-15.91-2.54-26.37,0.25-32.07c2.79-5.7,7.76-9.87,7.76-9.87l3.4-1.9l2.36,5.78     c0,0-4.28,6.54-6.45,12.58c-2.17,6.03-3.09,13.78,1.99,23.78C255.7,1382.32,256.97,1392.14,243.33,1393.77z" class="color442b19 svgShape"></path><path fill="#513826" d="M255.08,1335.97l-2.36-5.78l0,0l0,0c0,0-6.81-3.53-12.01,10.23c-1.78,4.72-2.72,10.39-3.1,16.1     c2.33,8.55,8.94,18.4,12.53,26.78c4.54,10.57-9.35,7.75-9.35,7.75s4.63,7.83,11.59,1.8c7.65-6.63,0.98-17.58-1.94-23.32     c-2.92-5.73-2.43-16.59,0.37-22.77C253.62,1340.59,255.08,1335.97,255.08,1335.97z" class="color513826 svgShape"></path></g><g fill="#000000" class="color000 svgShape"><path fill="#fbddb8" d="M1352.74,1440.78l-0.72,10.2c0,0-10.82,3.59-12.66,1.72c-1.84-1.87-3.67-6.49-3.67-6.49l0-6.62     L1352.74,1440.78z" class="colorfbddb8 svgShape"></path><path fill="#19262d" d="M1352.76,1449.42c0.69-0.05,1.29,0.5,1.29,1.21v15.54c0,0,1.84,1.87-9.18,1.87c-11.01,0-40.38,0-42.22-1.87     c-1.84-1.87,0-3.75,9.18-7.49c9.18-3.75,19.27-10.3,22.94-14.05c0,0,7.34,0,5.51,5.62     C1340.28,1450.26,1341.98,1450.26,1352.76,1449.42z" class="color19262d svgShape"></path><path fill="#fbddb8" d="M1424.7,1424.21l3.51,9.58c0,0-8.37,7.86-10.81,6.94c-2.43-0.92-5.98-4.34-5.98-4.34l-3.54-5.7     L1424.7,1424.21z" class="colorfbddb8 svgShape"></path><path fill="#19262d" d="M1428.25,1432.06c0.61-0.34,1.38-0.09,1.67,0.56l6.34,14.13c0,0,2.43,0.92-7.58,5.6     c-10.01,4.68-36.72,17.15-39.15,16.23c-2.43-0.92-1.53-3.41,5.29-10.71c6.82-7.3,13.32-17.55,15.13-22.52c0,0,6.68-3.12,7.3,2.77     C1417.24,1438.12,1418.79,1437.39,1428.25,1432.06z" class="color19262d svgShape"></path><path fill="#0f192f" d="M1355.79,1347.87c0,0,22.97,57.65,51.21,88.53l21.52-8.92c0,0-34.32-70-42.39-83.71     c0,0-3.06-41.86-7.36-56.61C1378.76,1287.16,1349.96,1334.36,1355.79,1347.87z" class="color0f192f svgShape"></path><path fill="#142c4f" d="M1378.76,1290.93l-53.51,1.03c0,0-7.68,55.92-2.3,74.45c5.38,18.53,10.76,78.22,10.76,78.22h21.52     c0,0-0.67-59.01-1.35-92.63C1353.88,1352,1374.73,1307.4,1378.76,1290.93z" class="color142c4f svgShape"></path><path fill="#efceab" d="M1365.32,1167.41l-1.68-9.21l-20.35-1.24l-2.28,11.43C1341.01,1168.39,1350.23,1183.42,1365.32,1167.41z" class="colorefceab svgShape"></path><path fill="#fbddb8" d="M1268.88,1203.21c0,0-5.73-2.61-12.16-3.78c-6.43-1.17-17.94,2.89-10.81-8.2      c7.19-11.18,13.21-6.34,15.91-4.49c4.08,2.79-0.22,2.65,4.6,3.53s9.86,4.92,9.86,4.92L1268.88,1203.21z" class="colorfbddb8 svgShape"></path><path fill="#fdcc70" d="M1322.56,1171.36c-6.54,6.3-19.32,19.39-21.65,27.5c0,0-18.02-8.03-29.16-9.83c0,0-8.94,11.81-8.92,16.05      c0,0,33.46,16.65,42.99,11.23c9.53-5.42,24.97-17.7,27.55-26.09c1.57-5.1,2.82-11.97,1.04-16.77      C1332.75,1168.97,1326.14,1167.9,1322.56,1171.36z" class="colorfdcc70 svgShape"></path><path fill="#3368b5" d="M1333.36,1187.22c-2.58,8.4-18.02,20.67-27.55,26.09c-8.74,4.97-37.59-8.62-42.31-10.9      c-0.41,1.03-0.67,1.96-0.67,2.66c0,0,33.46,16.65,42.99,11.23c9.53-5.42,24.97-17.7,27.55-26.09c0.54-1.76,0.68-3.67,0.48-5.58      C1333.76,1185.52,1333.62,1186.39,1333.36,1187.22z" class="color3368b5 svgShape"></path><path fill="#f5f8fe" d="M1366.07,1166.02c0,0-16.64,7.64-24.69-1.07c0,0-37.06,32.93-17.26,129.1c0,0,56.58-1,57.9-0.76     c1.32,0.24-4.47-6.91-6.82-16.91c-7.5-31.9-30.21-32.14-8.95-108.81C1366.4,1167.01,1366.46,1166.75,1366.07,1166.02z" class="colorf5f8fe svgShape"></path><path fill="#fdcc70" d="M1366.57,1165.8c0,0,0.16,0.02,0.47,0.06c0.85,0.12,1.69,0.28,2.52,0.46c4.83,1.67,17.63,7.43,19.59,22.13     c2.43,18.18-12.03,54.1-9.15,70.17c1.73,9.66,4.74,28.56,7.83,42.69c-16.44,1.82-23.72-5.25-27.02-6.24     c-4.56-8.87-6.18-27.03-10.56-42.93c-0.84-2.17-0.84-9.91-1.47-12.23C1337.78,1199.47,1366.57,1165.8,1366.57,1165.8z" class="colorfdcc70 svgShape"></path><path fill="#dd8855" d="M1362.35,1203.98c0,0,0.78,18.01-11.69,22.07c0,0,13.61,8.42,18.41,0.61     C1373.88,1218.85,1362.35,1203.98,1362.35,1203.98z" class="colord85 svgShape"></path><path fill="#dd8855" d="M1389.4,1192.77c0.01,0.86-0.01,1.75-0.05,2.67c-0.02,0.36-0.03,0.72-0.05,1.08     c-0.07,1.15-0.18,2.34-0.31,3.55c-0.01,0.1-0.02,0.19-0.03,0.29c-0.16,1.41-0.36,2.85-0.59,4.33c-0.03,0.18-0.06,0.35-0.09,0.53     c-0.22,1.35-0.45,2.73-0.71,4.12c-0.03,0.14-0.05,0.29-0.08,0.43c-1.94,10.3-4.83,21.53-6.52,31.29     c-0.01,0.04-0.01,0.09-0.02,0.13c-0.2,1.14-0.38,2.26-0.53,3.36c0,0,0,0,0,0v0c-0.79,5.45-1.08,10.32-0.41,14.08     c1.73,9.66,4.74,28.56,7.83,42.69c-16.44,1.82-23.72-5.25-27.02-6.24c-0.98-1.92-1.48-4.41-1.72-7.26     c27.07,17.39,25.63,5.85,20.96-6.17c-3.56-9.15-2.51-28.73-1.75-38.01c0.27-13.96,2.51-31.31,4.51-46.9     c0.27-2.07,0.37-4.06,0.34-5.97c-0.18-9.77-5.03-18.49-12.47-24.03c0.01,0,0.01,0.01,0.02,0.01c0.06,0.02,0.12,0.05,0.18,0.07     c0.11,0.05,0.22,0.09,0.34,0.14c0.18,0.07,0.35,0.14,0.54,0.22c0.02,0.01,0.04,0.02,0.06,0.02c0.02,0.01,0.04,0.02,0.06,0.02     c0.36,0.15,0.72,0.32,1.11,0.5c0.15,0.07,0.3,0.15,0.45,0.22c0.29,0.14,0.58,0.28,0.89,0.44c0.18,0.09,0.37,0.2,0.55,0.3     c0.1,0.05,0.2,0.11,0.3,0.16c0.18,0.1,0.35,0.19,0.53,0.3c0.01,0.01,0.02,0.01,0.04,0.02c0.19,0.11,0.39,0.24,0.58,0.35     c0.29,0.18,0.59,0.36,0.88,0.55c0.21,0.13,0.41,0.28,0.62,0.42c0.05,0.03,0.1,0.07,0.15,0.1c0.02,0.02,0.05,0.03,0.07,0.05     c0.22,0.15,0.43,0.3,0.65,0.46c0.22,0.16,0.43,0.33,0.64,0.5c0.04,0.03,0.07,0.06,0.11,0.09c0.24,0.19,0.49,0.39,0.73,0.59     c0.21,0.18,0.43,0.37,0.64,0.56c0.12,0.11,0.24,0.22,0.35,0.33c0.14,0.13,0.29,0.26,0.43,0.39c0.01,0.01,0.02,0.02,0.04,0.03     c0.21,0.2,0.42,0.41,0.63,0.62c0.27,0.27,0.53,0.55,0.78,0.84c0.2,0.22,0.4,0.45,0.6,0.69c0.12,0.14,0.23,0.29,0.34,0.43     c0.13,0.17,0.26,0.33,0.39,0.5c0.19,0.25,0.38,0.5,0.56,0.76c0.23,0.33,0.46,0.69,0.68,1.04c0.17,0.27,0.34,0.53,0.5,0.81     c0.06,0.1,0.11,0.21,0.16,0.31c0.08,0.16,0.16,0.31,0.25,0.47c0.07,0.13,0.14,0.25,0.2,0.38c0.14,0.29,0.29,0.57,0.43,0.86     c0.19,0.42,0.36,0.87,0.53,1.32c0.11,0.29,0.24,0.58,0.34,0.88c0.17,0.51,0.32,1.04,0.46,1.58c0.07,0.27,0.16,0.52,0.22,0.8     c0.19,0.83,0.36,1.68,0.48,2.57c0.14,1.03,0.21,2.14,0.24,3.28C1389.4,1192.07,1389.4,1192.42,1389.4,1192.77z" class="colord85 svgShape"></path><polygon fill="#9cd6e2" points="1367.73 1165.97 1352.96 1178.22 1350.6 1169.35 1362.44 1165.94" class="color9cd6e2 svgShape"></polygon><path fill="#9cd6e2" d="M1341.38,1164.94l8.66,4.05l-8.18,9.61C1341.85,1178.61,1337.88,1168.77,1341.38,1164.94z" class="color9cd6e2 svgShape"></path><path fill="#fdcc70" d="M1317.82,1194.83c0,0,0.76-6.77,1.81-15.9c0.3-2.66,2.9-8.94,6.96-10.66c5.52-2.34,8.55-2.39,14.79-3.32     c0,0-16.78,68.1-15.59,119.98c-0.39,4.71,0.25,8.07,0.51,10.45c0,0-1.71-2.09-9.37,1.86c-5.28,2.72,0.67-29.24,2.21-35.61     C1314.93,1236.88,1315.36,1220.57,1317.82,1194.83z" class="colorfdcc70 svgShape"></path><path fill="#a4caf4" d="M1095.64,1126.34l31.38-15.35l-2.14-34.01l-33.64-20.33c44.54-13.96,65.3,4.3,77.15,38.28      c11.85,33.98,88.56,75.3,148.28,108.81c59.72,33.51,54.77,16.12,99.84,18.53c45.07,2.42,49.68,52,49.68,52l-36.28-19.81      l-30.81,13.97l3.23,35.27l34.21,18.95c-63.28,28.05-79.03-31.77-84.1-50.83c-5.07-19.06-117.12-76.57-156.45-96.83      c-39.33-20.26-40.87-18.47-86.55-15.48c-45.68,2.99-48.7-52.4-48.7-52.4L1095.64,1126.34z" class="colora4caf4 svgShape"></path><path fill="#83b6ed" d="M1060.74,1107.11l34.9,19.23l31.38-15.35l-2.14-34.01c9.25,80.95,160.83,125.42,213.48,158.44      c35.57,22.31,53.22,2.67,59.54-13.05c5.2-0.36,11.23-0.5,18.61-0.1c45.07,2.42,49.68,52,49.68,52l-36.28-19.81l-30.81,13.97      l3.23,35.27l34.21,18.95c-63.28,28.05-79.03-31.77-84.1-50.83c-5.07-19.06-117.12-76.57-156.45-96.83      c-39.33-20.26-40.87-18.47-86.55-15.48C1063.76,1162.5,1060.74,1107.11,1060.74,1107.11z" class="color83b6ed svgShape"></path><path fill="#5f9bdd" d="M1391.98,1265.09l39.16-16.58l33.91,19.26c0.89,3.95,1.13,6.5,1.13,6.5l-36.28-19.81l-30.81,13.97      l3.23,35.27l34.21,18.95c-1.48,0.66-2.92,1.22-4.35,1.79l-36.53-20.25L1391.98,1265.09z" class="color5f9bdd svgShape"></path><polygon fill="#478cc9" points="1402.33 1303.7 1395.66 1304.18 1391.98 1265.09 1399.09 1268.43" class="color478cc9 svgShape"></polygon><path fill="#5f9bdd" d="M1061.67,1114.32c-0.77-4.35-0.93-7.21-0.93-7.21l34.9,19.23l31.38-15.35l-2.14-34.01l-33.64-20.33      c1.34-0.42,2.65-0.8,3.95-1.17l35.05,19.27l3.31,40.97l-37.35,16.12L1061.67,1114.32z" class="color5f9bdd svgShape"></path><polygon fill="#478cc9" points="1133.56 1115.72 1127.01 1111 1124.88 1076.98 1130.24 1074.75" class="color478cc9 svgShape"></polygon><path fill="#fbddb8" d="M1343.38,1251.88c0,0-4.04,2.26-7.07,5.41c-3.04,3.15-5.89,7.92-13.08,0.05      c-7.25-7.94-3.22-10.19-0.45-9.19c2.76,1,6.53,2.89,8.8,0.53s7.32-3.73,7.32-3.73L1343.38,1251.88z" class="colorfbddb8 svgShape"></path><path fill="#fdcc70" d="M1337.04,1244.3c0,0,7.09-5.17,14.32-9.98c5.26-3.5,10.59-6.81,13.3-7.79c0,0-4.21-23.95-1.31-33.49      c2.89-9.54,22.64-15.55,21.12,1.28c-1.52,16.82-0.6,36.01-8.44,44.38c-8.25,8.81-21.51,7.07-33.1,16.92L1337.04,1244.3z" class="colorfdcc70 svgShape"></path><path fill="#dd8855" d="M1376.03,1238.69c8.37-8.69,7.53-35.32,9.05-52.15c0.58-6.43-1.54-9.34-5.12-8.68      c0.01,0.06,0.41,1.38,0.42,1.44c2.29,13.45,4.28,47.79-9.82,54.35c-9.55,4.44-21.93,13.87-28.92,19.48l1.28,2.46      C1354.53,1245.76,1367.66,1247.38,1376.03,1238.69z" class="colord85 svgShape"></path><g fill="#000000" class="color000 svgShape"><path fill="#fbddb8" d="M1334.31,1129.62c0,0,0.78,10.39,0.78,15.61c0,5.22-1.46,16.55,8.99,18.29      c10.45,1.74,16.41-3.4,20.26-5.62c0,0,12.55-10.93,10.81-14.41c-1.74-3.48-3.48-13.93-13.93-13.93      S1334.31,1129.62,1334.31,1129.62z" class="colorfbddb8 svgShape"></path><path fill="#221e52" d="M1363.82,1158.29c0,0,13.93-10.45,17.42-17.42c3.48-6.97,3.48-12.19,0-15.67c0,0,3.48-3.48,5.22-3.48      c0,0-5.22,0-6.97,1.74c0,0,1.74-5.22,0-6.97c0,0,0,3.48-1.74,5.22c0,0-5.22-15.67-15.67-13.93      c-10.45,1.74-27.86,10.45-31.35,8.71c0,0,1.74,1.74,5.22,1.74c0,0-5.22,1.74-10.45,1.74c0,0,1.74,8.71,15.67,12.19      c13.93,3.48,24.38,1.74,24.38,1.74s-3.48,12.19-1.74,17.42c0,0,3.48-6.97,6.97-6.97c3.48,0,0,5.22-1.74,6.97      C1367.3,1153.07,1362.08,1158.29,1363.82,1158.29z" class="color221e52 svgShape"></path></g></g><g fill="#000000" class="color000 svgShape"><polygon fill="#fbcebf" points="461.25 1070.96 460.33 1077.39 452.45 1078.04 452.61 1070.71" class="colorfbcebf svgShape"></polygon><path fill="#19232d" d="M450.34,1087c0,0.39,0.31,0.69,0.68,0.68l24.61-0.58c0,0,0.14-4.97-2.75-5.11       c-3.63-0.19-7.81-2.5-10.57-4.88c-2.08-1.79-10.19-1.28-11.15,0.26C450.36,1078.65,450.32,1084.89,450.34,1087z" class="color19232d svgShape"></path><polygon fill="#fbcebf" points="521.19 1071.1 522.54 1077.6 514.71 1078.78 512.55 1071.43" class="colorfbcebf svgShape"></polygon><path fill="#19232d" d="M513.16,1087.87c0.03,0.39,0.35,0.67,0.73,0.63l24.52-2.25c0,0-0.17-4.96-3.06-4.92       c-3.63,0.06-7.95-1.96-10.85-4.15c-2.19-1.65-10.25-0.58-11.11,1.02C512.66,1079.53,513.02,1085.77,513.16,1087.87z" class="color19232d svgShape"></path><path fill="#1a3438" d="M454.18,937.65c-24.32-4.87-36.85-0.44-37.51,33.03l92.06,1.59c0,0-0.48-17.02-7.76-22.78       C497.23,946.54,470.64,940.67,454.18,937.65z" class="color1a3438 svgShape"></path><path fill="#192d30" d="M445.09,953.85c0,0,9.35,3.81,23.6,6.35c14.25,2.54,20.65,2.82,22.1,5.43c1.45,2.61-0.75,27.5,1.32,38.74       c1.79,9.7,20.98,58.12,25.39,72.08l-4.64-0.07c0,0-27.4-57.95-29.49-75.83c-1-11.72-1.42-21.8-1.42-21.8l-30.27-0.43       C445.88,976.71,445.09,953.85,445.09,953.85z" class="color192d30 svgShape"></path><path fill="#223a3f" d="M381.01,944.43c-0.75,8.03,1.22,19.67,5.66,26.06l86.76,1.28c0,0,3.77-16.19-2.91-22.71       c-7.21-7.05-55.08-11.39-83.62-12.89C382.52,935.94,381.42,940.03,381.01,944.43z" class="color223a3f svgShape"></path><path fill="#192d30" d="M442.18,996.74c0.39-9.7,0.75-12.1,2.76-18.52l-52.63-0.75c-7.36-3.71-12.13-21.02-11.36-28.18l20.5-5.02       c0,0,2.22,12.84,6.2,15.23c3.98,2.39,48.52,3.07,50.27,4.97c1.76,1.9-6.09,20.22-7.62,33.51c-1.53,13.28,5.37,77.57,5.37,77.57       l-0.01,0l-4.92-0.07C450.75,1075.49,441.46,1014.58,442.18,996.74z" class="color192d30 svgShape"></path><path fill="#1a3438" d="M508.47,970.75c0,0,9.15,64.68,15.78,105.78l-11.53-0.16c0,0-27.4-57.95-29.49-75.83       c-2.09-17.88,0.58-37.46,0.58-37.46L508.47,970.75z" class="color1a3438 svgShape"></path><path fill="#223a3f" d="M473.43,971.77c0,0-7.81,62.92-11.16,103.88l-11.53-0.16c0,0-9.28-60.91-8.57-78.75       c0.71-17.84,7.86-34.14,7.86-34.14L473.43,971.77z" class="color223a3f svgShape"></path><path fill="#192d30" d="M442.18 996.74c0-.01 0-.02 0-.03.64-15.93 6.4-30.59 7.62-33.54.77.06 1.5.13 2.19.19l6.16 2.42c-.22 4.79-6.5 20.45-7.85 32.2-1.53 13.28 5.37 77.57 5.37 77.57l-.01 0-4.92-.07c0 0-.58-3.81-1.44-9.8C446.73 1047.72 441.64 1010.12 442.18 996.74zM483.8 963.08c2.61.22 5.03.65 6.47 2.09 1.45 2.61-.37 27.96 1.7 39.19 1.79 9.7 20.98 58.12 25.39 72.08l-4.64-.07c-5.76-14.63-27.68-60.33-29.49-75.83C481.9 989.22 481.32 972.01 483.8 963.08z" class="color192d30 svgShape"></path><path fill="#efceab" d="M424.5,829.3c0.04,0,0.07,0,0.1,0l-0.34,3.19c0,0-10.84,9.39-18.71-6.75l1.66-6.18     C410.4,823.09,415.06,828.29,424.5,829.3z" class="colorefceab svgShape"></path><path fill="#faf8f6" d="M402.68,940c0,0,21.51-0.84,27.55-0.75c0,0,3.17-19.92,3.58-48.46c0.4-28.54-3.83-61.54-3.83-61.54     l-5.43-3.35c0,0-3.92,9.11-7.24,9.75c-3.33,0.64-11.2-12.08-11.2-12.08l-3.46,2.01L402.68,940z" class="colorfaf8f6 svgShape"></path><path fill="#286bce" d="M448.84,838.14c-14.53-6.6-22.48,77.41,4.74,77.7c16.14,0.17,49.37,2.87,49.37,2.87l0.23-10.13     c0,0-40.89-12.23-40.9-12.23C455.97,895.49,459.23,842.86,448.84,838.14z" class="color286bce svgShape"></path><path fill="#4484e0" d="M448.02,837.73c-8.57-4.94-18.05-8.47-18.05-8.47s3.58,73.74,0.21,110.48l20.97-2.42     c0,0,3.43-41.2,3.27-54.96c0.13-6.55-1.9-29.87-2.72-38.95C451.48,841.06,450.12,838.94,448.02,837.73z" class="color4484e0 svgShape"></path><path fill="#75bdfb" d="M411.53,841.97l6.03,6.56c0,0,5.41,34.56,0.08,69.29l3.93,9.05l6.07-8.7c0,0,2.24-47.47-5.77-70.28     c0,0,2.67-4.85,2.11-9.47l-6.88-2.03L411.53,841.97z" class="color75bdfb svgShape"></path><path fill="#d2efff" d="M429.97,829.44l-5.43-3.46c0,0-4.12,8-7.45,8.66c-3.33,0.66-11-11.05-11-11.05l-3.46,2.08l0.03,5.82     c2.39,4.22,7.18,12.54,8.57,13.96l6.04-8.05c0,0,10.44,4.46,14.27,7.14C430.71,835.43,429.97,829.44,429.97,829.44z" class="colord2efff svgShape"></path><path fill="#f9dcb8" d="M413.58 934.22c8.22-1.26 16.31-1.16 21.49 2.18.7.45 4.51 2.7 3.89 4.25-.47 1.19-3.67-1.15-5.11-1.88-1.95-1-4.49-1.82-4.65-1.59-.24.34 8.72 3.84 7.62 5.54-1.36 2.08-8.25-3.82-8.69-3.14-.44.68 6.94 3.61 5.86 4.9-.99 1.18-7.05-2.82-7.52-2.49-.48.32 4.7 2.15 3.48 3.18-.65.55-1.5.67-5.3-.63-1.17-.4-7.98-.12-10.83-2.89C410.88 938.21 413.58 934.22 413.58 934.22zM443.71 798.12c0 0-2.19 9.9-3.64 15.12-1.46 5.23-4.63 17.23-15.57 16.06-10.93-1.17-15.47-7.97-18.69-11.26 0 0-9.51-14.43-6.79-17.43 2.71-3 7.36-12.96 17.81-10.05C427.28 793.47 443.71 798.12 443.71 798.12z" class="colorf9dcb8 svgShape"></path><path fill="#221e52" d="M406.21,818.57c0,0-11.02-14.33-12.56-22.27c-1.54-7.94-0.09-13.16,4.37-15.67c0,0-2.51-4.45-4.25-4.94      c0,0,5.22,1.46,6.48,3.68c0,0-0.29-5.71,1.94-6.97c0,0-0.97,3.48,0.29,5.71c0,0,9.59-14.22,19.56-9.57      c9.96,4.65,24.95,18.21,28.92,17.44c0,0-2.23,1.26-5.71,0.29c0,0,4.74,3.2,9.96,4.65c0,0-4.17,8.22-19.07,7.83      c-14.9-0.4-24.87-5.05-24.87-5.05s0.09,13.16-3.11,17.9c0,0-1.54-7.94-5.03-8.91c-3.48-0.97-1.46,5.22-0.2,7.45      C404.18,812.37,407.95,819.05,406.21,818.57z" class="color221e52 svgShape"></path><polygon fill="#8394b4" points="505.81 942.81 428.05 944.69 442.94 883.99 520.7 882.11" class="color8394b4 svgShape"></polygon><rect width="108.57" height="4.68" x="396.92" y="945.02" fill="#a5c0d7" transform="rotate(-1.403 451.795 946.898)" class="colora5c0d7 svgShape"></rect><polygon fill="#a5c0d7" points="505.86 942.73 429.9 944.65 444.49 885.14 520.46 883.22" class="colora5c0d7 svgShape"></polygon><path fill="#8394b4" d="M482.43,913.11c-0.89,2.9-4.18,5.32-7.36,5.4c-3.18,0.08-5.04-2.21-4.15-5.11c0.89-2.9,4.18-5.32,7.36-5.4      C481.45,907.92,483.31,910.21,482.43,913.11z" class="color8394b4 svgShape"></path><polygon fill="#a5c0d7" points="429.9 944.65 444.49 885.14 520.46 883.22" opacity=".2" class="colora5c0d7 svgShape"></polygon><rect width="30.98" height="4.68" x="396.94" y="946" fill="#8394b4" transform="rotate(-1.403 412.92 947.678)" class="color8394b4 svgShape"></rect><rect width="14.26" height="2.06" x="437.62" y="944.29" fill="#8394b4" transform="rotate(-1.403 445.444 945.073)" class="color8394b4 svgShape"></rect><rect width="12.2" height="2.06" x="488.47" y="943.03" fill="#8394b4" transform="rotate(-1.403 495.3 943.853)" class="color8394b4 svgShape"></rect><polygon fill="#bad6f2" points="445.01 885.88 520.27 883.98 520.46 883.22 444.49 885.14 429.9 944.65 430.6 944.63" class="colorbad6f2 svgShape"></polygon><path fill="#4484e0" d="M382.03,919.33l1.66-11.64c0.89-4,2.82-18.99,2.82-18.99s-8.23-49.07-1.56-53.94l17.68-9.16     c0,0,4.14,33.75,3.44,58.14c-0.21,7.17-0.6,14.89-1.05,22.5l0,0l0,0l-0.85,14.02c-0.79,12.79-1.57,17.03-1.28,22.6     c0,0-8.2,9.45-22.73,6.06C380.16,948.93,381.56,927.23,382.03,919.33z" class="color4484e0 svgShape"></path><path fill="#286bce" d="M380.16,948.93c0,0,1.41-21.7,1.88-29.6l1.66-11.64c0.89-4,2.82-18.99,2.82-18.99s-1.58-9.39-2.79-20.37     c3.88,13.64,7.88,24.8,7.88,24.8s-0.29,3.93-2.96,29.06c-1.66,15.67,2,23.03,4.99,26.35     C390.08,949.67,385.56,950.18,380.16,948.93z" class="color286bce svgShape"></path><path fill="#4484e0" d="M389.27,835.08c-12.93-10.75-44.8,81.82-18.84,93.43c15.22,6.81,43.7,15.06,43.7,15.06l2.7-10.18     c0,0-33.95-22.99-33.96-23C376.66,908.32,398.52,842.76,389.27,835.08z" class="color4484e0 svgShape"></path></g><g fill="#000000" class="color000 svgShape"><circle cx="668.24" cy="780.94" r="53.2" fill="#4597ed" transform="rotate(-73.154 668.248 780.931)" class="color4597ed svgShape"></circle><path fill="#ffffff" d="M654.03,803.89c-2.43,0-4.84-1.07-6.46-3.09l-15.84-19.8c-2.02-2.53-1.61-6.22,0.92-8.25      c2.53-2.02,6.22-1.61,8.25,0.92l13.73,17.17l42.01-31.66c2.59-1.95,6.27-1.44,8.22,1.15c1.95,2.59,1.43,6.27-1.15,8.22      l-44.95,33.87C657.32,803.41,655.67,803.89,654.03,803.89z" class="colorfff svgShape"></path></g><g fill="#000000" class="color000 svgShape"><path fill="#a9ceea" d="M1593.44,628.95c0.21-9.49-1.25-19.08-4.46-28.33l20.71-18.37l-13.57-21.88l-25.53,10.36      c-6.86-7.11-14.85-12.77-23.49-16.87l1.66-27.52l-25.06-5.87L1512.9,546c-9.48-0.09-19.04,1.48-28.24,4.81l-18.51-20.89      l-21.87,13.57l10.61,26.17c-6.78,6.74-12.19,14.52-16.14,22.92l-28.48-1.72l-5.87,25.07l26.59,11.25      c-0.02,9.07,1.49,18.21,4.6,27.03l-21.74,19.28l13.57,21.88l27.05-10.97c6.51,6.59,13.99,11.9,22.07,15.85l-1.75,29.15      l25.06,5.87l11.31-26.76c9.08,0.13,18.24-1.26,27.1-4.27l19.13,21.59l21.87-13.57l-10.72-26.43      c6.91-6.63,12.46-14.32,16.55-22.65l28.17,1.7l5.87-25.07L1593.44,628.95z M1533.66,661.83c-19.08,11.84-44.15,5.97-55.99-13.12      c-11.84-19.09-5.97-44.17,13.11-56.01c19.08-11.84,44.15-5.97,55.99,13.12C1558.61,624.91,1552.74,649.98,1533.66,661.83z" class="colora9ceea svgShape"></path><path fill="#c9e2f4" d="M1583.66,634.03c0.21-9.49-1.25-19.08-4.46-28.33l20.71-18.37l-13.57-21.88l-25.53,10.36      c-6.86-7.11-14.85-12.77-23.49-16.87l1.66-27.52l-25.06-5.87l-10.79,25.52c-9.48-0.09-19.04,1.48-28.24,4.81l-18.51-20.89      l-21.87,13.57l10.62,26.17c-6.78,6.74-12.19,14.52-16.14,22.92l-28.48-1.72l-5.87,25.07l26.59,11.25      c-0.02,9.07,1.49,18.21,4.6,27.03l-21.74,19.28l13.57,21.88l27.05-10.97c6.51,6.59,13.99,11.9,22.07,15.85l-1.76,29.15      l25.06,5.87l11.31-26.76c9.08,0.13,18.24-1.26,27.1-4.27l19.13,21.59l21.87-13.57l-10.72-26.43      c6.91-6.63,12.46-14.32,16.55-22.65l28.17,1.7l5.87-25.07L1583.66,634.03z M1523.88,666.9c-19.08,11.84-44.15,5.97-55.99-13.12      c-11.84-19.09-5.97-44.17,13.11-56.01c19.08-11.84,44.15-5.97,55.99,13.12C1548.84,629.98,1542.97,655.06,1523.88,666.9z" class="colorc9e2f4 svgShape"></path><polygon fill="#a9ceea" points="1400.49 595.94 1408.96 596.45 1410.26 590.87" class="colora9ceea svgShape"></polygon><polygon fill="#a9ceea" points="1513.91 525.55 1523.69 520.48 1520.85 527.18" class="colora9ceea svgShape"></polygon><polygon fill="#a9ceea" points="1456.37 534.99 1466.15 529.92 1456.94 535.63" class="colora9ceea svgShape"></polygon><polygon fill="#a9ceea" points="1490.06 740.36 1499.84 735.28 1492.89 733.66" class="colora9ceea svgShape"></polygon><polygon fill="#a9ceea" points="1603.48 669.97 1613.26 664.89 1604.79 664.38" class="colora9ceea svgShape"></polygon><polygon fill="#a9ceea" points="1547.6 730.92 1557.38 725.84 1556.81 725.2" class="colora9ceea svgShape"></polygon></g></svg>